<svg width="327" height="327" viewBox="0 0 327 327" fill="none" xmlns="http://www.w3.org/2000/svg">
<rect width="327" height="327" rx="12" fill="#68A3A2"/>
<mask id="mask0_816_481" style="mask-type:alpha" maskUnits="userSpaceOnUse" x="0" y="0" width="327" height="327">
<rect width="327" height="327" rx="12" fill="#C94039"/>
</mask>
<g mask="url(#mask0_816_481)">
<path d="M115.889 241.401C127.584 214.41 95.2682 189.823 64.4734 179.214C20.7604 164.163 15.5849 156.135 -2.33224 146.816C-24.3382 135.365 -43.0025 131.154 -56.3419 141.192C-69.6677 151.231 -72.5611 168.618 -64.6688 176.198C-46.0453 194.115 -37.1614 198.109 -13.4575 215.048C29.9567 246.06 53.1444 252.798 67.1766 262.184C90.6904 277.928 101.897 273.69 115.889 241.401Z" fill="#A86243"/>
<path d="M125.03 245.545C136.726 218.554 -37.1753 198.111 -13.4714 215.036C29.9428 246.047 53.1305 252.785 67.1627 262.171C90.6901 277.928 111.052 277.833 125.03 245.545Z" fill="#D77E5B"/>
<path d="M-30.2476 107.682C-39.702 121.333 -54.7665 144.806 -42.0112 157.575C-32.8149 166.771 -36.7678 175.994 -23.1703 169.393C-7.88844 161.962 1.56598 127.229 1.9735 126.4C9.15939 111.852 -20.6845 93.894 -30.2476 107.682Z" fill="#7A4630"/>
<path d="M24.7811 30.5926C24.7811 30.5926 -37.0257 76.9677 -53.2584 95.1292C-69.3146 113.101 -83.2924 135.025 -73.9874 159.72C-68.3365 174.717 -61.8434 184.864 -41.7392 178.344C-18.6602 170.859 -0.892426 138.217 8.41255 117.434C20.8962 89.6006 36.9252 75.5549 46.3932 65.8425C58.5372 53.3862 57.5999 14.0475 24.7811 30.5926Z" fill="#A86243"/>
<path d="M111.935 20.989L113.035 39.7075L100.932 43.0083L91.3828 26.9523L111.935 20.989Z" fill="#273150"/>
<path d="M13.5474 54.1615L27.7018 31.5578C27.7018 31.5578 57.5048 20.4054 74.6885 19.1421C91.8721 17.8788 101.625 25.9612 101.625 25.9612L103.079 59.0924C103.242 62.828 100.77 66.224 97.3872 66.9304L92.1031 68.0307L83.9663 67.6367L83.6539 72.0787C83.5045 74.3065 82.0782 76.249 80.1085 76.9282L69.4451 80.5822L53.5791 84.0461C53.5791 84.0461 41.6117 81.0169 42.875 73.0296C44.1383 65.0422 20.7876 80.3106 13.5474 54.1615Z" fill="#A86243"/>
<path d="M-4.39709 52.9242L7.27143 72.7429L36.6127 63.275C39.1529 62.46 40.5384 58.9689 39.5468 55.8718C38.4193 52.3401 35.3359 50.5334 32.4832 51.7152L12.4605 57.3117L8.57552 48.4958L-4.39709 52.9242Z" fill="#273150"/>
<path d="M-25.8869 -17.8476C-55.6628 -6.6816 -183.433 31.7746 -183.433 31.7746C-184.262 37.9825 -182.605 64.023 -178.054 66.9164C-178.054 66.9164 -159.444 91.7207 -46.9827 67.745C84.3195 39.7484 218.963 -15.5248 218.963 -15.5248L216.817 -51.3457C216.831 -51.3321 3.87549 -29.0136 -25.8869 -17.8476Z" fill="#B44C29"/>
<path d="M-34.5805 -38.1015C-64.6281 -27.6963 -166.901 4.70132 -181.789 27.4408C-193.417 45.2085 -153.671 61.5499 -9.77631 28.0656C134.118 -5.41869 191.184 -35.4119 212.266 -45.3282C233.348 -55.258 184.351 -68.0676 93.5973 -72.822C72.8139 -73.9223 29.9294 -60.4335 -34.5805 -38.1015Z" fill="#F08650"/>
<path d="M45.3742 -29.4625C48.9195 -24.2735 40.6334 -16.0283 22.2679 -9.61679C-4.09844 -0.420658 -39.3623 1.48106 -43.614 -9.16852C-47.6213 -19.2204 -19.2717 -30.9974 7.81462 -34.4613C27.1581 -36.9471 41.9238 -34.502 45.3742 -29.4625Z" fill="#B44C29"/>
<path d="M252.121 206.164C257.405 187.649 285.945 198.761 300.195 207.713C322.866 221.935 320.489 232.504 335.853 240.518C363.604 254.999 440.394 308.031 419.434 332.169C398.488 356.308 363.319 334.845 335.88 317.743C316.237 305.504 281.381 279.287 261.766 260.093C253.602 252.105 246.837 224.679 252.121 206.164Z" fill="#A86243"/>
<path d="M414.639 367.582C424.745 351.024 435.124 336.109 421.404 319.523C399.914 293.565 383.056 307.773 368.617 325.554C354.422 343.05 354.49 348.891 341.531 366.496C328.476 384.222 303.36 409.692 303.36 409.692C303.36 409.692 282.101 428.709 292.234 442.985C302.925 458.063 310.478 458.226 322.309 451.774C339.574 442.374 407.032 380.052 414.639 367.582Z" fill="#A86243"/>
<path d="M119.719 195.949C119.719 195.949 110.55 198.082 107.779 226.961C106.543 239.825 95.9475 299.282 96.7081 340.373C97.6047 388.542 93.4888 453.663 93.4888 453.663C93.4888 453.663 127.068 443.76 176.609 439.957C226.163 436.153 286.244 456.746 286.244 456.746C305.425 459.911 285.158 401.854 280.756 379.739C275.608 353.862 282.876 307.052 278.61 272.155C272.185 219.68 263.206 209.139 262.133 204.833C259.783 195.379 229.396 195.094 208.911 192.159C178.945 187.894 141.752 192.771 119.719 195.949Z" fill="#29ACE4"/>
<path d="M95.0508 266.001C95.0508 266.001 188.087 240.314 260.652 261.505L264.374 280.767C264.374 280.767 179.407 249.945 92.5649 284.625L95.0508 266.001Z" fill="#3D4C6D"/>
<path d="M91.9536 289.122C91.9536 289.122 188.087 262.797 260.652 283.987L264.374 303.248C264.374 303.248 180.018 274.356 93.1897 309.021L91.9536 289.122Z" fill="#3D4C6D"/>
<path opacity="0.5" d="M119.719 195.95C119.719 195.95 110.55 198.083 107.779 226.962C106.543 239.826 95.9473 299.283 96.708 340.374C142.961 269.412 254.173 438.382 292.289 441.696C302.83 442.606 280.2 402.167 279.058 362.937C277.727 317.091 284.641 276.91 284.641 276.91C278.216 224.436 263.22 209.167 262.146 204.848C259.796 195.393 229.409 195.108 208.925 192.174C178.945 187.895 141.752 192.772 119.719 195.95Z" fill="#29ACE4"/>
<path d="M229.029 194.415C230.428 194.333 229.029 197.634 229.029 197.634C219.208 206.545 196.197 220.414 175.726 220.414C155.527 220.414 138.52 219.137 134.132 206.178C132.244 200.595 141.168 193.247 141.168 193.247C141.168 193.247 157.211 190.503 175.699 189.932C193.738 189.362 227.63 194.496 229.029 194.415Z" fill="#7A4630"/>
<path d="M175.006 202.267C158.773 201.751 159.276 189.213 159.398 181.348L161.001 155.674C161.096 149.426 167.63 144.25 177.736 144.549L195.192 144.821C204.999 145.12 209.808 150.512 210.704 156.571C210.704 156.571 213.584 183.63 212.579 192.065C211.547 200.623 191.252 202.769 175.006 202.267Z" fill="#7A4630"/>
<path d="M289.953 254.864C289.953 254.864 294.476 311.795 286.666 304.541C258.194 278.079 262.581 228.633 264.768 215.416C266.955 202.199 273.19 197.132 281.735 202.878C294.884 211.681 289.953 254.864 289.953 254.864Z" fill="#A86243"/>
<path d="M109.681 188.302C117.206 188.533 127.163 190.801 125.384 194.727C120.005 206.613 111.542 236.145 107.113 260.799C101.924 289.679 97.2651 315.964 95.0238 335.864C93.9914 345.047 85.9633 352.314 78.8182 347.179C76.7942 345.726 75.2728 343.688 74.7973 340.849C72.9363 329.48 66.4704 279.953 93.1356 198.775C96.4365 188.75 101.761 188.058 109.681 188.302Z" fill="#634874"/>
<path d="M275.581 194.74C270.623 190.882 249.935 186.657 242.26 189.021C234.585 191.384 236.826 225.209 246.389 263.434C255.64 300.383 269.944 348.28 277.578 356.729C279.086 358.386 281.205 359.242 283.392 359.093C287.983 358.767 295.291 357.164 294.911 350.222C294.368 340.157 286.312 295.71 280.077 247.391C274.78 206.205 280.39 198.475 275.581 194.74Z" fill="#634874"/>
<path d="M240.385 107.328C238.591 155.388 228.567 170.466 196.59 171.009C172.411 171.417 152.795 142.497 152.795 107.328C152.795 72.1592 172.411 43.6465 196.59 43.6465C220.769 43.6465 241.987 64.0631 240.385 107.328Z" fill="#273150"/>
<path d="M226.895 96.4336C226.665 64.9056 223.228 46.8663 188.358 44.2989C170.155 42.9677 152.238 44.6249 141.684 50.0856C132.148 55.0301 126.388 62.7186 123.06 83.4067C120.547 98.9873 117.015 125.938 122.231 152.032C125.573 168.754 147.022 175.084 165.931 176.388C214.751 179.757 222.25 166.784 225.292 143.773C229.395 112.625 226.977 109.379 226.895 96.4336Z" fill="#7A4630"/>
<path d="M220.579 115.518C220.28 88.1867 209.047 76.3142 177.654 73.9913C161.272 72.7824 128.996 81.2181 127.489 99.3121C125.872 118.9 123.522 135.962 127 152.915C129.988 167.491 145.623 172.598 162.657 173.794C206.615 176.864 216.626 161.976 219.221 142.034C221.435 125.054 220.702 126.738 220.579 115.518Z" fill="#A96344"/>
<path d="M134.185 49.6234C131.265 51.3893 130.137 53.1416 128.072 64.416C127.638 66.7932 132.012 57.6106 135.951 54.0245C139.89 50.4384 138.98 55.2471 159.601 54.7445C180.221 54.2419 209.454 50.6965 209.454 50.6965L212.32 79.1951L222.97 103.945L229.395 90.2794C230.359 66.0189 225.985 51.8919 210.051 46.5399C180.887 36.7325 144.903 43.1304 134.185 49.6234Z" fill="#273150"/>
<path d="M185.899 74.5499C185.532 79.3586 183.264 83.067 180.819 82.8768C178.374 82.6866 176.662 78.6794 176.975 73.8707C177.287 69.0077 179.569 65.1635 182.069 65.3537C184.555 65.5439 186.266 69.6869 185.899 74.5499Z" fill="#102342"/>
<path d="M175.942 64.9731L188.236 61.0759" stroke="#273150" stroke-miterlimit="10" stroke-linecap="round" stroke-linejoin="round"/>
<path d="M151.41 75.76C151.247 80.2972 149.263 83.7883 146.981 83.6117C144.685 83.4352 142.92 79.6587 143.028 75.1215C143.137 70.5436 145.12 66.9302 147.457 67.1068C149.807 67.2834 151.573 71.1821 151.41 75.76Z" fill="#102342"/>
<path d="M150.214 64.9736L139.17 61.8225" stroke="#273150" stroke-miterlimit="10" stroke-linecap="round" stroke-linejoin="round"/>
<path d="M242.503 117.068C239.298 130.067 230.088 139.195 221.842 137.864C221.842 137.864 222.1 108.388 221.978 102.764C221.897 99.2328 223.934 88.3389 232.723 89.7787C241.485 91.205 245.818 103.62 242.503 117.068Z" fill="#7A4630"/>
<path d="M237.858 126.346C237.396 129.484 234.421 131.78 231.215 131.521C228.009 131.263 225.727 128.533 226.148 125.395C226.556 122.23 229.544 119.866 232.804 120.124C236.051 120.396 238.319 123.194 237.858 126.346Z" fill="#E2D6C9"/>
</g>
</svg>
