<svg width="327" height="327" viewBox="0 0 327 327" fill="none" xmlns="http://www.w3.org/2000/svg">
<rect width="327" height="327" rx="12" fill="#A36EBA"/>
<mask id="mask0_816_324" style="mask-type:alpha" maskUnits="userSpaceOnUse" x="0" y="0" width="327" height="327">
<rect width="327" height="327" rx="12" fill="#A36EBA"/>
</mask>
<g mask="url(#mask0_816_324)">
<path d="M-229.601 447.143C-229.601 447.143 355.896 255.786 418.725 230.078C481.554 204.37 504.406 190.088 475.841 164.392C447.277 138.697 398.73 158.68 398.73 158.68C398.73 158.68 475.841 115.833 447.289 64.4294C418.737 13.0259 344.47 33.0085 347.326 81.568C347.326 81.568 418.725 -178.331 253.076 -201.182C87.4271 -224.034 7.44656 -75.5114 53.1497 1.60008C53.1497 1.60008 -3.96674 18.7388 -1.11029 90.1374C-1.11029 90.1374 -66.7961 98.7067 -109.643 141.541C-152.49 184.375 -126.781 224.365 -126.781 224.365C-126.781 224.365 -183.898 212.939 -223.888 272.925C-263.878 332.91 -221.032 390.027 -221.032 390.027C-221.032 390.027 -301 438.586 -301 455.712C-301.012 472.851 -229.601 447.143 -229.601 447.143Z" fill="#F3E7D9" fill-opacity="0.2"/>
<path d="M115.352 183.749C111.544 174.867 109.64 168.202 92.5009 174.867C75.3622 181.532 57.2714 200.249 50.6064 202.153C43.9413 204.058 43.9413 214.532 43.9413 214.532C43.9413 214.532 43.6281 214.845 37.5895 216.123C31.5634 217.388 27.7548 222.149 24.5726 225.644C21.403 229.14 12.5079 231.67 8.69928 235.805C4.89069 239.927 -20.4916 258.017 -2.08754 294.826C5.7301 310.461 10.6036 303.708 30.9119 292.283C51.2202 280.857 83.9065 249.761 98.8277 239.601C113.761 229.453 119.249 192.87 115.352 183.749Z" fill="#273252"/>
<path d="M115.352 183.747C111.544 174.865 109.64 168.2 92.5009 174.865C92.5009 174.865 89.9451 188.395 82.6662 207.564C75.3998 226.732 64.1619 235.314 64.1619 235.314L50.2806 255.134C50.2806 255.134 51.4708 246.351 48.3011 249.847C45.1315 253.342 32.9414 257.614 29.1328 261.736C25.3242 265.858 7.98511 305.347 7.98511 305.347C7.98511 305.347 10.616 303.693 30.9244 292.267C51.2327 280.842 83.919 249.746 98.8402 239.586C113.761 229.451 119.249 192.868 115.352 183.747Z" fill="#1D2538"/>
<path d="M16.3411 300.536C16.3411 300.536 21.415 301.802 21.415 273.25C21.415 248.82 8.77403 247.366 4.91532 237.707C-6.51047 209.143 -4.55606 223.437 -13.4887 204.069C-24.9145 179.313 -29.9885 163.452 -50.9358 172.335C-76.6688 183.247 -80.7656 188.834 -78.2223 197.717C-75.6791 206.599 -73.7748 201.526 -71.8705 207.877C-69.9662 214.229 -57.9015 238.973 -52.8275 251.676C-47.7536 264.367 -42.6671 270.08 -42.6671 270.08C-42.6671 270.08 -35.6888 284.049 -31.2413 291.027C-26.8188 297.993 -6.51048 318.94 16.3411 300.536Z" fill="#C94039"/>
<path d="M16.3419 300.536C16.3419 300.536 21.4158 301.801 21.4158 273.249C21.4158 273.249 6.0186 277.622 -4.55527 274.314C-15.1291 271.007 -20.7293 254.031 -29.662 234.663C-41.0877 209.907 -52.7891 226.732 -52.7891 226.732C-52.7891 226.732 -80.7523 188.834 -78.2216 197.717C-75.6783 206.599 -73.774 201.525 -71.8697 207.877C-69.9654 214.229 -57.9007 238.972 -52.8267 251.676C-47.7528 264.367 -42.6663 270.08 -42.6663 270.08C-42.6663 270.08 -35.6881 284.049 -31.2405 291.027C-26.818 297.993 -6.50969 318.94 16.3419 300.536Z" fill="#992C29"/>
<path opacity="0.9" d="M-55.3846 28.7359C-81.4684 37.4305 -112.501 27.3076 -139.487 -1.34459C-162.501 -25.7748 -150.587 -84.1316 -150.587 -84.1316C-150.587 -84.1316 -146.365 -67.5817 -136.417 -56.5693C-126.47 -45.5569 -119.705 -70.6762 -133.411 -96.6098C-147.117 -122.543 -134.676 -140.772 -134.676 -140.772L-119.066 -115.979C-119.066 -115.979 -104.571 -175.388 -81.6438 -198.941C-58.7171 -222.494 -83.0971 -192.038 -67.4994 -165.866C-51.9017 -139.695 -45.7378 -168.297 -40.4133 -156.307C-21.1072 -129.772 -26.8201 -89.7819 -26.8201 -89.7819L1.74442 -108.349C1.73189 -108.361 13.1577 5.88425 -55.3846 28.7359Z" fill="#F7BC4B"/>
<path opacity="0.4" d="M-32.5318 38.7205C-52.527 48.718 -149.634 64.4285 -183.899 -38.3909C-218.163 -141.21 -118.062 -254.428 4.58946 -246.886C97.4115 -241.173 101.696 -314 101.696 -314C101.696 -314 130.261 -235.46 90.2704 -205.468C10.0017 -145.269 23.1564 -115.502 20.2999 -61.2299C17.4435 -6.97003 -12.5367 28.7355 -32.5318 38.7205Z" fill="#FEED7F"/>
<path d="M129.622 162.337C116.63 139.247 169.437 118.563 198.39 114.216C216.318 111.523 237.916 118.914 244.118 126.243C246.235 128.761 256.37 143.595 258.776 152.014C261.407 161.209 260.167 202.765 243.542 202.465C220.778 202.064 142.626 185.414 129.622 162.337Z" fill="#992C29"/>
<path d="M151.471 167.159C144.255 151.512 163.799 127.634 187.565 121.433C215.24 114.217 236.099 125.354 238.104 134.662C240.109 143.983 221.579 159.367 203.564 167.247C185.548 175.127 154.691 174.125 151.471 167.159Z" fill="#F3E7D9"/>
<path d="M197.375 156.773C213.862 143.631 218.572 144.909 218.159 134.247C217.495 117.021 176.728 132.268 168.309 134.673C159.89 137.079 144.693 162.261 153.864 176.793C163.047 191.314 180.887 169.915 197.375 156.773Z" fill="#273252"/>
<path d="M202.776 159.957C202.776 159.957 167.534 154.908 132.881 163.69C115.805 168.012 92.4519 200.423 92.4519 241.328C92.4519 282.233 104.479 396.554 104.479 396.554L251.273 394.149C251.273 394.136 246.099 167.173 202.776 159.957Z" fill="#F7BC4B"/>
<path d="M181.139 340.227L137.528 267.375L132.893 163.692C115.817 168.014 92.4641 200.425 92.4641 241.329C92.4641 282.234 104.491 396.553 104.491 396.553L251.285 394.148C251.285 394.148 196.01 366.999 173.71 355.11C157.786 346.616 158.839 331.319 158.839 331.319L181.139 340.227Z" fill="#CE9436"/>
<path d="M184.998 166.295C184.998 178.649 173.246 202.002 161.67 202.002C150.106 202.002 138.58 186.04 138.58 173.675C138.58 161.322 150.257 158.991 161.82 158.991C173.409 159.004 184.998 156.623 184.998 166.295Z" fill="#F5894E"/>
<path d="M137.879 162.964C131.69 155.346 91.9879 166.572 85.9744 179.802C84.0951 183.936 87.1896 200.837 86.4755 210.86C84.8844 232.909 81.5143 254.132 83.9949 262.401C87.603 274.428 92.5141 331.996 87.7033 346.429C82.8924 360.874 92.5141 393.36 97.325 400.576C102.136 407.792 140.648 399.374 140.648 399.374L134.546 345.664C134.546 345.664 117.997 303.306 117.884 271.321C117.784 239.349 140.247 165.883 137.879 162.964Z" fill="#C94039"/>
<path d="M137.879 162.964C131.69 155.346 106.859 177.81 100.845 191.04C94.8319 204.27 113.737 326.847 113.737 326.847C113.737 326.847 122.657 343.697 124.148 345.188C125.639 346.679 116.218 345.689 116.218 345.689L140.648 399.398L134.547 345.689C134.547 345.689 117.997 303.331 117.884 271.346C117.784 239.349 140.247 165.883 137.879 162.964Z" fill="#992C29"/>
<path d="M144.068 161.773C129.159 178.699 151.547 241.591 161.207 239.511C170.866 237.419 195.96 162.863 178.909 157.338" stroke="#992C29" stroke-miterlimit="10"/>
<path d="M163.885 251.84C165.765 251.401 166.607 248.123 165.766 244.518C164.925 240.914 162.719 238.347 160.839 238.785C158.959 239.224 158.117 242.502 158.958 246.107C159.799 249.712 162.005 252.278 163.885 251.84Z" fill="#29ABE2"/>
<path d="M140.247 157.588C129.949 157.738 126.616 160.908 121.217 165.343C115.817 169.79 113.562 177.896 109.954 198.342C106.346 218.801 112.823 256.737 118.836 256.737C124.85 256.737 125 228.523 129.811 210.47C134.622 192.429 150.533 157.437 140.247 157.588Z" fill="#F3E7D9"/>
<path d="M196.9 160.108C189.283 169.153 188.205 230.492 191.813 262.977C195.422 295.463 217.083 338.785 219.488 359.231C221.894 379.69 223.097 398.933 227.907 402.554C232.718 406.175 287.98 403.193 287.98 403.193C287.98 403.193 307.975 374.629 277.983 328.938C259.454 300.7 266.156 175.255 250.521 169.241C234.873 163.215 204.517 151.063 196.9 160.108Z" fill="#992C29"/>
<path d="M200.959 208.88C193.342 217.925 188.206 230.491 191.814 262.977C195.422 295.463 217.083 338.786 219.489 359.232C221.894 379.691 223.097 398.934 227.908 402.555C232.718 406.175 253.165 400.525 239.283 347.656C237.467 340.74 222.759 270.669 226.73 243.571C229.16 226.996 208.577 199.834 200.959 208.88Z" fill="#C94039"/>
<path d="M190.71 252.929C185.311 248.482 184.521 243.596 184.521 226.745C184.521 209.895 186.35 183.41 189.282 165.344C192.138 147.729 226.09 149.32 219.751 162.011C211.394 178.724 206.984 186.467 203.564 213.415C199.756 243.408 196.11 257.377 190.71 252.929Z" fill="#F3E7D9"/>
<path d="M209.879 260.434C209.879 260.434 212.359 298.594 238.631 302.065C238.631 302.065 223.422 286.204 209.879 260.434Z" fill="#C94039"/>
<path d="M269.576 271.338C263.55 258.647 262.974 255.603 245.459 234.843C219.751 204.374 211.195 186.583 226.416 166.3C234.472 155.563 249.268 152.018 267.359 167.252C274.638 173.379 287.642 196.431 294.971 207.243C305.708 223.079 318.812 241.721 322.257 249.764C325.703 257.808 324.162 259.925 316.244 260.526C304.555 261.428 290.423 261.729 286.364 267.417C280.614 275.473 274.813 282.376 269.576 271.338Z" fill="#273252"/>
<path d="M322.257 249.76C318.812 241.717 305.695 223.075 294.971 207.239C287.642 196.427 274.638 173.388 267.359 167.249C249.268 152.015 234.472 155.56 226.417 166.297L247.877 172.536C247.877 172.536 256.484 179.777 266.144 189.888C270.027 192.531 275.314 196.327 280.927 200.95C292.165 210.196 292.816 217.475 292.816 217.475L286.214 214.831C290.436 220.106 285.437 213.441 288.193 218.79C299.281 240.313 288.92 245.137 284.886 251.175C279.599 259.106 280.614 275.467 286.364 267.412C290.423 261.724 304.555 261.411 316.244 260.521C324.162 259.92 325.703 257.803 322.257 249.76Z" fill="#1D2538"/>
<path d="M275.291 275.468C276.556 282.446 278.661 282.584 282.269 284.99C285.877 287.395 293.457 305.536 298.267 322.386C303.078 339.237 307.889 344.048 306.687 348.859C305.484 353.669 306.687 358.48 310.295 359.683C313.903 360.886 329.551 354.872 336.767 359.683C343.983 364.494 347.592 376.533 353.618 376.533C359.644 376.533 358.429 368.114 356.023 364.506C353.618 360.898 352.415 345.25 350.01 328.412C347.604 311.562 329.877 267.55 326.694 262.476C321.395 253.995 314.642 254.07 299.721 255.172C291.151 255.786 274.025 268.477 275.291 275.468Z" fill="#C94039"/>
<path d="M275.291 275.468C276.556 282.446 278.661 282.584 282.269 284.99C285.877 287.395 293.457 305.536 298.267 322.386C303.078 339.237 307.889 344.048 306.687 348.859C305.484 353.669 306.687 358.48 310.295 359.683C313.903 360.886 329.551 354.872 336.767 359.683C343.983 364.494 347.592 376.533 353.618 376.533C359.644 376.533 358.429 368.114 356.023 364.506C353.618 360.898 352.415 345.25 350.01 328.412C347.604 311.562 329.877 267.55 326.694 262.476C321.395 253.995 314.642 254.07 299.721 255.172C291.151 255.786 274.025 268.477 275.291 275.468Z" fill="#992C29"/>
<path d="M275.289 275.468C276.554 282.446 278.659 282.584 282.267 284.99C285.875 287.395 293.455 305.537 298.266 322.388C303.077 339.239 307.887 344.05 306.685 348.86C305.482 353.671 306.685 358.482 310.293 359.685C313.901 360.888 313.463 337.748 309.742 322.388C306.021 307.027 307.599 298.683 295.447 279.602C292.941 275.656 286.878 260.271 281.49 264.894C276.98 268.765 274.713 272.286 275.289 275.468Z" fill="#C94039"/>
<path d="M138.506 121.52L143.955 172.898C143.955 172.898 148.127 182.858 163.424 181.743C178.721 180.641 181.503 168.476 181.503 168.476L175.94 110.959L138.506 121.52Z" fill="#F5894E"/>
<path d="M138.506 121.52C138.506 121.52 154.454 155.171 161.608 161.36C168.761 167.548 183.607 168.476 183.607 168.476L177.769 110.959L138.506 121.52Z" fill="#CC6D3D"/>
<path d="M207.498 104.618C192.753 139.334 179.911 146.826 179.911 146.826C125.463 152.451 96.9988 114.49 99.6172 80.1256C101.008 44.5204 108.224 31.4661 147.162 30.4012C201.397 28.9228 220.628 73.6986 207.498 104.618Z" fill="#1D2538"/>
<path d="M207.498 104.619C192.752 139.335 179.911 146.827 179.911 146.827C125.463 152.453 96.9988 114.492 99.6172 80.1266C101.008 44.5211 103.213 27.1945 148.377 23.4485C211.094 18.2492 220.628 73.6996 207.498 104.619Z" fill="#1D2538"/>
<path d="M211.156 104.983C198.59 134.587 157.448 113.076 157.448 113.076C149.104 107.99 145.871 78.1723 144.005 58.4527C142.389 41.4517 132.642 25.4405 179.497 30.1386C221.141 34.3231 222.344 78.6359 211.156 104.983Z" fill="#3E4C6F"/>
<path d="M147.426 34.5737C147.426 34.5737 118.248 49.9083 113.336 55.3706C108.425 60.833 104.629 119.44 113.975 137.944C123.184 156.198 182.994 153.504 196.424 140.149C207.424 129.212 204.705 118.325 207.011 100.284C209.441 81.2791 196.337 68.9638 194.896 61.5972C192.44 48.9938 147.426 34.5737 147.426 34.5737Z" fill="#CC6D3D"/>
<path d="M214.026 93.0682C211.658 103.792 206.184 112.061 201.774 111.56C197.351 111.059 195.672 101.913 198.028 91.0887C200.395 80.2392 205.933 71.8953 210.368 72.4842C214.778 73.073 216.407 82.3064 214.026 93.0682Z" fill="#CC6D3D"/>
<path d="M118.222 86.3027C108.75 92.4917 105.681 133.221 122.168 141.953C138.655 150.686 153.389 147.967 164.802 137.794C174.787 128.899 169.099 107.513 155.243 97.7786C138.28 85.8641 127.693 80.1137 118.222 86.3027Z" fill="#F5894E"/>
<path d="M96.6611 92.8546C98.3273 102 103.226 109.079 107.636 108.678C112.058 108.277 114.326 100.51 112.672 91.2886C111.018 82.0425 106.057 74.9013 101.622 75.3649C97.1998 75.8409 94.9823 83.6838 96.6611 92.8546Z" fill="#F5894E"/>
<path d="M197.088 49.8076C197.088 49.8076 194.207 77.733 197.501 86.0016L204.868 98.2417L207.349 58.615L197.088 49.8076Z" fill="#3E4C6F"/>
<path d="M106.747 98.1675C106.747 98.1675 106.22 70.3545 107.837 62.0107L111.282 49.5825L111.332 89.097L106.747 98.1675Z" fill="#1D2538"/>
<path d="M196.461 44.5332C196.461 44.5332 186.4 55.7086 152.762 56.1095C136.062 56.31 121.88 62.499 113.762 60.8953C93.8291 56.9364 127.267 19.2508 161.544 17.6972C196.223 16.1312 196.461 44.5332 196.461 44.5332Z" fill="#1D2538"/>
<path d="M161.745 17.2715C134.258 19.6519 105.656 45.1353 121.705 48.305C126.265 49.2071 133.519 50.4098 142.326 51.362C157.799 48.9315 173.885 40.9256 173.885 40.9256C172.87 48.4053 164.263 51.4247 154.93 52.452C162.835 52.9532 171.392 53.1662 180.049 52.7903C194.281 52.1764 195.772 52.9156 196.749 48.1797C198.704 38.5702 191.45 14.6905 161.745 17.2715Z" fill="#3E4C6F"/>
<path d="M175.813 97.542C176.051 101.564 174.259 103.443 172.242 103.568C170.225 103.693 168.759 102.002 168.521 97.9805C168.283 93.9591 169.711 90.5891 171.728 90.4763C173.746 90.3636 175.562 93.5081 175.813 97.542Z" fill="#34283A"/>
<path d="M142.113 99.946C142.351 103.967 140.559 105.846 138.542 105.971C136.525 106.097 135.059 104.406 134.821 100.384C134.583 96.3634 136.011 92.9938 138.028 92.881C140.045 92.7558 141.875 95.9125 142.113 99.946Z" fill="#34283A"/>
<path d="M181.2 84.2354C181.2 84.2354 177.254 77.1328 170.839 79.0619" stroke="#34283A" stroke-width="2" stroke-miterlimit="10" stroke-linecap="round" stroke-linejoin="round"/>
<path d="M135.485 81.5803C135.485 81.5803 127.88 81.029 126.101 87.0676" stroke="#34283A" stroke-width="2" stroke-miterlimit="10" stroke-linecap="round" stroke-linejoin="round"/>
</g>
</svg>
