<svg width="327" height="327" viewBox="0 0 327 327" fill="none" xmlns="http://www.w3.org/2000/svg">
<rect width="327" height="327" rx="12" fill="#F5C466"/>
<mask id="mask0_816_644" style="mask-type:alpha" maskUnits="userSpaceOnUse" x="0" y="0" width="327" height="327">
<rect width="327" height="327" rx="12" fill="#F5C466"/>
</mask>
<g mask="url(#mask0_816_644)">
<path d="M133.79 224.492L118.134 221.743C117.62 216.938 116.578 212.269 115.031 207.794L128.035 198.673C128.913 198.062 129.126 196.841 128.51 195.968L110.454 170.241C109.843 169.359 108.626 169.145 107.753 169.766L94.7493 178.891C91.0692 175.904 87.0303 173.344 82.6908 171.22L85.44 155.559C85.6242 154.517 84.9115 153.504 83.8593 153.319L52.8913 147.884C51.8391 147.7 50.8307 148.413 50.6464 149.45L47.8972 165.111C43.0923 165.63 38.4182 166.672 33.9381 168.219L24.8179 155.21C24.2167 154.328 22.9997 154.114 22.1221 154.735L-3.61432 172.782C-4.49677 173.393 -4.71009 174.614 -4.08947 175.487L5.0356 188.491C2.06341 192.176 -0.5112 196.21 -2.63004 200.555L-18.291 197.805C-19.3383 197.621 -20.3517 198.324 -20.5359 199.381L-25.9712 230.349C-26.1555 231.397 -25.4427 232.42 -24.3954 232.604L-8.73444 235.353C-8.22534 240.148 -7.17805 244.818 -5.63134 249.298L-18.6401 258.413C-19.5226 259.039 -19.7359 260.241 -19.1153 261.124L-1.0591 286.855C-0.443325 287.728 0.773674 287.941 1.63672 287.33L14.6407 278.215C18.3305 281.177 22.3693 283.752 26.7088 285.876L23.9645 301.522C23.7803 302.57 24.4882 303.578 25.5403 303.762L56.5084 309.198C57.5605 309.382 58.5739 308.674 58.7533 307.627L61.4976 291.98C66.2977 291.461 70.9717 290.414 75.447 288.882L84.5721 301.876C85.183 302.744 86.4 302.957 87.2727 302.351L113.009 284.305C113.887 283.694 114.1 282.482 113.484 281.599L104.364 268.59C107.346 264.905 109.911 260.871 112.03 256.537L127.686 259.286C128.733 259.47 129.747 258.748 129.931 257.7L135.366 226.732C135.545 225.675 134.838 224.676 133.79 224.492ZM49.0803 260.551C31.4023 257.448 19.5814 240.604 22.6845 222.921C25.7876 205.243 42.6316 193.422 60.3145 196.525C77.9925 199.628 89.8134 216.473 86.7103 234.156C83.6072 251.834 66.7583 263.655 49.0803 260.551Z" fill="#F4E8D8" fill-opacity="0.3"/>
<path d="M346.916 66.4142L320.612 70.3852C317.237 63.0396 313.101 56.1788 308.263 49.8998L324.04 28.503C325.107 27.0678 324.796 25.0168 323.351 23.955L281.009 -7.26034C279.569 -8.33673 277.527 -8.02642 276.475 -6.57668L260.693 14.8202C253.265 12.0371 245.488 10.1219 237.478 9.06491L233.502 -17.2533C233.24 -18.9988 231.572 -20.2303 229.807 -19.9637L177.772 -12.0992C176.007 -11.8326 174.781 -10.1646 175.047 -8.41915L179.023 17.8991C171.677 21.2785 164.817 25.4241 158.528 30.2582L137.131 14.476C135.706 13.3996 133.664 13.7099 132.603 15.1596L101.368 57.4879C100.296 58.9279 100.607 60.9789 102.056 62.0359L123.458 77.8133C120.699 85.2413 118.765 93.0185 117.717 101.033L91.4089 105.009C89.644 105.276 88.4125 106.924 88.6791 108.704L96.5387 160.734C96.8054 162.489 98.4733 163.74 100.238 163.474L126.547 159.498C129.907 166.834 134.052 173.69 138.886 179.973L123.099 201.361C122.033 202.82 122.338 204.842 123.788 205.918L166.131 237.133C167.571 238.186 169.617 237.88 170.659 236.45L186.441 215.068C193.874 217.807 201.652 219.742 209.671 220.803L213.642 247.097C213.909 248.853 215.572 250.084 217.332 249.817L269.362 241.958C271.127 241.691 272.359 240.028 272.092 238.268L268.121 211.974C275.462 208.595 282.323 204.444 288.606 199.634L309.998 215.402C311.429 216.459 313.475 216.149 314.532 214.718L345.766 172.385C346.833 170.95 346.528 168.909 345.078 167.837L323.686 152.05C326.455 144.617 328.379 136.845 329.436 128.845L355.74 124.874C357.5 124.607 358.722 122.925 358.455 121.169L350.596 69.1391C350.334 67.3597 348.671 66.1475 346.916 66.4142ZM232.523 174.203C199.785 179.149 169.239 156.618 164.293 123.885C159.347 91.1469 181.879 60.6007 214.612 55.6551C247.35 50.7096 277.896 73.241 282.841 105.974C287.787 138.712 265.26 169.258 232.523 174.203Z" fill="#F4E8D8" fill-opacity="0.3"/>
<path d="M16.4447 199.248C17.3805 199.248 17.3805 197.791 16.4447 197.791C15.509 197.791 15.509 199.248 16.4447 199.248Z" fill="#F4E8D8" fill-opacity="0.3"/>
<path d="M208.338 206.638C227.973 208.044 275.691 250.268 309.291 286.03C352.755 332.295 406.144 381.395 428 391.189C455.114 403.346 485.488 419.236 498.106 419.236C498.106 419.236 439.685 481.462 415.843 502.491C392.002 523.521 404.632 481.462 373.785 502.491C342.938 523.521 290.589 585.628 290.589 585.628C290.589 585.628 263.475 577.618 223.283 540.758C170.78 492.615 87.2771 280.43 98.9614 243.51C110.658 206.579 189.636 201.499 208.338 206.638Z" fill="#992C29"/>
<path d="M208.338 206.639C227.973 208.045 277.097 247.989 310.697 283.75C354.162 330.015 412.926 380 434.865 389.629C459.947 400.628 511.209 422.567 523.826 422.567L499.052 440.737C499.052 440.737 442.804 437.358 398.099 388.388C344.013 329.152 254.367 226.393 208.338 206.639Z" fill="#29ACE4"/>
<path d="M118.644 234.933C118.644 234.933 68.847 235.689 45.6438 227.384C22.4406 219.078 28.9738 130.755 75.1321 119.118C127.871 105.816 191.243 134.229 226.296 157.066C261.349 179.903 247.112 214.057 196.382 230.148C144.907 246.464 118.644 234.933 118.644 234.933Z" fill="#229BC6"/>
<path d="M229.072 189.414C229.072 217.768 136.885 219.198 108.779 219.198C80.6733 219.198 57.8835 196.207 57.8835 167.853C57.8835 139.498 80.6733 116.508 108.779 116.508C136.885 116.508 229.072 161.059 229.072 189.414Z" fill="#992C29"/>
<path d="M249.44 254.9C249.44 254.9 272.808 309.14 277.782 320.847C287.045 342.645 267.976 353.549 254.898 342.645C241.82 331.74 215.663 281.057 210.76 269.077C205.845 257.086 235.818 239.093 249.44 254.9Z" fill="#CE6D3E"/>
<path d="M256.174 269.631C256.174 269.631 273.6 310.214 277.888 321.154C282.957 334.09 268 341.64 261.301 333.724C253.126 324.072 246.498 257.179 256.174 269.631Z" fill="#F6874E"/>
<path d="M199.772 206.331C208.09 201.18 227.619 211.352 239.019 232.831C251.649 256.625 255.146 266.572 255.146 266.572C255.146 266.572 241.347 264.198 234.542 270.329C223.484 280.289 214.859 291.536 214.859 291.536C214.859 291.536 202.1 265.71 195.295 248.343C188.998 232.205 189.033 212.994 199.772 206.331Z" fill="#C93F37"/>
<path d="M338.602 410.422C344.225 425.473 330.155 431.298 321.743 424.741C313.331 418.196 296.768 394.461 277.416 373.42C255.134 349.212 247.041 337.339 261.23 326.978C275.419 316.605 276.081 317.633 298.93 350.169C314.631 372.522 335.944 403.333 338.602 410.422Z" fill="#CE6D3E"/>
<path d="M320.822 387.502C310.224 402.873 268.863 345.703 268.863 345.703C255.701 328.762 257.096 328.726 263.487 324.591C276.424 318.046 276.648 318.98 291.924 340.092C303.963 356.726 324.153 382.658 320.822 387.502Z" fill="#F6874E"/>
<path d="M234.932 149.375C232.332 186.082 200.044 191.623 162.723 194.955C140.287 196.963 116.387 188.126 100.875 172.803C90.5849 162.642 83.9808 149.623 83.9571 135.032C83.8862 98.4426 125.165 65.7757 162.486 62.444C199.796 59.1123 237.72 109.938 234.932 149.375Z" fill="#273150"/>
<path d="M163.996 73.3894C174.696 57.8153 175.973 40.1068 166.847 33.8364C157.721 27.5659 141.648 35.1079 130.947 50.682C120.246 66.2561 118.97 83.9647 128.096 90.2352C137.222 96.5056 153.295 88.9635 163.996 73.3894Z" fill="#273150"/>
<path d="M133.592 52.9165C135.034 34.5601 128.567 19.0795 119.148 18.3397C109.73 17.5999 100.926 31.8811 99.4838 50.2375C98.0421 68.5939 104.509 84.0745 113.927 84.8142C123.346 85.554 132.15 71.273 133.592 52.9165Z" fill="#273150"/>
<path d="M133.548 108.854C140.889 88.7436 134.666 67.9972 119.649 62.5157C104.632 57.0342 86.5072 68.8934 79.1664 89.0039C71.8256 109.114 78.0485 129.861 93.0656 135.342C108.083 140.824 126.207 128.965 133.548 108.854Z" fill="#273150"/>
<path d="M114.574 188.46C135.502 178.475 144.455 153.586 134.571 132.87C124.687 112.154 99.7082 103.455 78.7799 113.44C57.8516 123.425 48.8986 148.314 58.7827 169.03C68.6669 189.746 93.6453 198.445 114.574 188.46Z" fill="#273150"/>
<path d="M214.916 132.656C230.855 119.038 230.709 92.704 214.59 73.838C198.471 54.9721 172.482 50.718 156.543 64.3364C140.604 77.9547 140.75 104.288 156.869 123.154C172.988 142.02 198.977 146.274 214.916 132.656Z" fill="#273150"/>
<path d="M234.624 147.19C232.51 177.15 206.152 181.663 175.707 184.381C157.395 186.011 137.889 178.804 125.236 166.305C116.836 158.011 111.461 147.39 111.437 135.482C111.378 105.627 145.061 78.9743 175.518 76.2452C205.951 73.5398 236.893 115.019 234.624 147.19Z" fill="#48598B"/>
<path d="M162.621 78.5003C171.814 65.1204 172.906 49.9035 165.06 44.5125C157.214 39.1215 143.4 45.5977 134.207 58.9776C125.014 72.3575 123.922 87.5744 131.768 92.9654C139.614 98.3565 153.428 91.8802 162.621 78.5003Z" fill="#48598B"/>
<path d="M131.4 64.1276C132.382 51.6126 127.975 41.0584 121.555 40.5542C115.135 40.0499 109.133 49.7866 108.15 62.3015C107.167 74.8164 111.575 85.3706 117.995 85.8748C124.415 86.3791 130.417 76.6425 131.4 64.1276Z" fill="#48598B"/>
<path d="M140.955 108.886C148.725 87.5982 144.565 66.5234 131.662 61.8137C118.76 57.1041 102.001 70.543 94.2306 91.8306C86.4603 113.118 90.6206 134.193 103.523 138.903C116.426 143.612 133.184 130.173 140.955 108.886Z" fill="#48598B"/>
<path d="M123.869 180.809C141.853 172.228 149.546 150.841 141.053 133.04C132.559 115.238 111.095 107.763 93.1113 116.344C75.1273 124.924 67.4337 146.311 75.9271 164.113C84.4205 181.914 105.885 189.389 123.869 180.809Z" fill="#48598B"/>
<path d="M207.607 132.849C221.304 121.146 221.179 98.5169 207.327 82.305C193.476 66.0931 171.143 62.4375 157.446 74.14C143.749 85.8426 143.875 108.472 157.726 124.684C171.578 140.896 193.91 144.551 207.607 132.849Z" fill="#48598B"/>
<path d="M207.405 335.165C187.451 356.099 128.568 334.421 126.075 314.537C125.012 306.079 121.952 286.432 112.985 250.564C107.374 228.129 106.44 220.781 108.933 217.626C115.478 209.345 140.111 206.403 165.334 202.587C206.932 196.278 209.886 206.238 223.602 225.565C240.307 249.135 246.664 293.981 207.405 335.165Z" fill="#F6BE4A"/>
<path d="M139.626 251.91C119.672 272.845 128.568 334.422 126.075 314.538C125.012 306.079 121.952 286.431 112.985 250.563C107.374 228.128 106.44 220.779 108.933 217.625C115.478 209.343 140.111 206.401 165.334 202.585C206.932 196.276 209.85 206.105 224.346 226.32C241.17 249.795 178.885 210.725 139.626 251.91Z" fill="#D09435"/>
<path d="M127.942 294.915C124.823 306.599 125.402 336.43 126.382 318.591C126.855 310.085 112.985 248.698 112.985 248.698L177.479 226.05L135.101 264.375C135.113 264.375 131.061 283.231 127.942 294.915Z" fill="#D09435"/>
<path d="M119.53 324.828C119.53 324.828 36.7597 440.773 30.888 456.025C25.0045 471.325 5.85364 490.96 6.68064 498.994C12.1979 483.718 62.5857 488.704 71.6709 485.786C71.6709 485.786 53.2288 473.629 68.8 468.029C84.3712 462.429 119.909 461.815 140.796 462.169C203.152 463.256 275.349 475.235 296.567 512.545C296.567 512.545 261.042 337.965 211.788 299.994C163.539 262.779 119.53 324.828 119.53 324.828Z" fill="#F6BE4A"/>
<path d="M218.617 235.324C226.792 239.766 234.117 249.028 234.117 249.028C234.117 249.028 232.64 238.585 225.398 228.306C219.94 220.556 199.927 231.106 199.927 231.106C199.927 231.106 213.43 232.512 218.617 235.324Z" fill="#D09435"/>
<path d="M208.74 316.984C196.418 327.18 135.964 324.983 145.085 299.026C149.444 286.597 177.007 271.344 196.808 269.064C229.45 265.307 235.44 294.914 208.74 316.984Z" fill="#FEED7F"/>
<path d="M265.354 457.562L149.444 448.217C120.535 448.217 82.1382 395.868 91.4951 380.911C100.84 365.954 139.485 317.976 139.485 317.976C143.537 298.034 150.46 283.077 179.37 283.077C179.37 283.077 212.402 284.943 226.107 321.095C226.107 321.095 261.632 374.838 267.232 415.976C271.344 446.138 265.354 457.562 265.354 457.562Z" fill="#FEED7F"/>
<path d="M124.008 336.36C124.008 336.36 137.264 315.436 162.912 306.717C162.912 306.717 132.29 310.509 121.397 325.455C110.504 340.4 124.008 336.36 124.008 336.36Z" fill="#F6BE4A"/>
<path d="M176.298 223.557L173.58 223.97C166.693 225.022 160.254 220.296 159.202 213.408L155.186 187.168C154.134 180.28 158.86 173.841 165.748 172.79L168.465 172.376C175.352 171.325 181.791 176.051 182.843 182.938L186.86 209.178C187.923 216.066 183.185 222.505 176.298 223.557Z" fill="#F6874E"/>
<path d="M172.458 192.721L167.921 193.418C161.53 194.398 155.564 190.015 154.583 183.624L150.294 155.565C149.314 149.173 153.697 143.207 160.088 142.227L164.625 141.53C171.017 140.549 176.983 144.932 177.964 151.324L182.252 179.382C183.233 185.774 178.85 191.752 172.458 192.721Z" fill="#CE6D3E"/>
<path d="M78.8656 263.134C70.9146 283.077 58.0843 318.708 54.4927 324.757C50.9012 330.806 50.783 340.045 60.3526 344.77C69.9103 349.508 77.1289 347.121 81.4411 341.982C85.7533 336.843 110.339 295.222 115.478 278.552C119.518 265.462 116.789 251.096 109.713 247.705C102.636 244.314 86.8166 243.192 78.8656 263.134Z" fill="#F6874E"/>
<path d="M78.8654 263.133C70.9144 283.076 58.0841 318.708 54.4925 324.757C53.3938 326.611 52.614 329.01 52.4841 330.321C52.2005 333.263 54.3389 333.523 57.3279 329.967C59.6908 327.155 77.0578 291.889 83.0712 272.431C88.0214 256.399 82.4569 254.119 78.8654 263.133Z" fill="#CE6D3E"/>
<path d="M122.023 215.771C111.65 212.18 97.5674 217.791 87.7498 241.632C82.5988 254.155 75.4393 270.919 75.4393 270.919C75.4393 270.919 91.6485 273.471 112.512 286.502C112.512 286.502 119.14 273.412 123.89 261.267C133.861 235.713 130.128 218.571 122.023 215.771Z" fill="#EC5E4D"/>
<path d="M122.023 215.771C111.65 212.18 97.5674 217.791 87.7498 241.632C82.5988 254.155 75.4393 270.919 75.4393 270.919L82.7642 272.478L98.5008 259.164L127.009 251.296C133.341 230.208 129.241 218.276 122.023 215.771Z" fill="#C93F37"/>
<path d="M-5.0393 398.041C-5.0393 398.041 -15.105 408.437 -11.8207 414.321C-8.72533 419.838 2.35644 424.339 10.2602 417.924C18.1639 411.509 43.5645 394.839 77.3297 349.438C91.7312 330.086 63.7551 316.606 52.5788 328.834C41.4026 341.062 -5.0393 398.041 -5.0393 398.041Z" fill="#F6874E"/>
<path d="M4.8728 387.15L29.8009 372.5L59.9154 324.628C59.9154 324.628 55.7923 325.243 52.5788 328.846C41.5561 341.204 4.8728 387.15 4.8728 387.15Z" fill="#CE6D3E"/>
<path d="M111.426 259.39C111.426 259.39 93.9995 262.875 87.7734 266.667C81.5473 270.459 83.0714 272.432 83.0714 272.432L111.426 259.39Z" fill="#C93F37"/>
<path d="M194.775 221.065C160.419 244.433 82.4806 252.537 82.7287 251.805C85.2216 244.303 102.081 207.041 119.53 203.922C131.238 203.887 177.101 204.324 194.775 221.065Z" fill="#229BC6"/>
<path d="M206.779 202.066C195.567 199.573 172.494 218.062 171.241 223.048C169.989 228.033 208.799 220.295 279.377 261.893C303.62 276.176 224.843 206.425 206.779 202.066Z" fill="#29ACE4"/>
<path d="M180.764 223.838C182.552 223.838 184.001 222.389 184.001 220.601C184.001 218.813 182.552 217.364 180.764 217.364C178.976 217.364 177.527 218.813 177.527 220.601C177.527 222.389 178.976 223.838 180.764 223.838Z" fill="#273150"/>
<path d="M210.169 52.2607C213.714 53.4539 213.3 71.0695 204.487 69.9117C196.193 68.8247 187.072 66.2846 189.861 61.1689C192.637 56.0649 206.625 51.0674 210.169 52.2607Z" fill="#C93F37"/>
<path d="M211.127 57.99C211.127 57.99 209.697 68.6468 206.661 69.0839C203.613 69.5092 206.271 64.5117 206.968 57.5529C207.665 50.5941 211.611 53.5123 211.127 57.99Z" fill="#F7BC4B"/>
<path d="M188.384 65.5165C188.384 65.5165 203.908 78.7848 218.664 83.8061C229.817 87.5988 238.37 87.7642 238.37 87.7642L235.771 84.2551L240.532 80.2971C240.532 80.2971 220.625 80.1199 192.2 63.0117L188.384 65.5165Z" fill="#C93F37"/>
<path d="M196.004 70.3487C196.004 70.3487 207.606 85.9787 220.684 93.4334C230.573 99.0688 238.89 100.711 238.89 100.711L237.283 96.8477L243.013 93.8233C243.013 93.8233 223.579 90.1964 200.411 68.5884L196.004 70.3487Z" fill="#C93F37"/>
<path d="M118.032 141.662C125.224 136.724 126.498 126.085 120.877 117.898C115.256 109.711 104.869 107.077 97.6775 112.015C90.4856 116.952 89.2121 127.592 94.8329 135.778C100.454 143.965 110.84 146.599 118.032 141.662Z" fill="#CE6D3E"/>
<path d="M168.465 68.3886C172.411 75.335 159.073 83.6755 144.848 91.756C130.636 99.8366 115.903 100.758 111.957 93.7998C108.011 86.8533 116.329 74.6616 130.541 66.5811C144.766 58.5124 164.519 61.4422 168.465 68.3886Z" fill="#273150"/>
<path d="M105.259 116.944C105.779 74.7786 140.076 62.2436 148.594 60.6133C191.078 52.4614 210.193 77.6376 218.31 122.201C224.24 154.761 204.971 163.905 185.69 171.266C162.487 180.126 104.621 169.612 105.259 116.944Z" fill="#CE6D3E"/>
<path d="M119.271 130.542C121.551 98.6077 152.244 87.6202 159.806 86.0134C159.806 86.0134 201.073 96.0439 209.024 102.294C216.975 108.544 218.44 129.55 218.44 129.55C222.244 153.923 204.912 161.685 187.628 168.112C166.859 175.827 116.424 170.416 119.271 130.542Z" fill="#F6874E"/>
<path d="M132.219 76.1015C154.548 59.3957 190.204 66.1418 190.204 66.1418C190.204 66.1418 156.415 39.2754 125.65 66.5553C98.0522 91.0234 105.672 112.703 109.559 125.652C109.559 125.652 105.826 95.8556 132.219 76.1015Z" fill="#F6BE4A"/>
<path d="M153.898 113.754C156.351 113.314 157.674 109.245 156.853 104.666C156.032 100.087 153.378 96.7312 150.924 97.1711C148.471 97.611 147.148 101.68 147.969 106.259C148.79 110.838 151.444 114.194 153.898 113.754Z" fill="#273252"/>
<path d="M196.438 107.796C198.488 107.366 199.44 103.632 198.564 99.4561C197.687 95.2798 195.316 92.2429 193.266 92.6729C191.216 93.1028 190.264 96.8369 191.14 101.013C192.016 105.189 194.388 108.226 196.438 107.796Z" fill="#273252"/>
<path d="M150.578 81.6321C150.578 81.6321 144.588 82.7305 143.241 88.1873" stroke="#273252" stroke-miterlimit="10" stroke-linecap="round" stroke-linejoin="round"/>
<path d="M195.673 80.1318C195.673 80.1318 191.762 76.7745 187.71 77.3419" stroke="#273252" stroke-miterlimit="10" stroke-linecap="round" stroke-linejoin="round"/>
</g>
</svg>
