<svg width="380" height="344" viewBox="0 0 380 344" fill="none" xmlns="http://www.w3.org/2000/svg">
<path d="M336.11 91.3975C336.11 91.3975 346.523 36.9127 303.846 21.3509C261.168 5.78901 232.683 15.8299 222.758 18.8578C212.833 21.8856 154.969 58.7861 189.981 101.902C189.981 101.902 181.783 97.4752 178.052 100.829C174.321 104.183 174.325 104.183 174.325 104.183C174.325 104.183 156.786 100.154 142.458 110.937C128.131 121.723 135.912 125.683 138.893 128.059C141.873 130.436 139.663 130.32 139.663 130.32C139.663 130.32 113.223 135.143 103.556 141.735C93.8884 148.326 85.4776 156.318 119.792 153.685C154.107 151.051 171.575 147.98 171.575 147.98C171.575 147.98 140.642 153.897 140.316 160.095C139.99 166.292 213.322 155.947 227.647 153.596C241.972 151.244 308.176 132.979 321.688 129.254C321.688 129.254 309.737 137.056 319.031 137.545C328.326 138.035 367.973 118.375 373.493 114.671C379.013 110.966 362.124 111.408 362.124 111.408C362.124 111.408 365.804 100.506 360.889 92.7018C355.975 84.8978 339.444 87.1332 336.11 91.3975Z" fill="#F3E7D9"/>
<path d="M120.982 86.1485C120.982 86.1485 125.142 74.3228 115.02 68.7466C108.335 65.0669 94.3571 73.4291 95.0311 81.6731C95.3242 85.2348 90.7435 78.7827 82.8928 84.5844C75.0421 90.3861 75.1834 100.377 75.1834 100.377C75.1834 100.377 58.2949 105.036 56.0113 106.246C53.7277 107.456 50.9111 110.417 68.8931 106.035C86.8784 101.664 120.982 86.1485 120.982 86.1485Z" fill="#F3E7D9"/>
<path d="M70.5456 181.869C70.5456 181.869 68.2844 174.205 54.0061 175.673C39.7278 177.141 33.8113 188.37 35.9513 189.813C38.0952 191.256 38.4687 192.61 38.4687 192.61C38.4687 192.61 17.6433 200.39 9.48896 203.511C1.33462 206.632 9.04641 211.919 24.8648 206.54C40.6835 201.158 81.2843 188.649 96.0061 187.204C110.728 185.759 70.5456 181.869 70.5456 181.869Z" fill="#F3E7D9"/>
<path d="M153.489 249.867C125.35 258.083 121.983 271.352 121.983 271.352C121.983 271.352 64.7657 280.556 51.605 286.293C38.4443 292.029 19.955 302.43 45.093 312.307C62.0995 318.988 103.972 329.547 142.1 325.768C180.228 321.989 205.017 319.625 215.498 313.652C225.978 307.683 216.857 298.994 216.857 298.994C216.857 298.994 239.852 302.516 272.687 303.843C305.523 305.17 324.346 297.706 309.152 290.846C309.152 290.846 390.907 270.401 349.505 253.918C342.874 251.639 327.26 236.834 273.434 233.52C219.608 230.207 192.664 238.427 153.489 249.867Z" fill="#856792"/>
<path d="M216.637 258.643C216.637 258.643 177.703 266.355 184.053 272.161C190.403 277.968 214.529 278.563 214.529 278.563C214.529 278.563 224.554 290.817 244.066 290.482C263.579 290.147 277.096 289.56 289.059 285.595C301.023 281.63 350.112 272.106 307.191 263.358C264.27 254.61 216.637 258.643 216.637 258.643Z" fill="#4B3355"/>
<path d="M203.214 245.908C180.516 249.359 176.406 253.269 192.584 258.191C208.762 263.113 215.279 259.33 226.353 254.155C237.431 248.98 225.917 242.452 203.214 245.908Z" fill="#4B3355"/>
<path d="M191.711 280.967C184.118 278.638 176.731 284.678 192.083 286.13C207.435 287.581 199.301 283.293 191.711 280.967Z" fill="#4B3355"/>
<path d="M156.205 289.865C156.205 289.865 155.219 289.956 153.682 290.121C147.236 290.81 131.057 292.77 136.666 294.622C143.618 296.918 170.679 295.769 161.904 291.451" fill="#4B3355"/>
<path d="M121.746 279.239C121.746 279.239 72.0724 283.792 64.2974 288.835C56.5224 293.879 85.6452 299.347 85.6452 299.347C85.6452 299.347 95.5156 302.027 109.309 301.546C123.103 301.064 166.923 293.26 155.111 287.325C145.969 282.726 121.746 279.239 121.746 279.239Z" fill="#4B3355"/>
<path d="M180.497 302.906C180.497 302.906 152.487 299.76 157.349 306.608C162.211 313.456 203.202 308.088 180.497 302.906Z" fill="#4B3355"/>
<path d="M191.063 323.842C186.074 325.962 174.504 333.256 200.138 334.605C225.773 335.955 232.206 319.578 226.016 319.253C219.831 318.927 196.047 321.726 191.063 323.842Z" fill="#856792"/>
<path d="M226.667 215.746C226.667 215.746 159.55 220.192 146.925 224.269C134.301 228.346 116.404 240.846 147.158 246.039C177.911 251.236 194.796 257.966 208.867 252.583C222.938 247.2 213.262 234.571 213.262 234.571C213.262 234.571 237.908 237.957 254.607 235.087C271.31 232.21 275.942 209.711 226.667 215.746Z" fill="#856792"/>
<path d="M264.301 288.057C261.48 288.766 258.835 294.199 265.888 294.57C272.941 294.941 280.401 292.864 277.698 290.049C274.445 286.661 267.126 287.348 264.301 288.057Z" fill="#4B3355"/>
<path d="M232.562 304.813C232.562 304.813 226.589 308.354 233.609 309.367C240.628 310.38 240.898 305.252 232.562 304.813Z" fill="#856792"/>
<path d="M235.573 314.16C232.817 316.64 230.802 320.374 240.451 321.287C250.101 322.2 250.936 313.96 247.737 313.387C244.531 312.813 238.328 311.681 235.573 314.16Z" fill="#856792"/>
<path d="M294.771 283.232C294.771 283.232 294.839 286.019 300.204 285.876C305.569 285.73 311.676 283.696 311.676 283.696C311.676 283.696 316.782 284.394 320.763 282.03C324.743 279.666 320.92 274.966 309.684 276.733C298.448 278.497 293.331 282.083 294.771 283.232Z" fill="#4B3355"/>
<path d="M232.393 225.57C232.393 225.57 216.575 223.773 221.134 228.834C225.688 233.898 245.655 230.128 232.393 225.57Z" fill="#4B3355"/>
<path d="M233.628 202.046L232.008 225.117L229.105 227.005L225.545 232.092C225.545 232.092 225.736 236.164 224.991 242.626C224.246 249.088 222.986 257.551 222.986 257.551L272.517 281.285L291.919 283.121L308.983 281.839L338.001 267.938L331.41 242.95L330.875 237.64L324.563 234.059L328.785 231.033L327.145 200.48L257.932 195.617L233.628 202.046Z" fill="#7A462F"/>
<path d="M327.15 200.468L293.011 185.264L255.142 186.928L233.628 202.046C233.628 202.046 236.718 205.052 243.201 205.393C249.684 205.734 278.255 210.896 278.255 210.896L299.345 211.601C299.345 211.601 316.295 205.992 321.223 205.032C326.15 204.073 327.15 200.468 327.15 200.468Z" fill="#A96443"/>
<path d="M320.425 272.151L308.378 256.733L308.179 236.151L302.138 216.545L302.611 231.998L306.119 238.612L304.499 257.172L304.432 270.666L291.922 283.117L309.459 272.861L308.04 263.144L315.837 273.84L320.425 272.151Z" fill="#A96443"/>
<path d="M286.449 209.29L284.693 218.2L276.867 208.146L286.449 209.29Z" fill="#A96443"/>
<path d="M311.078 205.444L315.231 212.092L318.907 203.287L311.078 205.444Z" fill="#A96443"/>
<path d="M282.536 198.155L279.633 216.647L285.538 226.6L284.255 238.748L282.165 229.639L276.463 215.837L282.536 198.155Z" fill="#A96443"/>
<path d="M288.104 226.735L287.328 241.479L292.149 259.735L292.319 268.742L294.952 255.383L291.207 241.044L288.104 226.735Z" fill="#A96443"/>
<path d="M292.49 228.896L291.241 240.403L293.398 248.228L293.533 233.451L295.66 223.599L292.49 228.896Z" fill="#A96443"/>
<path d="M233.46 226.754L230.635 237.641L232.436 248.236L230.962 255.87L233.929 248.314L232.098 238.358L233.46 226.754Z" fill="#A96443"/>
<path d="M319.346 207.166C319.346 207.166 318.165 217.389 318.063 219.314C317.962 221.238 316.933 240.79 316.933 240.79L324.354 258.539L322.648 242.056L338.001 267.934L330.875 237.636L324.563 234.055L328.784 231.029L327.674 207.608L325.133 213.256L324.171 225.421L322.331 217.608L323.006 210.893L319.346 207.166Z" fill="#A96443"/>
<path d="M315.961 280.594C317.74 280.366 321.08 274.918 314.179 265.552C311.317 261.673 311.032 271.844 312.043 275.567C313.059 279.289 314.181 280.822 315.961 280.594Z" fill="#33A86D"/>
<path d="M318.387 275.487C318.387 275.487 316.445 265.072 318.288 265.292C323.829 265.949 321.632 269.519 321.632 269.519C321.632 269.519 329.703 262.47 330.975 265.245C332.246 268.024 326.952 271.884 326.952 271.884C326.952 271.884 340.822 263.619 333.918 270.138C327.018 276.657 317.1 280.396 318.387 275.487Z" fill="#33A86D"/>
<path d="M312.53 251.165C312.53 251.165 314.658 259.632 316.848 254.605C319.043 249.578 317.962 245.665 312.53 251.165Z" fill="#33A86D"/>
<path d="M329.099 253.968C329.099 253.968 333.215 249.041 328.727 248.805C324.239 248.568 326.6 252.55 329.099 253.968Z" fill="#33A86D"/>
<path d="M314.015 210.741C314.015 210.741 314.995 216.58 311.212 215.094C307.429 213.608 307.703 208.482 314.015 210.741Z" fill="#33A86D"/>
<path d="M312.8 221.606C312.8 221.606 321.875 220.153 317.49 217.997C313.104 215.836 309.056 219.483 312.8 221.606Z" fill="#33A86D"/>
<path d="M317.354 232.774C317.354 232.774 323.428 227.308 317.691 226.363C311.955 225.421 310.976 231.795 317.354 232.774Z" fill="#33A86D"/>
<path d="M305.644 223.159C305.644 223.159 305.881 230.888 308.578 228.456C311.275 226.025 311.583 220.259 305.644 223.159Z" fill="#33A86D"/>
<path d="M281.285 286.326C281.285 286.326 277.516 279.225 281.357 276.207C285.197 273.184 281.285 286.326 281.285 286.326Z" fill="#288453"/>
<path d="M278.779 284.745C277.675 286.402 270.453 268.878 274.323 268.597C278.194 268.317 279.887 283.091 278.779 284.745Z" fill="#288453"/>
<path d="M271.764 282.665C270.843 280.849 270.306 271.66 273.424 275.573C275.715 278.453 276.295 279.044 276.775 283.143C277.254 287.239 272.685 284.481 271.764 282.665Z" fill="#288453"/>
<path d="M223.671 259.986C223.671 259.986 223.012 248.058 219.099 249.138C215.186 250.219 219.386 255.904 219.386 255.904C219.386 255.904 213.886 250.472 215.254 255.044C216.621 259.615 223.671 259.986 223.671 259.986Z" fill="#33A86D"/>
<path d="M227.466 261.151C227.466 261.151 230.72 254.249 227.55 253.439C224.38 252.629 224.798 256.829 224.798 256.829C224.798 256.829 222.286 249.624 221.78 253.135C221.274 256.643 223.063 259.311 225.254 260.391C227.449 261.471 227.449 261.471 227.449 261.471" fill="#288453"/>
<path d="M132.08 317.683C132.08 317.683 127.019 303.919 129.729 307.433C132.434 310.951 133.295 312.926 133.295 312.926C133.295 312.926 132.763 304.702 136.028 306.804C139.293 308.905 137.09 314.091 137.09 314.091C137.09 314.091 142.609 310.041 142.936 312.953C143.263 315.865 135.85 319.327 132.08 317.683Z" fill="#33A86D"/>
<path d="M101.012 318.622C101.012 318.622 96.7356 308.27 100.152 307.489C103.569 306.704 104.177 313.487 104.177 313.487C104.177 313.487 104.356 300.959 108.68 301.187C113.005 301.414 108.578 312.269 108.578 312.269C108.578 312.269 110.146 309.941 112.423 312.471C114.7 315.002 113.031 319.254 113.031 319.254C113.031 319.254 118.016 316.141 120.776 318.697C123.533 321.252 120.599 322.063 120.599 322.063C120.599 322.063 129.837 320.619 129.227 322.998C128.621 325.376 120.825 326.896 113.715 324.592C106.605 322.287 90.6601 322.898 92.3082 319.124C93.9521 315.355 101.012 318.622 101.012 318.622Z" fill="#33A86D"/>
<path d="M48.0755 294.871C48.0755 294.871 40.3075 285.749 46.8036 279.956L48.2861 286.042C48.2861 286.042 51.2807 278.416 54.9642 276.037L50.592 287.2C50.592 287.2 53.4957 281.678 57.0931 280.255C60.6902 278.836 48.0755 294.871 48.0755 294.871Z" fill="#856792"/>
<path d="M44.6458 294.389C44.6458 294.389 36.7777 288.526 28.0053 287.393C28.0053 287.393 34.2383 285.617 38.0602 287.097C41.882 288.576 41.705 291.637 41.705 291.637L40.3085 284.594C40.3085 284.594 48.0047 292.366 48.0714 294.871C48.138 297.376 44.6458 294.389 44.6458 294.389Z" fill="#856792"/>
<path d="M344.049 255.926C344.049 255.926 341.775 244.647 345.748 241.528L345.512 247.743C345.512 247.743 348.107 241.668 350.221 240.747L346.425 249.641C346.425 249.641 348.652 245.505 350.577 245.448C352.502 245.39 344.049 255.926 344.049 255.926Z" fill="#856792"/>
<path d="M342.5 254.26C342.5 254.26 339.679 245.999 335.696 241.838C335.696 241.838 338.924 242.381 340.507 245.117C342.091 247.853 341.534 250.651 341.534 250.651L341.959 243.573C341.959 243.573 344.407 253.559 344.052 255.927C343.697 258.295 342.5 254.26 342.5 254.26Z" fill="#856792"/>
<path d="M192.382 250.644C192.301 250.667 192.22 250.699 192.143 250.738C190.969 251.304 179.817 252.909 178.662 254.182C177.717 255.221 177.691 259.866 177.891 261.663C177.953 262.223 178.321 262.695 178.85 262.897C181.002 263.733 184.035 265.652 189.433 265.623C196.587 265.582 198.028 265.217 203.464 262.966C207.024 261.493 212.537 260.207 213.618 259.724C214.135 259.493 214.383 259.005 214.44 258.456L215.043 252.432C215.118 251.678 214.721 250.993 213.964 250.815C210.457 249.995 200.628 248.111 192.382 250.644Z" fill="#29ABE2"/>
<path d="M196.366 248.517C196.366 248.517 179.801 252.316 178.591 253.562C177.382 254.809 177.883 259.998 177.883 259.998C177.883 259.998 182.433 263.121 189.525 262.819C196.646 262.515 198.269 262.985 203.666 260.946C207.851 259.364 213.445 258.113 214.253 257.775C214.469 257.683 214.613 257.5 214.636 257.286L215.191 251.962C215.24 251.477 214.894 251.026 214.369 250.899C211.263 250.159 204.944 246.09 196.366 248.517Z" fill="#121721"/>
<path d="M186.422 251.672C186.422 251.672 190.923 251.194 194.118 254.237" stroke="#29ABE2" stroke-width="2" stroke-miterlimit="10" stroke-linecap="round" stroke-linejoin="round"/>
<path d="M189.572 250.372C189.572 250.372 192.804 250.006 197.978 253.491" stroke="#29ABE2" stroke-width="2" stroke-miterlimit="10" stroke-linecap="round" stroke-linejoin="round"/>
<path d="M254.441 166.273C254.441 166.273 226.21 158.572 215.302 156.894C209.291 155.97 206.405 157.597 204.366 160.965C202.322 164.328 202.166 176.202 207.945 179.794C213.725 183.386 223.171 183.713 230.662 186.716C238.148 189.715 248.752 196.5 255.237 193.693C261.723 190.885 271.352 174.47 254.441 166.273Z" fill="#CE9436"/>
<path d="M254.441 166.273L241.74 163.122L217.075 183.03C217.075 183.03 227.355 185.39 230.657 186.716C238.144 189.715 248.747 196.5 255.233 193.692C261.723 190.884 263.564 166.539 254.441 166.273Z" fill="#F7BC4B"/>
<path d="M218.123 205.908C218.123 205.908 218.102 177.858 219.002 171.861C219.905 165.865 219.754 157.35 209.041 156.33C201.791 155.638 197.506 156.608 196.618 165.346C195.909 172.31 194.828 177.991 195.502 185.25C196.411 194.988 194.808 239.341 193.343 240.837C191.878 242.332 191.769 241.695 191.736 245.478C191.711 248.53 194.352 248.979 201.377 250.632C205.705 251.403 209.969 254.594 213.651 252.544C217.333 250.495 216.556 248.81 216.556 248.81L216.561 245.013L218.123 205.908Z" fill="#CE9436"/>
<path d="M218.123 205.908C218.123 205.908 222.687 179.033 223.59 173.036C224.493 167.039 208.576 203.718 209.419 207.622C210.266 211.527 210.326 219.444 210.326 219.444L207.853 215.645C207.853 215.645 203.835 240.682 203.802 244.469C203.777 247.521 194.347 248.987 201.373 250.635C205.701 251.407 209.965 254.598 213.647 252.548C217.328 250.498 216.551 248.813 216.551 248.813L216.557 245.017L218.123 205.908Z" fill="#F7BC4B"/>
<path d="M305.49 173.221C305.49 173.221 310.799 186.359 308.469 193.949C306.14 201.542 304.433 201.452 295.489 200.338C287.318 199.321 239.917 192.537 249.253 174.975C257.09 160.229 268.498 163.558 280.991 166.36C293.488 169.162 305.49 173.221 305.49 173.221Z" fill="#F7BC4B"/>
<path d="M251.36 114.648C251.36 114.648 243.6 120.089 242.551 127.647C241.501 135.204 236.312 143.251 234.343 145.744C232.373 148.238 227.296 157.243 235.062 162.791C242.827 168.338 246.33 156.935 249.627 152.021C252.924 147.108 257.573 142.678 260.255 135.254C262.937 127.826 266.323 109.975 251.36 114.648Z" fill="#7A462F"/>
<path d="M241.677 158.052C241.677 158.052 243.357 163.7 236.852 169.136C230.347 174.571 219.483 183.082 216.652 185.403C213.822 187.724 210.021 186.599 207.473 183.859C204.925 181.116 207.67 177.321 214.671 169.696C221.673 162.07 229.424 151.669 235.84 149.504C242.257 147.34 241.677 158.052 241.677 158.052Z" fill="#7A462F"/>
<path d="M224.658 174.109C225.901 173.198 243.358 163.7 236.853 169.136C230.348 174.572 219.484 183.082 216.653 185.403C213.823 187.724 212.049 181.591 214.746 179.163C217.443 176.736 220.077 177.458 224.658 174.109Z" fill="#A96443"/>
<path d="M210.458 177.845C209.139 177.406 207.043 177.904 204.167 178.606C201.995 179.135 198.667 179.282 196.405 179.484C192.85 179.801 192.925 178.443 190.488 179.923C189.262 180.669 189.791 182.603 190.534 183.138C192.289 184.41 197.574 183.743 198.252 184.081C198.929 184.418 193.876 189.351 193.638 189.723C193.4 190.096 187.48 192.632 186.195 193.446C184.909 194.26 185.787 195.001 186.297 195.508C186.806 196.015 188.701 196.083 188.701 196.083C188.701 196.083 186.874 196.829 188.09 198.247C189.31 199.67 190.254 199.533 191.066 199.127C191.878 198.721 193.095 198.451 193.095 198.451C193.095 198.451 192.723 200.246 194.551 200.513C196.38 200.78 197.123 200.244 197.123 200.244C197.123 200.244 197.394 201.124 198.916 201.633C200.438 202.142 200.608 201.634 203.416 199.975C206.223 198.316 210.047 195.984 211.163 195.002C212.279 194.02 216.508 186.408 215.797 184.143C215.095 181.87 211.777 178.284 210.458 177.845Z" fill="#7A462F"/>
<path d="M212.465 181.827C211.146 181.388 207.252 180.059 204.38 180.758C202.208 181.287 198.284 180.544 196.025 180.747C192.47 181.064 193.322 179.211 190.886 180.691C189.659 181.436 189.804 182.6 190.542 183.139C192.298 184.411 197.583 183.744 198.26 184.081C198.938 184.419 193.885 189.351 193.647 189.724C193.409 190.096 187.489 192.632 186.203 193.446C184.918 194.26 185.796 195.001 186.305 195.508C186.815 196.016 189.144 195.439 189.144 195.439C189.144 195.439 186.883 196.83 188.099 198.252C189.319 199.674 190.237 198.674 191.124 198.49C192.369 198.234 193.297 197.961 193.297 197.961C193.297 197.961 192.286 200.192 194.56 200.518C195.936 200.713 198.722 198.93 198.722 198.93C198.722 198.93 197.344 199.902 198.192 200.63C199.502 201.755 200.362 200.823 203.169 199.164C205.977 197.505 209.325 194.782 210.441 193.801C211.557 192.819 215.286 186.24 214.576 183.975C213.865 181.706 213.784 182.265 212.465 181.827Z" fill="#A96443"/>
<path d="M196.849 191.505C196.849 191.505 200.305 194.045 201.721 194.601C203.138 195.156 204.133 195.637 204.133 195.637C204.133 195.637 198.748 192.085 198.436 191.91C198.123 191.735 196.432 190.303 196.432 190.303L196.849 191.505Z" fill="#7A462F"/>
<path d="M197.391 199.743L201.085 197.487L203.603 195.45C203.603 195.45 202.762 196.574 201.179 197.742C200.216 198.45 198.536 199.208 197.391 199.743Z" fill="#7A462F"/>
<path d="M193.284 198.12L197.056 195.642C197.056 195.642 199.379 193.906 200.704 193.475L197.697 195.676L193.284 198.12Z" fill="#7A462F"/>
<path d="M188.592 195.676L194.01 193.551L196.869 191.128C196.869 191.128 194.252 193.028 193.807 193.326C193.363 193.624 187.784 195.793 187.784 195.793L188.592 195.676Z" fill="#7A462F"/>
<path d="M277.863 107.803C263.907 108.355 257.366 110.473 254.08 111.801C250.797 113.129 251.378 114.232 251.378 114.232C251.378 114.232 251.863 125.401 252.291 129.494C252.718 133.587 253.814 143.783 254.099 149.088C254.411 154.922 258.538 165.552 258.031 169.063C257.418 173.32 259.399 179.742 259.399 179.742C259.399 179.742 271.628 177.439 280.118 178.958C288.608 180.478 305.89 177.849 306.757 177.68C307.624 177.511 306.999 175.119 307.111 172.985C307.224 170.846 307.077 167.519 307.077 167.519C307.077 167.519 305.888 148.386 306.113 144.109C306.338 139.836 308.269 116.806 306.776 112.216C305.848 109.383 291.819 107.251 277.863 107.803Z" fill="#29ABE2"/>
<path d="M301.47 141.725C301.47 141.725 301.859 148.603 301.6 153.518C301.341 158.433 303.643 163.589 302.495 167.063C301.348 170.537 300.335 177.557 300.335 177.557" stroke="#1689CB" stroke-miterlimit="10"/>
<path d="M287.182 107.841C288.465 107.908 287.305 114.622 285.515 117.101C283.724 119.58 276.192 123.254 270.411 123.164C264.209 123.068 261.193 120.92 263.538 115.301C264.764 112.367 265.575 109.193 267.732 108.878C269.893 108.563 271.428 108.378 276.423 108.156C281.419 107.934 285.899 107.773 287.182 107.841Z" fill="#7A462F"/>
<path d="M279.788 114.628C284.685 113.638 284.415 113.561 284.095 111.038L283.245 99.1947C282.993 97.1879 280.824 95.8546 277.773 96.4684L271.303 97.5534C268.341 98.1481 267.081 100.127 267.027 102.126C267.027 102.126 267.431 110.598 268.042 113.263C268.658 115.96 274.887 115.616 279.788 114.628Z" fill="#A96443"/>
<path d="M279.49 115.007C269.015 108.947 267.077 100.128 267.024 102.123C267.024 102.123 267.13 110.972 267.74 113.637C268.364 116.339 274.589 115.999 279.49 115.007Z" fill="#7A462F"/>
<path d="M253.128 133.93L253.943 140.414C253.943 140.414 272.558 143.471 296.598 141.683L295.536 134.395C295.532 134.395 278.343 136.544 253.128 133.93Z" fill="#3E4C6F"/>
<path d="M296.597 144.736C296.597 144.736 275.049 146.175 254.266 143.795L255.029 149.673C255.029 149.673 262.014 151.327 272.449 151.662C282.883 151.997 297.739 150.582 297.739 150.582L296.597 144.736Z" fill="#3E4C6F"/>
<path d="M286.149 83.7644C287.753 103.161 284.15 101.593 276.238 102.678C269.618 103.588 263.282 96.3011 262.122 86.6536C260.962 77.0061 265.399 68.5387 272.033 67.7402C278.667 66.9417 285.164 71.8427 286.149 83.7644Z" fill="#273252"/>
<path d="M282.099 81.5777C280.989 72.7033 279.448 67.7376 269.797 68.1946C264.761 68.4338 259.9 69.5043 257.187 71.3988C254.734 73.1123 253.41 75.473 253.181 81.4098C253.009 85.8842 252.937 93.5925 255.232 100.766C256.706 105.363 262.797 106.422 268.03 106.15C281.27 105.465 283.131 103.843 283.177 94.3662C283.221 85.4571 282.554 85.2195 282.099 81.5777Z" fill="#7A462F"/>
<path d="M280.536 72.2464C277.751 66.9016 269.665 72.9569 273.188 74.4489C278.378 76.6521 276.465 88.6199 275.222 95.8773C273.852 103.863 269.174 105.602 269.174 105.602C269.174 105.602 271.681 105.802 274.677 105.169C279.552 104.139 282.964 104.426 282.95 92.6306C282.946 86.9714 282.249 75.5295 280.536 72.2464Z" fill="#A96443"/>
<path d="M255.112 71.4422C254.37 72.0227 253.416 77.0953 253.222 80.2581C253.183 80.9232 253.985 76.1046 254.945 74.9916C254.945 74.9916 257.749 75.8103 261.005 75.5211C267.049 74.9854 272.475 73.6865 272.475 73.6865C272.475 73.6865 274.565 80.6071 276.461 82.8355C278.406 85.122 280.746 86.3094 280.746 86.3094L283.373 81.3646C282.835 74.6806 280.364 69.0385 275.819 68.0924C267.499 66.3638 257.837 69.3062 255.112 71.4422Z" fill="#273252"/>
<path d="M269.343 87.1772C269.348 88.5122 268.728 88.6702 268.053 88.6704C267.377 88.6746 266.889 88.5218 266.868 87.186C266.847 85.8384 267.39 84.7309 268.082 84.7276C268.773 84.7282 269.338 85.8304 269.343 87.1772Z" fill="#1D2538"/>
<path d="M266.025 80.2707C266.025 80.2707 268.77 79.8988 269.994 81.1549" stroke="#1D2538" stroke-miterlimit="10" stroke-linecap="round" stroke-linejoin="round"/>
<path d="M259.491 87.8541C259.548 89.1044 259.003 89.1988 258.368 89.2011C257.732 89.2034 257.236 89.1137 257.167 87.8628C257.094 86.5998 257.562 85.5599 258.21 85.5582C258.857 85.5526 259.431 86.5878 259.491 87.8541Z" fill="#1D2538"/>
<path d="M259.16 81.2442C259.16 81.2442 257.146 80.5662 255.357 82.2634" stroke="#1D2538" stroke-miterlimit="10" stroke-linecap="round" stroke-linejoin="round"/>
<path d="M286.923 87.7012C286.08 90.8854 283.575 93.0687 281.3 92.671C281.3 92.671 281.279 85.3907 281.228 84.0021C281.195 83.1306 281.721 80.4539 284.145 80.8793C286.561 81.3044 287.791 84.4071 286.923 87.7012Z" fill="#A96443"/>
<path d="M285.471 91.0044C285.338 91.8673 284.507 92.4988 283.621 92.4204C282.735 92.342 282.112 91.5783 282.233 90.7148C282.355 89.8433 283.183 89.1958 284.085 89.275C284.986 89.3542 285.608 90.1337 285.471 91.0044Z" fill="#F3E7D9"/>
<path d="M269.509 188.9C269.509 188.9 269.687 195.16 264.273 195.268C264.273 195.268 269.274 190.19 269.509 188.9Z" fill="#CE9436"/>
<path d="M244.449 264.38C237.263 266.532 226.817 268.527 226.231 271.59C225.646 274.633 225.206 277.858 225.451 279.015C225.639 279.891 226.005 280.422 226.691 280.728C228.437 281.507 231.918 283.354 239.016 284.244C242.077 284.628 248.834 283.232 252.981 280.424C256.267 278.203 260.195 275.63 261.663 274.666C262.046 274.416 262.304 274.029 262.379 273.584L262.972 270.168C263.092 269.472 262.74 268.766 262.095 268.427C259.066 266.826 250.284 262.63 244.449 264.38Z" fill="#29ABE2"/>
<path d="M244.917 261.426C238.656 263.205 226.741 267.312 226.18 270.348C225.675 273.089 225.44 274.602 225.499 275.661C225.528 276.179 226.97 276.473 227.67 276.756C229.451 277.474 232.999 279.17 240.204 280.045C243.31 280.423 249.424 279.839 253.605 277.363C257.077 275.31 261.258 272.917 262.556 272.175C262.814 272.026 262.993 271.793 263.051 271.522L263.599 268.878C263.833 267.743 263.744 262.798 262.493 262.355C257.939 260.741 250.465 259.848 244.917 261.426Z" fill="#121721"/>
<path d="M245.381 269.452C245.381 269.452 239.726 264.183 233.106 265.903" stroke="#29ABE2" stroke-width="2" stroke-miterlimit="10" stroke-linecap="round" stroke-linejoin="round"/>
<path d="M249.46 267.165C249.46 267.165 243.549 262.378 236.95 264.092" stroke="#29ABE2" stroke-width="2" stroke-miterlimit="10" stroke-linecap="round" stroke-linejoin="round"/>
<path d="M255.217 264.708C255.217 264.708 252.873 265.022 247.717 264.592C242.557 264.165 242.274 262.463 240.954 261.662C239.634 260.862 236.554 263.988 238.129 255.569C239.704 247.149 238.492 243.774 238.191 241.645C237.89 239.517 237.303 241.984 237.666 235.327C238.028 228.67 238.714 223.417 238.775 214.632C238.836 205.847 238.951 177.784 240.078 174.099C241.21 170.41 266.733 173.044 268.293 179.619C269.853 186.194 267.244 193.741 266.298 196.777C265.352 199.812 266.055 208.856 264.935 214.905C264.309 218.271 263.762 228.365 264.022 239.709C264.283 251.052 264.88 255.095 265.573 256.35C266.265 257.606 265.155 261.721 264.583 263.458C264.019 265.2 255.217 264.708 255.217 264.708Z" fill="#F7BC4B"/>
<path d="M307.406 179.537C306.9 176.937 306.367 178.676 287.393 175.056C272.708 172.254 253.031 164.249 249.603 172.424C246.174 180.599 286.909 184.244 296.3 184.953C305.694 185.662 307.913 182.137 307.406 179.537Z" fill="#F7BC4B"/>
<path d="M253.246 188.687C253.246 188.687 245.54 184.425 246.485 178.689C247.443 172.866 261.401 171.441 268.225 170.728C255.942 165.903 241.21 170.417 240.078 174.107C238.947 177.796 238.836 205.859 238.775 214.64C238.713 223.425 238.028 228.678 237.665 235.335C237.299 241.991 237.886 239.524 238.191 241.653C238.496 243.782 239.704 247.157 238.129 255.577C236.554 263.996 239.633 260.87 240.953 261.67C242.273 262.47 242.557 264.173 247.717 264.599C252.877 265.026 255.216 264.716 255.216 264.716C255.216 264.716 264.019 265.203 264.587 263.466C265.155 261.729 266.269 257.614 265.576 256.358C265.203 255.679 258.523 248.068 252.335 240.837L252.835 242.654L252.871 249.605C252.871 249.605 250.397 243.566 249.521 241.34C248.901 239.762 247.726 236.444 247.086 234.635C244.154 231.113 241.999 228.383 241.777 227.684C241.416 226.553 241.678 184.83 245.592 187.426C250.154 190.454 253.246 188.687 253.246 188.687Z" fill="#CE9436"/>
<path d="M304.789 111.258C302.84 111.239 299.026 109.989 296.594 117.256C294.163 124.522 298.197 142.41 302.058 141.331C305.919 140.251 305.844 130.601 307.006 125.198C308.168 119.791 307.321 111.284 304.789 111.258Z" fill="#7A462F"/>
<path d="M304.789 111.254C302.544 110.822 301.608 112.698 300.072 115.401C297.66 119.655 298.856 129.892 302.691 129.319C306.525 128.747 306.861 120.33 307.909 117.097C308.957 113.864 307.863 111.848 304.789 111.254Z" fill="#A96443"/>
<path d="M317.136 133.122C317.136 133.122 315.459 128.32 312.88 122.398C310.3 116.476 308.764 111.038 304.851 112.119C300.938 113.199 298.956 119.31 298.382 124.101C297.809 128.892 299.807 133.711 303.191 138.603C305.907 142.526 308.619 154.531 312.412 159.873C317.148 166.548 321.274 170.625 325.946 167.337C330.619 164.048 328.208 154.919 325 148.642C321.792 142.365 317.136 133.122 317.136 133.122Z" fill="#A96443"/>
<path d="M301.576 129.515C297.788 124.45 299.802 117.42 299.802 117.42C299.802 117.42 298.58 119.286 298.006 124.077C297.432 128.868 299.43 133.687 302.814 138.579C305.531 142.502 308.619 154.527 312.408 159.869C312.408 159.869 323.519 158.444 320.203 157.305C317.048 156.221 315.157 157.059 314.351 155.551C312.778 152.621 307.607 140.169 307.607 140.169C307.607 140.169 304.577 133.533 301.576 129.515Z" fill="#7A462F"/>
<path d="M323.869 157.903C323.869 157.903 321.16 156.716 313.988 158.59C306.817 160.464 310.117 162.643 296.877 168.376C290.095 171.311 294.338 177.455 303.397 176.328C312.455 175.196 319.834 173.444 324.574 168.873C329.314 164.297 329.787 161.431 323.869 157.903Z" fill="#A96443"/>
<path d="M311.045 163.336C313.028 161.721 316.284 159.247 317.209 158.196C317.927 157.38 317.119 157.635 313.983 158.455C306.811 160.329 310.121 162.644 296.881 168.376C290.094 171.311 307.519 166.204 311.045 163.336Z" fill="#7A462F"/>
<path d="M298.155 170.051C297.163 169.292 291.271 166.476 287.763 165.97C284.255 165.464 280.355 166.223 280.355 166.223L273.15 168.735C273.15 168.735 270.611 171.175 269.919 172.099C269.227 173.028 270.385 173.971 270.385 173.971C270.385 173.971 272.788 175.622 273.296 175.168C273.801 174.714 273.801 174.714 273.801 174.714C273.801 174.714 275.008 176.223 275.962 176.436C276.916 176.645 278.045 176.546 278.045 176.546C278.045 176.546 280.552 177.802 282.314 177.895C284.077 177.987 285.824 175.347 287.603 175.119C289.382 174.891 290.768 177.617 294.143 177.632C297.517 177.65 301.091 172.295 298.155 170.051Z" fill="#A96443"/>
<path d="M295.975 168.852C293.674 167.742 290.163 166.315 287.763 165.97C284.255 165.464 280.355 166.223 280.355 166.223L273.15 168.735C273.15 168.735 270.611 171.175 269.919 172.099C269.227 173.028 270.385 173.971 270.385 173.971C270.385 173.971 272.788 175.622 273.296 175.168C273.801 174.714 273.801 174.714 273.801 174.714C273.801 174.714 275.008 176.223 275.962 176.436C276.916 176.645 278.045 176.546 278.045 176.546L278.853 174.392L289.329 168.729C289.333 168.729 297.04 169.365 295.975 168.852Z" fill="#7A462F"/>
<path d="M155.894 228.787C155.894 228.787 158.081 235.967 159.592 237.678L161.441 234.083C161.437 234.082 159.356 230.311 155.894 228.787Z" fill="#992C29"/>
<path d="M156.8 231.857C156.8 231.857 155.413 237.685 155.874 239.794L158.923 238.974C158.919 238.974 158.893 235.239 156.8 231.857Z" fill="#992C29"/>
<path d="M80.8247 255.283C80.8247 255.283 77.8384 270.975 78.3697 274.763C78.897 278.552 77.355 283.252 75.7036 285.655C74.7875 287.14 77.455 292.971 77.455 292.971C77.455 292.971 81.9784 294.551 86.4756 293.235C90.4081 292.084 89.5894 289.757 87.2047 288.512C84.8008 287.254 91.0614 277.409 91.0614 277.409C91.0614 277.409 96.2773 260.326 96.6961 257.727C97.1146 255.132 83.6365 246.829 80.8247 255.283Z" fill="#1D2538"/>
<path d="M151.757 232.449C147.844 233.069 128.14 231.02 126.896 223.258C125.979 217.523 124.006 211.101 123.748 206.266C123.748 206.266 121.824 202.75 120.189 198.51C118.547 194.25 119.399 193.6 121.759 194.868C124.099 196.123 128.408 200.642 128.408 200.642C128.408 200.642 134.385 196.803 142.406 196.514C150.184 196.237 148.242 198.795 150.96 202.54L152.883 205.918C152.883 205.918 158.668 203.148 162.417 202.913C166.111 202.682 167.294 204.262 168.64 208.415C170.031 212.702 170.084 213.133 169.059 215.553C168.029 217.985 164.585 222.466 160.871 225.729C160.883 225.722 155.613 231.838 151.757 232.449Z" fill="#1D2538"/>
<path d="M151.757 232.449C147.844 233.069 143.541 236.894 142.301 229.132C141.384 223.397 142.154 214.042 142.154 214.042C142.154 214.042 134.397 196.795 142.418 196.507C150.197 196.229 150.619 198.46 152.637 201.917L153.92 205.388C153.92 205.388 158.681 203.137 162.43 202.905C166.123 202.675 167.307 204.254 168.653 208.407C170.044 212.694 170.096 213.126 169.071 215.546C168.042 217.978 164.597 222.459 160.883 225.722C160.883 225.722 155.613 231.838 151.757 232.449Z" fill="#273252"/>
<path d="M167.257 204.609C168.573 206.533 165.691 208.474 164.363 206.545C163.028 204.605 159.104 203.703 161.458 202.969C163.085 202.467 165.937 202.677 167.257 204.609Z" fill="#121721"/>
<path d="M138.084 199.273C138.084 199.273 137.495 193.635 137.625 189.44C137.752 185.436 139.876 186.199 141.836 189.551C143.88 193.042 146.651 199.7 147.137 201.024C147.628 202.349 140.01 203.941 138.084 199.273Z" fill="#273252"/>
<path d="M140.214 190.351C139.64 186.306 140.349 187.546 142.31 190.894C144.35 194.377 144.168 195.042 144.658 196.371C145.144 197.695 140.723 193.952 140.214 190.351Z" fill="#1D2538"/>
<path d="M142.434 280.566C141.96 279.008 139.158 278.817 139.064 278.427C137.45 271.821 137.271 265.184 137.083 263.629C136.695 260.436 138.765 254.37 137.98 247.49C137.221 240.858 125.846 246.625 126.558 254.509C126.97 259.062 129.317 274.455 129.994 278.637C130.09 279.226 130.311 279.789 130.646 280.295L133.871 283.753C134.593 285.046 136.19 284.665 139.11 283.949C141.995 283.244 143.077 282.681 142.434 280.566Z" fill="#273252"/>
<path d="M162.461 289.67C162.296 285.642 157.361 285.474 157.361 285.474C157.099 284.932 156.185 283.883 156.115 283.343C155.568 279.248 156.291 269.886 156.204 268.075C156.021 264.304 156.987 252.97 156.741 244.284C156.493 235.558 145.529 242.415 145.024 251.03C144.666 257.162 148.602 281.812 148.966 284.182C148.966 284.182 154.157 292.477 156.9 292.344C159.611 292.212 162.565 292.153 162.461 289.67Z" fill="#273252"/>
<path d="M126.752 226.09C124.94 229.652 126.07 231.336 121.526 232.721C111.19 235.874 102.8 236.143 91.1418 238.841C83.5357 240.601 78.0321 256.435 81.0331 261.06C84.0381 265.686 97.0464 265.561 104.872 271.254C113.08 277.226 122.761 270.977 128.156 268.822C133.551 266.668 147.602 257.813 151.117 254.563C152.386 253.391 153.053 250.011 154.021 246.476C155.422 241.355 157.807 235.508 154.725 230.604C152.641 227.278 128.563 222.532 126.752 226.09Z" fill="#1D2538"/>
<path d="M146.387 232.929L140.939 242.038C140.939 242.038 134.849 250.375 135.345 250.381L140.531 260.507C140.531 260.507 147.607 257.809 151.118 254.559C152.387 253.387 155.142 250.673 156.111 247.134C157.512 242.013 157.005 237.837 156.173 230.482L146.387 232.929Z" fill="#273252"/>
<path d="M126.837 224.47C126.837 224.47 125.965 225.485 125.994 227.658C125.994 227.658 132.722 230.355 145.67 232.888C152.242 234.175 157.344 233.439 157.344 233.439L157.034 229.451C157.033 229.455 141.506 231.338 126.837 224.47Z" fill="#992C29"/>
<path d="M92.8921 244.215C91.8122 242.55 90.0779 243.662 86.0278 235.729C81.9778 227.796 81.0639 215.056 86.9134 211.134C86.9134 211.134 80.7602 209.206 75.428 220.954C69.9747 232.966 82.6118 247.364 83.7796 248.489C88.941 253.491 95.9625 248.956 92.8921 244.215Z" fill="#273252"/>
<path d="M93.5108 244.683C92.4236 243.006 88.5594 249.272 82.5764 237.17C79.4287 230.805 77.9633 215.189 86.9332 211.134C86.9332 211.134 77.3409 209.207 74.1629 221.827C70.0518 238.139 82.5955 247.671 83.7706 248.809C88.9771 253.86 96.6108 249.465 93.5108 244.683Z" fill="#1D2538"/>
<path d="M97.5547 260.052C97.5547 260.052 101.779 280.745 103.91 283.939C106.03 287.117 107.545 291.831 106.901 294.481C106.257 297.144 111.134 300.609 111.134 300.609C111.134 300.609 117.696 300.208 118.793 299.873C119.887 299.537 122.181 295.341 119.303 295.023C116.393 294.703 115.332 282.114 115.332 282.114C115.332 282.114 115.346 259.737 114.675 257.248C114.004 254.762 96.7531 251.44 97.5547 260.052Z" fill="#1D2538"/>
<path d="M151.877 205.879C152.31 205.738 152.333 204.611 151.928 203.36C151.523 202.11 150.844 201.21 150.41 201.351C149.977 201.491 149.954 202.618 150.359 203.869C150.764 205.119 151.443 206.019 151.877 205.879Z" fill="#121721"/>
<path d="M164.464 220.55C164.464 220.55 158.741 220.249 158.53 224.801C158.515 225.149 158.68 225.488 158.963 225.693L162.866 228.504C162.866 228.504 170.512 237.905 171.744 238.935C172.977 239.965 177.858 242.898 181.427 238.158C184.625 233.914 183.181 226.197 179.857 225.216L164.464 220.55Z" fill="#F5894E"/>
<path d="M171.389 235.484C170.407 232.637 172.586 227.319 177.351 227.014C182.834 226.659 182.768 235.015 180.52 237.803C177.758 241.236 172.971 240.071 171.389 235.484Z" fill="#FFFCF3"/>
<path d="M171.744 232.827L174.252 235.047C174.252 235.047 173.909 234.624 174.165 232.632C174.333 231.323 175.494 229.95 178.054 228.981L175.609 228.13C175.609 228.13 172.543 228.369 171.744 232.827Z" fill="#F5894E"/>
<path d="M170.867 237.28C170.867 237.28 179.126 241.141 179.981 233.045C180.13 231.648 178.264 228.992 175.287 229.586C171.956 230.248 175.089 228.289 175.833 228.328C176.578 228.367 182.419 229.437 180.694 234.743C179.031 239.854 174.755 239.541 172.56 238.6C171.582 238.179 170.867 237.28 170.867 237.28Z" fill="#F5894E"/>
<path d="M166.104 220.958C166.104 220.958 160.619 219.827 160.757 227.106" stroke="#F7BC4B" stroke-miterlimit="10" stroke-linecap="round" stroke-linejoin="round"/>
<path d="M165.916 221.429C165.916 221.429 169.678 217.126 166.885 218.266C164.092 219.406 165.916 221.429 165.916 221.429Z" stroke="#F7BC4B" stroke-miterlimit="10"/>
<path d="M166.103 220.957C166.103 220.957 169.772 218.418 171.1 220.74C172.427 223.062 168.256 222.842 167.465 222.638C166.669 222.433 166.103 220.957 166.103 220.957Z" stroke="#F7BC4B" stroke-miterlimit="10"/>
<path d="M166.104 220.958C166.104 220.958 164.708 220.765 162.932 222.439C161.754 223.549 160.58 226.695 161.229 227.333" stroke="#F7BC4B" stroke-miterlimit="10" stroke-linecap="round" stroke-linejoin="round"/>
</svg>
