<svg width="526" height="400" viewBox="0 0 526 400" fill="none" xmlns="http://www.w3.org/2000/svg">
<path d="M441.403 128.878C441.403 128.878 301.859 127.142 272.779 179.178C243.7 231.214 98.2995 255.704 44.7305 231.214C-8.83849 206.729 -19.5503 168.466 41.6693 134.793C118.442 92.5687 109.756 148.74 116.667 139.382C155.283 87.0701 226.74 23.853 277.374 36.8378C337.065 52.144 292.68 108.774 292.68 108.774C292.68 108.774 383.245 81.4313 441.403 128.878Z" fill="#BB83C3"/>
<path d="M174.826 261.06C174.826 261.06 301.477 244.095 339.74 187.465C378.003 130.835 525.319 170.249 525.319 170.249C525.319 170.249 458.359 178.286 429.279 215.016C429.279 215.016 462.571 200.474 494.711 208.13C494.711 208.13 471.755 223.054 445.35 250.6C419.008 278.088 225.333 294.734 174.826 261.06Z" fill="#BB83C3"/>
<path d="M284.435 384.208C284.435 384.208 293.797 376.451 271.832 377.36C250.128 378.26 226.934 381.292 236.538 386.751C246.148 392.211 275.43 388.869 284.435 384.208Z" fill="#866694"/>
<path d="M331.059 376.504C331.059 376.504 344.948 364.994 312.363 366.343C280.164 367.678 245.756 372.176 260.008 380.281C274.259 388.382 317.706 383.425 331.059 376.504Z" fill="#866694"/>
<path d="M322.305 392.748C322.305 392.748 328.67 387.478 313.741 388.092C298.991 388.701 283.225 390.766 289.754 394.475C296.283 398.188 316.188 395.92 322.305 392.748Z" fill="#866694"/>
<path d="M500.064 370.879C505.422 367.818 462.565 368.964 441.098 367.305C439.618 367.189 437.964 367.445 436.194 367.484C426.251 365.946 372.493 364.012 351.602 365.139C330.787 366.261 308.237 373.079 328.708 378.52C344.057 382.596 353.599 384.739 388.336 382.741C395.436 382.33 414.673 378.969 430.033 375.666C435.464 375.637 452.927 376.846 459.194 376.484C473.156 375.676 495.498 373.485 500.064 370.879Z" fill="#866694"/>
<path d="M487.955 350.296C487.955 350.296 493.401 334.512 503.198 335.054C512.996 335.6 507.551 345.398 507.551 345.398C507.551 345.398 511.903 338.864 517.349 344.309C522.794 349.755 517.349 353.56 517.349 353.56C517.349 353.56 521.701 350.838 522.247 355.737C522.794 360.635 501.017 367.71 492.854 365.534C484.691 363.358 487.955 350.296 487.955 350.296Z" fill="#288453"/>
<path d="M243.318 335.295C180.74 336.567 222.272 347.158 222.272 347.158C222.272 347.158 -2.89471 344.019 61.565 356.723C61.565 356.723 21.8804 363.721 11.0573 370.496C4.02083 374.901 69.9362 390.971 106.714 389.626C159.137 387.711 165.893 381.72 165.642 376.618C165.327 370.317 128.506 369.736 139.624 366.67C156.013 362.149 167.586 368.595 230.691 361.312C270.487 356.723 300.713 358.251 300.713 358.251C300.713 358.251 269.394 367.85 300.007 365.384C359.355 360.601 371.822 366.564 379.153 356.718C390.025 342.123 320.811 333.719 243.318 335.295Z" fill="#866694"/>
<path d="M437.902 90.0428L450.766 26.7976C450.843 26.4252 455.22 25.7095 455.22 25.7095L460.839 27.3972L458.755 101.76C458.726 102.882 457.435 103.482 456.415 102.844L438.715 91.7935C438.1 91.4114 437.772 90.7005 437.902 90.0428Z" fill="#1D2538"/>
<path d="M444.193 91.3297L454.731 26.0373C454.881 25.3264 463.257 27.609 463.233 28.3586L460.994 99.6236C460.926 101.771 458.465 102.903 456.535 101.698L445.673 94.6183C444.517 93.8977 443.918 92.5629 444.193 91.3297Z" fill="#1D2538"/>
<path d="M443.613 61.9836C443.613 61.9836 442.661 60.7456 446.302 60.528C449.958 60.3055 461.932 70.611 461.932 70.611L461.086 101.344L437.679 91.1446L443.613 61.9836Z" fill="#C73F37"/>
<path d="M438.738 85.9096C438.738 85.9096 449.063 35.5026 449.552 32.983C450.127 29.9991 452.782 29.8347 452.468 33.7374C452.26 36.3247 442.81 87.1187 442.81 87.1187L438.738 85.9096Z" fill="#F4E8D8"/>
<path d="M445.161 54.2664C445.161 54.2664 445.963 53.4394 447.593 53.5845C454.267 54.1793 462.101 64.5964 462.101 64.5964L461.898 70.7383C461.898 70.7383 451.259 59.7941 448.691 59.1364C445.04 58.203 443.86 60.9112 443.86 60.9112L445.161 54.2664Z" fill="#C73F37"/>
<path d="M460.554 78.1572C460.554 78.1572 452.057 68.0983 444.59 68.9978C441.446 69.375 442.433 70.4196 442.433 70.4196C442.433 70.4196 441.809 70.8645 444.406 70.8017C448.265 70.7098 460.554 78.1572 460.554 78.1572Z" fill="#1D2538"/>
<path d="M461.496 84.7127C457.84 78.6099 445.721 74.8862 445.721 74.8862C445.721 74.8862 459.373 82.9041 461.366 86.4536L461.496 84.7127Z" fill="#1D2538"/>
<path d="M440.01 82.2382C440.01 82.2382 441.509 79.9699 442.771 80.4487C444.034 80.9275 452.356 86.0396 454.214 88.5691C456.046 91.0695 443.042 82.7073 442.375 82.4268C441.703 82.1511 440.01 82.2382 440.01 82.2382Z" fill="#1D2538"/>
<path d="M461.216 94.4715C461.216 94.4715 460.046 92.5953 457.637 91.8941C455.229 91.193 461.211 96.3091 461.211 96.3091L461.216 94.4715Z" fill="#1D2538"/>
<path d="M377.05 368.006C438.279 366.778 480.933 370.124 492.414 365.535C492.414 365.535 503.126 339.885 490.117 321.518C463.049 293.449 444.199 282.491 401.728 287.08C359.258 291.67 323.544 318.2 312.063 343.454C300.582 368.707 313.34 369.152 317.359 369.728C321.377 370.303 357.982 368.393 377.05 368.006Z" fill="#634874"/>
<path d="M435.059 291.891C414.013 284.521 401.033 283.563 377.52 295.619C354.007 307.68 348.629 311.017 345.215 327.29C341.801 343.567 364.564 341.628 380.871 337.774C397.188 333.925 459.162 300.33 435.059 291.891Z" fill="#F4E8D8"/>
<path d="M473.849 327.214C451.946 336.04 436.214 338.569 413.001 325.56C388.289 311.714 383.115 307.811 395.084 292.649C404.393 280.854 437.539 289.467 450.34 293.757C462.044 297.679 491.839 319.964 473.849 327.214Z" fill="#F4E8D8"/>
<path d="M399.814 77.0161L487.714 127.994C488.662 128.545 495.949 124.366 496.617 123.414C497.284 122.461 494.426 115.57 492.903 114.665L408.049 63.8183C406.807 63.0784 400.674 64.6743 400.674 64.6743L399.814 77.0161Z" fill="#F6874E"/>
<path d="M441.143 89.0693L446.308 98.2534L406.115 74.1832C404.984 73.482 404.21 71.0251 404.21 71.0251L402.488 65.2119L441.143 89.0693Z" fill="#F4E8D8"/>
<path d="M496.622 123.408C496.622 123.408 495.993 124.119 494.581 124.97C492.216 126.392 489.131 128.795 487.375 127.871C485.62 126.948 401.221 78.0367 399.818 77.0163C398.754 76.2425 398.29 68.9789 398.29 68.0891C398.29 67.1944 400.684 64.6797 400.684 64.6797C400.684 64.6797 401.482 71.982 402.884 73.5779C404.287 75.1738 489.295 124.467 489.295 124.467C490.436 124.844 494.324 124.017 496.622 123.408Z" fill="#C73F37"/>
<path d="M400.737 292.09L434.783 99.5413C434.86 99.1158 435.01 98.7047 435.233 98.3323C436.403 96.364 438.178 96.0497 440.765 97.5344C440.765 97.5344 455.046 105.872 456.323 106.641C457.599 107.405 459.118 108.899 458.939 110.979L442.975 297.148C442.845 298.686 441.747 299.963 440.248 300.33L424.144 304.272C423.442 304.446 422.702 304.397 422.025 304.146L404.833 297.69C404.427 297.535 404.05 297.313 403.721 297.022L401.903 295.422C400.96 294.585 400.515 293.323 400.737 292.09Z" fill="#F6BE4A"/>
<path d="M434.981 98.7491C435.784 97.1048 437.525 96.1328 437.361 97.1484L404.481 295.784C404.36 296.505 403.494 296.819 402.943 296.331L400.771 294.416C400.529 294.203 400.413 293.874 400.471 293.555L434.861 99.0586C434.885 98.9522 434.923 98.8458 434.981 98.7491Z" fill="#F6874E"/>
<path d="M423.346 304.11L449.557 102.846" stroke="#F4E8D8" stroke-width="2" stroke-miterlimit="10"/>
<path d="M430.406 152.652L447.516 193.207L448.711 181.818L432.22 138.826L430.406 152.652Z" fill="#F4E8D8"/>
<path d="M433.018 132.833L450.128 177.712L453.774 149.426L437.283 106.433L433.018 132.833Z" fill="#F4E8D8"/>
<path d="M482.466 319.606C482.466 319.606 484.763 328.407 466.014 334.529C466.009 334.524 491.645 334.142 482.466 319.606Z" fill="#F4E8D8"/>
<path d="M449.939 216.933L444.968 215.4L441.142 222.292L444.199 228.797L434.251 240.655L431.19 244.771" stroke="#F4E8D8" stroke-width="2" stroke-miterlimit="10"/>
<path d="M347.715 330.661C347.715 330.661 357.914 342.326 376.479 339.753C384.507 339.081 408.523 331.237 408.523 331.237C408.523 331.237 364.897 339.385 347.715 330.661Z" fill="#634874"/>
<path d="M469.071 112.982L474.429 110.69L477.108 117.959L469.071 112.982Z" fill="#C73F37"/>
<path d="M458.387 0.297531C450.737 -1.44828 444.343 4.68383 444.203 13.5773C444.072 22.0211 449.682 29.7055 456.656 31.1128C463.547 32.5056 469.679 27.331 470.463 19.2113C471.285 10.666 465.936 2.01916 458.387 0.297531ZM456.607 22.8528C453.967 21.9969 451.718 18.3021 451.592 14.5252C451.462 10.6612 453.599 8.22381 456.356 9.16684C459.088 10.1002 461.303 13.9835 461.318 17.7605C461.332 21.4552 459.233 23.704 456.607 22.8528Z" fill="#1D2538"/>
<path d="M459.63 5.75633C455.288 4.68268 451.646 8.21799 451.53 13.4992C451.506 14.5341 451.627 15.5594 451.859 16.5412C451.709 15.8835 451.612 15.2064 451.593 14.5245C451.462 10.6603 453.6 8.22283 456.356 9.1659C459.089 10.0993 461.304 13.9828 461.318 17.7599C461.333 21.4548 459.229 23.7037 456.608 22.8525C454.973 22.3205 453.489 20.7004 452.565 18.6498C453.827 21.5322 456.124 23.7617 458.779 24.3759C462.856 25.3142 466.406 22.1271 466.749 17.1312C467.112 11.9758 463.939 6.82031 459.63 5.75633Z" fill="#F6BE4A"/>
<path d="M451.981 17.0054C452.005 17.0923 452.024 17.1792 452.048 17.2661C452.024 17.1792 452.005 17.0923 451.981 17.0054Z" fill="#F6BE4A"/>
<path d="M452.309 18.0161C452.358 18.151 452.416 18.2811 452.469 18.4111C452.416 18.2811 452.358 18.151 452.309 18.0161Z" fill="#F6BE4A"/>
<path d="M449.005 22.7681C448.787 22.7681 448.57 22.6714 448.43 22.4828C443.632 16.2252 446.95 7.65127 447.095 7.28858C447.24 6.91623 447.661 6.73246 448.038 6.88237C448.41 7.02744 448.594 7.453 448.444 7.82536C448.41 7.90757 445.291 16.0027 449.585 21.6026C449.827 21.9218 449.769 22.3764 449.45 22.6182C449.315 22.7197 449.16 22.7681 449.005 22.7681Z" fill="#F4E8D8"/>
<path d="M454.127 26.8071C453.977 26.8071 453.827 26.7636 453.702 26.6669C452.71 25.9417 451.893 25.1294 451.279 24.2446C451.051 23.9158 451.129 23.4661 451.458 23.2341C451.786 23.0068 452.236 23.0842 452.468 23.413C452.991 24.1624 453.697 24.8635 454.558 25.492C454.882 25.7289 454.954 26.1834 454.717 26.5074C454.572 26.7056 454.354 26.8071 454.127 26.8071Z" fill="#F4E8D8"/>
<path d="M490.368 372.532C494.319 370.342 479.971 350.635 469.738 345.808C459.504 340.982 465.97 364.5 473.592 369.897C481.213 375.299 486.417 374.728 490.368 372.532Z" fill="#33A86D"/>
<path d="M482.408 373.898C482.408 373.898 462.59 364.263 452.206 364.616C441.828 364.969 454.557 373.109 454.557 373.109C454.557 373.109 443.603 370.855 440.847 376.611C438.09 382.367 482.408 373.898 482.408 373.898Z" fill="#33A86D"/>
<path d="M501.752 369.689C502.749 367.556 501.989 361.27 492.888 362.309C483.786 363.349 481.605 371.71 484.787 373.746C487.97 375.778 500.756 371.822 501.752 369.689Z" fill="#33A86D"/>
<path d="M422.199 184.634L421.541 191.598C421.43 192.038 422.165 192.387 422.891 192.237L428.476 191.086C429.037 190.969 429.308 190.602 429.062 190.288L424.134 184.474C423.713 183.942 422.349 184.054 422.199 184.634Z" fill="#F6874E"/>
<path d="M447.835 241.74L443.052 246.523L446.877 251.494L447.835 241.74Z" fill="#F6874E"/>
<path d="M410.718 257.619L414.931 263.359L409.379 266.42L410.718 257.619Z" fill="#F6874E"/>
<path d="M467.982 396.724C467.982 396.724 464.65 394.567 458.329 395.389C452.086 396.202 449.77 397.595 454.253 398.867C457.13 399.679 465.772 399.742 467.982 396.724Z" fill="#33A86D"/>
<path d="M443.879 384.096C443.879 384.096 440.547 381.939 434.226 382.762C427.983 383.574 425.666 384.967 430.149 386.239C433.027 387.051 441.664 387.114 443.879 384.096Z" fill="#288453"/>
<path d="M458.227 390.983C458.227 390.983 454.895 388.825 448.574 389.647C442.331 390.46 440.015 391.853 444.498 393.126C447.375 393.938 456.012 394.006 458.227 390.983Z" fill="#33A86D"/>
<path d="M444.45 393.856C444.45 393.856 441.118 391.699 434.797 392.521C428.554 393.333 426.237 394.726 430.72 395.998C433.598 396.811 442.24 396.874 444.45 393.856Z" fill="#33A86D"/>
<path d="M396.767 389.73C396.767 389.73 393.227 387.127 386.186 387.611C379.231 388.09 376.581 389.483 381.451 391.181C384.575 392.274 394.122 392.922 396.767 389.73Z" fill="#288453"/>
<path d="M422.979 391.306C422.979 391.306 419.439 388.704 412.397 389.188C405.443 389.667 402.793 391.059 407.663 392.757C410.792 393.849 420.333 394.497 422.979 391.306Z" fill="#288453"/>
<path d="M408.229 385.619C408.229 385.619 405.453 383.578 399.94 383.96C394.489 384.337 392.415 385.425 396.23 386.755C398.677 387.611 406.154 388.119 408.229 385.619Z" fill="#288453"/>
<path d="M408.798 391.868C408.798 391.868 405.259 389.266 398.217 389.75C391.263 390.229 388.613 391.621 393.483 393.318C396.612 394.411 406.158 395.059 408.798 391.868Z" fill="#288453"/>
<path d="M442.671 263.867C442.671 263.867 441.907 257.744 439.102 259.529C436.297 261.313 436.297 263.098 437.574 265.395C438.845 267.697 441.65 266.164 442.671 263.867Z" fill="#288453"/>
<path d="M439.609 254.682C439.609 254.682 438.845 248.559 436.04 250.344C433.235 252.128 433.235 253.913 434.512 256.21C435.789 258.508 438.589 256.979 439.609 254.682Z" fill="#33A86D"/>
<path d="M441.142 246.649C441.142 246.649 440.378 240.526 437.573 242.311C434.768 244.095 434.768 245.88 436.045 248.177C437.312 250.474 440.122 248.946 441.142 246.649Z" fill="#33A86D"/>
<path d="M450.321 210.297C450.321 210.297 449.557 204.175 446.752 205.959C443.947 207.744 443.947 209.528 445.224 211.825C446.496 214.127 449.301 212.594 450.321 210.297Z" fill="#33A86D"/>
<path d="M453.382 203.412C453.382 203.412 452.618 197.288 449.813 199.073C447.008 200.858 447.008 202.643 448.284 204.941C449.561 207.239 452.361 205.71 453.382 203.412Z" fill="#288453"/>
<path d="M444.455 272.542C444.455 272.542 443.826 266.419 441.534 268.204C439.236 269.988 439.236 271.773 440.281 274.071C441.326 276.369 443.623 274.84 444.455 272.542Z" fill="#288453"/>
<path d="M440.886 271.265C440.886 271.265 440.258 265.143 437.966 266.927C435.668 268.711 435.668 270.496 436.713 272.793C437.753 275.089 440.05 273.561 440.886 271.265Z" fill="#288453"/>
<path d="M446.292 261.197C446.292 261.197 445.784 256.235 443.922 257.681C442.06 259.127 442.06 260.573 442.907 262.435C443.753 264.296 445.615 263.058 446.292 261.197Z" fill="#288453"/>
<path d="M438.845 281.567C438.845 281.567 438.42 277.423 436.868 278.632C435.315 279.841 435.315 281.05 436.021 282.602C436.727 284.154 438.28 283.119 438.845 281.567Z" fill="#288453"/>
<path d="M448.411 198.82C448.411 198.82 447.647 192.699 444.842 194.483C442.037 196.267 442.037 198.052 443.314 200.348C444.586 202.645 447.391 201.117 448.411 198.82Z" fill="#288453"/>
<path d="M413.78 293.013C413.78 293.013 406.129 290.145 403.257 293.97C402.309 295.237 401.883 296.48 401.738 297.583C401.443 299.807 402.304 301.432 402.304 301.432C402.304 301.432 395.224 294.164 390.253 297.989C385.276 301.814 391.974 306.408 391.974 306.408C391.974 306.408 387.191 304.493 383.173 306.215C379.154 307.937 381.833 313.102 381.833 313.102C381.833 313.102 384.701 316.738 388.72 314.248C392.738 311.762 392.545 310.993 392.545 310.993C392.545 310.993 395.224 311.951 399.431 308.889C403.639 305.828 403.832 304.489 403.832 304.489C403.832 304.489 407.469 307.55 409.761 305.635C412.058 303.72 413.016 301.427 413.016 301.427C413.016 301.427 413.78 305.446 417.223 305.446C420.671 305.446 425.643 288.036 413.78 293.013Z" fill="#288453"/>
<path d="M456.254 305.409C456.254 305.409 455.49 301.767 452.685 302.831C449.88 303.895 449.88 304.954 451.157 306.323C452.434 307.691 455.234 306.772 456.254 305.409Z" fill="#288453"/>
<path d="M461.609 309.998C461.609 309.998 460.845 306.356 458.04 307.42C455.235 308.484 455.235 309.543 456.512 310.912C457.788 312.281 460.593 311.367 461.609 309.998Z" fill="#288453"/>
<path d="M454.533 313.44C454.533 313.44 453.769 309.799 450.964 310.863C448.159 311.927 448.159 312.986 449.436 314.354C450.708 315.718 453.513 314.809 454.533 313.44Z" fill="#288453"/>
<path d="M467.731 318.993C467.731 318.993 466.967 315.351 464.162 316.415C461.357 317.48 461.357 318.539 462.634 319.907C463.905 321.266 466.71 320.357 467.731 318.993Z" fill="#288453"/>
<path d="M444.968 304.877C444.968 304.877 450.326 302.198 448.029 298.372C445.732 294.547 439.227 294.736 438.081 298.179C438.081 298.179 436.166 286.127 431.77 286.891C427.369 287.655 425.841 291.292 427.369 297.033C427.369 297.033 424.69 293.396 420.865 297.608C417.04 301.816 422.011 304.877 422.011 304.877C422.011 304.877 417.035 301.052 415.889 306.792C414.743 312.533 419.714 316.552 423.733 314.637C427.752 312.722 428.898 311.382 428.898 311.382C428.898 311.382 443.053 317.693 444.968 304.877Z" fill="#288453"/>
<path d="M437.061 304.672C437.061 304.672 435.934 299.967 431.794 301.34C427.655 302.713 427.655 304.087 429.536 305.847C431.412 307.612 435.552 306.437 437.061 304.672Z" fill="#33A86D"/>
<path d="M433.487 300.848C433.487 300.848 432.53 296.142 429.029 297.515C425.522 298.889 425.522 300.263 427.118 302.024C428.709 303.789 432.216 302.614 433.487 300.848Z" fill="#33A86D"/>
<path d="M426.856 301.355C426.856 301.355 425.899 296.651 422.398 298.024C418.892 299.397 418.892 300.77 420.487 302.53C422.074 304.3 425.58 303.12 426.856 301.355Z" fill="#33A86D"/>
<path d="M414.505 300.86C414.505 300.86 417.315 298.936 415.767 295.435C414.283 292.08 411.845 293.322 410.868 295.488C409.892 297.659 412.377 300.401 414.505 300.86Z" fill="#33A86D"/>
<path d="M400.965 305.637C400.965 305.637 400.849 300.756 395.887 300.92C390.925 301.085 390.587 302.415 392.26 304.66C393.933 306.899 398.852 306.923 400.965 305.637Z" fill="#33A86D"/>
<path d="M323.669 176.497C323.669 176.497 321.691 168.459 321.087 162.245C320.506 156.297 323.974 158.715 327.625 162.85C331.45 167.188 335.15 174.964 336.17 176.753C337.19 178.538 327.499 182.619 323.669 176.497Z" fill="#1D2538"/>
<path d="M256.071 266.418C254.91 264.721 247.651 256.596 246.123 252.389C244.595 248.182 241.403 238.104 245.997 232.746C245.997 232.746 239.493 232.746 236.432 246.518C233.37 260.291 246.766 273.237 247.912 274.32C253.01 279.17 259.388 271.264 256.071 266.418Z" fill="#1D2538"/>
<path d="M381.218 299.671C379.791 296.794 374.467 295.449 374.467 295.449C374.056 294.85 372.803 293.868 372.658 293.162C370.685 283.587 368.833 274.921 368.16 272.657C366.763 267.957 365.578 260.417 362.526 249.58C359.475 238.743 347.544 247.012 349.866 257.816C351.52 265.519 363.6 296.871 364.001 297.355L369.302 302.989C370.666 304.643 372.977 305.731 375.371 304.667C377.765 303.603 382.615 302.486 381.218 299.671Z" fill="#1D2538"/>
<path d="M288.661 287.055C291.456 283.781 306.259 281 307.913 287.708C309.325 293.419 288.448 329.651 288.448 329.651L288.574 334.792C288.574 334.792 292.036 337.722 291.533 340.566C291.412 341.233 287.853 342.147 284.956 342.786C282.838 343.25 281.087 342.588 280.754 341.161L280.338 339.362L277.688 333.104L285.208 308.005C285.203 308.015 284.84 291.528 288.661 287.055Z" fill="#1D2538"/>
<path d="M332.089 249.583C325.71 250.478 306.835 243.079 303.774 232.367C300.712 221.655 296.887 204.817 296.887 197.93C296.887 197.93 291.785 187.726 289.744 181.86C287.703 175.994 288.98 174.974 292.293 176.502C295.61 178.03 303.005 185.429 303.005 185.429C303.005 185.429 312.696 173.441 325.197 172.164C337.698 170.887 344.585 175.989 348.667 181.348L349.208 181.604C349.208 181.604 360.911 181.348 367.285 180.584C373.664 179.819 376.725 181.604 377.489 188.49C378.254 195.377 378.128 197.161 376.087 200.991C374.046 204.817 362.822 216.742 356.191 221.844C356.191 221.844 360.399 236.574 359.891 241.42C359.383 246.266 338.467 248.688 332.089 249.583Z" fill="#273150"/>
<path d="M321.502 234.406C321.502 234.406 306.835 243.077 303.774 232.365C300.712 221.653 296.887 204.814 296.887 197.927C296.887 197.927 291.785 187.723 289.744 181.857C287.703 175.991 288.98 174.97 292.293 176.499C295.61 178.027 303.005 185.426 303.005 185.426C303.005 185.426 312.696 173.437 325.197 172.161C325.197 172.161 315.438 184.725 313.334 191.611C311.231 198.498 320.095 219.608 320.095 219.608C320.095 219.608 333.52 223.694 333.36 225.218C332.853 230.068 321.502 234.406 321.502 234.406Z" fill="#1D2538"/>
<path d="M326.251 175.254C326.251 175.254 323.901 167.637 322.426 162.53C320.767 156.79 324.863 158.328 328.514 162.468C332.34 166.806 335.754 171.555 336.774 173.339C337.795 175.129 328.36 179.849 326.251 175.254Z" fill="#273150"/>
<path d="M343.724 183.095C344.715 181.975 344.155 179.862 342.474 178.377C340.792 176.892 338.627 176.596 337.636 177.716C336.646 178.837 337.206 180.949 338.887 182.435C340.568 183.92 342.734 184.216 343.724 183.095Z" fill="#121721"/>
<path d="M355.133 227.557C355.133 227.557 368.151 234.569 370.753 238.394L362.653 241.261C362.653 241.261 356.288 235.521 355.133 227.557Z" fill="#992C29"/>
<path d="M328.282 192.91C329.476 191.56 328.8 189.012 326.773 187.221C324.746 185.429 322.134 185.072 320.941 186.423C319.747 187.774 320.422 190.321 322.45 192.112C324.477 193.904 327.088 194.261 328.282 192.91Z" fill="#121721"/>
<path d="M335.15 223.562C335.15 223.562 313.687 219.752 302.627 232.746C292.737 244.367 287.461 248.047 273.548 254.939C264.804 259.267 253.996 258.837 247.912 270.627C243.83 278.534 245.871 290.015 249.953 299.963C258.624 309.654 326.266 290.436 331.324 288.23C346.248 281.726 354.948 268.354 359.639 262.594C363.847 257.429 364.05 240.697 352.516 230.555C348.308 226.856 342.617 224.177 335.15 223.562Z" fill="#273150"/>
<path d="M331.706 226.623C319.079 223.688 313.687 219.751 302.627 232.746C292.737 244.367 287.461 248.047 273.548 254.938C264.804 259.267 253.996 258.836 247.912 270.627C243.83 278.534 245.871 290.014 249.953 299.962C258.624 309.654 326.266 290.435 331.324 288.23C331.324 288.23 313.721 285.933 311.429 279.428C309.132 272.924 320.23 256.471 320.23 256.471C324.056 245.373 336.184 227.663 331.706 226.623Z" fill="#1D2538"/>
<path d="M372.027 193.429C375.875 190.61 377.292 186.001 375.191 183.133C373.09 180.266 368.267 180.226 364.419 183.045C360.571 185.864 359.154 190.474 361.255 193.341C363.356 196.209 368.179 196.248 372.027 193.429Z" fill="#121721"/>
<path d="M370.544 316.379C368.238 313.033 361.801 312.273 361.801 312.273C361.187 311.591 359.523 310.586 359.194 309.73C354.711 298.109 350.576 287.595 349.28 284.882C346.587 279.253 344.938 267.966 338.921 254.952C332.905 241.938 315.394 264.76 323.277 273.798C329.873 281.366 349.633 315.929 350.204 316.461L357.598 322.584C359.552 324.417 362.458 325.369 364.964 323.628C367.473 321.892 372.808 319.658 370.544 316.379Z" fill="#273150"/>
<path d="M249.377 293.483C253.788 286.664 267.019 291.316 269.587 293.105C272.291 294.982 267.759 311.357 267.624 313.567C267.479 315.879 247.762 334.842 243.971 339.949C239.875 345.467 244.991 350.622 242.414 353.176C241.108 354.472 228.331 354.302 228.157 348.62C227.992 343.252 231.407 333.966 231.455 333.531C231.552 332.675 247.641 311.512 247.912 310.361C248.178 309.234 248.067 295.509 249.377 293.483Z" fill="#1D2538"/>
<path d="M342.674 225.351C342.674 225.351 356.96 224.843 356.196 221.845C361.331 217.986 368.663 210.08 368.663 210.08L353.647 218.465L342.674 225.351Z" fill="#1D2538"/>
<path d="M301.733 226.623C301.733 226.623 300.267 231.087 300.838 234.148C300.838 234.148 312.991 236.315 332.978 236.315C343.69 236.315 358.996 233.766 358.996 233.766L357.468 225.7C357.468 225.7 326.479 231.469 301.733 226.623Z" fill="#992C29"/>
<path d="M354.466 228.093C354.466 228.093 363.587 220.766 368.931 220.394L375.991 232.358C375.991 232.358 359.844 230.762 354.466 228.093Z" fill="#C93F37"/>
<path d="M354.466 228.092C359.127 231.042 375.986 232.357 375.986 232.357C375.986 232.357 369.099 226.85 366.88 226.627C364.66 226.405 354.466 228.092 354.466 228.092Z" fill="#992C29"/>
<path d="M137.714 84.884C145.752 85.4594 165.284 102.743 179.038 117.382C196.83 136.32 218.684 156.418 227.631 160.427C238.729 165.403 251.163 171.908 256.328 171.908C256.328 171.908 232.414 197.379 222.654 205.987C212.895 214.595 218.065 197.379 205.438 205.987C192.811 214.595 171.383 240.018 171.383 240.018C171.383 240.018 160.284 236.739 143.832 221.65C122.34 201.944 88.159 115.09 92.9418 99.9771C97.7295 84.8598 130.059 82.7803 137.714 84.884Z" fill="#992C29"/>
<path d="M137.714 84.8843C145.752 85.4598 165.86 101.811 179.614 116.45C197.406 135.388 221.46 155.849 230.441 159.791C240.708 164.293 261.691 173.274 266.856 173.274L256.715 180.712C256.715 180.712 233.691 179.329 215.391 159.283C193.252 135.035 156.556 92.9703 137.714 84.8843Z" fill="#29ACE4"/>
<path d="M100.998 96.4679C100.998 96.4679 80.6145 96.7774 71.1164 93.3776C61.6184 89.9778 64.2927 53.8226 83.1872 49.059C104.775 43.6135 130.716 55.2445 145.065 64.5928C159.413 73.9411 153.586 87.9224 132.82 94.5093C111.749 101.188 100.998 96.4679 100.998 96.4679Z" fill="#229BC6"/>
<path d="M146.202 77.8336C146.202 89.4407 108.466 90.0259 96.9612 90.0259C85.4563 90.0259 76.1276 80.6144 76.1276 69.0073C76.1276 57.4002 85.4563 47.9888 96.9612 47.9888C108.466 47.9888 146.202 66.2265 146.202 77.8336Z" fill="#992C29"/>
<path d="M215.705 206.853C215.004 205.832 203.905 191.803 200.08 187.978C196.255 184.153 224.821 204.048 224.821 204.048C224.821 204.048 221.842 207.244 219.4 208.192C217.108 209.087 216.407 207.873 215.705 206.853Z" fill="#C93F37"/>
<path d="M199.412 179.086L194.436 178.129L187.709 183.135C186.544 181.746 188.415 172.073 190.224 171.947C193.029 171.749 198.929 171.343 202.517 173.427C205.008 174.874 212.963 181.413 211.435 182.946C211.096 183.284 209.491 183.139 209.491 183.139C209.128 183.318 207.769 183.014 207.256 183.202C206.749 183.396 205.762 183.275 204.945 182.931L199.412 179.086Z" fill="#F6874E"/>
<path d="M154.539 104.639C154.539 104.639 164.104 126.84 166.14 131.633C169.932 140.555 162.126 145.019 156.773 140.555C151.419 136.091 140.712 115.345 138.705 110.442C136.694 105.533 148.963 98.1684 154.539 104.639Z" fill="#CE6D3E"/>
<path d="M157.294 110.67C157.294 110.67 164.428 127.282 166.183 131.76C168.258 137.056 162.135 140.146 159.393 136.906C156.047 132.955 153.334 105.572 157.294 110.67Z" fill="#F6874E"/>
<path d="M134.207 84.7584C137.612 82.65 145.606 86.8137 150.273 95.6053C155.442 105.345 156.874 109.417 156.874 109.417C156.874 109.417 151.225 108.445 148.44 110.954C143.913 115.031 140.383 119.635 140.383 119.635C140.383 119.635 135.16 109.064 132.374 101.955C129.797 95.349 129.811 87.4858 134.207 84.7584Z" fill="#C93F37"/>
<path d="M191.036 168.301C193.338 174.462 187.578 176.846 184.135 174.162C180.692 171.483 173.911 161.768 165.99 153.155C156.869 143.247 153.556 138.387 159.365 134.146C165.173 129.9 165.443 130.321 174.796 143.638C181.224 152.788 189.948 165.4 191.036 168.301Z" fill="#CE6D3E"/>
<path d="M183.759 158.919C179.421 165.211 162.49 141.809 162.49 141.809C157.102 134.875 157.673 134.86 160.289 133.167C165.585 130.488 165.677 130.87 171.93 139.512C176.858 146.321 185.122 156.936 183.759 158.919Z" fill="#F6874E"/>
<path d="M193.982 174.046L201.85 174.723C202.247 174.757 202.609 174.955 202.856 175.269L212.098 181.653C212.63 182.335 213.645 182.393 214.25 181.774C214.695 181.314 214.786 180.618 214.467 180.062L206.265 172.498C206.106 172.218 205.854 172 205.559 171.884L191.143 166.091C190.625 165.883 186.679 164.422 184.082 167.024C181.485 169.626 182.835 172.416 183.096 172.977L184.46 179.065C184.474 179.094 184.484 179.119 184.498 179.143L189.17 187.78C189.421 188.249 189.915 188.534 190.447 188.529L191.491 188.515C192.454 188.505 193.131 187.567 192.836 186.648L191.172 181.435C191.095 181.188 191.085 180.922 191.143 180.666L192.468 175.129C192.632 174.452 193.276 173.988 193.982 174.046Z" fill="#CE6D3E"/>
<path d="M173.81 209.752C173.81 209.752 172.379 216.261 137.361 220.174C123.07 221.77 109.104 220.696 97.9226 220.121C88.5165 219.637 71.155 215.981 63.2384 213.103C55.3701 210.245 48.4159 204.263 66.967 191.225C85.552 178.162 165.173 185.644 173.81 209.752Z" fill="#EC5E4D"/>
<path d="M81.7799 199.148C81.7799 199.148 76.3974 196.3 78.119 192.858C79.8406 189.415 84.5268 189.222 84.5268 189.222L81.7799 199.148Z" fill="#C93F37"/>
<path d="M148.599 61.4435C147.535 76.4692 134.318 78.7374 119.041 80.1012C109.857 80.9233 100.074 77.3059 93.7241 71.0335C89.5119 66.8745 86.8085 61.5451 86.7989 55.5725C86.7698 40.5952 103.667 27.2234 118.944 25.8596C134.216 24.4958 149.74 45.3007 148.599 61.4435Z" fill="#273150"/>
<path d="M119.561 30.3389C123.942 23.9636 124.464 16.7145 120.728 14.1477C116.993 11.5809 110.414 14.6682 106.033 21.0435C101.653 27.4188 101.13 34.6679 104.866 37.2347C108.602 39.8015 115.181 36.7142 119.561 30.3389Z" fill="#273150"/>
<path d="M107.116 21.958C107.706 14.4442 105.059 8.10752 101.204 7.8047C97.3482 7.50188 93.7443 13.3476 93.1542 20.8614C92.564 28.3753 95.211 34.7119 99.0664 35.0147C102.922 35.3176 106.526 29.4719 107.116 21.958Z" fill="#273150"/>
<path d="M107.098 44.8571C110.103 36.6249 107.556 28.1324 101.409 25.8886C95.2619 23.6447 87.8427 28.4992 84.8378 36.7314C81.8329 44.9636 84.3802 53.4561 90.5273 55.6999C96.6744 57.9438 104.094 53.0892 107.098 44.8571Z" fill="#273150"/>
<path d="M99.3314 77.4427C107.898 73.3553 111.563 63.1673 107.517 54.6871C103.471 46.207 93.2464 42.646 84.6796 46.7334C76.1128 50.8209 72.448 61.0089 76.494 69.4891C80.54 77.9692 90.7646 81.5302 99.3314 77.4427Z" fill="#273150"/>
<path d="M140.405 54.5989C146.93 49.0247 146.87 38.2459 140.272 30.5237C133.674 22.8016 123.036 21.0603 116.511 26.6345C109.986 32.2088 110.046 42.9876 116.644 50.7097C123.243 58.4319 133.881 60.1732 140.405 54.5989Z" fill="#273150"/>
<path d="M148.473 60.5473C147.607 72.8112 136.818 74.6585 124.355 75.7707C116.859 76.4381 108.875 73.4882 103.695 68.3718C100.257 64.977 98.0566 60.6295 98.0469 55.7549C98.0227 43.5345 111.81 32.6247 124.278 31.5076C136.735 30.4001 149.401 47.3791 148.473 60.5473Z" fill="#48598B"/>
<path d="M118.999 32.4301C122.762 26.9528 123.209 20.7235 119.997 18.5165C116.786 16.3096 111.131 18.9608 107.368 24.4381C103.605 29.9155 103.158 36.1448 106.37 38.3517C109.582 40.5586 115.236 37.9074 118.999 32.4301Z" fill="#48598B"/>
<path d="M106.218 26.5478C106.621 21.4254 104.817 17.1055 102.189 16.8991C99.5607 16.6927 97.1042 20.6779 96.7018 25.8004C96.2994 30.9228 98.1037 35.2426 100.732 35.449C103.36 35.6554 105.816 31.6702 106.218 26.5478Z" fill="#48598B"/>
<path d="M110.13 44.8686C113.31 36.1549 111.607 27.5283 106.326 25.6005C101.044 23.6727 94.1844 29.1737 91.0037 37.8873C87.823 46.601 89.526 55.2276 94.8075 57.1554C100.089 59.0832 106.949 53.5822 110.13 44.8686Z" fill="#48598B"/>
<path d="M103.136 74.3113C110.497 70.799 113.647 62.0447 110.17 54.7579C106.693 47.4711 97.9074 44.4113 90.5459 47.9236C83.1843 51.4359 80.0351 60.1903 83.5117 67.4771C86.9884 74.7639 95.7745 77.8237 103.136 74.3113Z" fill="#48598B"/>
<path d="M137.413 54.6786C143.02 49.8883 142.968 40.6255 137.298 33.9894C131.628 27.3533 122.487 25.8569 116.88 30.6472C111.273 35.4374 111.325 44.7003 116.995 51.3364C122.665 57.9725 131.806 59.4688 137.413 54.6786Z" fill="#48598B"/>
<path d="M90.6486 232.432C90.6244 238.443 92.2155 253.212 100.214 253.599C108.058 253.981 111.178 248.26 113.799 239.25C117.537 226.406 134.758 165.754 114.756 164.09C94.7544 162.427 92.9844 171.344 90.7453 182.989C88.5062 194.639 90.697 221.304 90.6486 232.432Z" fill="#273150"/>
<path d="M91.6066 242.312C91.8871 243.564 97.1535 234.274 97.1535 234.274C97.1535 234.274 96.7618 214.654 99.8327 212.464C110.545 203.662 120.497 208.256 120.497 208.256C124.951 188.177 127.384 165.138 114.757 164.089C94.7549 162.425 92.9849 171.343 90.7458 182.988C89.4497 189.749 89.6432 201.568 90.0204 212.473C90.296 220.361 90.1703 235.904 91.6066 242.312Z" fill="#102441"/>
<path d="M86.4078 251.573C70.7485 280.961 74.8399 308.836 73.8775 343.776C73.4954 357.641 81.8232 355.353 84.1445 344.859C87.1767 331.173 96.7667 302.559 107.101 263.551C110.356 253.792 96.6361 232.374 86.4078 251.573Z" fill="#CE6D3E"/>
<path d="M88.4634 246.215C92.9755 236.872 101.603 234.831 108.078 237.907C112.329 239.924 113.171 241.936 109.66 255.394C107.464 263.799 105.989 268.079 105.733 268.722C105.733 268.722 95.4322 263.122 81.2722 263.552C81.2722 263.548 85.4022 252.555 88.4634 246.215Z" fill="#102441"/>
<path d="M89.3005 253.745C75.7935 279.1 78.9369 303.803 78.1051 333.946C78.0229 336.91 77.8149 339.299 78.1486 341.287C78.9127 345.814 83.7197 347.777 85.2286 340.968C87.8448 329.158 98.2374 297.729 107.155 264.075C109.96 255.66 98.1262 237.181 89.3005 253.745Z" fill="#F6874E"/>
<path d="M90.2673 248.052C90.2673 248.052 96.3897 232.364 108.528 235.619C112.581 236.702 113.413 241.538 109.844 254.367C107.372 263.266 106.207 267.85 105.975 268.537C105.975 268.537 97.1684 262.734 84.9282 263.435L90.2673 248.052Z" fill="#273150"/>
<path d="M109.781 246.012C109.781 246.012 102.575 247.289 100.022 244.483C100.022 244.483 101.168 249.204 103.721 250.094C106.27 250.989 108.63 248.435 108.63 248.435L106.333 248.179L109.781 246.012Z" fill="#102441"/>
<path d="M76.3294 347.99C77.432 358.005 78.5636 370.836 99.876 368.398C110.685 367.16 97.3129 354.606 93.4247 349.934C93.4247 349.934 86.635 342.259 86.0595 341.035C84.5942 337.911 79.4535 337.137 76.6727 343.487C75.2316 346.766 76.1698 346.534 76.3294 347.99Z" fill="#F6874E"/>
<path d="M71.8991 354.044C71.5655 355.804 72.4504 356.52 74.9265 358.096C80.1301 361.414 88.5207 364.306 96.9645 363.416C107.57 362.304 86.0592 358.251 84.1441 355.765C82.229 353.28 81.4601 348.308 79.9367 344.957C78.1522 341.034 77.6396 338.167 75.9179 341.228C74.1963 344.284 72.2764 352.056 71.8991 354.044Z" fill="#CE6D3E"/>
<path d="M73.8775 343.965C73.8775 343.965 73.5438 344.236 75.4734 347.921C82.7419 361.825 86.427 361.946 95.4317 361.888C101.365 361.849 92.1142 350.281 92.1142 350.281L86.4367 341.653C86.4367 341.653 91.2533 347.408 96.6697 353.565C100.002 357.347 103.987 360.548 105.404 362.87C107.865 366.289 110.578 371.783 107.672 372.411C97.9125 374.515 84.9762 372.005 82.5775 370.786C80.1788 369.568 79.8983 366.187 76.871 362.657C75.7248 361.317 72.7265 359.978 72.5331 358.769C72.33 355.649 71.3676 353.41 72.0736 349.681C72.8232 345.73 73.8775 343.965 73.8775 343.965Z" fill="#992C29"/>
<path d="M147.447 329.104C145.692 335.85 147.331 337.098 149.188 339.235C162.947 355.097 166.197 348.965 168.397 350.01C175.733 353.497 175.956 344.71 172.643 342.872C169.456 341.102 164.277 333.935 160.253 330.274C158.372 328.562 158.232 327.493 155.664 327.15C152.994 326.797 148.192 326.255 147.447 329.104Z" fill="#F6874E"/>
<path d="M147.491 337.49C155.214 357.487 171.759 352.322 175.018 350.803C176.362 350.175 167.687 340.391 167.687 340.391C167.687 340.391 157.894 337.77 152.603 335.415C147.061 332.949 145.194 331.551 147.491 337.49Z" fill="#CE6D3E"/>
<path d="M146.921 329.375C147.477 328.345 147.583 328.814 147.762 329.564C149.145 335.367 149.619 337.688 154.262 342.674C155.843 344.372 155.805 348.163 169.031 348.826C174.641 349.106 167.687 340.397 167.687 340.397L159.828 329.806L162.164 332.093C162.164 332.093 171.391 342.375 175.009 344.749C178.553 347.075 182.654 358.188 179.269 358.508C170.627 359.32 162.386 358.406 155.505 356.743C152.298 355.785 150.383 349.053 149.15 348.618C149.15 348.618 145.779 346.19 145.746 344.386C145.717 342.645 146.142 330.816 146.921 329.375Z" fill="#992C29"/>
<path d="M161.054 243.206C161.054 243.206 166.412 203.69 158.95 183.606C154.486 171.584 146.091 169.359 136.999 169.649C127.907 169.94 126.05 177.092 127.4 184.748C128.749 192.403 135.084 234.283 138.286 243.873C141.724 254.174 148.514 253.434 152.89 253.415C157.983 253.386 159.961 250.721 161.054 243.206Z" fill="#273150"/>
<path d="M145.364 212.851C148.807 210.554 162.74 209.413 162.74 209.413C162.599 200.287 161.632 190.842 158.943 183.607C154.48 171.584 146.084 169.359 136.992 169.65C127.901 169.94 126.044 177.093 127.393 184.748C127.978 188.071 129.501 197.845 131.305 208.629C131.305 208.629 135.6 233.903 137.321 239.707C137.65 239.538 138.724 233.521 140.383 223.955C141.645 220.609 141.92 215.149 145.364 212.851Z" fill="#102441"/>
<path d="M138.719 252.057C131.639 275.696 138.545 286.829 147.666 329.711C148.507 333.667 156.545 336.472 158.615 330.514C158.958 329.527 158.808 327.646 158.808 325.494C158.808 309.593 163.054 270.261 160.447 255.032C158.431 243.285 142.206 240.407 138.719 252.057Z" fill="#F6874E"/>
<path d="M135.726 267.136C135.581 271.13 135.769 276.943 137.36 285.039C139.74 297.158 143.889 312.372 144.407 315.013C145.267 319.414 147.705 330.222 148.377 332.95C148.798 334.657 153.972 336.441 153.972 336.441C153.972 336.441 150.708 327.2 149.953 324.835C148.396 319.941 140.765 285.251 139.019 267.832C138.821 265.82 135.871 263.097 135.726 267.136Z" fill="#CE6D3E"/>
<path d="M136.968 247.575C139.662 239.382 143.332 237.598 149.803 237.443C155.253 237.312 159.833 237.003 160.36 249.838C160.703 258.209 161.027 264.302 161.429 267.76C161.429 267.76 154.368 264.878 135.623 267.857C135.628 267.857 135.183 253.005 136.968 247.575Z" fill="#273150"/>
<path d="M136.969 247.574C137.53 245.964 137.65 251.482 137.65 251.482L139.034 267.394C139.034 267.394 138.274 267.438 135.629 267.858C135.629 267.858 135.107 258.263 136.969 247.574Z" fill="#102441"/>
<path d="M158.653 247.85C158.653 247.85 152.1 247.603 149.513 246.167C146.926 244.73 154.315 254.8 158.653 247.85Z" fill="#102441"/>
<path d="M137.331 137.492C129.163 146.061 105.06 137.187 104.04 129.048C103.605 125.585 102.352 117.543 98.6815 102.861C96.3844 93.678 96.0023 90.6701 97.0227 89.3789C99.7019 85.9889 109.785 84.7848 120.11 83.2228C137.138 80.6404 138.347 84.7171 143.962 92.6287C150.8 102.276 153.402 120.633 137.331 137.492Z" fill="#F6BE4A"/>
<path d="M109.587 103.415C101.419 111.984 105.06 137.19 104.04 129.051C103.605 125.588 102.352 117.546 98.6815 102.863C96.3844 93.6793 96.0023 90.6712 97.0227 89.38C99.7019 85.9898 109.785 84.7856 120.11 83.2235C137.138 80.641 138.332 84.6647 144.266 92.9394C151.153 102.549 125.657 86.5556 109.587 103.415Z" fill="#D09435"/>
<path d="M104.804 121.016C103.528 125.799 103.765 138.01 104.166 130.707C104.359 127.226 98.6819 102.098 98.6819 102.098L125.082 92.8276L107.735 108.515C107.74 108.515 106.081 116.233 104.804 121.016Z" fill="#D09435"/>
<path d="M101.361 133.262C101.361 133.262 67.4794 180.724 65.0758 186.967C62.6675 193.23 54.8282 201.267 55.1668 204.556C57.4252 198.303 78.051 200.344 81.7699 199.149C81.7699 199.149 74.2209 194.173 80.5948 191.881C86.9687 189.588 101.516 189.337 110.066 189.482C135.59 189.927 165.144 194.831 173.829 210.103C173.829 210.103 159.287 138.64 139.126 123.097C119.375 107.863 101.361 133.262 101.361 133.262Z" fill="#F6BE4A"/>
<path d="M141.921 96.6242C145.267 98.4425 148.266 102.234 148.266 102.234C148.266 102.234 147.661 97.959 144.697 93.7517C142.462 90.5794 134.27 94.8978 134.27 94.8978C134.27 94.8978 139.798 95.4733 141.921 96.6242Z" fill="#D09435"/>
<path d="M137.878 130.053C132.834 134.226 108.088 133.327 111.822 122.702C113.606 117.614 124.889 111.37 132.994 110.437C146.356 108.899 148.808 121.019 137.878 130.053Z" fill="#FEED7F"/>
<path d="M161.052 187.595L113.606 183.769C101.772 183.769 86.0551 162.341 89.8852 156.219C93.7105 150.096 109.529 130.457 109.529 130.457C111.188 122.294 114.022 116.172 125.856 116.172C125.856 116.172 139.377 116.936 144.987 131.734C144.987 131.734 159.529 153.733 161.821 170.572C163.504 182.918 161.052 187.595 161.052 187.595Z" fill="#FEED7F"/>
<path d="M104.205 182.081C99.7989 182.391 95.9252 184.349 91.8774 171.771C91.8823 171.771 96.3411 178.203 104.205 182.081Z" fill="#FEED7F"/>
<path d="M90.3923 151.63C90.3923 151.63 91.669 161.322 96.002 167.7C96.002 167.7 92.1768 156.732 92.4331 150.097C92.6894 143.462 90.3923 151.63 90.3923 151.63Z" fill="#F6BE4A"/>
<path d="M158.431 188.403C158.601 185.898 159.505 177.962 157.779 173.977C157.779 173.977 161.473 180.37 161.294 186.953C161.12 193.535 158.262 190.909 158.431 188.403Z" fill="#F6BE4A"/>
<path d="M103.194 137.982C103.194 137.982 108.62 129.417 119.119 125.848C119.119 125.848 106.584 127.401 102.125 133.518C97.666 139.636 103.194 137.982 103.194 137.982Z" fill="#F6BE4A"/>
<path d="M124.598 91.8104L123.486 91.9796C120.666 92.4101 118.031 90.4756 117.6 87.656L115.956 76.9147C115.526 74.0952 117.46 71.4594 120.279 71.029L121.392 70.8597C124.211 70.4293 126.847 72.3638 127.277 75.1833L128.921 85.9247C129.357 88.7442 127.417 91.3799 124.598 91.8104Z" fill="#F6874E"/>
<path d="M123.026 79.1873L121.169 79.4727C118.553 79.8741 116.11 78.0799 115.709 75.4635L113.954 63.9777C113.552 61.3614 115.346 58.9191 117.963 58.5177L119.82 58.2324C122.436 57.831 124.878 59.6252 125.28 62.2416L127.035 73.7274C127.437 76.3437 125.642 78.7908 123.026 79.1873Z" fill="#CE6D3E"/>
<path d="M84.7149 108.01C81.4603 116.173 76.2083 130.758 74.7381 133.233C73.268 135.709 73.2196 139.491 77.1368 141.425C81.0492 143.365 84.004 142.388 85.7692 140.284C87.5343 138.181 97.5982 121.144 99.7019 114.32C101.356 108.962 100.239 103.082 97.3419 101.694C94.4451 100.306 87.9696 99.8467 84.7149 108.01Z" fill="#F6874E"/>
<path d="M84.7148 108.01C81.4601 116.173 76.2081 130.758 74.738 133.234C74.2882 133.993 73.969 134.975 73.9158 135.512C73.7998 136.716 74.6751 136.822 75.8986 135.367C76.8658 134.216 83.9748 119.781 86.4364 111.816C88.4627 105.254 86.1849 104.321 84.7148 108.01Z" fill="#CE6D3E"/>
<path d="M102.381 88.623C98.1351 87.1528 92.3706 89.45 88.3518 99.2095C86.2433 104.336 83.3126 111.199 83.3126 111.199C83.3126 111.199 89.9477 112.243 98.4882 117.578C98.4882 117.578 101.201 112.219 103.145 107.247C107.227 96.7866 105.699 89.7692 102.381 88.623Z" fill="#EC5E4D"/>
<path d="M102.381 88.623C98.1351 87.1528 92.3706 89.4499 88.3518 99.2091C86.2433 104.335 83.3126 111.198 83.3126 111.198L86.311 111.836L92.7526 106.386L104.422 103.165C107.014 94.5326 105.336 89.6482 102.381 88.623Z" fill="#C93F37"/>
<path d="M50.3691 163.233C50.3691 163.233 46.2488 167.489 47.5932 169.897C48.8602 172.156 53.3964 173.998 56.6317 171.372C59.867 168.746 70.2645 161.923 84.0859 143.338C89.981 135.417 78.5293 129.899 73.9544 134.905C69.3795 139.91 50.3691 163.233 50.3691 163.233Z" fill="#F6874E"/>
<path d="M54.4261 158.774L64.6302 152.777L76.9573 133.182C76.9573 133.182 75.2695 133.433 73.9541 134.908C69.4421 139.967 54.4261 158.774 54.4261 158.774Z" fill="#CE6D3E"/>
<path d="M40.7783 177.591C40.7783 177.591 36.3194 185.276 35.1298 187.157C34.09 188.796 32.5425 187.389 33.0213 186.277C33.5 185.165 36.7789 177.243 40.7783 177.591Z" fill="#CE6D3E"/>
<path d="M37.9736 177.591C37.9736 177.591 33.5148 185.276 32.3251 187.157C31.2853 188.796 29.7378 187.389 30.2166 186.277C30.6953 185.165 33.9693 177.243 37.9736 177.591Z" fill="#CE6D3E"/>
<path d="M56.936 169.364C56.5201 172.048 54.8468 176.197 50.7796 180.642C47.641 184.07 46.93 185.802 45.7839 188.287C45.4937 188.911 44.7296 189.69 43.9655 190.391C41.5281 192.625 40.5367 192.277 40.2852 190.792C39.9951 189.051 40.8559 187.736 42.3841 185.42C43.1676 184.23 43.3126 182.803 43.5786 182.025C43.922 181.038 44.0574 178.678 41.1993 178.185C38.2637 177.677 36.663 173.828 37.6447 172.411C39.3664 169.925 50.6103 163.498 51.9064 163.871C54.7791 164.407 57.3519 166.68 56.936 169.364Z" fill="#F6874E"/>
<path d="M42.1614 174.577C43.1334 174.853 44.4101 176.758 43.0996 177.929C41.789 179.099 34.951 182.591 33.0602 184.878C30.8114 187.601 29.5734 189.98 28.1759 190.706C26.3914 191.63 24.104 191.509 25.9513 188.67C28.5676 184.651 30.5068 180.298 34.9945 178.074C39.4871 175.849 41.1894 174.302 42.1614 174.577Z" fill="#F6874E"/>
<path d="M41.9245 177.944C44.1055 175.695 41.6875 170.168 40.0868 170.622C38.4861 171.077 31.1789 177.054 29.4815 177.833C27.7841 178.612 23.9395 184.241 23.0932 186.243C22.2421 188.245 22.1696 189.483 24.5102 188.888C26.8508 188.294 29.5879 181.644 32.799 179.966C36.0101 178.287 39.7434 180.193 41.9245 177.944Z" fill="#F6874E"/>
<path d="M98.0425 106.478C98.0425 106.478 90.9094 107.904 88.3608 109.457C85.8122 111.01 86.436 111.817 86.436 111.817L98.0425 106.478Z" fill="#C93F37"/>
<path d="M132.162 90.7883C118.099 100.354 86.1953 103.672 86.2969 103.372C87.3173 100.301 94.2183 85.0479 101.361 83.7711C106.154 83.7566 124.927 83.9356 132.162 90.7883Z" fill="#229BC6"/>
<path d="M137.075 83.0116C132.486 81.9912 123.041 89.5594 122.529 91.6002C122.016 93.6409 137.902 90.4734 166.793 107.501C176.717 113.347 144.47 84.7961 137.075 83.0116Z" fill="#29ACE4"/>
<path d="M126.426 91.9253C127.158 91.9253 127.751 91.3318 127.751 90.5996C127.751 89.8675 127.158 89.2739 126.426 89.2739C125.694 89.2739 125.101 89.8675 125.101 90.5996C125.101 91.3318 125.694 91.9253 126.426 91.9253Z" fill="#273150"/>
<path d="M138.463 21.6902C139.914 22.1785 139.745 29.387 136.137 28.9132C132.742 28.4684 129.009 27.4289 130.15 25.3355C131.287 23.2469 137.012 21.2019 138.463 21.6902Z" fill="#C93F37"/>
<path d="M138.855 24.0341C138.855 24.0341 138.27 28.3957 137.027 28.5746C135.779 28.7487 136.867 26.7033 137.152 23.8552C137.438 21.0071 139.053 22.2014 138.855 24.0341Z" fill="#F7BC4B"/>
<path d="M129.545 27.1163C129.545 27.1163 135.9 32.5461 141.94 34.601C146.505 36.153 150.007 36.2207 150.007 36.2207L148.943 34.7847L150.892 33.165C150.892 33.165 142.743 33.0924 131.107 26.0913L129.545 27.1163Z" fill="#C93F37"/>
<path d="M132.664 29.0937C132.664 29.0937 137.413 35.4923 142.767 38.5442C146.814 40.8512 150.219 41.5234 150.219 41.5234L149.561 39.9419L151.907 38.7038C151.907 38.7038 143.951 37.219 134.468 28.373L132.664 29.0937Z" fill="#C93F37"/>
<path d="M100.748 58.2841C103.691 56.2631 104.213 51.9082 101.912 48.5573C99.6111 45.2063 95.3595 44.1281 92.4156 46.1491C89.4717 48.1701 88.9504 52.525 91.2512 55.8759C93.552 59.2269 97.8037 60.3051 100.748 58.2841Z" fill="#CE6D3E"/>
<path d="M121.392 28.2913C123.007 31.1351 117.547 34.5497 111.724 37.8578C105.907 41.166 99.8761 41.5432 98.2609 38.6946C96.6457 35.8507 100.05 30.8594 105.868 27.5513C111.691 24.248 119.776 25.4474 121.392 28.2913Z" fill="#273150"/>
<path d="M95.5187 48.1686C95.7315 30.9087 109.771 25.7777 113.257 25.1103C130.648 21.7734 138.473 32.0791 141.795 50.3206C144.223 63.6488 136.335 67.3919 128.443 70.4048C118.945 74.0318 95.2576 69.7277 95.5187 48.1686Z" fill="#CE6D3E"/>
<path d="M101.255 53.7343C102.188 40.6618 114.752 36.1641 117.847 35.5063C117.847 35.5063 134.739 39.6124 137.994 42.1707C141.249 44.7291 141.848 53.3281 141.848 53.3281C143.406 63.3053 136.311 66.4827 129.236 69.1137C120.734 72.2718 100.089 70.0568 101.255 53.7343Z" fill="#F6874E"/>
<path d="M106.555 31.4487C115.695 24.6103 130.29 27.3718 130.29 27.3718C130.29 27.3718 116.459 16.3741 103.866 27.541C92.5689 37.5569 95.6881 46.4314 97.2792 51.7319C97.2792 51.7319 95.751 39.5349 106.555 31.4487Z" fill="#F6BE4A"/>
<path d="M115.429 46.8653C116.433 46.6852 116.975 45.0193 116.638 43.1446C116.302 41.2698 115.216 39.896 114.212 40.0761C113.207 40.2562 112.666 41.922 113.002 43.7968C113.338 45.6716 114.424 47.0454 115.429 46.8653Z" fill="#273252"/>
<path d="M132.842 44.4236C133.682 44.2476 134.071 42.7195 133.712 41.0105C133.354 39.3015 132.383 38.0587 131.544 38.2346C130.705 38.4106 130.315 39.9387 130.674 41.6477C131.032 43.3567 132.003 44.5995 132.842 44.4236Z" fill="#273252"/>
<path d="M114.07 33.7139C114.07 33.7139 111.618 34.1635 111.067 36.397" stroke="#273252" stroke-miterlimit="10" stroke-linecap="round" stroke-linejoin="round"/>
<path d="M132.529 33.0996C132.529 33.0996 130.928 31.7276 129.27 31.9595" stroke="#273252" stroke-miterlimit="10" stroke-linecap="round" stroke-linejoin="round"/>
</svg>
