<svg width="299" height="366" viewBox="0 0 299 366" fill="none" xmlns="http://www.w3.org/2000/svg">
<path d="M92.8401 60.9571C66.508 50.6059 40.1759 28.9954 34.7279 26.8162C29.2799 24.637 52.1616 10.8354 67.0528 14.1042C81.9441 17.373 80.1281 36.9858 80.1281 41.3442C80.1281 41.3442 83.7601 35.533 91.7505 38.8018C99.741 42.0706 101.92 54.4195 101.92 60.2307C101.92 66.0419 97.0133 62.5987 92.8401 60.9571Z" fill="#F3E7D9"/>
<path d="M286.241 177.432C286.241 177.432 235.589 152.949 212.373 139.441C189.158 125.934 185.359 110.738 183.67 102.718C181.981 94.6988 183.248 87.522 203.508 97.6516C203.508 97.6516 198.866 89.2109 206.039 80.3451C213.216 71.4794 230.101 80.3451 238.121 91.3211C246.14 102.297 246.562 104.407 246.562 104.407C246.562 104.407 252.471 94.6988 261.337 97.6516C270.202 100.604 272.734 124.245 265.978 131.422C265.978 131.422 273.577 129.733 283.706 139.863C293.836 149.992 300.592 158.437 297.635 162.236C294.679 166.035 286.659 166.035 277.372 160.126C277.372 160.126 296.789 177.854 296.789 180.389C296.792 182.92 286.241 177.432 286.241 177.432Z" fill="#F3E7D9"/>
<path d="M75.4576 208.05C71.5496 203.398 64.4889 194.971 64.4889 194.971C64.4889 194.971 53.8326 205.243 50.2551 208.672C46.4524 212.314 38.9849 217.821 42.4426 218.235C45.9221 218.649 49.9391 217.93 51.0214 217.617C51.0214 217.617 51.49 228.285 65.8364 225.738C79.6526 223.283 79.7107 213.113 75.4576 208.05Z" fill="#1D2538"/>
<path d="M50.6982 215.401C50.6982 215.401 24.8237 239.849 25.6118 242.162C26.4254 244.552 44.9559 248.922 56.7201 235.16C66.5737 223.635 67.3219 210.832 50.6982 215.401Z" fill="#1D2538"/>
<path d="M34.1796 243.648C32.7849 244.443 4.2954 273.456 4.52785 277.865C4.77483 282.492 19.2121 288.87 32.1675 279.688C43.9643 271.331 52.7719 233.057 34.1796 243.648Z" fill="#1D2538"/>
<path d="M225.768 208.483L261.823 236.228C261.823 236.228 258.783 238.636 250.39 236.733L203.686 247.345L225.768 208.483Z" fill="#1D2538"/>
<path d="M248.13 232.45L276.199 256.466C276.199 256.466 263.734 266.57 251.523 255.754C248.032 252.663 205.647 255.892 205.647 255.892L224.461 230.496C224.461 230.496 242.312 231.165 248.13 232.45Z" fill="#1D2538"/>
<path d="M266.923 257.704C268.194 258.238 279.312 266.097 291.831 276.761C291.831 276.761 277.103 288.042 267.075 283.771C257.04 279.496 248.57 249.978 266.923 257.704Z" fill="#1D2538"/>
<path d="M181.195 178.958L204.553 206.115C204.553 206.115 201.72 208.17 195.491 206.467L156.614 212.325L181.195 178.958Z" fill="#1D2538"/>
<path d="M191.466 201.582L211.773 220.73C211.773 220.73 183.509 261.645 175.954 252.223C173.793 249.532 156.552 219.713 156.552 219.713L176.049 197.947C176.056 197.943 187.148 200.431 191.466 201.582Z" fill="#1D2538"/>
<path d="M204.266 221.729C205.163 222.201 212.412 229.059 220.24 238.353C220.24 238.353 206.579 247.974 199.515 244.215C192.447 240.456 191.321 214.93 204.266 221.729Z" fill="#1D2538"/>
<path d="M172.926 130.147C172.926 130.147 180.19 89.4688 144.233 80.7521C108.276 72.0353 96.4794 99.7945 94.4745 105.813C90.4793 117.798 90.4793 125.062 90.4793 125.062L172.926 130.147Z" fill="#C94039"/>
<path d="M171.64 125.862C171.64 125.862 160.646 109.983 134.281 103.59C107.916 97.198 103.217 103.205 102.094 104.451C99.5083 107.324 99.5083 117.527 99.5083 117.527C99.5083 117.527 118.536 113.546 137.873 115.66C162.876 118.391 171.64 125.862 171.64 125.862Z" fill="#EE5D4F"/>
<path d="M90.3886 125.295C90.029 130.739 101.931 135.131 133.337 136.925C164.743 138.723 172.926 133.053 172.926 130.282C173.286 124.837 154.704 119.266 137.332 117.439C116.63 115.256 90.7482 119.85 90.3886 125.295Z" fill="#1D2538"/>
<path d="M96.0689 121.023L96.3232 120.929C96.3195 120.871 95.4987 115.339 100.05 101.327C104.684 87.0641 120.596 80.4175 120.752 80.3485L120.106 80.5228L119.728 80.6318C119.572 80.7008 104.408 87.6161 99.8462 101.338C95.3207 114.951 96.0653 120.965 96.0689 121.023Z" fill="#1D2538"/>
<path d="M144.433 109.866C136.55 109.866 130.159 103.476 130.159 95.5922C130.159 87.709 136.55 81.3184 144.433 81.3184C152.316 81.3184 158.707 87.709 158.707 95.5922C158.707 103.476 152.316 109.866 144.433 109.866Z" fill="#EE5D4F"/>
<path d="M139.693 108.719C131.168 108.719 124.257 101.807 124.257 93.2822C124.257 84.757 131.168 77.8459 139.693 77.8459C148.218 77.8459 155.129 84.757 155.129 93.2822C155.129 101.807 148.218 108.719 139.693 108.719Z" fill="#34283A"/>
<path d="M141.509 106.902C132.984 106.902 126.073 99.9911 126.073 91.4661C126.073 82.941 132.984 76.03 141.509 76.03C150.034 76.03 156.945 82.941 156.945 91.4661C156.945 99.9911 150.034 106.902 141.509 106.902Z" fill="#1689CB"/>
<path d="M142.417 103.633C135.196 103.633 129.342 97.7793 129.342 90.5582C129.342 83.337 135.196 77.4832 142.417 77.4832C149.638 77.4832 155.492 83.337 155.492 90.5582C155.492 97.7793 149.638 103.633 142.417 103.633Z" fill="#29ABE2"/>
<path d="M142.78 101.818C136.361 101.818 131.158 96.614 131.158 90.195C131.158 83.7759 136.361 78.5723 142.78 78.5723C149.199 78.5723 154.403 83.7759 154.403 90.195C154.403 96.614 149.199 101.818 142.78 101.818Z" fill="#665070"/>
<path d="M141.564 101.302C136.047 101.302 131.576 96.8301 131.576 91.3137C131.576 85.7973 136.047 81.3254 141.564 81.3254C147.08 81.3254 151.552 85.7973 151.552 91.3137C151.552 96.8301 147.08 101.302 141.564 101.302Z" fill="#FEED7F"/>
<path d="M133.769 95.9844C137.507 102.133 144.811 99.5619 144.811 99.5619L133.421 86.7373C133.421 86.7373 130.032 89.8354 133.769 95.9844Z" fill="#F7BC4B"/>
<path d="M136.293 71.6895L143.19 1" stroke="#F7BC4B" stroke-miterlimit="10"/>
<path d="M169.054 80.3127L219.056 17.3802" stroke="#F7BC4B" stroke-miterlimit="10"/>
<path d="M149.227 70.829L168.193 30.3108" stroke="#F7BC4B" stroke-miterlimit="10"/>
<path d="M185.435 69.9684C185.435 69.9684 175.952 43.2439 143.191 44.9655" stroke="#F7BC4B" stroke-miterlimit="10"/>
<path d="M240.994 64.1247L237.115 80.5052L240.129 77.487L243.147 63.6925L240.994 64.1247Z" fill="#3E4C6F"/>
<path d="M235.244 65.4644L231.365 81.8452L234.384 78.8269L237.402 65.0358L235.244 65.4644Z" fill="#3E4C6F"/>
<path d="M235.869 64.7963L239.316 76.8653L236.73 80.7443L232.851 69.536L233.711 83.7624L227.247 82.4695L230.693 65.2248L235.869 64.7963Z" fill="#1D2538"/>
<path d="M238.11 132.686C242.959 129.308 244.455 93.2279 244.157 82.9749C243.87 73.1903 243.983 77.0257 243.983 77.0257C243.983 77.0257 244.484 74.9155 240.133 74.9155C235.782 74.9155 235.786 75.039 235.237 76.4046C234.685 77.7775 234.322 80.0475 233.759 80.9337C233.192 81.8272 232.197 82.1468 231.293 82.125C230.388 82.1032 231.721 80.5524 229.019 80.5524C226.317 80.5524 225.329 80.0439 224.57 83.2364C223.796 86.4725 218.138 114.115 218.058 116.956C217.974 119.832 222.554 120.689 226.281 121.499C228.714 122.029 232.717 127.517 233.29 129.097C233.857 130.674 236.047 134.124 238.11 132.686Z" fill="#1D2538"/>
<path d="M228.539 118.678C228.539 118.678 227.82 129.308 221.355 134.913C214.89 140.517 209.213 142.529 209.213 142.529" stroke="#4B3355" stroke-width="3" stroke-miterlimit="10"/>
<path d="M229.832 118.678C229.832 118.678 229.4 130.314 222.935 135.919C216.47 141.523 210.506 142.529 210.506 142.529" stroke="#665070" stroke-width="3" stroke-miterlimit="10"/>
<path d="M223.287 112.838C223.287 112.838 221.53 123.308 215.036 128.88C208.541 134.448 202.247 137.931 202.247 137.931" stroke="#665070" stroke-width="3" stroke-miterlimit="10"/>
<path d="M225.154 112.979C225.154 112.979 223.396 123.45 216.902 129.021C210.408 134.589 204.114 138.072 204.114 138.072" stroke="#4B3355" stroke-width="3" stroke-miterlimit="10"/>
<path d="M228.314 114.849C228.314 114.849 226.556 125.321 220.062 130.892C213.568 136.46 207.274 139.943 207.274 139.943" stroke="#4B3355" stroke-width="3" stroke-miterlimit="10"/>
<path d="M232.538 71.1202C232.538 71.1202 226.233 74.073 224.562 73.0924C222.892 72.1117 221.214 70.3792 219.993 67.8658C218.773 65.3525 217.607 63.7725 218.66 62.741C219.714 61.7131 220.854 60.6598 220.854 60.6598C220.854 60.6598 219.754 61.5134 218.769 60.2603C217.785 59.0072 214.647 53.1269 215.185 51.5724C215.722 50.0179 216.943 47.8132 217.422 47.1231C217.901 46.4331 218.305 46.8943 218.305 46.8943C218.305 46.8943 218.286 45.0129 219.162 44.0286C220.037 43.0443 221.671 42.4305 221.671 42.4305C221.671 42.4305 221.613 41.123 222.623 40.2949C223.633 39.4668 224.065 39.4958 225.954 38.9546C227.842 38.4135 229.059 38.3808 229.059 38.3808C229.059 38.3808 230.508 37.2476 231.304 37.0405C232.099 36.8335 235.956 36.0635 237.67 37.2221C239.388 38.3771 242.505 42.3797 243.758 46.1062C245.011 49.8327 246.525 59.6283 244.927 63.6309C243.329 67.637 236.584 70.3465 232.538 71.1202Z" fill="#992C29"/>
<path d="M227.279 65.708C227.279 65.708 222.129 70.5421 221.076 68.5119C220.197 66.8121 219.111 64.7455 219.111 64.7455C219.111 64.7455 218.78 63.8302 218.962 63.1293C219.143 62.4283 220.157 61.7818 220.157 61.7818C219.35 60.7576 216.34 56.5409 216.783 55.2661C217.222 53.9912 218.221 52.1862 218.613 51.6232C219.005 51.0602 219.336 51.4343 219.336 51.4343C219.336 51.4343 219.321 49.8944 220.037 49.0881C220.752 48.2818 222.093 47.7806 222.093 47.7806C222.093 47.7806 222.045 46.7128 222.874 46.0336C223.702 45.3544 224.054 45.3798 225.601 44.9367C227.148 44.4936 228.144 44.4682 228.144 44.4682C228.144 44.4682 229.331 43.5421 229.981 43.3714C230.632 43.2007 233.791 42.5723 235.197 43.5203C236.603 44.4682 239.156 47.7443 240.184 50.7987C241.212 53.8532 242.345 57.7685 239.875 60.2891C237.968 62.2394 233.014 61.4513 227.279 65.708Z" fill="#C94039"/>
<path d="M230.374 37.5458C230.374 37.5458 228.068 39.5616 228.031 40.7747C227.995 41.9878 229.934 48.6272 230.566 50.5159C231.198 52.4045 231.434 52.7641 232.669 53.1527C233.904 53.5414 235.974 53.0692 235.974 53.0692C235.974 53.0692 235.284 53.6721 233.606 53.7557C231.928 53.8392 230.973 52.884 230.556 52.6406C230.138 52.3973 229.618 50.4069 229.121 48.4855C228.62 46.5642 227.229 41.7626 227.022 40.9672C226.815 40.1718 227.744 38.5845 230.374 37.5458Z" fill="#121721"/>
<path d="M221.748 42.3649C221.748 42.3649 221.929 45.0527 223.455 50.3629C223.952 52.0954 224.374 54.6996 226.912 54.2275C228.525 53.7262 231.394 52.7782 231.394 52.7782L231.525 53.0979C231.525 53.0979 229.375 54.0822 227.937 54.5289C226.495 54.9757 225.253 55.0883 224.479 54.2965C223.705 53.5047 222.274 48.6448 221.853 46.2077C221.432 43.7669 220.782 43.1821 221.748 42.3649Z" fill="#121721"/>
<path d="M218.301 46.8909C218.301 46.8909 219.914 53.0762 220.466 54.9139C221.014 56.7517 222.216 57.1948 224.12 58.2554L223.524 58.3171C223.524 58.3171 220.578 57.0568 220.128 55.3352C219.678 53.6137 217.88 46.7601 217.88 46.7601C217.88 46.7601 217.956 46.7274 218.098 46.7601C218.236 46.7928 218.301 46.8909 218.301 46.8909Z" fill="#121721"/>
<path d="M219.917 61.7786C219.917 61.7786 223.571 58.4225 225.318 57.2566C227.065 56.0907 228.721 57.2893 229.215 58.3644C229.706 59.4395 231.158 60.6526 230.025 61.7277C228.896 62.8028 226.491 63.8489 225.271 64.8477C225.271 64.8477 225.38 64.9313 225.71 65.7739C226.041 66.6165 226.567 66.7873 226.567 66.7873L225.761 64.8513C225.761 64.8513 230.762 62.1382 230.853 61.1248C230.944 60.1115 229.68 58.2482 228.954 57.0932C228.227 55.9382 226.767 56.0363 224.853 57.1005C222.939 58.161 219.917 61.7786 219.917 61.7786Z" fill="#121721"/>
<path d="M222.935 142.744C216.667 142.744 211.585 137.662 211.585 131.393C211.585 125.125 216.667 120.043 222.935 120.043C229.204 120.043 234.286 125.125 234.286 131.393C234.286 137.662 229.204 142.744 222.935 142.744Z" fill="#992C29"/>
<path d="M225.235 136.42C222.934 136.42 221.069 134.555 221.069 132.254C221.069 129.953 222.934 128.088 225.235 128.088C227.535 128.088 229.4 129.953 229.4 132.254C229.4 134.555 227.535 136.42 225.235 136.42Z" fill="#4B3355"/>
<path d="M232.851 117.671C232.851 117.671 232.132 128.302 225.667 133.907C219.202 139.511 213.525 141.523 213.525 141.523" stroke="#856792" stroke-width="3" stroke-miterlimit="10"/>
<path d="M236.011 117.098C236.011 117.098 235.292 127.729 228.827 133.333C222.362 138.937 216.685 140.949 216.685 140.949" stroke="#BB83C3" stroke-width="3" stroke-miterlimit="10"/>
<path d="M235.005 119.898C235.005 119.898 233.567 133.907 227.102 139.511C220.637 145.115 214.96 147.128 214.96 147.128" stroke="#665070" stroke-width="3" stroke-miterlimit="10"/>
<path d="M172.025 147.247C175.323 144.185 173.456 144.81 189.957 136.805C200.046 131.909 207.594 129.381 211.033 128.346C212.315 127.961 214.549 128.622 214.85 130.336C215.533 134.194 216.136 136.58 217.244 138.639C218.334 140.659 219.325 141.425 221.036 140.521C222.681 139.649 224.777 137.299 225.394 139.663C226.001 141.999 226.102 147.49 224.069 148.845C219.59 151.834 193.541 169.199 182.184 171.967C169.236 175.123 168.626 150.407 172.025 147.247Z" fill="#C94039"/>
<path d="M185.082 149.255C187.44 147.16 184.069 147.897 196.004 142.289C203.402 138.813 208.981 136.968 211.538 136.205C212.493 135.918 214.164 136.347 214.389 137.527C214.901 140.193 215.352 141.846 216.187 143.266C217.008 144.664 217.756 145.191 219.049 144.541C220.295 143.916 221.882 142.249 222.354 143.898C222.823 145.532 222.906 149.39 221.363 150.356C217.963 152.481 198.445 164.437 190.167 166.522C185.718 167.652 182.66 151.409 185.082 149.255Z" fill="#EE5D4F"/>
<path d="M225.681 144.374L178.036 169.62" stroke="#1D2538" stroke-width="0.5" stroke-miterlimit="10"/>
<path d="M169.505 143.728C169.505 143.728 177.027 140.005 178.08 142.711C178.665 149.524 182.395 162.683 185.86 171.694C184.857 173.012 179.94 176.855 175.926 175.544C171.724 174.174 169.505 143.728 169.505 143.728Z" fill="#F7BC4B"/>
<path d="M177.597 161.259C179.064 160.337 179.813 158.601 179.497 156.893C178.487 151.416 177.223 140.517 178.08 142.714C178.665 149.528 182.395 162.687 185.86 171.698C184.857 173.016 179.94 176.859 175.926 175.548C173.754 174.839 172.407 162.214 172.407 162.214C174.967 162.134 176.377 162.026 177.597 161.259Z" fill="#FEED7F"/>
<path d="M239.021 132.058C244.564 128.291 246.634 89.0874 245.653 79.1684C244.76 70.1283 245.105 73.6223 245.105 73.6223C245.105 73.6223 245.501 71.6901 240.972 71.6901C236.471 71.6901 236.479 71.8027 235.967 73.0412C235.447 74.2942 235.16 76.3826 234.605 77.2035C234.045 78.0316 233.017 78.3221 232.073 78.3003C231.132 78.2749 232.469 76.8439 229.669 76.833C226.879 76.8221 225.855 76.3536 225.121 79.2991C224.366 82.3319 219.125 108.66 218.046 116.571C219.662 115.953 223.331 116.538 228.031 118.746C232.807 120.991 235.927 124.405 236.813 127.46C237.717 130.561 236.653 133.667 239.021 132.058Z" fill="#C94039"/>
<path d="M222.648 91.3758L223.749 85.579C223.749 85.579 235.818 81.9397 245.973 86.9192L245.781 93.0501C245.781 93.0538 233.759 87.3551 222.648 91.3758Z" fill="#F7BC4B"/>
<path d="M245.639 95.9015L245.712 93.8892C245.712 93.8892 239.312 91.5101 234.002 91.0887C227.679 90.5875 222.365 92.5961 222.365 92.5961L222.006 94.6811C222.006 94.6811 226.488 92.36 233.89 92.8831C237.249 93.1228 241.215 94.1725 245.639 95.9015Z" fill="#F7BC4B"/>
<path d="M239.839 130.376C242.908 121.405 244.404 100.19 244.404 100.19C244.404 100.19 244.76 98.4469 240.678 98.4469C236.621 98.4469 228.511 102.856 226.382 105.311C222.311 110.004 220.585 114.795 221.352 115.176C222.118 115.558 225.688 116.378 229.927 118.369C234.235 120.392 237.049 123.472 237.848 126.229C238.662 129.025 239.003 132.824 239.839 130.376Z" fill="#EE5D4F"/>
<path d="M241.662 71.6901C243.834 75.718 243.816 94.8841 241.469 109.336C239.682 120.352 236.297 126.149 236.297 126.149" stroke="#1D2538" stroke-width="0.5" stroke-miterlimit="10"/>
<path d="M172.2 143.535C172.2 143.535 163.882 130.892 136.581 128.88C104.59 125.622 89.3897 137.411 89.3897 137.411L62.1533 289.048L187.32 285.369L172.2 143.535Z" fill="#992C29"/>
<path d="M177.245 190.664C177.245 190.664 157.417 177.302 129.396 177.302C101.375 177.302 79.8739 190.377 79.8739 190.377L76.0894 211.163C76.0894 211.163 100.947 198.422 127.671 197.993C154.396 197.565 179.591 212.314 179.591 212.314L177.245 190.664Z" fill="#F7BC4B"/>
<path d="M180.285 219.469C180.285 219.469 158.627 207.546 128.514 207.546C98.4007 207.546 74.7963 219.157 74.7963 219.157L71.0589 238.268C71.0589 238.268 105.352 223.613 127.192 223.806C149.031 223.998 182.464 238.385 182.464 238.385L180.285 219.469Z" fill="#F7BC4B"/>
<path d="M169.258 155.314C169.258 155.314 163.97 149.15 142.33 147.556C113.594 152.728 73.9357 250.72 73.9357 250.72C73.9357 250.72 97.5002 240.663 127.675 240.231C157.85 239.798 181.414 255.318 181.414 255.318L169.258 155.314Z" fill="#EE5D4F"/>
<path d="M91.166 213.023C91.166 213.023 88.8815 217.526 86.4372 222.633C84.4069 226.875 82.293 231.539 81.0436 234.31C129.687 206.757 179.166 237.212 179.166 237.212L176.849 217.839C176.849 217.839 155.267 207.662 127.577 207.811C109.569 207.905 98.8405 210.873 91.166 213.023Z" fill="#FEED7F"/>
<path d="M173.271 188.358L175.999 210.444C175.999 210.444 164.024 201.727 138.092 199.501C112.155 197.274 96.1127 203.452 96.1127 203.452C96.1127 203.452 102.422 191.096 110.002 179.314C110.002 179.311 137.732 170.547 173.271 188.358Z" fill="#FEED7F"/>
<path d="M87.156 148.133C87.156 148.133 103.536 133.333 134.619 135.817C145.991 136.725 159.092 140.277 172.603 148.423" stroke="#1D2538" stroke-width="0.5" stroke-miterlimit="10"/>
<path d="M159.905 142.049L161.536 177.084" stroke="#1D2538" stroke-width="0.5" stroke-miterlimit="10"/>
<path d="M176.703 186.381L176.776 186.443L176.754 186.185C176.754 186.185 173.598 183.102 167.362 179.757C161.605 176.673 152.009 172.762 138.978 171.643C109.842 169.137 86.3134 177.516 80.9634 184.337L80.8944 184.718L81.0033 184.584C86.1136 177.77 109.693 169.308 138.963 171.821C151.966 172.94 161.54 176.837 167.278 179.913C173.489 183.247 176.671 186.349 176.703 186.381Z" fill="#1D2538"/>
<path d="M74.5096 244.545C74.5096 244.545 98.4082 226.406 130.257 229.025C154.824 231.045 172.214 237.215 180.368 243.691" stroke="#1D2538" stroke-width="0.5" stroke-miterlimit="10"/>
<path d="M128.728 135.584L128.535 153.018C128.535 153.018 113.375 153.236 107.462 154.55C98.84 156.464 96.926 157.616 96.926 157.616L98.4587 141.33C98.4587 141.33 112.624 135.057 128.728 135.584Z" stroke="#1D2538" stroke-width="0.5" stroke-miterlimit="10"/>
<path d="M97.6926 149.187C97.6926 149.187 90.7954 151.293 88.4964 153.399" stroke="#1D2538" stroke-width="0.5" stroke-miterlimit="10"/>
<path d="M128.536 149.186C128.536 149.186 146.736 148.039 160.338 154.932" stroke="#1D2538" stroke-width="0.5" stroke-miterlimit="10"/>
<path d="M96.9259 157.616L95.7274 176.125" stroke="#1D2538" stroke-width="0.5" stroke-miterlimit="10"/>
<path d="M21.6345 64.1246L25.5135 80.5052L22.4953 77.487L19.4807 63.6924L21.6345 64.1246Z" fill="#3E4C6F"/>
<path d="M27.3803 65.4646L31.2629 81.8448L28.2447 78.8266L25.2265 65.036L27.3803 65.4646Z" fill="#3E4C6F"/>
<path d="M26.7593 64.797L23.3125 76.866L25.8985 80.7449L29.7775 69.5367L28.9131 83.763L35.3817 82.4701L31.9313 65.2256L26.7593 64.797Z" fill="#1D2538"/>
<path d="M35.2255 119.011C37.0233 118.546 38.1638 117.065 38.0548 115.423C37.5863 108.304 36.5803 90.58 36.4858 89.3996C36.3732 87.9577 35.7049 86.5485 33.4603 86.1526C31.2303 85.7603 28.4736 85.7603 28.183 84.5944C27.8997 83.4504 28.2157 81.5508 26.2871 81.4128C24.3621 81.2748 21.7289 80.8244 20.6865 81.7796C19.27 83.0763 13.4189 107.614 12.6925 118.92C11.8389 132.214 22.5352 138.635 23.3597 137.407C24.1696 136.198 20.5885 133.358 23.7265 125.011C25.5607 120.126 32.1528 119.807 35.2255 119.011Z" fill="#1D2538"/>
<path d="M23.6469 113.792C23.6469 113.792 24.3661 124.423 30.8311 130.027C37.2961 135.632 42.973 137.644 42.973 137.644" stroke="#4B3355" stroke-width="3" stroke-miterlimit="10"/>
<path d="M22.3537 113.792C22.3537 113.792 22.7859 125.429 29.2509 131.033C35.7159 136.638 41.6797 137.644 41.6797 137.644" stroke="#665070" stroke-width="3" stroke-miterlimit="10"/>
<path d="M30.4096 106.441C30.4096 106.441 32.1675 116.912 38.6616 122.484C45.1556 128.051 51.4499 131.535 51.4499 131.535" stroke="#665070" stroke-width="3" stroke-miterlimit="10"/>
<path d="M28.5392 106.586C28.5392 106.586 30.2971 117.057 36.7911 122.629C43.2851 128.197 49.5794 131.68 49.5794 131.68" stroke="#4B3355" stroke-width="3" stroke-miterlimit="10"/>
<path d="M23.872 109.964C23.872 109.964 25.6299 120.435 32.124 126.007C38.618 131.575 44.9123 135.058 44.9123 135.058" stroke="#4B3355" stroke-width="3" stroke-miterlimit="10"/>
<path d="M32.5378 73.4548C32.5378 73.4548 38.9774 75.9645 40.5646 74.8785C42.1518 73.7925 43.6918 71.962 44.7269 69.3942C45.762 66.8227 46.808 65.1774 45.693 64.233C44.5816 63.2887 43.3794 62.3262 43.3794 62.3262C43.3794 62.3262 44.5271 63.0926 45.4169 61.7851C46.3068 60.4775 49.0054 54.4411 48.3661 52.9411C47.7269 51.4374 46.3685 49.3417 45.8455 48.6916C45.3225 48.0415 44.9557 48.5245 44.9557 48.5245C44.9557 48.5245 44.8431 46.6613 43.9097 45.7497C42.9762 44.838 41.3164 44.3441 41.3164 44.3441C41.3164 44.3441 41.2837 43.0474 40.2268 42.2956C39.1699 41.5438 38.7449 41.6019 36.8381 41.1987C34.9313 40.7956 33.7255 40.8464 33.7255 40.8464C33.7255 40.8464 32.2109 39.8258 31.4119 39.6769C30.6092 39.528 26.7411 39.0304 25.1212 40.2944C23.5013 41.5583 20.6938 45.7279 19.7095 49.5052C18.7252 53.2825 17.9008 63.0781 19.7604 66.928C21.6163 70.7743 28.4808 72.9717 32.5378 73.4548Z" fill="#992C29"/>
<path d="M36.3334 68.8096C36.3334 68.8096 40.9678 71.4428 42.0938 71.185C43.2197 70.9271 43.9533 70.4295 44.7596 68.4174C45.566 66.4052 46.3868 65.1195 45.5151 64.3786C44.6434 63.6376 44.5998 63.4851 45.2972 62.4645C45.9945 61.4403 48.1047 56.7187 47.6035 55.5455C47.1023 54.3688 46.0418 52.7307 45.6313 52.2186C45.2209 51.7065 44.934 52.0879 44.934 52.0879C44.934 52.0879 44.8468 50.6314 44.1168 49.9159C43.3867 49.2004 42.0901 48.8154 42.0901 48.8154C42.0901 48.8154 42.0647 47.8021 41.2366 47.2137C40.4085 46.6253 40.078 46.6725 38.5852 46.3565C37.0961 46.0406 36.1518 46.0805 36.1518 46.0805C36.1518 46.0805 34.9677 45.2815 34.343 45.1652C33.7183 45.049 30.6892 44.6604 29.4217 45.6483C28.1541 46.6362 25.9567 49.9014 25.1867 52.8542C24.4167 55.8107 23.9155 58.7708 25.3683 61.7817C26.8211 64.7926 31.0379 64.0699 36.3334 68.8096Z" fill="#C94039"/>
<path d="M32.3636 40.1058C32.3636 40.1058 34.7825 41.94 34.906 43.1386C35.0295 44.3371 33.5621 51.0418 33.0645 52.9522C32.5669 54.8626 32.3599 55.2403 31.165 55.7052C29.97 56.1701 27.8889 55.8505 27.8889 55.8505C27.8889 55.8505 28.6153 56.4026 30.2788 56.3663C31.9422 56.3336 32.8248 55.3239 33.2207 55.0515C33.6166 54.7791 33.9943 52.7779 34.3539 50.842C34.7171 48.9061 35.7632 44.0574 35.9157 43.2584C36.0682 42.4594 35.0404 40.9521 32.3636 40.1058Z" fill="#121721"/>
<path d="M41.2327 44.2789C41.2327 44.2789 41.24 46.9521 40.0959 52.313C39.7219 54.0636 39.4858 56.6677 36.9397 56.3736C35.309 55.9886 32.407 55.2476 32.407 55.2476L32.3017 55.5745C32.3017 55.5745 34.4954 56.399 35.9518 56.744C37.4082 57.0854 38.6468 57.1109 39.355 56.2755C40.0632 55.4401 41.1456 50.5296 41.3962 48.0889C41.6432 45.6446 42.2461 45.0199 41.2327 44.2789Z" fill="#121721"/>
<path d="M44.9557 48.5212C44.9557 48.5212 43.7826 54.7535 43.3685 56.6094C42.9545 58.4653 41.7959 58.9847 39.9835 60.165L40.5792 60.1832C40.5792 60.1832 43.4085 58.7341 43.7317 56.998C44.0586 55.262 45.3661 48.3578 45.3661 48.3578C45.3661 48.3578 45.2899 48.3287 45.1519 48.3723C45.0139 48.4195 44.9557 48.5212 44.9557 48.5212Z" fill="#121721"/>
<path d="M44.3818 63.3651C44.3818 63.3651 40.5355 60.2958 38.7231 59.2643C36.9107 58.2327 35.3562 59.5331 34.9422 60.63C34.5281 61.7269 34.0451 62.2245 35.2327 63.623C36.4204 65.0214 38.8829 67.2806 38.8829 67.2806C38.8829 67.2806 36.6928 68.4429 35.7594 69.5326C36.0935 68.2795 37.826 66.7903 37.826 66.7903C37.826 66.7903 34.0305 63.4522 33.8707 62.4534C33.7109 61.4545 34.4736 60.5428 35.1129 59.3478C35.7521 58.1528 37.2049 58.1492 39.1735 59.0718C41.1421 59.9944 44.3818 63.3651 44.3818 63.3651Z" fill="#121721"/>
<path d="M32.9373 140.277C26.6688 140.277 21.5872 135.195 21.5872 128.927C21.5872 122.658 26.6688 117.577 32.9373 117.577C39.2058 117.577 44.2874 122.658 44.2874 128.927C44.2874 135.195 39.2058 140.277 32.9373 140.277Z" fill="#992C29"/>
<path d="M31.2121 132.806C29.148 132.806 27.4747 131.132 27.4747 129.068C27.4747 127.004 29.148 125.331 31.2121 125.331C33.2761 125.331 34.9494 127.004 34.9494 129.068C34.9494 131.132 33.2761 132.806 31.2121 132.806Z" fill="#4B3355"/>
<path d="M22.1866 115.18C22.1866 115.18 22.9058 125.811 29.3708 131.415C35.8357 137.019 41.5126 139.031 41.5126 139.031" stroke="#856792" stroke-width="3" stroke-miterlimit="10"/>
<path d="M19.0231 114.606C19.0231 114.606 19.7422 125.236 26.2072 130.841C32.6722 136.445 38.3491 138.457 38.3491 138.457" stroke="#BB83C3" stroke-width="3" stroke-miterlimit="10"/>
<path d="M20.7484 120.784C20.7484 120.784 21.4675 131.415 27.9325 137.019C34.3975 142.623 40.0743 144.635 40.0743 144.635" stroke="#665070" stroke-width="3" stroke-miterlimit="10"/>
<path d="M88.2241 136.917C88.2241 136.917 53.8398 125.695 49.0746 124.329C44.4983 123.014 42.6387 123.766 42.0757 127.609C41.52 131.393 39.635 133.198 36.1447 133.634C32.7778 134.055 31.8589 133.936 31.1688 134.074C30.4787 134.212 30.0465 135.679 30.0029 139.148C29.963 142.474 28.837 143.026 36.0539 147.487C43.7428 152.237 75.4649 166.22 75.4649 166.22C75.4649 166.22 84.8355 161.255 87.7919 154.155C90.8719 146.767 88.2241 136.917 88.2241 136.917Z" fill="#C94039"/>
<path d="M63.5446 145.866C55.674 143.222 45.7077 138.591 42.9546 138.907C40.2887 139.213 36.7475 140.244 34.492 140.186C32.251 140.131 31.6263 139.075 31.5864 141.762C31.5501 144.345 33.9726 144.893 39.6386 148.391C45.6605 152.106 73.3038 163.521 73.3038 163.521C73.3038 163.521 77.4044 159.021 77.9782 153.446C78.2906 150.363 71.5459 148.554 63.5446 145.866Z" fill="#EE5D4F"/>
<path d="M74.4804 157.587C74.4404 158.241 74.9162 158.797 75.5482 158.829C76.1801 158.862 76.7286 158.354 76.7722 157.7C76.8157 157.042 76.3363 156.483 75.7044 156.454C75.0688 156.421 74.524 156.93 74.4804 157.587Z" fill="#3E4C6F"/>
<path d="M80.0774 162.105L30.0463 140.949" stroke="#1D2538" stroke-width="0.5" stroke-miterlimit="10"/>
<path d="M85.5943 135.508C85.5943 135.508 91.4891 136.58 92.6405 137.942C93.7991 139.311 92.1937 151.693 88.6125 158.92C85.1839 165.836 81.4211 169.028 77.84 167.452C76.0893 166.678 74.3169 165.741 74.3169 165.741C74.3169 165.741 77.978 161.674 81.4393 151.359C85.2493 139.994 85.5943 135.508 85.5943 135.508Z" fill="#FEED7F"/>
<path d="M85.5943 135.508C85.5943 135.508 91.4891 136.58 92.6404 137.942C93.799 139.311 89.7385 151.885 89.7385 151.885C89.7385 151.885 88.213 153.977 81.4393 151.358C85.2493 139.994 85.5943 135.508 85.5943 135.508Z" fill="#F7BC4B"/>
<path d="M32.9374 114.22C36.2898 114.22 37.8697 116.647 37.8697 116.647C37.8697 116.647 38.193 116.538 37.9787 114.286C37.2123 104.839 36.4968 84.1039 36.4205 83.1087C36.297 81.4961 35.5743 79.9198 33.1408 79.4767C30.7255 79.0372 27.7364 79.0372 27.424 77.7333C27.1153 76.4549 27.4567 74.3265 25.3683 74.174C23.2835 74.0214 20.4288 73.5166 19.2992 74.5844C17.7629 76.0372 11.425 103.481 10.6369 116.131C9.7107 131 21.6128 138.533 22.5027 137.16C23.3816 135.805 17.752 131.995 21.1516 122.657C23.1455 117.191 29.5851 114.22 32.9374 114.22Z" fill="#C94039"/>
<path d="M35.8356 98.4182C35.8356 98.4182 28.9384 99.279 25.7786 97.5574C22.6187 95.8322 25.9565 82.4337 25.9565 82.4337L35.3308 84.4095L35.8356 98.4182Z" stroke="#1D2538" stroke-width="0.5" stroke-miterlimit="10"/>
<path d="M31.8951 113.182C35.8831 113.357 36.6712 113.712 36.4823 111.733C36.1482 104.694 16.7968 101.629 15.3113 101.676C13.4735 101.734 11.4796 109.147 12.0534 118.343C12.6273 127.54 17.6504 135.098 18.3768 126.388C18.7618 121.79 22.786 112.786 31.8951 113.182Z" fill="#EE5D4F"/>
<path d="M22.8804 73.8944C22.3392 75.478 11.2906 108.762 17.3234 134.051" stroke="#1D2538" stroke-width="0.5" stroke-miterlimit="10"/>
<path d="M79.8557 114.391C81.5591 116.091 85.4562 118.91 83.5276 120.755C82.0349 122.186 80.1716 120.664 77.0081 117.54C74.9742 115.532 78.1522 112.692 79.8557 114.391Z" fill="#CC6D3D"/>
<path d="M81.2361 118.695L80.2518 120.366L77.4478 117.511L81.2361 118.695Z" fill="#F5894E"/>
<path d="M73.9938 111.177C73.9938 111.177 75.679 109.623 77.6221 111.686C79.8122 114.014 79.9175 114.188 79.9175 114.188L77.0119 117.541C77.0119 117.541 73.2238 111.806 73.9938 111.177Z" fill="#C94039"/>
<path d="M83.862 120.741C82.4419 121.543 81.7881 121.547 80.8765 120.388C79.9649 119.23 82.4165 117.646 86.0957 115.71C89.7785 113.774 91.017 112.892 91.5873 113.731C92.1611 114.57 90.5303 116.513 87.9734 118.173C85.4165 119.833 85.2821 119.938 83.862 120.741Z" fill="#CC6D3D"/>
<path d="M84.1016 120.449C82.6815 121.252 82.0459 120.816 82.0459 120.816L83.0374 119.338C83.0374 119.338 91.0533 115.92 88.4964 117.58C85.9394 119.24 85.5217 119.647 84.1016 120.449Z" fill="#F5894E"/>
<path d="M91.6851 115.677C92.3352 115.245 92.742 115.038 93.1198 114.656C93.5556 114.006 93.9224 112.739 94.253 112.198C94.9358 111.086 94.184 110.153 93.8898 110.901C93.5956 111.649 92.1609 112.938 92.1609 112.938L92.7856 110.683L94.6016 108.475C94.6016 108.475 94.6852 106.557 94.1077 106.743C93.5302 106.928 92.4297 109.223 91.4563 109.466C90.4829 109.71 89.2044 113.596 89.4732 114.449C89.7419 115.303 90.8388 116.185 91.6851 115.677Z" fill="#CC6D3D"/>
<path d="M83.2916 130.303C83.2916 130.303 84.0471 133.053 78.156 132.054C72.2648 131.055 61.514 128.44 61.514 128.44C61.514 128.44 79.685 125.854 83.2916 130.303Z" fill="#EE5D4F"/>
<path d="M75.4794 141.675L70.9647 148.642L68.9707 146.495L72.4502 139.336L75.4794 141.675Z" fill="#CC6D3D"/>
<path d="M80.3099 129.566C80.7058 129.664 83.052 130.111 80.822 133.833C78.2505 138.126 77.6331 139.089 75.4284 141.813L72.3703 139.547C72.3703 139.547 74.11 135.188 74.949 132.715C75.9841 129.664 79.914 129.468 80.3099 129.566Z" fill="#1D2538"/>
<path d="M75.53 139.666C77.1644 139.238 83.0519 130.111 80.8218 133.834C78.2504 138.126 77.6329 139.089 75.4283 141.813L72.3701 139.547C72.3701 139.55 73.8919 140.095 75.53 139.666Z" fill="#3E4C6F"/>
<path d="M71.1426 147.868C71.1426 147.868 72.1414 151.954 71.0554 152.408C69.9695 152.862 68.2915 147.457 68.9706 146.495C69.6498 145.532 71.1426 147.868 71.1426 147.868Z" fill="#CC6D3D"/>
<path d="M71.3025 148.543C71.3025 148.543 71.6076 151.231 71.0592 151.267C70.5144 151.304 69.5447 149.469 69.2396 148.914C68.9345 148.358 69.3231 146.466 68.8873 146.397C68.4551 146.328 67.7614 147.555 67.7432 148.1C67.7359 148.289 68.1246 148.75 68.4405 149.869C68.6439 150.588 68.7093 151.877 68.9962 152.557C69.5483 153.86 70.5325 154.768 70.9248 154.968C71.8328 155.437 72.0471 154.082 72.0543 152.339C72.0652 150.595 71.3025 148.543 71.3025 148.543Z" fill="#C94039"/>
<path d="M69.1524 148.325C69.098 147.595 69.3195 146.47 68.8873 146.4C68.4551 146.331 67.7614 147.559 67.7432 148.104C67.736 148.293 68.1246 148.754 68.4406 149.873C68.6439 150.592 68.7093 151.881 68.9962 152.56C69.5483 153.864 70.5326 154.772 70.9248 154.972C71.8328 155.44 69.403 153.483 69.4139 151.739C69.4176 151.311 70.6379 151.064 70.6379 151.064C70.6379 151.064 69.2505 149.622 69.1524 148.325Z" fill="#992C29"/>
<path d="M74.5528 125.603C74.5528 125.603 79.5541 127.812 80.9996 129.515C82.4452 131.219 82.3072 134.807 75.2828 132.058C70.4304 130.158 65.4727 128.295 67.7827 127.696C70.089 127.096 72.0903 124.39 74.5528 125.603Z" fill="#1D2538"/>
<path d="M74.7018 152.502C74.7018 152.502 75.6061 154.068 75.9875 154.954C76.318 155.728 76.9718 156.752 77.0953 157.351C77.3604 158.644 77.2587 159.36 76.703 159.429C76.1473 159.498 74.6618 159.011 73.8228 158.089C73.3507 157.569 72.4354 155.136 72.2501 153.97C72.1012 153.062 73.1073 150.301 74.7018 152.502Z" fill="#C94039"/>
<path d="M73.8264 156.004C74.3094 158.343 77.2586 159.363 76.7029 159.429C76.1472 159.498 74.6617 159.011 73.8227 158.088C73.3506 157.569 71.8687 154.358 71.6798 153.192C71.5345 152.281 72.2246 151.492 72.4244 151.3C72.6205 151.111 75.3663 153.831 73.8264 156.004Z" fill="#992C29"/>
<path d="M73.8847 144.651L74.375 151.533C74.375 151.533 76.0058 156.113 75.5736 156.132C75.1414 156.15 73.6159 155.064 72.7951 153.371C72.2648 152.271 70.8846 146.296 70.3471 144.774C68.5456 139.649 73.7285 140.438 73.8847 144.651Z" fill="#F5894E"/>
<path d="M66.4208 126.984C67.5141 127.518 72.2139 128.546 72.6751 131.709C73.2454 135.603 73.8955 144.792 73.8955 144.792L70.4269 144.915C70.4269 144.915 68.1823 139.798 67.5395 136.54C67.0818 134.223 66.893 132.359 66.893 132.359C66.893 132.359 62.1641 128.851 61.7609 127.569C61.3614 126.287 65.3276 126.45 66.4208 126.984Z" fill="#1D2538"/>
<path d="M73.1873 136.551L73.4887 139.918L73.8992 144.796L70.4269 144.916L72.8822 142.25L73.1873 136.551Z" fill="#3E4C6F"/>
<path d="M64.2455 122.331C63.7734 121.736 64.7467 120.737 64.8775 119.426C65.0954 117.203 64.8666 114.254 65.455 112.125C65.8618 110.647 65.8472 110.462 66.8242 109.764C67.4707 109.303 69.9768 110.153 72.5156 110.255C75.0798 110.36 75.2505 110.516 76.2058 113.273C77.1138 115.892 76.3401 116.364 75.3159 118.184C74.4987 119.636 73.1803 121.198 73.1803 121.198C73.1803 121.198 72.8825 122.982 70.6016 123.432C67.616 124.028 65.5204 123.94 64.2455 122.331Z" fill="#CE9436"/>
<path d="M74.5238 107.229L73.5068 110.444C73.5068 110.444 72.9548 111.864 71.8761 111.875C70.7974 111.886 70.1291 110.52 70.2235 110.186C70.3179 109.852 71.5565 105.969 71.5565 105.969L74.5238 107.229Z" fill="#CC6D3D"/>
<path d="M72.9041 121.55C74.2334 122.222 77.5603 125.317 79.6197 126.533C84.0944 129.755 83.2917 130.303 83.2917 130.303C83.2917 130.303 81.759 128.887 79.943 129.308C78.9441 129.541 76.6669 131.375 73.6704 129.984C71.4694 128.963 67.9355 128.48 67.9355 128.48C67.9355 128.48 64.5577 129.101 63.9293 129.257C62.0007 129.737 60.8494 128.429 60.8494 128.429C61.5758 126.443 64.0855 120.599 65.8362 119.938C67.5941 119.28 71.5747 120.878 72.9041 121.55Z" fill="#F7BC4B"/>
<path d="M63.9327 129.261C62.0187 129.78 60.8528 128.433 60.8528 128.433C61.9061 125.284 63.8637 122.182 63.8637 122.182L62.2366 127.358L63.9327 129.261Z" fill="#CE9436"/>
<path d="M71.7237 117.559C72.3666 117.918 75.9404 115.597 75.6099 116.436C75.2794 117.272 73.024 122.306 72.0324 122.713C71.0445 123.119 70.0384 120.969 68.7454 120.657C67.4524 120.344 65.2042 121.263 65.2732 120.711C65.3423 120.159 68.0735 115.517 71.7237 117.559Z" fill="#F7BC4B"/>
<path d="M73.3107 128.52C74.393 129.145 76.6122 129.53 76.6122 129.53C76.6122 129.53 74.0625 128.2 72.0141 125.026C72.0104 125.026 72.2284 127.895 73.3107 128.52Z" fill="#CE9436"/>
<path d="M62.4873 114.559C62.4873 114.559 61.0091 117.203 60.4461 119.167C59.8831 121.132 61.296 122.044 62.1822 122.004C63.0684 121.968 64.8227 117.526 65.9595 115.699C67.0964 113.872 64.0563 111.501 62.4873 114.559Z" fill="#CC6D3D"/>
<path d="M65.9995 116.258C65.9995 116.258 68.8434 111.435 66.7078 110.018C64.5758 108.598 62.7199 113.334 62.255 114.7L65.9995 116.258Z" fill="#C94039"/>
<path d="M58.6193 128.923C58.6193 128.923 62.7598 122.952 63.3736 120.817C63.9874 118.681 61.4269 118.35 60.4934 119.182C59.5636 120.01 57.359 126.079 56.8941 127.59C56.4292 129.101 57.6859 129.664 58.6193 128.923Z" fill="#CC6D3D"/>
<path d="M59.2767 127.641C59.2767 127.641 62.4657 123.039 62.9378 121.398C63.41 119.752 58.3033 125.451 57.9474 126.617C57.5914 127.779 58.5539 128.212 59.2767 127.641Z" fill="#F5894E"/>
<path d="M58.7356 128.088C58.7356 128.088 58.9317 129.559 58.6629 130.521C58.5649 130.957 57.7549 131.044 57.1121 131.153C56.4692 131.262 55.8227 131.248 55.4559 131.222C55.0927 131.197 54.5733 130.786 55.7682 130.496C56.2803 130.372 57.3481 129.886 57.3481 129.886C57.3481 129.886 57.5079 128.854 57.7404 128.335C58.1217 127.474 58.7356 128.088 58.7356 128.088Z" fill="#CC6D3D"/>
<path d="M56.9452 130.107C56.9452 130.107 55.0057 129.962 54.3447 130.049C53.6437 130.144 52.3289 130.514 52.0783 130.155C51.8349 129.799 52.703 129.258 52.979 129.236C53.2478 129.21 55.2599 129.105 55.2599 129.105C55.2599 129.105 59.0917 129.316 56.9452 130.107Z" fill="#CC6D3D"/>
<path d="M57.5769 129.028C57.5769 129.028 55.4849 128.273 55.1108 128.222C54.7258 128.171 52.0927 129.962 52.9207 129.958C53.7016 129.955 54.5479 129.174 55.2125 129.599C55.8699 130.016 57.7876 130.307 57.5769 129.028Z" fill="#CC6D3D"/>
<path d="M57.7363 128.335C57.7363 128.335 56.3053 127.699 55.9312 127.841C55.5389 127.99 54.1188 129.13 54.976 129.13C55.7786 129.134 57.6455 130.333 57.7363 128.335Z" fill="#CC6D3D"/>
<path d="M78.3194 106.898C78.3194 106.898 76.8812 109.295 74.6874 108.315C72.4937 107.33 71.9525 101.749 75.2068 101.858C78.4611 101.966 79.5362 105.26 78.3194 106.898Z" fill="#273252"/>
<path d="M76.7504 99.4096C75.6536 98.2256 75.2432 96.7039 72.846 97.2015C72.846 97.2015 70.3908 96.4061 68.0336 98.0913C65.2079 100.114 66.2793 103.045 66.2793 103.045C66.2793 103.045 63.1703 106.169 66.8931 108.257C68.6874 109.263 71.9743 108.257 73.4163 107.796C76.6306 106.771 77.8473 100.594 76.7504 99.4096Z" fill="#273252"/>
<path d="M73.5142 98.6867C74.7273 98.9918 79.0603 98.4216 79.1584 97.4227C79.2564 96.4239 75.559 95.3342 75.0106 97.4336C75.0106 97.4336 75.8859 95.3923 74.6365 94.8293C73.3834 94.2627 72.3011 98.3816 73.5142 98.6867Z" fill="#273252"/>
<path d="M77.84 102.911C78.3557 107.621 75.3557 108.747 72.1087 108.33C69.6679 108.017 69.3265 106.466 69.4609 103.386C69.5953 100.306 70.8048 98.011 73.26 97.8403C76.5034 97.6151 77.5058 99.8525 77.84 102.911Z" fill="#CC6D3D"/>
<path d="M76.8158 105.471C76.2493 107.131 74.9635 108.34 72.7335 108.072C70.9429 107.857 69.8969 106.481 69.817 104.774C69.7371 103.067 73.5216 101.883 75.2977 101.829C77.6403 101.76 77.3824 103.808 76.8158 105.471Z" fill="#F5894E"/>
<path d="M68.9014 103.982L70.9717 103.877C70.9717 103.877 71.0625 100.11 73.4487 99.2061C75.9548 98.2545 77.0989 99.8598 77.0989 99.8598C77.0989 99.8598 75.9039 96.6382 72.1993 97.9893C69.2537 99.0608 68.9014 103.982 68.9014 103.982Z" fill="#F7BC4B"/>
<path d="M68.4076 104.218C68.1585 103.275 68.5524 102.354 69.2874 102.16C70.0224 101.965 70.8202 102.572 71.0693 103.514C71.3183 104.457 70.9244 105.378 70.1894 105.572C69.4544 105.767 68.6567 105.16 68.4076 104.218Z" fill="#F5894E"/>
<path d="M74.0584 101.088C74.0584 101.088 74.6906 100.67 75.0975 100.674" stroke="#1D2538" stroke-width="0.25" stroke-miterlimit="10" stroke-linecap="round" stroke-linejoin="round"/>
<path d="M74.5769 102.323C74.4969 101.954 74.5926 101.621 74.7906 101.578C74.9886 101.535 75.2139 101.799 75.2938 102.167C75.3738 102.536 75.2781 102.87 75.0801 102.913C74.8821 102.956 74.6568 102.692 74.5769 102.323Z" fill="#273252"/>
<path d="M76.9131 102.02C76.8806 101.68 76.9579 101.395 77.0857 101.382C77.2136 101.37 77.3436 101.636 77.3761 101.975C77.4086 102.315 77.3313 102.6 77.2035 102.612C77.0756 102.625 76.9456 102.359 76.9131 102.02Z" fill="#273252"/>
<path d="M76.63 100.434C76.63 100.434 77.095 100.402 77.3239 100.623" stroke="#1D2538" stroke-width="0.25" stroke-miterlimit="10" stroke-linecap="round" stroke-linejoin="round"/>
<path d="M68.7891 105.294C68.7891 105.294 70.9501 104.371 72.2104 105.82C73.4707 107.269 71.4441 110.912 68.9816 109.59C66.5191 108.275 67.1329 105.831 68.7891 105.294Z" fill="#273252"/>
<path d="M71.9888 98.723C71.9888 98.723 72.0868 100.339 71.68 101.454C71.3713 102.297 70.9536 102.787 70.9536 102.787L70.8519 102.446L70.3507 102.493C70.3507 102.493 71.3386 101.36 71.6292 98.8029L71.9888 98.723Z" fill="#EE5D4F"/>
<path d="M71.967 98.5447C71.967 98.5447 72.6135 100.03 72.6135 101.215C72.6135 102.112 72.3883 102.715 72.3883 102.715L72.1777 102.428L71.7237 102.642C71.7237 102.642 72.2612 101.24 71.6619 98.7336L71.967 98.5447Z" fill="#EE5D4F"/>
<path d="M72.0355 99.584C71.7123 99.7947 70.0597 98.5525 70.6953 97.9059C71.291 97.2957 72.0755 96.7145 72.3951 97.2957C72.7184 97.8732 72.3624 99.3734 72.0355 99.584Z" fill="#EE5D4F"/>
<path d="M71.0076 98.96C71.0076 98.96 70.5171 98.226 70.7279 98.0552C70.9386 97.8844 71.0149 98.3241 71.3564 98.7892C71.6943 99.2616 71.222 99.2652 71.0076 98.96Z" fill="#F7BC4B"/>
<path d="M71.9818 99.0574C71.9818 99.0574 71.7494 98.7233 71.0593 98.8395C70.3656 98.9521 69.897 99.101 69.7808 99.5223C69.6646 99.9436 70.2638 100.775 70.7651 101.004C71.2699 101.233 71.9564 100.063 72.0654 99.7002C72.1743 99.3371 71.9818 99.0574 71.9818 99.0574Z" fill="#EE5D4F"/>
<path d="M70.1906 100.26C70.1906 100.26 70.6555 100.939 71.0115 100.787C71.5418 100.561 70.2415 99.6676 70.0526 99.5114C69.8674 99.3551 69.7221 99.9001 70.1906 100.26Z" fill="#F7BC4B"/>
<path d="M229.328 264.292C229.328 264.292 275.109 293.25 288.286 298.825C301.921 304.593 275.963 305.101 275.963 305.101C275.963 305.101 287.956 312.463 279.206 313.484C270.406 314.512 265.437 313.484 265.437 313.484C265.437 313.484 286.049 321.888 269.945 329.588C253.117 337.633 155.696 365.436 96.8609 349.771C42.515 335.298 41.3455 330.522 21.9433 331.622C2.42123 332.73 12.1478 323.915 18.9941 321.304C18.9941 321.304 -5.72903 323.043 1.23718 312.576C14.9735 291.935 25.3756 285.565 25.3756 285.565L229.328 264.292Z" fill="#1D2538"/>
<path d="M134.034 344.723C133.497 343.459 124.722 335.541 129.026 334.782C133.33 334.023 139.577 338.726 139.577 338.726C139.577 338.726 140.917 331.009 143.035 333.268C145.156 335.527 146.423 339.413 146.423 339.413C146.423 339.413 147.974 331.288 150.578 333.776C153.182 336.264 154.257 338.792 154.257 338.792C154.257 338.792 158.333 333.878 159.546 336.725C160.759 339.573 162.106 342.732 162.106 342.732C162.106 342.732 165.451 335.2 168.154 335.203C170.856 335.207 172.45 340.764 172.45 340.764C172.45 340.764 174.059 333.678 176.896 333.998C179.732 334.317 181.138 338.519 181.138 338.519C181.138 338.519 187.411 338.261 188.547 341.828C189.681 345.398 182.733 341.824 167.583 344.752C155.609 347.069 134.034 344.723 134.034 344.723Z" fill="#3E4C6F"/>
<path d="M246.623 323.893C246.623 323.893 256.027 316.912 253.593 316.582C251.113 316.244 248.131 319.713 248.131 319.713C248.131 319.713 248.254 313.974 245.766 316.371C243.311 318.732 241.041 326.853 241.041 326.853C241.041 326.853 243.721 315.747 240.206 319.578C236.781 323.312 235.546 327.867 235.546 327.867C235.546 327.867 225.158 313.898 220.353 319.422C215.718 324.75 218.969 327.972 218.969 327.972C218.969 327.972 215.584 319.963 212.501 324.837C209.533 329.526 223.382 337.608 246.623 323.893Z" fill="#3E4C6F"/>
<path d="M116.041 348.656C116.041 348.656 130.461 351.177 129.12 347.774C127.784 344.37 122.06 345.638 122.06 345.638C122.06 345.638 126.019 336.551 122.786 337.491C119.554 338.436 119.038 339.62 119.038 339.62C119.038 339.62 118.337 333.674 116.118 335.527C113.899 337.382 113.899 337.382 113.899 337.382C113.899 337.382 110.724 328.477 110.139 331.982C109.551 335.487 109.551 335.487 109.551 335.487C109.551 335.487 103.987 328.833 103.605 336.188C103.224 343.542 99.9407 343.524 116.041 348.656Z" fill="#3E4C6F"/>
<path d="M100.086 332.908C100.086 332.908 95.7747 325.578 95.3461 327.736C94.9139 329.89 96.6391 335.494 96.6391 335.494C96.6391 335.494 89.3096 326.443 87.5881 330.322C85.8629 334.201 90.6063 337.651 90.6063 337.651C90.6063 337.651 78.5371 330.322 78.9693 333.34C79.4015 336.358 93.6245 345.409 101.382 342.823C109.137 340.237 100.086 332.908 100.086 332.908Z" fill="#3E4C6F"/>
<path d="M62.2077 324.547C62.2077 324.547 66.9366 317.973 69.272 321.913C71.6074 325.854 67.1364 326.341 67.1364 326.341C67.1364 326.341 74.3895 325.059 71.9088 328.981C69.4282 332.904 67.6521 333.013 67.6521 333.013C67.6521 333.013 74.858 334.349 71.2587 337.19C67.663 340.03 51.1519 332.141 45.9872 331.618C40.8225 331.099 41.7377 323.813 45.4714 324.946C49.2088 326.079 49.2088 326.079 49.2088 326.079C49.2088 326.079 46.3104 318.089 50.5453 318.873C54.7839 319.662 54.7839 319.662 54.7839 319.662C54.7839 319.662 60.0176 312.743 62.2077 324.547Z" fill="#3E4C6F"/>
<path d="M95.3428 286.182C95.3428 286.182 105.803 300.867 102.639 303.976C99.4251 307.136 82.6597 301.717 82.6597 301.717C82.6597 301.717 78.2941 307.728 71.0591 307.789C63.8205 307.855 54.439 298.277 54.439 298.277C54.439 298.277 39.061 306.373 35.0912 305.102C31.1469 303.838 24.4095 292.691 24.4095 292.691C24.4095 292.691 10.2918 296.675 7.75306 294.536C5.24333 292.422 32.2183 265.542 32.2183 265.542L42.0901 254.878L95.3428 286.182Z" fill="#33A86D"/>
<path d="M59.0988 281.54C59.1097 282.336 61.6304 332.316 61.6304 332.316L47.1968 327.227L52.2053 279.172L59.0988 281.54Z" fill="#4B3355"/>
<path d="M59.1353 282.191C59.1462 282.986 60.5953 307.629 60.5953 307.629L54.1086 297.18L50.5637 294.02L51.5226 282.045L59.1353 282.191Z" fill="#34283A"/>
<path d="M80.3642 260.239L93.77 280.992C93.77 280.992 102.029 292.814 100.402 295.415C98.7495 298.052 78.7771 282.935 78.7771 282.935C78.7771 282.935 73.1656 294.532 68.5602 294.649C63.9512 294.765 55.6012 284.366 55.6012 284.366C55.6012 284.366 41.0404 292.07 36.5767 291.194C32.1311 290.323 27.8998 277.32 27.8998 277.32C27.8998 277.32 21.0135 283.509 17.8391 280.574C14.7156 277.687 35.044 257.736 38.7995 252.281C42.3952 247.058 42.3952 247.058 42.3952 247.058L80.3642 260.239Z" fill="#288453"/>
<path d="M76.271 238.301L76.3327 239.231C77.5531 242.369 90.3269 264.434 90.3269 264.434C90.3269 264.434 90.6174 271.328 86.8365 271.132C83.0628 270.935 73.7177 263.991 73.7177 263.991C73.7177 263.991 65.5674 274.913 59.2586 273.612C52.9934 272.323 50.0333 261.318 50.0333 261.318C50.0333 261.318 40.2051 266.762 36.682 264.336C33.2062 261.946 35.912 257.984 35.912 257.984C35.912 257.984 29.1201 260.384 30.8926 257.708C32.6396 255.071 51.6096 229.29 51.6096 229.29C51.6096 229.29 60.6751 217.217 65.887 223.276C71.3133 229.581 77.11 238.301 77.11 238.301" fill="#33A86D"/>
<path d="M76.3254 231.975L76.3835 232.734C77.5603 235.295 90.8317 258.245 90.8317 258.245C90.8317 258.245 88.5544 261.518 86.2662 261.351C83.9781 261.184 73.8774 252.888 73.8774 252.888C73.8774 252.888 64.3216 261.867 60.025 260.69C55.7646 259.52 52.6084 250.767 52.6084 250.767C52.6084 250.767 40.4339 255.038 38.8394 254.359C37.2486 253.684 38.2111 249.997 38.2111 249.997C38.2111 249.997 30.7873 252.496 32.4108 250.342C34.0089 248.221 52.5684 224.613 52.5684 224.613C52.5684 224.613 61.278 214.719 66.312 219.688C71.5457 224.852 77.1317 231.978 77.1317 231.978" fill="#288453"/>
<path d="M63.1957 209.34C63.1957 209.34 74.7238 225.815 82.0168 238.545C82.0168 238.545 78.6645 242.776 76.34 241.85C74.0264 240.927 67.9428 231.949 67.9428 231.949C67.9428 231.949 64.3325 238.701 59.6545 239.634C54.9474 240.571 50.1459 234.321 50.1459 234.321C50.1459 234.321 41.2257 239.337 41.6542 236.722C42.0719 234.146 62.4257 210.818 63.1957 209.34Z" fill="#FFFCF3"/>
<path d="M53.1313 299.861L53.5599 307.859L52.848 317.636L53.0841 326.971L50.4691 318.304L51.8965 310.303L51.1374 293.828L54.0865 291.435L53.1313 299.861Z" fill="#34283A"/>
<path d="M55.9282 317.2L56.6945 321.606L54.7768 325.63V320.839L55.1618 314.327L55.9282 317.2Z" fill="#34283A"/>
<path d="M137.06 258.18C137.06 258.18 100.66 313.513 109.282 316.532C117.905 319.55 136.41 309.184 136.41 309.184C136.41 309.184 141.433 319.902 150.862 321.377C160.29 322.851 166.181 312.507 166.181 312.507C166.181 312.507 189.314 316.099 194.057 311.933C198.797 307.767 183.713 288.514 183.713 288.514L154.915 255.336L137.06 258.18Z" fill="#33A86D"/>
<path d="M156.382 295.404L158.398 347.705L147.865 346.979L151.003 294.677L156.382 295.404Z" fill="#4B3355"/>
<path d="M156.698 293.541L157.559 317.294L155.224 315.667L149.754 315.234L150.411 292.665L156.698 293.541Z" fill="#34283A"/>
<path d="M138.785 255.808C138.785 255.808 104.299 298.938 111.868 301.814C119.437 304.687 138.135 295.262 138.135 295.262C138.135 295.262 145.744 303.943 152.587 304.695C159.43 305.446 167.907 297.834 167.907 297.834C167.907 297.834 186.586 306.638 192.619 299.559C198.655 292.48 165.321 251.871 165.321 251.871L138.785 255.808Z" fill="#288453"/>
<path d="M169.185 253.483C169.185 253.483 154.944 234.949 149.354 221.917C149.354 221.917 141.466 239.79 138.204 245.122C134.943 250.454 128.536 258.506 130.846 259.708C133.156 260.911 140.314 254.275 140.314 254.275C140.314 254.275 145.352 258.815 148.599 259.523C151.846 260.231 154.635 257.653 154.635 257.653C154.635 257.653 162.045 261.692 165.106 261.223C168.168 260.754 169.185 253.483 169.185 253.483Z" fill="#FFFCF3"/>
<path d="M153.059 313.175L154.207 322.277L153.727 327.834L153.825 334.346L152.674 328.31L152.961 322.564L151.239 312.987L153.059 313.175Z" fill="#34283A"/>
<path d="M155.547 317.966L156.124 332.527L155.547 336.551L156.891 331.474L156.698 323.33L155.547 317.966Z" fill="#34283A"/>
<path d="M152.1 334.92L150.949 340.859L150.182 346.129L150.281 340.092L151.526 335.4L151.715 330.9L152.1 334.92Z" fill="#34283A"/>
<path d="M248.988 260.544C254.672 268.589 279.479 279.282 285.631 285.576C291.795 291.885 292.954 296.196 286.757 299.382C280.51 302.589 269.345 294.486 269.345 294.486C269.345 294.486 271.074 304.714 264.304 308.139C250.049 315.348 240.293 306.962 240.293 306.962C240.293 306.962 242.472 316.677 235.931 318.025C229.346 319.38 221.751 313.256 221.751 313.256C221.751 313.256 211.633 328.155 205.019 328.133C198.372 328.111 197.384 319.489 197.384 319.489C197.384 319.489 188.489 328.333 180.543 328.311C172.545 328.285 171.982 311.872 171.982 311.872C171.982 311.872 159.092 325.024 157.08 316.518C155.082 308.07 169.225 290.403 184.469 259.139C198.739 229.872 238.005 245.007 248.988 260.544Z" fill="#288453"/>
<path d="M215.799 270.267L211.153 333.221L228.725 336.446L222.267 266.653L215.799 270.267Z" fill="#665070"/>
<path d="M215.642 268.208L212.613 313.096L222.816 302.61L225.881 304.488L221.722 265.585L215.642 268.208Z" fill="#4B3355"/>
<path d="M257.062 263.246C257.062 263.246 293.131 289.626 288.017 291.812C282.871 294.013 263.051 281.951 263.051 281.951C263.051 281.951 263.716 299.451 252.881 301.321C241.934 303.21 233.312 291.061 233.312 291.061L223.168 289.502C223.168 289.502 212.116 311.785 207.663 311.73C200.406 311.643 203.431 299.915 203.431 299.915C203.431 299.915 191.362 314.527 182.682 314.425C173.947 314.324 176.703 299.018 176.703 299.018C176.703 299.018 166.919 311.066 159.96 310.826C152.965 310.583 171.386 280.727 186.343 253C199.712 228.219 230.287 242.769 257.062 263.246Z" fill="#33A86D"/>
<path d="M231.674 227.325C231.674 227.325 276.471 258.8 275.298 262.962C274.249 266.689 271.437 265.167 265.779 264.724C260.098 264.277 253.157 260.307 253.157 260.307C253.157 260.307 252.006 266.097 247.277 267.143C244.506 267.757 234.761 262.704 234.761 262.704C234.761 262.704 233.276 268.501 226.026 270.582C220.829 272.071 209.784 263.936 209.784 263.936C209.784 263.936 207.735 277.439 200.925 277.323C194.079 277.203 185.82 256.112 185.82 256.112L172 267.281C172 267.281 187.077 226.933 195.321 209.852C203.366 193.184 231.674 227.325 231.674 227.325Z" fill="#288453"/>
<path d="M193 250.004C193 250.004 196.178 269.272 190.204 272.555C184.182 275.864 185.94 264.935 185.94 264.935C185.94 264.935 177.19 275.402 175.015 272.497C172.843 269.595 177.528 263.515 177.528 263.515C177.528 263.515 169.65 271.396 173.471 262.088C177.299 252.76 178.309 251.787 178.309 251.787L193 250.004Z" fill="#288453"/>
<path d="M234.663 227.958C243.456 236.213 269.403 253.127 268.303 257.097C267.195 261.089 249.384 246.103 249.384 246.103C249.384 246.103 256.637 259.178 251.915 259.076C247.194 258.975 236.682 254.282 236.682 254.282C236.682 254.282 232.938 264.659 226.306 264.267C219.681 263.874 208.229 254.253 208.229 254.253C208.229 254.253 202.567 264.917 196.393 264.081C190.233 263.246 186.815 251.199 186.815 251.199C186.815 251.199 171.513 270.539 173.576 261.797C175.218 254.834 201.492 196.403 201.492 196.403C201.492 196.403 225.983 219.807 234.663 227.958Z" fill="#33A86D"/>
<path d="M201.768 190.893L240.707 227.449C240.707 227.449 238.466 228.909 234.18 228.88C229.88 228.847 225.376 223.141 225.376 223.141C225.376 223.141 227.897 229.621 223.154 230.286C218.392 230.954 213.692 222.379 213.692 222.379C213.692 222.379 206.682 233.206 200.802 232.701C194.9 232.192 196.342 225.059 196.342 225.059C190.331 232.018 179.112 245.976 179.293 239.907C179.475 233.874 194.628 206.805 201.768 190.893Z" fill="#F3E7D9"/>
<path d="M237.598 282.841C237.598 282.841 239.225 294.155 233.276 296.337C229.611 297.681 226.607 291.866 222.445 286.458C220.629 284.098 221.508 279.409 224.308 279.572L237.598 282.841Z" fill="#33A86D"/>
<path d="M216.191 308.073L213.972 314.324L213.834 321.711L212.559 331.18L215.305 324.617L215.49 315.907L217.484 307.666L216.191 308.073Z" fill="#4B3355"/>
<path d="M215.323 328.888L217.037 329.596L216.663 333.486L218.414 330.279L218.337 316.455L215.323 328.888Z" fill="#4B3355"/>
<path d="M220.448 301.012L217.909 303.598L220.208 322.851L221.759 316.299L220.448 301.012Z" fill="#4B3355"/>
<path d="M144.716 282.971C112.453 234.945 106.573 236.22 106.573 236.22C106.573 236.22 50.8215 306.078 57.0105 309.834C67.7395 316.342 84.73 302.541 84.73 302.541C84.73 302.541 79.213 315.95 85.718 317.396C92.2665 318.848 108.709 313.949 108.709 313.949C108.709 313.949 114.77 323.625 123.077 325.444C131.456 327.278 140.205 303.525 140.205 303.525C140.205 303.525 151.879 316.146 162.735 309.067C166.076 305.944 152.638 294.761 144.716 282.971Z" fill="#288453"/>
<path d="M110.743 282.507L111.545 346.252L97.2133 343.063L106.105 277.713L110.743 282.507Z" fill="#665070"/>
<path d="M104.775 312.191L103.537 320.52L104.216 328.612L104.267 336.301L105.153 330.475L104.467 319.841L104.775 312.191Z" fill="#4B3355"/>
<path d="M108.734 299.145L106.751 308.116L107.59 320.763L109.163 339.624L109.453 330.9L108.938 319.205L108.055 307.626L108.734 299.145Z" fill="#4B3355"/>
<path d="M106.072 325.15L106.78 339.624L109.293 344.792L107.913 336.802L106.072 325.15Z" fill="#4B3355"/>
<path d="M111.247 290.838L111.251 304.56L105.186 305.879L101.238 313.164L105.335 286.044L111.247 290.838Z" fill="#4B3355"/>
<path d="M138.607 263.809C113.917 224.278 108.149 231.568 108.149 231.568C108.149 231.568 74.4841 275.602 68.7564 284.413C62.0409 294.739 59.2587 295.92 63.6498 298.451C68.0954 301.015 88.0679 289.509 88.0679 289.509C88.0679 289.509 91.7253 297.256 99.5087 298.749C107.35 300.256 112.896 293.417 112.896 293.417C112.896 293.417 123.949 303.605 130.882 302.839C137.79 302.076 137.438 291.481 137.438 291.481C137.438 291.481 155.591 299.951 161.689 300.253C167.798 300.558 144.626 273.445 138.607 263.809Z" fill="#33A86D"/>
<path d="M124.795 244.123L145.922 273.542C145.922 273.542 142.57 278.576 136.377 278.827C130.177 279.081 124.82 273.946 124.82 273.946C124.82 273.946 115.925 283.392 111.571 283.367C107.216 283.342 102.345 274.501 102.345 274.501C102.345 274.501 92.7241 281.689 88.9868 281.061C85.2603 280.436 83.7313 271.988 83.7313 271.988C83.7313 271.988 76.9866 274.955 76.0205 272.246C75.0653 269.569 95.6842 245.119 99.1201 237.07C102.189 229.871 117.128 236.522 124.795 244.123Z" fill="#288453"/>
<path d="M122.347 238.486C130.243 249.778 145.163 264.651 143.191 267.39C141.19 270.168 138.52 267.128 134.14 266.958C129.763 266.787 123.825 257.841 123.825 257.841C123.825 257.841 116.071 269.427 110.917 269.522C105.759 269.616 101.957 257.816 101.957 257.816C101.957 257.816 92.1828 268.781 88.8595 267.571C85.558 266.373 86.0665 258.815 86.0665 258.815C86.0665 258.815 82.1149 263.115 79.8303 262.218C77.5567 261.321 99.8282 233.195 99.8282 233.195C99.8282 233.195 114.937 227.888 122.347 238.486Z" fill="#33A86D"/>
<path d="M109.591 218.336L130.562 248.13L120.56 245.177C120.56 245.177 118.003 251.863 115.682 251.863C113.358 251.863 104.997 246.06 104.997 246.06C104.997 246.06 101.052 251.98 98.2231 251.671C95.401 251.362 93.378 246.009 93.378 246.009C93.378 246.009 84.7084 251.014 87.752 247.229C104.605 226.272 109.591 218.336 109.591 218.336Z" fill="#F3E7D9"/>
<path d="M2.09424 333.297C2.09424 333.297 17.2107 320.632 46.63 327.577C76.0494 334.521 98.1139 348.414 134.478 345.555C170.841 342.697 208.843 336.159 233.766 326.76C258.689 317.364 283.615 318.998 294.239 322.267C304.863 325.536 294.635 324.58 284.574 326.302C274.514 328.023 259.506 334.525 253.786 337.383C253.786 337.383 271.114 333.457 270.947 335.342C270.78 337.223 216.329 364.013 183.506 365.386C142.326 367.111 106.504 360.432 66.4608 346.133C35.7449 335.157 10.2663 331.252 2.09424 333.297Z" fill="#1D2538"/>
</svg>
