<svg width="434" height="311" viewBox="0 0 434 311" fill="none" xmlns="http://www.w3.org/2000/svg">
<path d="M124.323 141.346C124.323 141.346 47.7797 204.526 28.9452 215.459C10.1108 226.393 -6.89629 200.879 2.82422 179.008C12.5447 157.136 25.3019 155.317 25.3019 155.317C25.3019 155.317 -1.42946 110.361 34.4159 75.1263C70.2612 39.8914 108.529 33.818 114.606 51.4355C114.606 51.4355 141.292 16.834 194.19 3.44332C242.182 -8.70732 240.969 13.1638 214.238 39.8952C214.238 39.8952 232.462 30.7813 240.969 33.8218C249.469 36.8585 124.323 141.346 124.323 141.346Z" fill="#F4E8D8"/>
<path d="M347.884 137.096C347.884 137.096 192.97 213.64 180.823 221.54C168.672 229.437 165.029 231.261 165.635 236.728C166.242 242.195 189.326 230.654 189.326 230.654C189.326 230.654 172.315 249.485 218.488 240.982C264.656 232.478 321.156 217.897 374.008 185.092C426.861 152.288 439.011 146.214 432.328 134.064C425.644 121.913 404.99 124.343 393.449 129.81C381.909 135.277 412.28 116.446 400.133 114.623C387.979 112.795 347.884 137.096 347.884 137.096Z" fill="#F4E8D8"/>
<path d="M255.239 78.4702C255.239 78.4702 255.239 64.8032 229.724 59.3325C204.21 53.8618 204.21 65.713 206.034 75.7368C207.857 85.7606 222.438 92.1411 225.171 92.1411C227.905 92.1411 255.239 78.4702 255.239 78.4702Z" fill="#48598B"/>
<path d="M222.131 148.637C222.131 148.637 214.84 165.648 226.991 175.975C239.142 186.302 260.402 190.556 279.843 175.975C299.284 161.394 251.899 114.012 222.131 148.637Z" fill="#273150"/>
<path d="M236.101 82.7238C236.101 82.7238 258.955 55.7083 286.523 62.0697C318.115 69.36 329.352 87.2808 334.819 114.619C334.819 114.619 352.133 106.419 357.6 131.933C363.067 157.447 330.262 169.295 311.128 168.385C291.994 167.471 236.101 82.7238 236.101 82.7238Z" fill="#48598B"/>
<path d="M230.027 86.6745C230.027 86.6745 252.881 59.659 280.45 66.0203C312.041 73.3107 323.278 91.2315 328.745 118.569C328.745 118.569 346.059 110.369 351.526 135.884C356.993 161.398 324.188 173.245 305.05 172.336C285.917 171.418 230.027 86.6745 230.027 86.6745Z" fill="#273150"/>
<path d="M213.93 119.479C213.93 119.479 200.263 128.593 194.793 114.922C189.322 101.251 210.283 89.4076 218.483 90.3175C226.687 91.2312 223.954 107.632 213.93 119.479Z" fill="#273150"/>
<path d="M252.202 81.2075C252.202 81.2075 252.202 67.5405 226.687 62.0698C201.173 56.5991 201.173 68.4503 202.997 78.4741C204.82 88.4979 219.401 94.8785 222.134 94.8785C224.864 94.8746 252.202 81.2075 252.202 81.2075Z" fill="#273150"/>
<path d="M247.039 189.342C247.039 189.342 229.118 207.869 219.094 219.717C209.869 230.616 189.023 240.068 185.986 254.648C182.95 269.229 214.841 273.786 224.561 264.066C234.282 254.345 266.48 215.467 271.34 205.14C276.197 194.809 263.439 173.544 247.039 189.342Z" fill="#CE6D3E"/>
<path d="M279.843 183.265C279.843 183.265 270.123 175.975 264.049 176.581C257.976 177.188 240.359 196.326 240.359 196.326C240.359 196.326 247.346 196.629 251.903 200.883C256.46 205.136 262.23 218.197 262.23 218.197C262.23 218.197 286.527 190.555 279.843 183.265Z" fill="#C93F37"/>
<path d="M259.796 264.673C259.796 264.673 240.052 250.195 222.538 246.042C207.324 242.437 199.961 241.788 192.064 246.042C184.167 250.295 178.089 262.749 185.077 265.483C192.06 268.216 259.796 264.673 259.796 264.673Z" fill="#F6874E"/>
<path d="M351.527 275C351.527 275 353.957 236.122 350.314 211.82C346.67 187.519 341.2 169.295 329.659 162.005C318.115 154.714 296.855 166.258 281.061 172.938C268.181 178.386 262.837 203.919 254.329 218.5C247.054 230.973 241.572 242.801 259.796 264.669C278.02 286.536 341.2 314.484 351.527 275Z" fill="#D09435"/>
<path d="M351.528 275C351.528 275 353.958 236.122 350.314 211.82C346.671 187.519 341.2 169.295 329.66 162.005C318.116 154.714 331.484 210.603 319.94 233.692C312.446 248.679 305.966 264.673 322.976 277.43C345.75 294.51 341.2 314.485 351.528 275Z" fill="#F6BE4A"/>
<path d="M253.72 158.357C274.873 183.089 280.451 192.986 280.451 192.986C280.451 192.986 302.322 192.379 301.712 177.798C301.101 163.218 293.373 160.826 284.094 147.424C273.161 131.63 246.656 150.1 253.72 158.357Z" fill="#F6874E"/>
<path d="M253.719 158.357C264.046 171.418 279.536 170.508 279.536 170.508C279.536 170.508 307.784 175.518 284.093 147.423C271.712 132.735 246.655 150.099 253.719 158.357Z" fill="#CE6D3E"/>
<path d="M237.775 80.1439C237.775 80.1439 216.349 78.2589 211.197 111.279C204.513 154.107 214.84 170.512 256.759 165.955C298.678 161.398 299.587 134.363 296.854 115.229C294.121 96.0875 262.375 73.7633 237.775 80.1439Z" fill="#F6874E"/>
<path d="M237.775 80.1436C237.775 80.1436 216.349 78.2586 211.197 111.278C204.513 154.107 214.84 170.511 256.759 165.954C256.759 165.954 237.621 145.3 234.888 126.162C232.154 107.025 266.479 79.5869 237.775 80.1436Z" fill="#CE6D3E"/>
<path d="M215.143 97.6843C215.143 97.6843 223.532 79.5831 249.468 83.9404C268.453 87.1307 288.803 106.418 288.803 106.418L296.854 99.4311C296.854 99.4311 279.229 72.1852 242.785 76.4965C222.891 78.8498 217.347 90.3939 215.143 97.6843Z" fill="#F6BE4A"/>
<path d="M215.143 97.6847C215.143 97.6847 223.532 79.5835 249.468 83.9408L242.785 76.5007C222.891 78.8502 217.347 90.3943 215.143 97.6847Z" fill="#D09435"/>
<path d="M304.145 119.479C294.121 119.479 286.527 130.412 284.097 143.17C281.936 154.526 279.54 168.684 313.259 167.774C346.973 166.864 323.279 119.479 304.145 119.479Z" fill="#273150"/>
<path d="M288.954 132.236C295.077 132.236 300.041 125.197 300.041 116.515C300.041 107.832 295.077 100.794 288.954 100.794C282.831 100.794 277.867 107.832 277.867 116.515C277.867 125.197 282.831 132.236 288.954 132.236Z" fill="#F6874E"/>
<path d="M246.624 111.311C248.658 110.798 249.607 107.612 248.745 104.196C247.882 100.779 245.535 98.425 243.502 98.9381C241.469 99.4512 240.519 102.637 241.382 106.054C242.244 109.47 244.591 111.824 246.624 111.311Z" fill="#263052"/>
<path d="M224.168 117.476C224.372 114.593 223.147 112.157 221.432 112.036C219.717 111.914 218.161 114.153 217.956 117.035C217.752 119.918 218.977 122.353 220.692 122.475C222.407 122.597 223.963 120.358 224.168 117.476Z" fill="#263052"/>
<path d="M216.257 110.971L223.244 111.478" stroke="#273150" stroke-width="2" stroke-miterlimit="10"/>
<path d="M233.471 99.7346C233.471 99.7346 235.394 95.1776 238.838 94.9741" stroke="#273150" stroke-width="2" stroke-miterlimit="10"/>
<path d="M279.167 93.3577C279.167 93.3577 289.801 106.28 300.708 111.816C308.955 116.004 315.562 116.776 315.562 116.776L313.911 113.474L318.019 110.307C318.019 110.307 302.605 108.695 282.381 91.4189L279.167 93.3577Z" fill="#C93F37"/>
<path d="M278.089 91.8495C278.089 91.8495 283.655 107.632 292.005 116.569C298.32 123.326 304.263 126.317 304.263 126.317L303.845 122.65L308.786 121.084C308.786 121.084 294.858 114.289 281.77 91.1316L278.089 91.8495Z" fill="#C93F37"/>
<path d="M284.85 100.188C288.781 99.4966 292.52 78.5123 283.161 78.0708C274.35 77.6523 264.361 78.7772 266.019 85.4188C267.682 92.0603 280.922 100.879 284.85 100.188Z" fill="#C93F37"/>
<path d="M288.243 88.2521C288.243 88.2521 286.796 79.2533 284.005 79.453C281.21 79.6526 283.709 83.4955 284.431 89.423C285.153 95.3505 288.75 92.049 288.243 88.2521Z" fill="#F7BC4B"/>
<path d="M281.586 95.8379C281.586 95.8379 280.995 91.6956 287.03 87.6876C293.065 83.6796 297.656 81.4952 301.495 83.8754C305.335 86.2556 306.663 96.7248 304.471 102.003C302.279 107.278 288.85 103.27 285.467 101.286C282.085 99.3008 281.586 95.8379 281.586 95.8379Z" fill="#C93F37"/>
<path d="M303.553 92.3333C303.553 92.3333 304.816 100.729 301.062 102.104C295.483 104.142 299 88.2408 299.326 85.7262C299.653 83.2117 304.559 86.3175 303.553 92.3333Z" fill="#F7BC4B"/>
<path d="M183.402 184.179C183.402 184.179 187.045 170.965 185.226 164.131C183.402 157.298 182.492 155.017 176.112 151.374C169.731 147.731 162.898 148.184 163.811 140.894C164.721 133.603 166.545 137.25 175.202 138.617C183.859 139.984 183.721 145.328 191.149 148.184C197.073 150.46 204.816 154.108 208.92 163.675C213.02 173.241 224.411 180.989 214.387 187.822C204.36 194.656 184.312 191.466 183.402 184.179Z" fill="#F6874E"/>
<path d="M283.486 175.368C283.486 175.368 269.511 205.136 265.262 217.287C261.008 229.438 266.475 236.118 276.195 241.588C285.916 247.055 297.456 249.182 307.176 229.741C316.897 210.3 325.401 197.239 321.757 187.519C318.114 177.798 295.636 158.357 283.486 175.368Z" fill="#F6874E"/>
<path d="M283.486 175.368C283.486 175.368 269.511 205.136 265.262 217.287C261.008 229.438 266.475 236.118 276.195 241.588C285.916 247.055 285.916 239.158 295.636 219.717C305.357 200.276 325.404 197.239 321.757 187.519C318.11 177.798 295.636 158.357 283.486 175.368Z" fill="#CE6D3E"/>
<path d="M282.879 177.192C282.879 177.192 294.423 149.854 298.067 144.387C301.71 138.92 309.611 135.273 318.114 138.313C326.618 141.35 330.871 162.004 330.871 169.905C330.871 177.802 319.327 201.497 318.721 206.357C318.114 211.217 316.897 188.74 304.747 181.449C292.596 174.159 282.879 177.192 282.879 177.192Z" fill="#C93F37"/>
<path d="M298.067 144.387C301.711 138.92 309.611 135.273 318.115 138.313C326.618 141.35 330.872 162.004 330.872 169.905C330.872 177.802 319.328 201.497 318.721 206.357C318.115 211.217 322.365 161.402 317.508 154.718C310.606 145.224 298.067 144.387 298.067 144.387Z" fill="#EE5D4F"/>
<path d="M300.125 221.955C300.125 221.955 293.468 197.312 270.721 198.28C247.975 199.247 257.96 235.968 280.707 238.866C303.453 241.765 300.125 221.955 300.125 221.955Z" fill="#CE6D3E"/>
<path d="M300.497 226.397C300.497 226.397 293.207 197.036 268.299 198.249C243.391 199.462 229.421 188.732 219.09 185.085C211.131 182.275 197.372 194.199 209.523 203.309C221.673 212.423 254.324 244.011 279.232 247.658C304.14 251.305 300.497 226.397 300.497 226.397Z" fill="#F6874E"/>
<path d="M191.149 178.255C191.149 178.255 176.115 172.331 174.292 170.965C172.468 169.598 171.558 163.217 165.635 163.217C159.711 163.217 164.725 169.598 165.178 173.241C165.635 176.884 170.004 180.32 173.228 184.785C175.202 187.519 177.329 192.532 183.406 195.112C193.618 199.45 204.82 203.312 213.02 200.579C221.221 197.846 205.273 175.065 191.149 178.255Z" fill="#F6874E"/>
<path d="M199.653 163.014C199.653 163.014 201.173 181.441 203.906 182.808C206.64 184.175 213.473 185.085 213.473 185.085C213.473 185.085 204.816 190.552 200.716 185.085C196.616 179.622 199.653 163.014 199.653 163.014Z" fill="#CE6D3E"/>
<path d="M189.537 153.397C188.592 152.265 185.191 150.94 181.598 152.641C178.008 154.341 178.008 154.722 178.196 158.311C178.384 161.901 178.196 169.272 179.329 170.408C180.461 171.54 184.055 172.865 186.131 170.408C188.208 167.951 189.157 163.605 189.157 160.012C189.16 156.418 190.481 154.53 189.537 153.397Z" fill="#F6874E"/>
<path d="M193.729 151.171C192.715 149.957 189.072 148.537 185.225 150.361C181.379 152.184 181.379 152.587 181.582 156.434C181.786 160.281 181.582 168.178 182.795 169.395C184.008 170.608 187.859 172.028 190.086 169.395C192.312 166.761 193.326 162.104 193.326 158.257C193.326 154.411 194.742 152.384 193.729 151.171Z" fill="#CE6D3E"/>
<path d="M194.945 151.171C193.932 149.957 190.289 148.537 186.442 150.361C182.595 152.184 182.595 152.587 182.799 156.434C183.002 160.281 182.799 168.178 184.012 169.395C185.225 170.608 189.075 172.028 191.302 169.395C193.529 166.761 194.542 162.104 194.542 158.257C194.542 154.411 195.955 152.384 194.945 151.171Z" fill="#F6874E"/>
<path d="M192.109 152.284C188.918 153.194 185.728 163.217 185.728 165.951C185.728 168.684 188.362 171.571 193.978 171.721C199.146 171.859 196.915 163.621 196.915 163.621C196.915 163.621 195.299 151.37 192.109 152.284Z" fill="#CE6D3E"/>
<path d="M219.397 185.998C219.397 185.998 218.79 171.418 217.423 167.774C216.057 164.131 210.59 160.484 204.209 156.841C197.829 153.197 196.919 151.374 193.729 152.284C190.538 153.194 187.348 163.217 187.348 165.951C187.348 168.684 188.561 169.901 194.182 170.051C199.349 170.189 198.535 163.621 198.535 163.621C198.535 163.621 200.558 165.951 201.015 173.237C201.472 180.524 203.146 191.465 219.397 185.998Z" fill="#F6874E"/>
<path d="M78.4578 246.698L102.452 245.838L138.447 245.684L147.104 243.711L97.5917 240.978L78.4578 246.698Z" fill="#634874"/>
<path d="M86.861 138.159L111.769 141.042L156.417 123.122L156.751 120.96L134.853 115.075L86.861 138.159Z" fill="#634874"/>
<path d="M47.7754 83.257L61.0778 75.8745L61.4617 75.8668L78.1846 66.4956H78.5685L95.161 56.9556L155.607 79.0801V99.7343L95.7714 80.8499L47.7754 105.278V83.257Z" fill="#29ACE4"/>
<path d="M95.7714 80.6464L47.7754 105.278V83.257L61.0816 75.8668H61.4617L78.1846 66.4956H78.5685L95.161 56.9556" fill="#48598B"/>
<path d="M47.7754 105.278L116.426 116.895L155.607 99.7343L95.7714 80.6465L78.5954 89.4571L78.1961 89.4456L61.4693 98.1833L61.0739 98.1795L47.7754 105.278Z" fill="#634874"/>
<path d="M64.1797 201.788L98.0786 206.253L153.177 193.511L132.446 187.093L64.1797 201.788Z" fill="#634874"/>
<path d="M99.4144 143.626L77.4435 132.942L93.341 122.059L156.521 139.476L99.4144 143.626Z" fill="#634874"/>
<path d="M47.1689 160.637V181.595L99.0116 185.695L151.964 173.848L139.663 161.701L155.304 158.054L121.286 136.639L95.4643 139.676L47.1689 160.637Z" fill="#634874"/>
<path d="M47.7754 106.418L95.161 81.6602L117.512 88.7202L117.639 102.065L138.308 95.285L156.724 101.101V121.755L95.7714 105.355L47.7754 128.439V106.418Z" fill="#29ACE4"/>
<path d="M95.7714 105.355L47.7754 128.439V106.418L95.161 81.6602" fill="#48598B"/>
<path d="M117.654 102.065L138.296 95.3308V116.895L117.638 121.099L117.654 102.065Z" fill="#48598B"/>
<path d="M47.7754 128.439L69.2434 129.399L117.666 111.24L95.7714 105.355L47.7754 128.439Z" fill="#634874"/>
<path d="M77.4435 115.682V132.942L95.6675 125.299V106.871L77.4435 115.682Z" fill="#48598B"/>
<path d="M156.521 122.162V139.477L95.668 125.402V106.871L156.521 122.162Z" fill="#29ACE4"/>
<path d="M47.1689 146.057V161.597L95.4643 143.373V126.009L47.1689 146.057Z" fill="#48598B"/>
<path d="M95.4641 126.009V143.373L115.362 148.183V130.869L95.4641 126.009Z" fill="#29ACE4"/>
<path d="M135.916 135.626L135.46 153.546L155.304 158.054V140.286L135.916 135.626Z" fill="#29ACE4"/>
<path d="M47.2189 162.914V181.595L64.5331 173.847V156.08L47.2189 162.914Z" fill="#48598B"/>
<path d="M77.7471 151.827V169.141L95.4644 162.914V144.69L77.7471 151.827Z" fill="#48598B"/>
<path d="M95.4641 144.69L151.964 158.814V173.848L95.4641 162.914V144.69Z" fill="#29ACE4"/>
<path d="M81.5977 204.706V187.445L132.254 171.125V190.232L81.5977 204.706Z" fill="#48598B"/>
<path d="M132.189 171.133V190.194L153.177 193.538V175.276L132.189 171.133Z" fill="#29ACE4"/>
<path d="M45.0685 213.674L102.255 222.933L135.624 213.758L81.8352 201.143L45.0685 213.674Z" fill="#634874"/>
<path d="M61.0543 187.042L60.6474 209.566L96.5235 215.044L96.9074 192.44L61.0543 187.042Z" fill="#29ACE4"/>
<path d="M62.045 208.875L77.4704 204.821L105.745 207.654L85.9087 211.75L62.045 208.875Z" fill="#634874"/>
<path d="M45.4485 192.636L45.0685 213.674L60.8662 209.643L61.2732 187.023L45.4485 192.636Z" fill="#48598B"/>
<path d="M62.5211 187.146L62.045 208.875L77.4742 204.905L77.7814 182.274L62.5211 187.146Z" fill="#48598B"/>
<path d="M77.7352 182.297L77.3896 205.063L135.74 213.758L136.054 194.59L77.7352 182.297Z" fill="#29ACE4"/>
<path d="M155.81 230.954L130.396 238.09L91.0914 235.764L137.433 228.27L155.81 230.954Z" fill="#634874"/>
<path d="M137.433 209.716L155.811 212.253V230.954L137.433 228.27V209.716Z" fill="#29ACE4"/>
<path d="M137.51 209.743V228.27L107.212 234.194V217.083L137.51 209.743Z" fill="#48598B"/>
<path d="M117.359 226.009L70.8641 235.714L48.3864 234.144L90.1746 221.778L117.359 226.009Z" fill="#634874"/>
<path d="M96.7821 204.195V222.811L48.3868 234.144V216.676L96.7821 204.195Z" fill="#48598B"/>
<path d="M96.7815 204.195V222.811L117.282 226.124V207.566L96.7815 204.195Z" fill="#29ACE4"/>
<path d="M152.978 248.571L112.679 256.875L85.0378 249.231L135.763 238.954L152.978 248.571Z" fill="#634874"/>
<path d="M78.4578 228.876V246.697L97.68 242.244V223.767L78.4578 228.876Z" fill="#48598B"/>
<path d="M152.978 232.673V248.571L94.9617 243.154V224.676L152.978 232.673Z" fill="#29ACE4"/>
<path d="M50.3094 250.852V268.872H96.7813L119.616 264.619L119.512 247.205L97.288 244.625L50.3094 250.852Z" fill="#48598B"/>
<path d="M91.5179 253.783V270.256H133.99L154.859 266.367L154.767 250.451L134.454 248.094L91.5179 253.783Z" fill="#48598B"/>
<path d="M134.869 248.049V266.787L154.951 266.434V249.853L134.869 248.049Z" fill="#29ACE4"/>
<path d="M97.7448 244.571V265.075L119.716 264.687V246.548L97.7448 244.571Z" fill="#29ACE4"/>
<path d="M61.2701 75.8669V98.1758" stroke="#29ACE4" stroke-miterlimit="10"/>
<path d="M78.381 66.4958V89.4458" stroke="#29ACE4" stroke-miterlimit="10"/>
<path d="M135.917 135.626L115.412 140.536V149.627L131.993 153.8L135.46 153.546L135.917 135.626Z" fill="#48598B"/>
<path d="M398.912 305.374C397.795 303.47 355.174 263.455 253.719 262.242C171.509 261.259 47.7763 264.672 20.4383 273.786C20.4383 273.786 102.149 269.229 153.178 281.38C204.207 293.531 238.052 300.456 262.833 303.554C282.274 305.984 317.712 309.225 326.216 309.831C366.265 312.691 322.212 294.966 366.564 303.097C393.902 308.107 400.202 307.574 398.912 305.374Z" fill="#866694"/>
<path d="M143.154 285.326C143.154 285.326 115.816 274.999 69.6471 278.036C14.5412 281.66 0.509399 274.274 0.509399 274.274C0.509399 274.274 15.6967 296.51 51.3348 290.321C99.6917 281.929 143.154 285.326 143.154 285.326Z" fill="#866694"/>
</svg>
