<svg width="437" height="250" viewBox="0 0 437 250" fill="none" xmlns="http://www.w3.org/2000/svg">
<path d="M310.884 232.704C313.221 232.585 341.273 231.748 349.594 234.252C349.594 234.252 380.536 232.682 380.31 239.717C380.31 239.717 413.737 240.947 419.693 242.988C425.649 245.026 388.345 248.089 381.863 247.249C375.382 246.406 354.069 241.636 325.926 240.72C307.988 240.139 263.281 238.859 241.679 241.481C229.392 242.975 298.692 247.953 285.354 248.63C248.572 250.494 146.512 246.309 173.627 238.494C200.739 230.685 310.884 232.704 310.884 232.704Z" fill="#866694"/>
<path d="M245.477 228.167C292.634 230.151 365.306 230.403 380.844 225.355C380.844 225.355 347.242 222.893 346.355 217.757C345.194 211.04 342.609 200.423 314.787 185.019C314.787 185.019 338.754 142.054 303.679 120.131C268.605 98.2084 280.297 123.638 280.297 123.638C280.297 123.638 232.552 59.9638 172.734 45.8874C152.858 41.2109 157.535 58.1649 157.535 58.1649C157.535 58.1649 139.996 44.1357 120.12 48.2271C101.66 52.0261 71.6047 77.0058 82.401 118.949C109.72 130.522 118.369 140.183 118.369 140.183C118.95 126.559 134.442 119.543 157.387 125.827C186.005 133.664 183.253 160.464 183.253 160.464C214.07 155.219 220.668 192.617 220.668 192.617C220.668 192.617 220.092 180.176 239.76 196.567C259.428 212.958 245.804 227.692 245.804 227.692L245.477 228.167Z" fill="#F4E8D8"/>
<path d="M278.691 228.862C278.691 228.862 254.045 211.269 235.871 196.124C217.696 180.978 222.612 202.894 222.612 202.894C222.612 202.894 210.498 157.461 182.024 162.307C182.024 162.307 181.417 134.44 159.611 128.383C137.805 122.326 119.539 127.78 119.539 142.925C119.539 142.925 109.602 131.818 76.8637 119.543C53.5257 110.791 35.4271 112.03 22.1024 124.144L27.5555 128.383C27.5555 128.383 6.9599 131.412 0.902893 147.768C-5.15408 164.125 20.8916 171.999 30.584 174.421C40.2765 176.842 122.659 199.863 122.659 199.863C122.659 199.863 104.255 198.646 102.441 201.674C100.623 204.703 123.923 222.72 152.343 224.094C175.125 225.201 278.691 228.862 278.691 228.862Z" fill="#F4E8D8"/>
<path d="M111.646 240.264C111.646 240.264 114.8 235.481 146.94 236.651C155.692 236.968 178.65 236.754 181.562 240.264C184.474 243.774 212.636 246.357 202.925 246.357C193.214 246.357 114.561 244.944 111.646 240.264Z" fill="#866694"/>
<path d="M64.5891 211.325C64.5891 211.325 68.0956 204.309 65.7589 198.466C63.4192 192.619 54.0663 193.204 48.2201 193.789C42.3738 194.374 43.2512 199.488 43.2512 199.488C43.2512 199.488 36.4803 194.594 30.6812 195.541C22.6429 196.856 23.665 205.479 23.665 210.74C23.665 216.002 31.263 226.232 39.7415 217.172C39.7415 217.172 52.3115 229.449 62.8311 220.678C62.8311 220.678 85.0463 224.77 93.2292 223.6L64.5891 211.325Z" fill="#F4E8D8"/>
<path d="M143.097 23.1535C143.097 23.1535 99.8392 15.5555 93.9929 15.5555C88.1466 15.5555 74.1174 5.61765 91.6531 0.941207C109.189 -3.73524 125.558 10.2941 129.067 14.9706C132.577 19.647 131.407 15.5555 131.407 15.5555C131.407 15.5555 128.486 6.78755 133.747 6.78755C139.008 6.78755 157.711 14.3825 143.097 23.1535Z" fill="#F4E8D8"/>
<path d="M424.542 154.328C424.542 154.328 435.951 160.633 434.432 160.661C428.976 160.759 422.985 163.29 420.793 164.168C418.601 165.045 403.5 151.988 412.415 148.189C415.626 149.214 424.542 154.328 424.542 154.328Z" fill="#229BC6"/>
<path opacity="0.5" d="M424.542 154.328C424.542 154.328 435.951 160.633 434.432 160.661C428.976 160.759 422.985 163.29 420.793 164.168C418.601 165.045 403.5 151.988 412.415 148.189C415.626 149.214 424.542 154.328 424.542 154.328Z" fill="#229BC6"/>
<path d="M417.284 158.127C417.284 158.127 420.011 155.787 426.832 155.982C432.162 156.133 436.964 156.957 436.964 156.957C436.964 156.957 426.442 149.067 418.552 148.626C410.661 148.189 400.576 147.749 400.576 147.749L417.284 158.127Z" fill="#F6BE4A"/>
<path d="M436.965 156.96C435.002 155.828 432.961 154.837 430.879 153.944C428.797 153.051 426.671 152.252 424.505 151.573C422.332 150.919 420.127 150.346 417.882 149.988C415.636 149.639 413.353 149.482 411.095 149.655C413.359 149.727 415.589 150.048 417.794 150.472L419.438 150.837C419.989 150.95 420.526 151.114 421.074 151.252L421.891 151.46L422.7 151.696C423.237 151.856 423.781 152.004 424.316 152.177L425.923 152.689C426.458 152.862 426.986 153.06 427.521 153.24C428.055 153.416 428.584 153.614 429.112 153.809C429.64 154.001 430.169 154.196 430.694 154.4C431.222 154.598 431.747 154.803 432.269 155.013C432.795 155.218 433.32 155.428 433.839 155.645C434.892 156.054 435.927 156.507 436.965 156.96Z" fill="#F4E8D8"/>
<path opacity="0.5" d="M417.284 158.127C417.284 158.127 420.011 155.787 426.832 155.982C432.162 156.133 436.964 156.957 436.964 156.957C436.964 156.957 426.442 149.067 418.552 148.626C410.661 148.189 400.576 147.749 400.576 147.749L417.284 158.127Z" fill="#F6874E"/>
<path d="M368.819 117.697C368.819 117.697 364.906 111.134 362.699 105.806C360.585 100.712 364.296 101.91 368.633 104.58C373.181 107.379 378.542 113.254 379.926 114.556C381.307 115.858 373.847 122.072 368.819 117.697Z" fill="#1D2538"/>
<path d="M370.764 115.904C370.764 115.904 366.877 109.519 364.198 105.409C361.188 100.786 363.937 101.386 368.276 104.057C372.824 106.856 378.161 110.079 379.541 111.381C380.922 112.68 373.859 119.392 370.764 115.904Z" fill="#273150"/>
<path d="M348.106 143.123C350.446 139.811 354.04 127.707 356.094 121.687L361.55 113.932C361.55 113.932 373.598 106.35 384.901 108.966C396.203 111.583 400.697 118.096 402.666 123.992L403.062 124.376C403.062 124.376 413.148 126.197 418.95 127.43C424.749 128.666 426.891 131.138 425.504 137.383C424.117 143.629 423.472 145.151 420.548 147.887C417.623 150.62 404.471 159.143 397.153 161.621C397.153 161.621 394.093 167.87 390.388 170.401C386.678 172.946 342.175 151.529 348.106 143.123Z" fill="#273150"/>
<path d="M363.095 162.246C363.095 162.246 342.867 150.636 347.72 141.566C352.201 133.188 354.044 127.707 356.098 121.69C355.884 122.379 353.833 114.932 352.201 107.466C351.39 103.755 353.079 103.082 356.028 104.425C359.098 105.822 367.205 110.196 367.205 110.196C367.205 110.196 373.602 106.353 384.901 108.97C384.901 108.97 372.627 117.036 368.734 122.423C364.84 127.81 366.284 148.903 366.284 148.903C366.284 148.903 376.794 156.482 376.2 157.765C374.306 161.844 363.095 162.246 363.095 162.246Z" fill="#1D2538"/>
<path d="M392.817 121.561C394.053 123.731 393.883 126.159 392.436 126.982C390.99 127.806 389.681 126.196 388.442 124.026C387.203 121.857 386.511 119.948 387.958 119.124C389.405 118.3 391.581 119.391 392.817 121.561Z" fill="#121721"/>
<path d="M425.662 131.629C426.388 134.83 426.033 137.972 424.278 139.337C420.8 142.041 415.126 136.818 414.145 133.685C413.164 130.553 412.39 125.502 418.432 127.254C423.489 128.723 425.155 129.399 425.662 131.629Z" fill="#121721"/>
<path d="M384.297 160.652C384.297 160.652 394.046 163.244 397.157 161.621C402.792 159.781 411.346 153.61 411.346 153.61L395.936 157.907L384.297 160.652Z" fill="#1D2538"/>
<path d="M415.114 151.916C415.114 151.916 404.299 147.825 400.572 147.752L415.114 151.916Z" fill="#273150"/>
<path d="M250.739 177.106C248.843 176.996 238.811 177.704 234.874 176.44C230.936 175.179 221.775 171.814 220.461 165.433C220.461 165.433 216.785 170.181 225.112 180.201C233.44 190.22 250.459 187.755 251.9 187.535C258.321 186.55 256.151 177.424 250.739 177.106Z" fill="#1D2538"/>
<path d="M383.915 185.018C383.915 185.018 402.768 195.104 406.712 196.419C410.659 197.733 412.851 206.064 412.41 209.57C411.973 213.077 405.835 221.408 405.835 221.408L380.405 199.925C380.408 199.925 371.2 184.581 383.915 185.018Z" fill="#1D2537"/>
<path d="M282.103 196.064C285.409 194.108 314.442 195.567 313.907 201.709C313.64 204.759 283.795 221.657 283.795 221.657L272.502 231.443C272.502 231.443 274.487 235.032 273.238 237.287C272.946 237.818 268.169 237.938 265.543 237.639C263.618 237.422 261.02 230.503 261.02 230.503C260.916 229.056 261.35 226.421 262.574 225.638L269.678 219.587C270.596 219.002 271.279 218.115 271.612 217.075C273.222 212.052 278.345 198.29 282.103 196.064Z" fill="#1D2538"/>
<path d="M372.662 164.558C372.662 164.558 357.026 154.913 343.607 147.561C331.499 154.762 314.743 155.023 300.529 156.891C291.597 158.064 262.098 165.134 253.265 173.619C247.34 179.311 244.509 193.255 251.51 197.293C262.91 203.868 317.401 200.746 338.32 203.139C353.252 204.847 373.275 200.048 379.093 196.415C382.238 194.453 389.563 181.99 387.735 172.389C386.531 166.065 378.043 167.738 372.662 164.558Z" fill="#273150"/>
<path d="M369.348 157.543C369.348 157.543 357.146 139.507 343.604 147.561C331.496 154.763 314.74 155.024 300.525 156.892C291.594 158.065 262.095 165.134 253.261 173.619C247.336 179.311 244.943 195.884 251.947 199.925C263.347 206.501 287.314 206.014 293.597 199.488C295.484 197.529 317.712 181.513 329.987 175.666C340.135 170.836 332.924 162.867 335.833 161.052C341.05 157.794 382.899 165.549 369.348 157.543Z" fill="#1D2538"/>
<path d="M316.143 171.459C316.143 171.459 322.75 196.347 341.188 203.543C341.188 203.543 338.037 205.024 329.081 204.055C322.923 203.392 305.444 185.393 306.189 172.952C307.35 169.166 316.143 171.459 316.143 171.459Z" fill="#634874"/>
<path d="M347.331 142.343C347.331 142.343 344.604 142.733 342.654 147.41C342.654 147.41 350.74 156.957 366.816 164.851C378.641 170.656 391.075 171.867 393.513 168.845C395.95 165.823 397.158 161.621 397.158 161.621C397.158 161.621 383.858 166.065 371.64 160.612C360.724 155.74 353.677 149.526 347.331 142.343Z" fill="#992C29"/>
<path d="M395.786 166.213C395.786 166.213 382.782 170.361 378.571 169.638L381.861 162.417C381.861 162.417 389.751 161.87 395.786 166.213Z" fill="#C93F37"/>
<path d="M395.715 166.139C395.715 166.139 393.214 176.647 389.529 179.946L377.603 175.219C377.606 175.219 390.283 167.237 395.715 166.139Z" fill="#C93F37"/>
<path d="M395.715 166.139C390.645 166.627 377.607 175.219 377.607 175.219C377.607 175.219 385.749 175.332 387.491 174.237C389.233 173.146 395.715 166.139 395.715 166.139Z" fill="#992C29"/>
<path d="M342.145 171.707C347.579 174.16 375.144 175.138 380.361 191.966C380.512 192.456 380.836 192.872 381.282 193.126C382.603 193.881 384.251 192.941 384.27 191.419C384.339 185.525 377.59 175.431 366.407 169.839C352.969 163.122 343.267 165.361 343.267 165.361C343.267 165.361 341.154 171.261 342.145 171.707Z" fill="#634874"/>
<path d="M257.249 187.676C260.252 185.122 269.951 182.298 279.999 187.226C290.047 192.154 288.889 199.114 288.956 200.677C289.113 204.344 276.788 210.737 274.977 211.894C271.983 213.807 255.284 220.307 250.318 224.018C247.387 226.21 240.858 233.283 242.207 234.295C243.399 235.192 244.887 239.28 243.446 239.924C240.465 241.261 224.977 240.563 226.665 235.119C228.26 229.98 228.521 223.537 229.766 220.779C230.122 219.992 243.38 210.514 243.99 209.504C244.588 208.517 255.45 189.208 257.249 187.676Z" fill="#1D2538"/>
<path d="M356.73 192.472C356.73 192.472 363.306 205.187 367.69 207.816C372.074 210.445 389.613 211.322 395.311 214.392C401.01 217.461 403.642 224.477 404.519 225.792C405.397 227.106 418.111 228.861 421.618 221.845C425.124 214.829 412.85 214.392 409.781 211.322C406.711 208.253 404.082 205.183 401.45 202.991C398.821 200.799 390.49 197.293 390.49 197.293C390.49 197.293 377.886 182.286 372.624 181.408C367.363 180.534 353.661 185.896 356.73 192.472Z" fill="#273150"/>
<path d="M343.475 170.543C340.406 174.902 312.177 177.566 289.632 174.676C287.236 174.367 285.125 173.122 283.855 171.295C281.323 167.656 279.188 160.319 277.741 155.039C276.184 149.362 279.392 140.393 281.971 138.201C287.541 133.465 293.349 135.503 299.544 134.943C310.055 133.993 319.304 134.559 327.653 137.069C338.031 140.189 343.522 148.482 347.491 154.768C351.161 160.574 345.025 168.342 343.475 170.543Z" fill="#BB83C3"/>
<path opacity="0.5" d="M288.359 135.959C282.424 135.821 291.535 155.486 295.243 156.03C298.951 156.574 319.361 158.732 325.415 157.26C340.485 154.646 316.216 136.613 288.359 135.959Z" fill="#634874"/>
<path opacity="0.5" d="M285.538 170.713C284.55 173.965 278.034 158.159 277.575 153.794C277.207 150.312 278.98 143.585 279.565 142.346C280.899 139.528 283.298 152.3 285.289 157.026C287.28 161.753 285.953 169.348 285.538 170.713Z" fill="#634874"/>
<path d="M260.451 55.7622C260.451 55.7622 272.292 43.2773 276.663 31.6541C276.663 31.6541 292.784 36.4782 300.051 35.5222C300.051 35.5222 291.208 55.0389 283.84 59.6303L260.451 55.7622Z" fill="#229BC6"/>
<path d="M300.048 35.5254L289.651 40.0509C287.918 40.8025 286.176 41.5321 284.434 42.246C282.685 42.9504 280.933 43.6549 279.15 44.2272L278.851 44.3247L278.955 44.6204L280.263 48.347L281.547 52.0831C281.971 53.3285 282.38 54.5801 282.786 55.8318C283.179 57.0866 283.569 58.3446 283.833 59.6371C283.682 58.3257 283.349 57.0394 283.031 55.7595C282.707 54.4795 282.333 53.2153 281.962 51.9479C281.578 50.6868 281.191 49.4257 280.779 48.1709C280.367 46.9161 279.962 45.6644 279.524 44.4191L279.329 44.809C281.15 44.2367 282.915 43.5417 284.663 42.8152C286.415 42.095 288.144 41.3277 289.865 40.5415C291.582 39.749 293.293 38.9439 294.991 38.1073C295.84 37.6953 296.683 37.2614 297.526 36.8337C298.375 36.406 299.217 35.9751 300.048 35.5254Z" fill="#F4E8D8"/>
<path d="M285.689 42.0922L284.501 39.6548L283.283 37.2331C282.875 36.428 282.513 35.5977 282.041 34.8271C281.573 34.0566 281.079 33.2955 280.494 32.5847L280.437 32.6162C280.717 33.4905 281.091 34.3177 281.488 35.1291C281.881 35.9436 282.384 36.6953 282.843 37.4753L284.224 39.8058L285.633 42.1237L285.689 42.0922Z" fill="#F4E8D8"/>
<path d="M281.525 50.5103L277.664 51.7651L273.811 53.0483C272.528 53.4792 271.229 53.8598 269.971 54.363C268.713 54.8599 267.462 55.382 266.248 56.0016L266.27 56.0613C267.6 55.7657 268.899 55.3725 270.185 54.9542C271.475 54.5391 272.72 54.0044 273.984 53.5232L277.77 52.0608L281.547 50.57L281.525 50.5103Z" fill="#F4E8D8"/>
<path d="M271.472 88.8948C271.472 88.8948 292.725 107.088 313.534 114.633C313.534 114.633 312.116 123.895 294.225 129.313C294.225 129.313 259.512 114.523 252.163 103.575L271.472 88.8948Z" fill="#229BC6"/>
<path d="M271.969 89.229L273.271 94.0565C273.705 95.6667 274.152 97.2707 274.605 98.8746L275.957 103.69C276.4 105.297 276.878 106.894 277.337 108.495L277.385 108.662L277.558 108.693L286.659 110.363L295.773 111.964C298.807 112.511 301.855 112.992 304.896 113.508C306.415 113.766 307.94 114.011 309.462 114.25C310.984 114.492 312.509 114.738 314.035 114.967C312.525 114.65 311.012 114.348 309.5 114.046C307.987 113.741 306.474 113.439 304.959 113.153C301.927 112.577 298.905 111.97 295.87 111.423L286.769 109.75L277.658 108.143L277.878 108.341C277.397 106.746 276.935 105.146 276.441 103.554L274.976 98.774C274.488 97.1795 273.998 95.5881 273.491 93.9999L271.969 89.229Z" fill="#F4E8D8"/>
<path d="M292.119 111.686C291.94 113.202 291.934 114.73 291.997 116.256C292.063 117.781 292.211 119.3 292.434 120.809C292.673 122.316 292.95 123.819 293.339 125.291C293.707 126.769 294.176 128.225 294.723 129.643C294.427 128.146 294.091 126.671 293.817 125.184L293.607 124.07L293.415 122.954C293.283 122.212 293.166 121.463 293.056 120.718L292.89 119.599L292.745 118.476C292.645 117.727 292.566 116.976 292.484 116.224C292.33 114.715 292.198 113.205 292.119 111.686Z" fill="#F4E8D8"/>
<path d="M275.284 101.364C273.394 101.59 271.51 101.823 269.626 102.078C267.742 102.32 265.865 102.581 263.981 102.807C262.1 103.046 260.217 103.273 258.333 103.468C256.446 103.65 254.562 103.839 252.659 103.911C254.556 104.084 256.471 104.059 258.371 103.958C260.273 103.864 262.17 103.663 264.06 103.433C265.947 103.191 267.83 102.905 269.702 102.562C271.576 102.222 273.438 101.829 275.284 101.364Z" fill="#F4E8D8"/>
<path d="M336.553 139.425C336.553 139.425 315.577 115.389 310.419 102.784C310.419 102.784 292.374 111.297 283.962 110.033C283.962 110.033 300.975 137.636 309.535 142.803L336.553 139.425Z" fill="#F6874E"/>
<path d="M336.553 139.425C336.553 139.425 315.577 115.389 310.419 102.784C310.419 102.784 292.374 111.297 283.962 110.033C283.962 110.033 300.975 137.636 309.535 142.803L336.553 139.425Z" fill="#F6BE4A"/>
<path d="M310.419 102.784L306.642 123.509L336.553 139.425" stroke="#F4E8D8" stroke-width="2" stroke-miterlimit="10"/>
<path d="M318.599 130.308C318.599 130.308 310.58 135.849 309.536 142.802" stroke="#F4E8D8" stroke-width="2" stroke-miterlimit="10"/>
<path d="M308.214 116.609C308.214 116.609 295.673 113.93 283.961 110.036" stroke="#F4E8D8" stroke-width="2" stroke-miterlimit="10"/>
<path d="M346.409 154.97C346.409 154.97 341.431 152.035 328.681 147.051C327.512 146.595 323.782 143.374 319.75 143.714C305.032 144.953 302.347 151.822 298.837 150.935C296.928 150.089 295.346 140.119 294.079 137.276C292.296 133.273 293.934 126.247 297.051 126.03C297.051 126.03 314.857 125.986 319.873 127.911C324.889 129.836 327.005 133.477 327.958 134.38C329.078 135.443 333.814 133.591 337.163 136.122C345.192 142.186 342.157 139.538 345.846 145.381C350.774 153.186 353.23 157.331 351.532 160.501C349.812 163.709 347.576 167.977 343.84 170.628C340.107 173.279 353.972 160.539 346.409 154.97Z" fill="#634874"/>
<path d="M287.352 128.805C286.893 129.188 289.11 131.207 295 131.726C296.07 131.821 297.01 131.739 297.152 131.396C297.249 131.16 297.573 129.289 297.315 128.408C297.211 128.056 296.979 128.097 296.645 128.025C294.372 127.534 293.044 127.911 290.063 125.807L287.352 128.805Z" fill="#BB83C3"/>
<path d="M290.512 144.089C290.273 143.372 294.991 144.586 298.887 142.126C299.224 141.912 299.664 142.438 299.95 142.812L301.067 144.271C301.973 145.457 301.139 146.023 300.12 146.771C296.412 149.501 296.164 149.498 293.497 148.951C292.286 148.702 291.33 147.765 291.063 146.557L290.512 144.089Z" fill="#BB83C3"/>
<path d="M324.901 145.107C327.53 146.199 332.062 147.394 334.958 148.18C337.855 148.966 349.783 152.127 354.057 149.699C354.057 149.699 346.418 160.923 325.552 161.301C325.552 161.301 307.661 156.929 306.79 147.196C306.79 147.192 316.058 141.434 324.901 145.107Z" fill="#229BC6"/>
<path d="M325.549 161.297C325.606 160.008 325.628 158.715 325.647 157.426C325.662 156.133 325.653 154.843 325.637 153.551C325.609 152.258 325.584 150.969 325.502 149.673C325.48 149.349 325.458 149.025 325.423 148.695C325.408 148.528 325.389 148.368 325.351 148.182C325.313 148.009 325.266 147.846 325.21 147.682C324.98 147.035 324.669 146.45 324.266 145.89L324.197 145.792L324.074 145.77C323.052 145.591 322.033 145.431 321.008 145.298C319.983 145.157 318.958 145.041 317.926 144.949C316.898 144.855 315.863 144.792 314.825 144.783C314.307 144.783 313.788 144.792 313.272 144.827C312.756 144.861 312.234 144.927 311.74 145.081C312.759 144.912 313.791 144.984 314.813 145.063C315.835 145.151 316.857 145.273 317.873 145.409C319.907 145.688 321.942 146.019 323.961 146.38L323.769 146.261C324.115 146.751 324.414 147.318 324.612 147.887C324.659 148.031 324.703 148.176 324.735 148.318C324.763 148.45 324.785 148.607 324.801 148.764C324.835 149.076 324.864 149.396 324.886 149.714C324.971 150.994 325.04 152.28 325.1 153.567L325.301 157.429C325.383 158.721 325.455 160.011 325.549 161.297Z" fill="#F4E8D8"/>
<path d="M325.212 151.41C329.344 151.869 333.476 152.265 337.621 152.567C339.694 152.718 341.766 152.847 343.842 152.925C345.918 153.001 347.996 153.054 350.069 152.957C347.993 153.001 345.921 152.894 343.848 152.768C341.779 152.639 339.713 152.457 337.647 152.252C333.517 151.847 329.398 151.35 325.29 150.787L325.212 151.41Z" fill="#F4E8D8"/>
<path d="M320.605 144.06C320.422 144.107 320.246 144.167 320.067 144.22C319.891 144.277 319.715 144.34 319.545 144.409C319.372 144.475 319.174 144.494 319.039 144.622C318.9 144.748 318.774 144.896 318.702 145.138L318.733 145.191C318.979 145.251 319.171 145.22 319.35 145.169C319.532 145.119 319.649 144.959 319.797 144.846C319.941 144.733 320.086 144.616 320.227 144.494C320.366 144.368 320.507 144.248 320.643 144.113L320.605 144.06Z" fill="#F4E8D8"/>
<path d="M319.074 195.224C320.574 194.589 322.643 193.639 324.452 192.796C326.272 191.947 326.839 191.239 325.782 189.745L324.974 188.563C324.165 187.808 323.219 187.77 321.999 188.475L316.964 191.384C315.439 192.265 314.586 193.041 315.517 194.035L316.574 195.466C317.25 195.969 318.153 195.617 319.074 195.224Z" stroke="#866694" stroke-width="4" stroke-miterlimit="10"/>
<path d="M324.81 189.334C324.81 189.334 327.672 203.973 325.018 211.77L316.558 208.285C316.558 208.285 317.678 196.467 316.848 194.143L320.747 191.985L324.81 189.334Z" fill="#634874"/>
<path d="M325.844 189.375L316.306 194.927" stroke="#866694" stroke-width="4" stroke-miterlimit="10"/>
<path d="M420.791 164.168C418.599 165.046 414.822 179.141 413.095 183.849C412.561 185.311 388.326 171.043 386.009 169.235C382.015 166.118 382.21 164.753 382.21 164.753C382.21 164.753 392.632 158.825 402.299 153.397C406.199 151.208 422.983 163.291 420.791 164.168Z" fill="#229BC6"/>
<path opacity="0.5" d="M420.791 164.168C418.599 165.046 413.058 174.443 411.567 176.185C411.567 176.185 405.221 174.939 398.255 171.706C391.289 168.474 384.568 163.495 384.568 163.495C384.568 163.495 392.632 158.825 402.299 153.397C406.199 151.208 422.983 163.291 420.791 164.168Z" fill="#229BC6"/>
<path d="M409.344 173.182C409.344 173.182 388.738 166.606 382.6 159.152C382.6 159.152 397.943 147.752 400.576 147.752C401.799 147.752 405.928 148.881 410.523 150.356C411.476 150.661 412.448 150.982 413.419 151.309C417.822 152.797 422.19 154.444 424.492 155.596C424.492 155.596 417.331 156.863 415.919 159.297C413.721 163.09 409.344 173.182 409.344 173.182Z" fill="#F6BE4A"/>
<path opacity="0.5" d="M382.6 159.153C382.6 159.153 397.943 147.752 400.576 147.752C401.799 147.752 405.928 148.881 410.523 150.356C411.476 150.661 412.448 150.982 413.419 151.309C417.822 152.797 422.19 154.445 424.492 155.596C424.492 155.596 388.735 166.606 382.6 159.153Z" fill="#F6874E"/>
<path d="M412.998 150.967C413.227 151.215 413.419 151.523 413.444 151.844C413.466 152.171 413.202 152.404 412.91 152.53C412.617 152.655 412.278 152.737 411.951 152.822L410.954 153.064L406.944 153.961C404.268 154.561 401.595 155.172 398.94 155.898C398.277 156.084 397.616 156.275 396.959 156.483C396.305 156.684 395.66 156.882 395 157.055C393.685 157.408 392.352 157.697 391.012 157.964C388.326 158.477 385.619 158.895 382.895 159.222C385.638 159.128 388.377 158.864 391.094 158.433C392.452 158.219 393.805 157.949 395.144 157.618C395.814 157.461 396.481 157.26 397.141 157.062C397.789 156.86 398.447 156.675 399.107 156.496C401.746 155.778 404.409 155.137 407.067 154.458C408.394 154.115 409.724 153.778 411.045 153.398C411.375 153.3 411.705 153.209 412.035 153.102C412.363 152.989 412.69 152.894 413.017 152.725C413.174 152.633 413.325 152.523 413.438 152.366C413.551 152.212 413.602 152.011 413.573 151.825C413.504 151.46 413.253 151.187 412.998 150.967Z" fill="#F4E8D8"/>
<path d="M404.789 154.602C404.727 156.247 404.981 157.841 405.271 159.417C405.569 160.992 405.947 162.546 406.374 164.084C406.799 165.625 407.261 167.15 407.761 168.666C408.258 170.181 408.78 171.688 409.343 173.181C408.83 171.672 408.359 170.15 407.912 168.621C407.462 167.093 407.054 165.552 406.679 164.008C406.302 162.464 405.978 160.904 405.736 159.338C405.5 157.775 405.308 156.19 405.418 154.643L404.789 154.602Z" fill="#F4E8D8"/>
<path d="M400.575 147.752C396.849 147.68 411.975 144.318 415.117 151.916L400.575 147.752Z" fill="#273150"/>
<path d="M280.831 146.303C280.831 146.303 267.522 155.581 263.714 158.543C259.909 161.506 225.847 140.13 223.199 134.557C223.199 134.557 241.209 121.383 247.968 118.219C247.968 118.222 251.562 138.894 280.831 146.303Z" fill="#F6BE4A"/>
<path opacity="0.5" d="M252.195 144.586C255.554 150.932 225.85 140.133 223.202 134.56C223.202 134.56 241.213 121.386 247.971 118.222C247.968 118.222 248.836 138.239 252.195 144.586Z" fill="#F6874E"/>
<path d="M263.214 158.813L263.095 155.422L262.944 152.032C262.89 150.903 262.887 149.768 262.761 148.645C262.639 147.519 262.488 146.399 262.233 145.283L262.17 145.286C262.079 146.428 262.095 147.56 262.132 148.689C262.167 149.821 262.331 150.941 262.441 152.067L262.78 155.441L263.151 158.816L263.214 158.813Z" fill="#F4E8D8"/>
<path d="M223.199 134.591L229.001 134.692L234.804 134.761C236.738 134.787 238.672 134.846 240.606 134.799C241.571 134.771 242.54 134.746 243.506 134.689L244.955 134.607C245.44 134.566 245.921 134.538 246.405 134.487V134.424C245.921 134.377 245.437 134.355 244.955 134.317L243.506 134.248C242.537 134.204 241.571 134.185 240.603 134.166C238.669 134.135 236.735 134.213 234.801 134.254L228.998 134.374L223.196 134.525L223.199 134.591Z" fill="#F4E8D8"/>
<path d="M247.967 118.221C247.15 122.844 246.577 127.521 246.448 132.232C246.423 133.411 246.433 134.594 246.527 135.773C246.621 136.952 246.766 138.141 247.169 139.298C247.379 139.868 247.637 140.459 248.15 140.912C248.631 141.32 249.159 141.61 249.688 141.893C250.754 142.44 251.858 142.874 252.974 143.267C255.213 144.028 257.496 144.623 259.798 145.123C260.949 145.374 262.107 145.594 263.267 145.796C264.428 146.003 265.594 146.164 266.761 146.302C271.428 146.849 276.186 147.066 280.831 146.299C279.664 146.431 278.495 146.5 277.322 146.535C276.152 146.566 274.979 146.538 273.809 146.487C271.469 146.39 269.139 146.157 266.821 145.824C262.195 145.148 257.584 144.198 253.175 142.676C252.075 142.299 250.987 141.877 249.958 141.361C249.452 141.097 248.942 140.817 248.527 140.468C248.144 140.141 247.895 139.625 247.7 139.107C247.32 138.047 247.162 136.883 247.062 135.729C246.967 134.572 246.93 133.405 246.927 132.235C246.927 129.898 247.062 127.555 247.25 125.219C247.427 122.885 247.681 120.552 247.967 118.221Z" fill="#F4E8D8"/>
<path d="M210.501 91.8374C203.849 88.9158 179.741 78.9936 161.601 80.1603C161.601 80.1603 146.207 87.3716 146.792 96.9196C146.792 96.9196 170.791 96.2812 177.97 98.6745C183.669 100.574 197.553 109.002 197.553 109.002C197.553 109.002 198.821 105.543 199.893 102.621C201.481 98.2876 207.51 95.2245 210.576 93.5199C211.252 93.1394 211.211 92.1488 210.501 91.8374Z" fill="#229BC6"/>
<path opacity="0.5" d="M161.601 80.1601C161.601 80.1601 147.116 86.9438 146.782 96.0642C146.773 96.3472 164.692 96.0642 164.692 96.0642C164.692 96.0642 163.862 86.6072 165.979 84.7423C168.095 82.8773 186.505 83.8711 186.505 83.8711C177.819 81.2639 168.925 79.6883 161.601 80.1601Z" fill="#229BC6"/>
<path d="M162.038 80.2575C164.179 80.3675 166.283 80.8613 168.236 81.6979C170.199 82.5187 172.023 83.6414 173.721 84.9183C174.57 85.5599 175.391 86.2361 176.199 86.9311C177.007 87.6261 177.79 88.3495 178.586 89.0728C178.985 89.4345 179.385 89.793 179.809 90.139C180.023 90.312 180.237 90.4818 180.485 90.6359C180.602 90.7177 180.743 90.7837 180.882 90.8497C180.96 90.8781 181.042 90.9064 181.124 90.9284L181.331 90.9598C182.432 91.1234 183.479 91.2051 184.555 91.3089C188.829 91.6423 193.103 91.9505 197.38 92.2021L203.795 92.5543C205.937 92.6455 208.075 92.7588 210.217 92.8279C208.085 92.6172 205.949 92.4443 203.817 92.2493L197.414 91.7209C193.147 91.3718 188.873 91.0699 184.608 90.6862C183.549 90.5919 182.46 90.5164 181.441 90.3717L181.25 90.3465L181.108 90.2994C181.008 90.2491 180.904 90.205 180.8 90.1327C180.589 90.0069 180.382 89.8434 180.177 89.683C179.768 89.3559 179.369 89.0036 178.97 88.6483C177.378 87.2236 175.774 85.7706 174.007 84.5315C172.249 83.2829 170.368 82.1885 168.353 81.4148C166.33 80.66 164.186 80.226 162.038 80.2575Z" fill="#F4E8D8"/>
<path d="M198.603 106.109L196.628 102.429L194.628 98.7652C193.958 97.5449 193.335 96.2995 192.599 95.117C191.87 93.9314 191.115 92.7615 190.272 91.6418L190.219 91.6733C190.763 92.9659 191.398 94.205 192.055 95.4315C192.709 96.6612 193.474 97.8248 194.194 99.0168L196.357 102.586L198.549 106.14L198.603 106.109Z" fill="#F4E8D8"/>
<path d="M176.115 86.4622L169.271 87.1226L162.434 87.8616C160.158 88.1163 157.874 88.3428 155.61 88.7107C154.478 88.8963 153.346 89.085 152.223 89.324C151.1 89.5535 149.971 89.802 148.88 90.1668L148.896 90.2265C151.157 89.8649 153.431 89.629 155.701 89.3334C157.972 89.0472 160.233 88.6856 162.5 88.3616L169.309 87.4339L176.121 86.5251L176.115 86.4622Z" fill="#F4E8D8"/>
<path d="M112.328 127.534C112.328 127.534 111.353 146.24 99.2734 150.721C99.2734 150.721 76.2814 155.203 59.1325 149.551C59.1325 149.551 80.0175 143.557 85.6342 139.419C89.3357 136.692 91.8704 133.572 91.8704 130.456C91.8672 130.459 106.676 129.874 112.328 127.534Z" fill="#F6BE4A"/>
<path opacity="0.5" d="M99.2729 150.725C99.2729 150.725 76.2809 155.206 59.1321 149.555C59.1321 149.555 80.017 143.561 85.6337 139.422C89.3352 136.696 91.87 133.576 91.87 130.459C91.8668 130.459 94.4393 141.102 99.2729 150.725Z" fill="#F6874E"/>
<path d="M112.328 127.534C109.79 129.242 107.242 130.931 104.686 132.601C103.403 133.428 102.123 134.258 100.821 135.054C99.5344 135.865 98.201 136.585 96.8424 137.28C96.1663 137.636 95.487 137.982 94.8077 138.35C94.1316 138.721 93.4523 139.089 92.817 139.576C92.5057 139.831 92.1817 140.095 91.971 140.532C91.7823 140.976 91.8075 141.413 91.861 141.818C91.9962 142.63 92.3233 143.356 92.7007 144.039C93.4586 145.404 94.4429 146.611 95.5121 147.715C96.5971 148.806 97.7639 149.81 99.0281 150.675C97.8519 149.696 96.7323 148.655 95.7386 147.504C94.7353 146.366 93.8265 145.136 93.1347 143.809C92.7982 143.146 92.512 142.444 92.4082 141.74C92.3641 141.394 92.3704 141.035 92.4931 140.771C92.6157 140.513 92.8956 140.265 93.1787 140.051C93.7636 139.617 94.4303 139.252 95.1002 138.894C95.77 138.538 96.4525 138.192 97.1317 137.843C98.4872 137.132 99.8457 136.4 101.138 135.563C102.428 134.733 103.704 133.89 104.959 133.013C107.478 131.267 109.934 129.443 112.328 127.534Z" fill="#F4E8D8"/>
<path d="M93.4266 144.098C91.7504 144.642 90.0868 145.224 88.4389 145.843C86.7879 146.454 85.1525 147.098 83.5172 147.752C81.8882 148.416 80.2591 149.086 78.6458 149.79C77.0294 150.485 75.4287 151.221 73.8405 151.991C75.5167 151.447 77.1803 150.866 78.8282 150.246C80.4793 149.636 82.1146 148.988 83.7499 148.337C85.3789 147.674 87.008 147.004 88.6182 146.299C90.2378 145.601 91.8385 144.869 93.4266 144.098Z" fill="#F4E8D8"/>
<path d="M99.0779 136.5C98.9489 135.811 98.6753 135.157 98.3451 134.544C98.1847 134.233 97.9897 133.94 97.7979 133.648C97.5903 133.365 97.3797 133.085 97.1501 132.821C96.9237 132.553 96.6658 132.311 96.4173 132.066C96.1469 131.843 95.8921 131.601 95.5965 131.409C95.0336 130.99 94.4015 130.673 93.7473 130.437C94.2725 130.899 94.804 131.314 95.2852 131.786C95.7758 132.245 96.2444 132.723 96.6784 133.233C97.1249 133.73 97.5369 134.261 97.9331 134.805C98.3263 135.349 98.7068 135.909 99.0779 136.5Z" fill="#F4E8D8"/>
<path d="M62.0483 62.3332C62.0483 62.3332 52.1358 56.3013 49.5507 52.8513C46.9656 49.4045 45.2423 42.5078 43.9497 35.6141C42.6572 28.7205 43.9497 20.1003 43.9497 20.1003C43.9497 20.1003 27.5745 36.9067 24.5585 38.6301C24.5585 38.6301 20.2501 52.4205 30.5904 70.0886C30.5904 70.0917 46.9656 72.6768 62.0483 62.3332Z" fill="#229BC6"/>
<path opacity="0.5" d="M30.4955 55.6973C31.9673 47.3667 43.946 35.6175 43.946 35.6175C42.6535 28.724 43.946 20.104 43.946 20.104C43.946 20.104 27.5708 36.91 24.5549 38.6334C24.5549 38.6334 20.2465 52.4236 30.5867 70.0913C30.5899 70.0913 29.7502 59.9272 30.4955 55.6973Z" fill="#229BC6"/>
<path d="M61.8076 62.2861C59.1345 62.0251 56.4739 61.6603 53.8354 61.1728C51.1969 60.6948 48.5772 60.113 46.0173 59.3331C43.47 58.5437 40.9446 57.6097 38.6646 56.2542C37.5325 55.5749 36.4633 54.7793 35.5796 53.8201C35.1235 53.3201 34.655 52.8515 34.4034 52.3106C34.3405 52.1754 34.2933 52.037 34.2618 51.8955C34.2272 51.7571 34.221 51.6093 34.2084 51.4457C34.1927 51.125 34.1927 50.7979 34.2084 50.4708C34.2776 49.1563 34.4694 47.8323 34.7084 46.5209C34.9474 45.2063 35.2336 43.9012 35.545 42.5992C36.1676 39.9953 36.9161 37.4197 37.6992 34.8566C38.4885 32.2967 39.3534 29.7556 40.3346 27.2617C40.8189 26.0132 41.3283 24.771 41.9038 23.5602C42.19 22.9533 42.4919 22.3558 42.8221 21.774C43.1523 21.1922 43.5046 20.6198 43.9417 20.1072C43.0265 21.0978 42.3724 22.296 41.7466 23.4816C41.1271 24.6767 40.5673 25.9032 40.0389 27.1391C38.998 29.6204 38.0734 32.152 37.2243 34.7025C36.3752 37.2561 35.6361 39.8475 34.9789 42.4577C34.655 43.766 34.3562 45.0805 34.1046 46.4077C33.8593 47.7348 33.6392 49.0745 33.5857 50.4425C33.5731 50.7853 33.5731 51.1313 33.592 51.4803C33.6046 51.6502 33.614 51.8388 33.6612 52.0275C33.7021 52.2131 33.765 52.3955 33.8467 52.5622C34.1738 53.2446 34.6927 53.7289 35.1361 54.2164C36.0796 55.2322 37.196 56.0435 38.369 56.7385C40.7214 58.116 43.2844 59.05 45.8789 59.7796C51.0868 61.2231 56.4425 61.9905 61.8076 62.2861Z" fill="#F4E8D8"/>
<path d="M35.1254 43.442L27.7193 36.1931L34.6725 43.8792L35.1254 43.442Z" fill="#F4E8D8"/>
<path d="M43.2358 58.6003L40.3236 69.9403L43.8428 58.7733L43.2358 58.6003Z" fill="#F4E8D8"/>
</svg>
