<svg width="550" height="633" viewBox="0 0 550 633" fill="none" xmlns="http://www.w3.org/2000/svg">
<path d="M292.586 43.2681C292.586 43.2681 261.058 -17.8158 194.063 5.17279C127.068 28.1614 152.684 95.1566 152.684 95.1566C152.684 95.1566 127.725 81.3635 102.109 96.4702C76.493 111.577 85.6885 134.566 85.6885 134.566C85.6885 134.566 69.268 135.222 60.0726 147.702C50.8772 160.181 58.1022 177.259 63.3567 179.886C63.3567 179.886 37.7409 194.993 38.3977 206.159C39.0545 217.324 127.068 171.347 163.85 152.3C200.631 133.252 309.663 74.7953 323.456 67.5703C337.249 60.3454 314.917 59.0317 307.692 65.5999C300.467 72.168 379.942 29.475 354.983 28.1614C330.024 26.8477 292.586 43.2681 292.586 43.2681Z" fill="#F3E7D9"/>
<path d="M419.68 50.1648C419.68 50.1648 404.573 63.9579 413.768 62.6443C422.964 61.3306 485.361 29.8034 492.586 24.5489C499.811 19.2944 497.841 10.0989 490.616 8.78531C483.391 7.47167 467.627 16.0103 464.343 29.1466C464.343 29.1466 461.059 4.18759 442.668 4.8444C424.277 5.50122 417.709 35.058 419.68 50.1648Z" fill="#F3E7D9"/>
<path d="M115.665 599.973C115.665 599.973 101.117 597.897 86.5617 597.897C72.0066 597.897 66.8111 608.288 73.0509 608.288C73.0509 608.288 29.3988 615.565 51.2248 619.723C73.0509 623.874 140.611 618.679 115.665 599.973Z" fill="#33A86D"/>
<path d="M356.98 573.963C361.19 569.93 346.32 569.398 327.922 570.225C304.573 571.276 309.354 576.419 309.354 576.419C309.354 576.419 296.717 575.775 290.274 579.736C286.339 582.153 292.336 583.697 310.392 584.761C328.441 585.825 334.116 579.762 334.116 579.762C334.116 579.762 352.763 577.995 356.98 573.963Z" fill="#33A86D"/>
<path d="M156.9 575.96C161.11 572.406 146.24 570.179 127.843 568.918C104.493 567.316 109.275 573.004 109.275 573.004C109.275 573.004 96.6375 570.922 90.1942 574.153C86.2599 576.124 92.2566 578.35 110.312 581.464C128.368 584.577 134.037 579.165 134.037 579.165C134.037 579.165 152.69 579.513 156.9 575.96Z" fill="#33A86D"/>
<path d="M201.412 592.708C201.412 592.708 181.504 592.373 164.513 595.034C147.521 597.694 153.228 603.401 157.754 603.401C162.279 603.401 90.0755 624.071 110.463 629.385C130.851 634.699 161.176 632.288 245.058 628.268C288.71 626.18 310.536 615.894 291.83 612.236C275.068 608.958 231.908 604.846 231.908 604.846C244.381 596.203 201.412 592.708 201.412 592.708Z" fill="#33A86D"/>
<path d="M107.961 599.953C107.961 599.953 106.634 591.533 109.287 591.533C111.941 591.533 111.501 596.853 111.501 596.853C111.501 596.853 116.821 588.873 116.821 591.979C116.821 595.08 114.161 597.74 114.161 597.74C114.161 597.74 109.294 603.06 107.961 599.953Z" fill="#288453"/>
<path d="M140.709 616.373C140.709 616.373 143.448 605.162 140.709 604.662C137.97 604.163 137.471 610.889 137.471 611.638C137.471 612.386 137.222 600.426 135.231 600.176C133.241 599.927 132.243 604.662 132.243 604.662C132.243 604.662 130.496 601.175 128.256 603.914C126.016 606.653 128.506 608.649 128.506 608.649C128.506 608.649 126.016 608.15 124.519 611.139C123.021 614.127 131.494 617.365 131.494 617.365L128.256 619.355C128.256 619.368 136.473 619.618 140.709 616.373Z" fill="#33A86D"/>
<path d="M321.413 611.835C321.413 611.835 319.147 609.95 320.283 607.303C321.413 604.663 323.679 607.677 323.679 607.677C323.679 607.677 325.564 599.75 328.211 601.635C330.851 603.52 328.585 606.922 328.585 606.922C328.585 606.922 335.383 595.592 338.405 600.505C341.426 605.411 334.254 609.569 334.254 609.569C334.254 609.569 339.541 613.346 337.275 613.346C335.009 613.346 320.283 615.231 318.017 614.475C315.751 613.727 321.413 611.835 321.413 611.835Z" fill="#288453"/>
<path d="M180.105 610.712C164.276 607.467 150.338 612.524 158.45 614.961C158.45 614.961 125.997 618.344 135.915 621.996C145.833 625.648 190.003 624.702 201.222 623.618C212.44 622.535 216.046 621.451 221.255 617.661C226.463 613.871 195.935 613.956 180.105 610.712Z" fill="#288453"/>
<path d="M161.957 625.674C161.957 625.674 160.755 619.46 162.562 620.866C164.361 622.272 164.959 627.48 161.957 625.674Z" fill="#33A86D"/>
<path d="M192.007 624.925C192.007 624.925 190.805 618.712 192.611 620.117C194.411 621.516 195.009 626.725 192.007 624.925Z" fill="#33A86D"/>
<path d="M158.752 624.873C158.752 624.873 157.55 618.659 159.356 620.065C161.156 621.47 161.754 626.679 158.752 624.873Z" fill="#33A86D"/>
<path d="M96.8801 606.245C96.8801 606.245 90.9556 600.86 94.1872 599.513C97.4187 598.167 97.1494 602.206 97.1494 602.206C97.1494 602.206 97.688 592.781 100.381 594.127C103.074 595.474 101.189 599.782 101.189 599.782C101.189 599.782 103.074 594.935 103.612 598.167C104.151 601.398 100.65 607.323 96.8801 606.245Z" fill="#288453"/>
<path d="M181.604 522.941V274.52C181.604 274.52 181.604 269.771 186.352 265.699C191.101 261.627 197.209 256.201 197.209 256.201V194.421C197.209 192.103 198.917 190.132 201.209 189.804L211.456 188.339V92.7329C211.456 89.994 213.584 87.728 216.316 87.5506L233.853 86.4275L239.285 91.971C239.285 91.971 399.437 86.5391 405.545 86.5391C411.654 86.5391 488.337 123.859 495.122 127.255C501.907 130.651 497.835 132.687 498.518 140.149C499.194 147.61 499.194 307.768 499.194 307.768V519.552L181.604 522.941Z" fill="#F7BC4B"/>
<path d="M239.285 91.971L256.139 110.125L252.086 269.193L265.334 311.288L264.553 333.896L264.389 340.346L263.778 407.17L382.261 410.284L384.599 255.945L386.924 85.567L239.285 91.971Z" fill="#F5894E"/>
<path d="M393.604 97.9153V308.372L447.056 310.146L451.621 246.52L432.284 227.459V103.794C432.284 103.794 426.208 81.3109 418.064 79.2748C413.223 78.0663 406.793 89.9218 400.744 90.3028C396.724 90.5589 393.604 93.8955 393.604 97.9153Z" fill="#CE9436"/>
<path d="M382.898 93.357C382.898 102.099 382.898 321.817 382.898 321.817H442.911V263.459L416.448 247.853C416.448 247.853 416.448 106.933 416.448 99.2355C416.448 91.5376 410.681 86.3422 407.594 86.3422C404.507 86.3422 391.962 86.5261 388.028 86.5261C384.087 86.5261 382.898 91.0712 382.898 93.357Z" fill="#CC6D3D"/>
<path d="M386.924 85.5671C386.924 94.3093 386.924 304.898 386.924 304.898H446.938V246.54L420.475 230.934C420.475 230.934 420.475 99.1435 420.475 91.4456C420.475 83.7477 419.364 78.5522 416.277 78.5522C413.19 78.5522 395.995 78.7362 392.054 78.7362C388.113 78.7362 386.924 83.2879 386.924 85.5671Z" fill="#F7BC4B"/>
<path d="M247.423 100.799V270.448L262.353 279.269V331.525L254.891 340.346L258.964 347.807V432.635L265.748 429.246L268.461 347.807L264.389 340.346L268.461 335.597V268.412L261.565 258.743L256.139 110.125L247.423 100.799Z" fill="#CC6D3D"/>
<path d="M313.361 112.359V120.556C313.361 121.403 314.05 122.073 314.898 122.053L363.489 120.667C364.481 120.641 365.216 119.689 364.987 118.73L363.036 110.592C362.872 109.902 362.254 109.429 361.538 109.449L314.898 110.782C314.05 110.795 313.361 111.505 313.361 112.359Z" fill="#FEED7F"/>
<path d="M361.282 137.37L335.778 138.099C334.668 138.132 333.762 137.252 333.762 136.142V130.506C333.762 129.396 334.662 128.47 335.778 128.437L361.282 127.708C362.392 127.676 363.299 128.549 363.299 129.666V135.301C363.299 136.411 362.399 137.337 361.282 137.37Z" fill="#FEED7F"/>
<path d="M302.76 213.673L273.499 214.507C272.093 214.546 270.95 213.436 270.95 212.031V205.857C270.95 204.451 272.093 203.275 273.499 203.236L302.76 202.402C304.165 202.362 305.308 203.472 305.308 204.878V211.052C305.308 212.458 304.165 213.633 302.76 213.673Z" fill="#FEED7F"/>
<path d="M335.246 210.599L325.315 210.881C324.35 210.907 323.568 210.152 323.568 209.186V204.622C323.568 203.656 324.35 202.855 325.315 202.829L335.246 202.546C336.212 202.52 336.993 203.275 336.993 204.241V208.806C336.987 209.764 336.205 210.572 335.246 210.599Z" fill="#FEED7F"/>
<path d="M314.839 235.341L279.673 236.346C278.412 236.379 277.394 235.387 277.394 234.126V229.022C277.394 227.761 278.418 226.71 279.673 226.678L314.839 225.673C316.1 225.64 317.118 226.632 317.118 227.893V232.996C317.124 234.251 316.1 235.302 314.839 235.341Z" fill="#FEED7F"/>
<path d="M338.596 299.413H311.213V309.614H338.596V299.413Z" fill="#FEED7F"/>
<path d="M412.75 86.2566L406.609 94.6441L411.732 108.207L410.826 139.163L415.345 155.163L415.949 113.081L415.042 101.955L418.057 98.1318C418.064 98.1253 415.463 86.6047 412.75 86.2566Z" fill="#FEED7F"/>
<path d="M225.577 158.204L235.239 182.362L228.796 200.083L230.411 232.3V251.623L225.577 248.405L223.16 227.466L226.379 185.587L225.577 158.204Z" fill="#CC6D3D"/>
<path d="M197.926 230.684L196.316 260.484L201.952 274.178L201.144 336.996L203.561 345.049L207.587 273.371L200.343 257.265L197.926 230.684Z" fill="#CE9436"/>
<path d="M248.395 208.136L225.847 249.298L247.324 274.717L245.177 300.484L265.577 330.553L262.352 279.269L249.472 257.804L248.395 208.136Z" fill="#CC6D3D"/>
<path d="M442.761 101.823L441.69 151.222L459.943 196.326V237.134L500.751 302.638L499.299 131.708C499.286 130.014 498.307 128.477 496.784 127.748L442.761 101.823Z" fill="#CE9436"/>
<path d="M253.499 153.909L270.412 161.154L283.298 154.71L320.343 155.518L283.298 158.737L268.796 168.405L251.082 159.544L253.499 153.909Z" fill="#CC6D3D"/>
<path d="M384.776 201.423L392.021 215.118L384.776 223.978V201.423Z" fill="#CC6D3D"/>
<path d="M207.876 355.052L229.446 355.841L241.111 370.166L247.035 412.833L238.431 463.946L214.871 482.652L201.577 442.606L207.876 355.052Z" fill="#4B3355"/>
<path d="M241.111 370.166L227.193 388.261L230.891 412.774L240.093 439.092L247.035 412.833L241.111 370.166Z" fill="#665070"/>
<path d="M549.23 327.453C549.23 327.453 534.977 291.486 531.588 286.737C528.199 281.988 526.156 279.952 511.227 279.275C496.297 278.599 479.332 273.844 479.332 273.844L448.133 288.674L444.047 301.666L456.941 538.501L494.3 555.296L533.769 555.795L541.762 544.609C541.762 544.609 539.726 398.711 539.726 389.207C539.726 379.703 544.475 377.673 547.187 375.637C549.907 373.594 549.23 327.453 549.23 327.453Z" fill="#273252"/>
<path d="M457.256 286.527L476.048 281.693L501.283 293.502C501.283 293.502 509.874 298.336 515.24 296.721C520.606 295.105 529.198 291.886 529.198 291.886L535.102 302.625L544.232 329.469L543.693 362.757L531.345 361.148L517.92 397.121L503.155 356.852L511.207 331.079L498.051 299.4L474.964 287.052L457.256 286.527Z" fill="#3E4C6F"/>
<path d="M91.7046 401.424L107.994 386.494V325.417L108.979 306.172C109.209 301.719 111.836 297.738 115.843 295.775L170.424 269.088C170.424 269.088 190.102 272.484 199.606 278.586C209.104 284.694 213.859 294.875 213.859 294.875L216.572 325.41V372.235C216.572 372.235 218.608 374.271 213.859 378.343C209.11 382.415 208.427 384.451 208.427 384.451C208.427 384.451 207.068 387.847 207.751 391.236C208.427 394.632 207.751 509.995 207.751 509.995L178.569 551.408H103.921L95.1003 517.463L91.7046 401.424Z" fill="#3E4C6F"/>
<path d="M91.7046 401.424L107.994 386.494V325.417L108.723 311.229C109.11 303.65 113.583 296.878 120.401 293.548L122.976 292.287L170.424 269.088L154.358 305.147L163.6 338.251C163.009 341.647 163.981 345.134 166.253 347.729L169.708 351.676C173.734 356.281 175.114 358.671 179.882 354.842L216.572 325.404L215.646 347.184L200.342 360.07L195.508 393.896C195.508 393.896 191.606 448.491 192.289 451.887C192.546 453.174 177.793 445.443 177.793 445.443L162.49 509.989L178.569 551.401H103.921L95.1003 517.457L91.7046 401.424Z" fill="#273252"/>
<path d="M150.673 343.262L141.012 359.368L158.726 363.394L166.785 365.01L160.342 344.872L150.673 343.262Z" fill="#3E4C6F"/>
<path d="M129.458 315.716L143.429 308.208L151.751 309.975C153.163 310.073 157.564 334.185 156.585 335.21L149.432 333.601L141.242 329.299C141.123 330.658 139.199 330.809 138.871 329.489L132.066 342.113L124.664 342.678L115.219 323.42L129.458 315.716Z" fill="#48598B"/>
<path d="M118.457 303.17L134.568 306.927L149.064 297.804L168.394 270.953L133.491 288.136L115.238 300.484L118.457 303.17Z" fill="#48598B"/>
<path d="M506.117 360.622L503.437 386.934L514.169 410.021L516.501 434.718L521.151 452.971L512.56 434.718L510.412 412.169L498.603 386.396L503.167 356.865L506.117 360.622Z" fill="#3E4C6F"/>
<path d="M515.246 435.525L529.742 442.232L535.647 462.1L536.185 471.23L534.038 461.562L527.594 445.456L516.855 441.161L515.246 435.525Z" fill="#3E4C6F"/>
<path d="M457.321 300.891C455.574 299.144 457.906 291.006 461.394 297.594C464.875 304.182 459.062 302.632 457.321 300.891Z" fill="#288453"/>
<path d="M451.042 298.868C448.52 297.509 449.492 290.244 452.205 292.28C453.755 293.443 456.717 294.796 454.53 298.29C453.564 299.84 453.564 300.228 451.042 298.868Z" fill="#288453"/>
<path d="M452.277 292.169C449.564 290.231 449.564 278.986 453.827 282.087C458.097 285.187 454.99 294.106 452.277 292.169Z" fill="#288453"/>
<path d="M457.322 294.494C457.322 294.494 459.259 286.356 461.197 290.619C463.135 294.881 457.322 294.494 457.322 294.494Z" fill="#288453"/>
<path d="M449.748 309.673C449.748 309.673 450.924 302.08 447.64 304.76C444.356 307.44 445.998 311.906 449.748 309.673Z" fill="#288453"/>
<path d="M448.533 292.024C447.331 290.658 442.819 289.41 445.821 294.349C449.236 299.972 449.729 293.39 448.533 292.024Z" fill="#288453"/>
<path d="M450.727 306.316C450.727 306.316 459.252 312.517 457.315 307.867C455.377 303.216 451.115 302.829 450.727 306.316Z" fill="#288453"/>
<path d="M450.34 291.394C450.34 291.394 449.177 279.374 447.627 283.256C446.077 287.137 448.014 292.169 450.34 291.394Z" fill="#288453"/>
<path d="M442.432 294.316C439.686 293.206 436.468 295.978 442.701 298.087C448.927 300.188 445.177 295.426 442.432 294.316Z" fill="#288453"/>
<path d="M48.5911 563.611C45.1953 562.252 38.4104 545.286 42.4827 541.221C46.5549 537.148 49.2676 537.825 45.8784 526.968C42.4827 516.111 43.1658 458.429 43.1658 434.678C43.1658 410.928 43.1658 389.89 47.238 380.392C51.3103 370.895 47.238 361.391 49.9507 356.642C52.6633 351.893 60.1313 348.497 60.1313 348.497C60.1313 348.497 62.1675 326.107 63.5271 322.711C64.8867 319.315 79.133 313.89 84.5649 313.89C89.9968 313.89 89.9968 316.602 98.8178 326.107C107.639 335.604 114.424 341.036 116.46 344.432C118.496 347.827 117.82 351.9 119.856 356.649C121.892 361.397 133.425 406.869 135.462 411.618C137.498 416.366 137.498 415.013 138.174 426.547C138.851 438.081 140.21 477.444 140.887 480.833C141.563 484.229 140.887 486.941 146.319 490.33C151.751 493.726 151.751 499.828 153.104 503.224C154.463 506.619 154.463 519.513 154.463 525.615C154.463 531.716 153.104 556.833 153.787 560.905C154.463 564.978 157.859 569.726 149.038 571.086C140.217 572.446 122.575 573.122 114.43 573.799C106.286 574.475 104.25 571.086 104.25 571.086C104.25 571.086 82.5353 569.726 73.0312 569.726C63.5271 569.726 60.1379 571.763 58.7783 569.05C57.4121 566.324 51.9868 564.965 48.5911 563.611Z" fill="#856792"/>
<path d="M99.1335 566.442L99.4881 554.271L84.4537 536.373L87.3174 510.961L74.7919 501.654L71.5735 484.833L61.5505 469.443C61.5505 469.443 70.1417 441.167 69.7804 439.02C69.4257 436.872 83.3831 431.506 83.3831 431.506L99.4881 450.836L95.9085 470.166L99.4881 489.135L122.753 554.285L114.523 553.569L110.943 570.39L99.1335 566.442Z" fill="#665070"/>
<path d="M71.9282 349.883L77.2944 348.451C77.2944 348.451 90.805 356.865 90.805 364.918C90.805 372.97 85.9709 382.639 85.9709 382.639C85.9709 382.639 84.3617 397.135 87.5801 405.995C90.7985 414.856 103.685 434.987 103.685 434.987L119.79 443.04C119.79 443.04 120.598 455.926 122.207 458.343C123.718 460.609 123.101 470.606 123.101 470.606C123.101 470.606 127.127 476.78 127.396 473.023C127.665 469.266 132.677 467.204 132.677 467.204L127.843 455.125L128.651 439.821L106.904 430.159L92.4077 405.194L91.5998 386.672L96.4339 364.924C96.4339 364.924 90.1679 351.144 84.8017 347.387C82.5095 345.778 67.9807 348.103 67.9807 348.103L71.9282 349.883Z" fill="#BB83C3"/>
<path d="M124.637 459.145L122.22 465.857L124.637 514.718C124.637 514.718 127.77 502.009 129.38 489.122C130.989 476.242 124.637 459.145 124.637 459.145Z" fill="#BB83C3"/>
<path d="M45.4385 544.249C45.4385 544.249 51.8819 551.231 55.6388 551.231C59.3958 551.231 64.23 543.178 64.23 543.178C64.23 543.178 76.0396 542.639 78.1874 542.639C80.3352 542.639 88.9263 550.692 88.9263 550.692L97.5175 555.526L92.6833 556.065L86.24 552.846L77.1102 546.403L65.8327 546.941L56.7029 556.071L47.5731 549.089L45.4385 544.249Z" fill="#BB83C3"/>
<path d="M62.0822 548.544L56.716 559.822L58.7718 569.037L52.9523 563.04L51.8817 553.378H55.6388L62.0822 548.544Z" fill="#BB83C3"/>
<path d="M84.3681 321.423L78.7261 329.305L81.951 338.934L90.8115 347.69L92.4207 361.693L95.6391 348.563L89.1957 340.688L83.5602 331.059L84.3681 321.423Z" fill="#BB83C3"/>
<path d="M51.3432 376.997C51.3432 376.997 47.3167 406.796 48.1247 414.849C48.9326 422.902 54.5682 430.153 54.5682 434.981C54.5682 439.808 53.7603 457.529 47.3168 468.807C40.8732 480.084 44.0982 441.424 44.0982 441.424L42.489 406.79C42.4824 406.796 42.4824 377.804 51.3432 376.997Z" fill="#BB83C3"/>
<path d="M57.2482 458.074C50.5355 472.839 47.8491 473.378 51.882 481.431C55.9083 489.483 64.2302 509.083 64.2302 509.083C64.2302 509.083 78.7262 528.413 81.9512 529.214C85.1697 530.022 81.1434 510.692 81.1434 510.692L74.6999 513.109L70.6736 509.89L61.8131 480.091L56.9789 472.839L62.6144 451.9L61.5438 430.961L57.5175 438.212L57.2482 458.074Z" fill="#BB83C3"/>
<path d="M69.064 379.414L65.0377 393.108L69.064 410.823V422.1L72.2825 410.021L69.064 393.108L72.2825 372.97L69.064 379.414Z" fill="#665070"/>
<path d="M69.064 404.38L77.1164 406.797L87.586 405.995L78.7256 412.432L69.064 410.823V404.38Z" fill="#665070"/>
<path d="M72.2825 372.97L61.8129 369.752L56.9853 362.501L50.542 364.11L53.7604 368.136L59.3958 373.778L72.2825 372.97Z" fill="#665070"/>
<path d="M65.6424 436.458C67.0742 438.606 72.0856 439.677 73.1562 435.92C74.2268 432.163 69.9379 430.553 69.9379 430.553C69.9379 430.553 64.2106 434.311 65.6424 436.458Z" fill="#288453"/>
<path d="M66.5355 420.53C66.5355 420.53 65.4649 431.269 71.37 427.512C77.2751 423.755 70.8314 418.383 66.5355 420.53Z" fill="#33A86D"/>
<path d="M77.2748 432.347C77.2748 432.347 78.3454 439.86 81.0318 435.033C83.7183 430.199 81.5704 427.513 77.2748 432.347Z" fill="#33A86D"/>
<path d="M71.3696 442.547C71.3696 442.547 76.2038 431.269 76.7358 436.642C77.2744 442.008 71.3696 442.547 71.3696 442.547Z" fill="#33A86D"/>
<path d="M245.853 412.117C245.853 412.117 245.137 397.739 249.446 404.209C253.754 410.678 250.162 414.278 250.162 414.278C250.162 414.278 254.477 404.209 258.792 412.839C263.108 421.47 252.323 422.908 252.323 422.908C252.323 422.908 237.945 423.624 237.945 412.839C237.945 402.054 245.853 412.117 245.853 412.117Z" fill="#33A86D"/>
<path d="M108.066 312.629C108.066 312.629 99.9936 304.018 99.9936 307.788C99.9936 311.558 105.373 315.86 105.373 315.86C105.373 315.86 98.3779 315.322 99.455 319.092C100.532 322.862 105.912 320.708 105.912 320.708C105.912 320.708 111.291 330.934 113.984 320.708C116.677 310.481 110.752 295.407 108.066 312.629Z" fill="#33A86D"/>
<path d="M131.429 338.586C130.188 334.455 138.621 325.647 138.621 331.394C138.621 337.148 133.583 345.778 131.429 338.586Z" fill="#33A86D"/>
<path d="M127.015 349.837C127.015 349.837 132.729 341.266 134.161 346.501C135.593 351.736 128.44 358.882 127.015 349.837Z" fill="#33A86D"/>
<path d="M130.707 373.095C130.707 373.095 122.799 359.433 130.707 360.872C138.621 362.31 135.744 379.571 130.707 373.095Z" fill="#33A86D"/>
<path d="M138.621 372.379C138.621 372.379 149.406 361.594 148.69 368.064C147.968 374.534 142.214 378.849 138.621 372.379Z" fill="#33A86D"/>
<path d="M126.398 376.695C126.398 376.695 115.613 375.979 120.644 378.849C125.675 381.726 133.583 382.448 126.398 376.695Z" fill="#33A86D"/>
<path d="M122.082 368.064C122.082 368.064 112.013 365.91 117.767 369.502C123.521 373.095 122.082 368.064 122.082 368.064Z" fill="#33A86D"/>
<path d="M139.337 389.634C139.337 389.634 140.775 376.695 145.807 380.287C150.844 383.887 147.968 391.795 139.337 389.634Z" fill="#33A86D"/>
<path d="M135.022 397.542C135.022 397.542 127.113 385.318 134.306 389.634C141.491 393.949 142.93 397.542 135.022 397.542Z" fill="#33A86D"/>
<path d="M137.183 406.172C137.183 406.172 141.498 392.511 145.091 401.857C148.684 411.204 138.621 411.926 137.183 406.172Z" fill="#33A86D"/>
<path d="M140.06 418.396C140.06 418.396 127.836 406.889 132.152 413.365C136.46 419.834 140.06 418.396 140.06 418.396Z" fill="#33A86D"/>
<path d="M149.406 411.926C149.406 411.926 139.337 419.118 147.968 416.957C156.592 414.803 154.437 412.642 149.406 411.926Z" fill="#33A86D"/>
<path d="M131.068 404.373C131.068 404.373 124.598 410.843 130.706 409.05C136.815 407.256 138.26 402.58 131.068 404.373Z" fill="#33A86D"/>
<path d="M135.744 422.35C135.744 422.35 132.506 432.774 140.421 429.181C148.322 425.588 146.89 416.957 135.744 422.35Z" fill="#33A86D"/>
<path d="M147.967 428.465C147.967 428.465 152.644 422.357 155.876 425.588C159.107 428.82 138.621 436.734 147.967 428.465Z" fill="#33A86D"/>
<path d="M137.898 432.419C137.898 432.419 122.437 438.172 134.306 436.373C146.168 434.573 143.652 434.212 137.898 432.419Z" fill="#33A86D"/>
<path d="M141.491 438.173C141.491 438.173 144.729 443.204 149.399 439.972C154.069 436.741 150.483 437.45 141.491 438.173Z" fill="#33A86D"/>
<path d="M154.437 432.058C154.437 432.058 166.299 432.058 159.114 433.857C151.928 435.657 148.322 434.935 154.437 432.058Z" fill="#33A86D"/>
<path d="M136.099 441.043C136.099 441.043 130.707 448.235 140.775 444.281C150.844 440.327 136.099 441.043 136.099 441.043Z" fill="#33A86D"/>
<path d="M151.199 442.481C151.199 442.481 144.729 450.39 155.153 446.435C165.583 442.481 161.984 439.965 151.199 442.481Z" fill="#33A86D"/>
<path d="M139.337 448.957C139.337 448.957 138.976 453.273 144.729 450.757C150.483 448.235 148.683 447.158 139.337 448.957Z" fill="#33A86D"/>
<path d="M140.414 456.143C140.414 456.143 133.944 459.736 142.214 459.381C150.483 459.02 140.414 456.143 140.414 456.143Z" fill="#33A86D"/>
<path d="M125.675 386.402C125.675 386.402 112.013 383.887 119.206 387.479C126.398 391.072 127.114 388.195 125.675 386.402Z" fill="#33A86D"/>
<path d="M133.944 382.087C133.944 382.087 122.082 380.287 128.552 383.525C135.022 386.757 137.183 384.964 133.944 382.087Z" fill="#33A86D"/>
<path d="M146.891 393.588C146.891 393.588 158.753 387.479 154.437 392.511C150.122 397.542 137.537 401.857 146.891 393.588Z" fill="#33A86D"/>
<path d="M109.859 330.198C109.859 330.198 95.961 327.321 101.708 331.157C107.455 334.993 115.133 334.993 109.859 330.198Z" fill="#33A86D"/>
<path d="M110.339 336.911C110.339 336.911 103.147 346.98 113.216 343.144C123.285 339.309 117.051 334.993 110.339 336.911Z" fill="#33A86D"/>
<path d="M109.859 330.198C109.859 330.198 121.839 327.322 115.133 332.116C108.421 336.911 109.859 330.198 109.859 330.198Z" fill="#33A86D"/>
<path d="M117.524 319.171C117.524 319.171 108.894 331.63 119.442 324.924C129.991 318.218 125.675 312.944 117.524 319.171Z" fill="#33A86D"/>
<path d="M124.237 326.842C124.237 326.842 130.949 329.24 123.278 331.637C115.613 334.034 118.004 332.596 124.237 326.842Z" fill="#33A86D"/>
<path d="M122.798 335.473C122.798 335.473 115.606 342.185 124.237 339.309C132.867 336.432 130.949 334.514 122.798 335.473Z" fill="#33A86D"/>
<path d="M118.003 348.891C118.003 348.891 104.585 349.85 114.647 352.727C124.709 355.604 122.798 350.809 118.003 348.891Z" fill="#33A86D"/>
<path d="M119.442 344.097C119.442 344.097 128.552 336.425 126.155 342.179C123.758 347.932 116.572 348.412 119.442 344.097Z" fill="#33A86D"/>
<path d="M127.613 343.059C127.613 343.059 139.12 340.182 131.449 344.018C123.777 347.854 127.613 343.059 127.613 343.059Z" fill="#33A86D"/>
<path d="M115.613 357.043C115.613 357.043 100.276 358.481 109.859 360.399C119.442 362.31 118.483 358.961 115.613 357.043Z" fill="#33A86D"/>
<path d="M107.941 351.768C107.941 351.768 97.8723 351.768 102.667 354.166C107.462 356.563 113.215 356.563 107.941 351.768Z" fill="#33A86D"/>
<path d="M373.683 406.442L258.234 407.604C255.975 407.604 250.897 406.173 250.897 412.885C250.897 419.598 250.943 423.132 250.943 423.132L375.042 422.731L373.683 406.442Z" fill="#4B3355"/>
<path d="M226.648 446.744C226.648 446.744 225.939 445.673 225.709 438.875C225.439 430.954 224.763 428.209 227.856 426.659C231.613 424.78 241.144 424.241 241.144 424.241L365.683 421.095L366.221 431.132V448.097L226.648 446.744Z" fill="#4B3355"/>
<path d="M225.551 429.102C225.551 429.102 224.92 426.586 228.263 425.706C236.217 423.618 240.697 422.186 251.075 421.831C261.452 421.476 366.214 421.634 366.214 421.634V431.131L225.551 429.102Z" fill="#FEED7F"/>
<path d="M227.186 446.665C227.186 446.665 226.917 446.889 218.687 449.214C210.457 451.539 209.472 454.015 209.472 456.728C209.472 459.44 216.723 458.875 216.723 458.875L364.868 461.023V447.565L227.186 446.665Z" fill="#FEED7F"/>
<path d="M211.882 472.675C208.303 472.675 205.978 474.81 199.712 478.028C194.983 480.465 191.482 481.608 190.766 485.542C189.912 490.226 366.221 500.492 366.221 500.492V474.035C366.221 474.035 215.462 472.675 211.882 472.675Z" fill="#FFACFF"/>
<path d="M196.848 481.253C193.492 482.101 192.079 481.536 190.943 483.447C190.03 484.977 189.689 487.979 189.689 489.49C189.689 492.885 189.583 500.504 189.583 500.504H366.214L363.646 483.408C363.646 483.408 293.111 482.468 243.738 481.838L240.467 483.592C240.467 483.592 236.736 481.752 235.501 481.733C214.175 481.444 198.319 480.879 196.848 481.253Z" fill="#4B3355"/>
<path d="M370.32 508.977L173.767 510.061C173.143 510.061 172.697 506.304 175.179 505.345L189.465 500.551C189.544 500.511 189.636 500.492 189.728 500.492H375.285C375.758 500.492 376.04 501.024 375.771 501.418L370.806 508.715C370.694 508.886 370.517 508.977 370.32 508.977Z" fill="#FFACFF"/>
<path d="M170.45 520.807C170.45 520.807 169.642 517.227 170.004 513.739C170.358 510.252 173.583 507.204 173.583 507.204C173.583 506.028 175.087 506.488 176.27 506.488L365.374 506.672C366.549 506.672 367.508 507.624 367.508 508.807V519.749C367.508 520.925 366.556 521.877 365.38 521.884L174.404 522.278C173.222 522.278 170.45 521.982 170.45 520.807Z" fill="#665070"/>
<path d="M172.625 520.754L150.904 529.575L335.647 534.587L377.079 529.575L370.812 521.7L172.625 520.754Z" fill="#FFACFF"/>
<path d="M150.904 529.536C150.904 529.536 148.526 539.598 148.165 542.101C147.81 544.603 150.904 547.657 150.904 547.657H371.647L379.108 528.859L342.891 530.291C342.891 530.291 336.514 532.439 334.839 532.439C328.665 532.439 321.683 529.03 321.683 529.03L150.904 529.536Z" fill="#665070"/>
<path d="M149.478 547.841L138.109 550.817C133.071 552.137 130.989 552.281 130.989 557.49L129.557 562.502C129.557 568.827 127.527 573.957 133.853 573.957H363.587C369.913 573.957 375.042 568.827 375.042 562.502V558.915C375.042 552.59 369.913 547.46 363.587 547.46H152.381C151.403 547.474 150.431 547.598 149.478 547.841Z" fill="#665070"/>
<path d="M150.726 547.52L133.938 551.914C132.592 552.268 132.5 554.147 133.807 554.633L143.186 558.094C143.403 558.173 153.308 553.95 153.537 553.917L177.058 553.93C177.13 553.923 177.203 553.917 177.275 553.917L291.64 556.583C292.126 556.597 292.579 556.853 292.828 557.273C293.38 558.193 294.707 558.199 295.265 557.286L295.764 556.472C296.021 556.051 296.48 555.795 296.98 555.795H369.105C370.077 555.795 370.766 554.843 370.458 553.917L368.993 549.516C368.802 548.938 368.257 548.544 367.646 548.544L151.094 547.474C150.969 547.474 150.844 547.487 150.726 547.52Z" fill="#FFACFF"/>
<path d="M259.134 405.726C259.134 405.726 249.472 408.32 251.62 409.128C253.768 409.936 275.784 409.483 284.106 410.022C292.428 410.56 367.331 409.483 367.331 409.483C367.331 409.483 370.195 405.726 360.264 405.995C350.32 406.258 259.134 405.726 259.134 405.726Z" fill="#FEED7F"/>
<path d="M228.172 428.813L231.752 429.884L233.538 431.493L245.709 429.706L248.573 430.422L252.868 428.275L228.172 428.813Z" fill="#FEED7F"/>
<path d="M348.789 455.224L345.046 458.344L342.674 455.263L340.586 455.276L339.673 456.918L335.456 455.309L278.464 455.657L274.418 456.885L269.873 457.536L260.743 454.633L212.06 454.403C212.06 454.403 209.465 454.015 209.465 456.728C209.465 459.44 208.48 471.94 211.167 473.549C213.853 475.158 364.862 475.381 364.862 475.381V455.119L348.789 455.224Z" fill="#4B3355"/>
<path d="M245.708 478.206L251.213 484.445C251.213 484.445 260.382 483.821 263.134 484.445C265.012 484.872 291.705 485.181 291.705 485.181L298.898 486.002L307.095 482.317L294.773 479.447L245.708 478.206Z" fill="#FFACFF"/>
<path d="M185.846 505.588L202.759 508.813L207.744 509.996L216.178 509.884L223.16 510.961L236.585 503.979L185.846 505.588Z" fill="#FFACFF"/>
<path d="M259.85 527.782L264.5 532.078L274.523 534.226L279.18 531.723L285.978 532.078L293.853 527.782H259.85Z" fill="#FFACFF"/>
<path d="M212.066 454.403L224.06 454.757L226.924 456.905L225.492 460.839L229.071 466.206V470.14L235.869 469.069L239.088 473.004L210.096 472.288C210.096 472.288 209.025 471.572 209.025 465.844C209.025 460.117 208.303 453.687 212.066 454.403Z" fill="#34283A"/>
<path d="M170.451 520.807C170.451 520.807 166.779 514.902 173.584 507.204L177.518 506.666L177.163 512.393L181.603 518.068C181.722 518.094 181.833 518.022 181.859 517.904L182.175 516.327L196.493 513.464L197.925 517.043L195.423 520.623L170.451 520.807Z" fill="#4B3355"/>
<path d="M200.881 490.56L203.567 494.048L204.237 497.135L209.34 497.267L211.889 499.953L212.427 500.354H194.706L189.728 500.498L189.472 494.449C189.472 494.449 189.472 485.989 189.872 485.188C190.273 484.386 191.889 482.37 191.889 482.37L197.255 480.892L201.551 483.04L200.881 490.56Z" fill="#34283A"/>
<path d="M157.294 554.094L159.265 561.97L165.17 563.04L167.856 568.413L173.583 573.957H144.946L145.846 568.59L141.367 564.472L143.876 558.39L153.537 553.917L157.294 554.094Z" fill="#4B3355"/>
<path d="M207.232 554.633L206.786 558.745L211.167 562.147L218.595 560.623L224.415 565.727L232.52 555.191L207.232 554.633Z" fill="#4B3355"/>
<path d="M175.016 553.556L176.447 555.703L181.098 552.485L186.109 555.703H193.269C193.269 555.703 193.623 558.567 194.7 558.922C195.778 559.277 202.576 552.84 202.576 552.84L175.732 549.621L175.016 553.556Z" fill="#FFACFF"/>
<path d="M321.774 505.234L323.922 508.813L331.081 509.168L339.311 507.02L342.891 508.813L345.4 505.234H321.774Z" fill="#FFACFF"/>
<path d="M245.853 412.117C245.853 412.117 245.137 397.739 249.446 404.209C253.754 410.678 250.162 414.278 250.162 414.278C250.162 414.278 254.477 404.209 258.792 412.839C263.108 421.47 252.323 422.908 252.323 422.908C252.323 422.908 237.945 423.624 237.945 412.839C237.945 402.054 245.853 412.117 245.853 412.117Z" fill="#33A86D"/>
<path d="M360.408 463.178C360.408 463.178 360.408 442.14 360.408 434.679C360.408 427.217 364.48 422.554 364.48 422.554C364.48 422.554 364.848 407.427 365.177 403.985C365.577 399.69 374.753 391.414 374.753 391.414L376.697 380.675V296.235C376.697 296.235 374.661 290.803 373.985 289.45C373.308 288.09 373.985 281.988 373.985 281.988C373.985 281.988 392.986 273.844 395.022 273.844C397.059 273.844 435.739 284.701 435.739 284.701C435.739 284.701 458.129 311.164 458.813 315.236C459.489 319.309 458.813 349.168 458.813 349.168L477.394 357.667L487.056 382.632C487.056 382.632 493.414 422.455 496.133 423.132C498.846 423.808 507.667 448.918 508.35 452.991C510.537 466.12 514.445 455.217 514.445 495.066L524.107 509.996L528.133 560.715L500.212 580.223L376.185 578.252L365.164 574.318L360.408 463.178Z" fill="#665070"/>
<path d="M430.346 354.179L446.753 362.232L449.019 370.823L455.246 378.337L460.336 391.762L460.461 401.962L485.716 407.867L486.254 414.041C486.254 414.041 484.645 436.32 484.645 440.616C484.645 444.912 483.384 479.007 483.384 479.007L492.435 502.633L483.384 574.58L370.937 565.72L368.671 487.867L377.157 414.849L389.604 406.258L395.265 363.302L409.978 346.12L430.346 354.179Z" fill="#856792"/>
<path d="M357.926 477.135C357.926 477.135 359.804 457.588 359.804 448.413C359.804 445.844 360.408 436.307 360.408 434.678C360.408 431.953 360.954 429.601 361.643 427.71C362.839 424.432 364.481 422.554 364.481 422.554C364.481 422.554 365.032 405.529 365.177 403.985C365.578 399.69 374.753 391.414 374.753 391.414L384.06 395.709L385.492 388.911L376.697 369.581V296.235C376.697 296.235 374.661 290.803 373.985 289.45C373.308 288.09 373.985 281.988 373.985 281.988C373.985 281.988 392.986 273.844 395.023 273.844C397.059 273.844 396.054 329.483 396.054 329.483C396.054 329.483 432.422 339.105 433.098 343.177C433.775 347.25 397.932 463.986 397.932 463.986L357.394 510.968L357.926 477.135Z" fill="#856792"/>
<path d="M381.551 408.406L385.308 381.562L407.568 360.084L436.317 362.232C436.317 362.232 440.881 366.356 441.558 371.105C442.234 375.854 451.351 385.857 451.351 385.857C451.351 385.857 453.072 397.68 454.569 407.453C454.924 409.779 476.941 413.358 477.657 414.048C482.556 418.744 478.727 453.155 478.727 456.734C478.727 460.314 503.824 481.26 504.501 484.656C505.177 488.051 510.714 503.217 510.714 503.217C510.714 503.217 499.134 575.763 499.134 579.152C499.134 582.541 377.788 578.344 377.788 578.344V419.145L381.551 408.406Z" fill="#1D2538"/>
<path d="M399.226 339.545L405.157 330.941L396.231 329.01L399.226 339.545Z" fill="#665070"/>
<path d="M397.663 288.405L390.412 294.849L399.272 302.901L397.663 288.405Z" fill="#665070"/>
<path d="M432.56 290.823L437.394 315.519C437.394 315.519 444.376 327.867 448.671 333.24C452.967 338.606 452.428 354.179 452.428 354.179L463.167 361.161L449.21 356.327C449.21 356.327 448.671 338.606 447.062 335.926C445.453 333.24 437.932 322.501 435.253 319.282C432.56 316.057 432.56 290.823 432.56 290.823Z" fill="#4B3355"/>
<path d="M380.802 445.949C380.802 445.949 372.894 445.667 368.559 446.14C363.87 446.652 360.651 447.27 355.942 454.994C351.902 461.621 350.103 467.992 348.973 470.626C347.843 473.26 348.218 474.77 351.607 477.785C354.996 480.8 374.963 490.593 385.505 479.67C396.053 468.747 394.543 454.81 391.154 451.421C387.764 448.031 380.802 445.949 380.802 445.949Z" fill="#665070"/>
<path d="M405.663 428.419C400.954 425.22 385.847 424.511 378.871 426.659C367.147 430.265 367.062 436.859 364.376 443.841C362.451 448.839 365.275 456.104 369.052 457.568C372.829 459.027 386.635 458.757 391.358 455.348C396.08 451.939 410.372 431.624 405.663 428.419Z" fill="#665070"/>
<path d="M395.305 427.289C395.305 427.289 387.995 426.658 396.054 432.57L385.906 447.295C385.906 447.295 379.147 450.415 377.072 455.611C374.996 460.806 379.003 474.146 378.734 476.261C377.604 485.299 365.926 519.953 368.94 532.386C371.955 544.813 397.19 535.401 425.065 539.546C452.941 543.69 500.402 535.401 507.181 533.897C513.959 532.393 508.153 506.521 505.486 500.182C499.456 485.87 501.151 477.772 498.143 466.094C495.128 454.415 500.783 447.709 485.341 438.29C469.887 428.872 410.747 422.395 395.305 427.289Z" fill="#856792"/>
<path d="M442.721 419.926C442.721 419.926 452.317 420.051 461 422.192C463.384 422.777 469.013 420.99 471.476 421.66C481.223 424.314 489.663 429.45 490.878 432.051C493.512 437.7 497.282 459.926 493.893 462.941C490.504 465.956 486.465 469.857 479.68 469.857C472.895 469.857 461.598 468.728 460.093 462.698C458.583 456.668 429.538 436.498 442.721 419.926Z" fill="#856792"/>
<path d="M385.321 479.269L378.727 472.11C366.674 471.355 359.515 472.485 354.622 476.255C349.722 480.018 346.332 486.987 345.203 496.78C344.073 506.573 344.073 513.352 354.241 520.511C364.408 527.67 367.049 526.16 377.971 529.549C388.894 532.938 407.318 529.207 407.318 529.207L409.466 523.302L410.536 513.102C410.536 513.102 408.704 503.611 408.927 500.754C409.118 498.297 402.825 489.811 399.062 489.437C395.298 489.063 388.139 488.307 385.124 487.178L385.321 479.269Z" fill="#856792"/>
<path d="M393.433 495.854H398.116C398.116 495.854 397.617 493.24 405.637 492.721C413.663 492.196 413.702 497.706 413.702 497.706C413.702 497.706 414.353 502.895 415.791 508.708C416.849 512.997 416.172 517.312 416.172 519.92C416.172 526.068 412.658 531.887 407.64 533.45C403.955 534.6 395.857 532.675 391.627 528.465C390.103 526.948 389.085 525.135 388.953 523.059C388.737 519.716 390.392 515.138 390.385 511.132C390.385 509.595 388.651 508.452 388.671 507.033C388.737 503.48 388.875 500.478 389.085 498.981C389.591 495.329 393.433 495.854 393.433 495.854Z" fill="#665070"/>
<path d="M392.842 497.812H398.648C398.648 497.812 398.609 495.243 401.256 494.968C411.207 494.495 409.965 499.237 409.965 499.237C409.965 499.237 412.54 503.033 413.847 509.49C414.668 513.516 414.707 517.286 414.707 519.657C414.707 525.24 409.965 530.541 403.745 531.959C399.174 533.004 395.85 531.257 390.609 527.434C388.724 526.055 387.456 524.406 387.292 522.527C387.029 519.493 389.072 515.335 389.065 511.697C389.065 510.298 386.911 509.266 386.944 507.972C387.023 504.741 387.2 502.022 387.456 500.662C388.073 497.339 392.842 497.812 392.842 497.812Z" fill="#856792"/>
<path d="M511.897 538.6C511.897 550.462 513.427 565.247 511.897 568.688C510.366 572.13 508.941 575.105 501.289 578.613C492.12 582.816 486.294 579.769 479.41 582.449C472.527 585.128 462.215 584.36 449.217 583.979C436.225 583.598 435.456 580.156 429.722 582.83C423.988 585.503 412.527 587.033 412.139 576.715C411.758 566.396 411.377 544.229 412.52 538.495C413.67 532.761 418.057 533.312 423.41 532.951C429.144 532.57 437.361 534.672 437.361 534.672C449.913 529.575 466.379 530.291 466.379 530.291C466.379 530.291 475.962 527.795 483.608 525.503C491.253 523.211 490.484 523.21 493.545 520.918C496.606 518.619 511.897 526.731 511.897 538.6Z" fill="#665070"/>
<path d="M359.331 516.564C359.331 516.564 340.842 522.823 335.489 526.265C330.136 529.706 327.843 532.38 327.843 541.549C327.843 550.718 328.993 557.982 328.993 561.805C328.993 565.628 335.489 572.124 339.692 577.089C343.896 582.055 346.569 580.143 355.745 581.293C364.921 582.442 366.825 579.381 373.709 580.143C380.586 580.905 391.292 578.613 391.292 578.613C391.292 578.613 393.584 581.667 400.08 582.436C406.576 583.198 401.61 583.198 408.106 582.817C414.602 582.436 418.425 580.524 418.044 564.091C417.663 547.657 421.486 541.161 415.371 536.577C409.256 531.992 407.725 531.611 401.991 531.224C396.257 530.836 395.259 532.603 391.055 531.841C386.852 531.079 368.888 527.638 366.215 523.815C363.535 520.005 365.827 518.856 359.331 516.564Z" fill="#665070"/>
<path d="M454.648 425.975C454.648 425.975 457.597 439.88 461.394 445.785C465.19 451.69 465.282 452.938 473.289 454.205C481.295 455.467 486.353 453.785 486.353 453.785C486.353 453.785 488.625 457.903 479.147 457.687C469.663 457.476 460.816 455.368 459.128 454.107C457.44 452.846 456.336 442.836 454.648 436.727C452.96 430.619 454.648 425.975 454.648 425.975Z" fill="#665070"/>
<path d="M483.824 487.986C483.824 487.986 479.614 486.114 477.413 486.238C475.213 486.363 470.819 492.478 469.538 494.797C468.257 497.115 469.893 510.547 469.893 512.945C469.893 515.342 468.987 516.885 472.284 518.166C475.581 519.447 480.159 517.877 481.078 517.936C481.991 517.995 484.744 515.506 483.279 515.145C481.814 514.784 475.588 516.518 474.307 515.9C473.026 515.283 472.106 511.493 472.106 511.493C472.106 511.493 471.193 503.171 471.555 500.531C471.916 497.89 473.387 495.053 473.387 495.053C473.387 495.053 475.949 488.82 477.42 488.918C478.878 489.004 483.824 487.986 483.824 487.986Z" fill="#665070"/>
<path d="M467.463 531.9L455.739 540.859C455.739 540.859 450.615 560.071 451.548 564.59C452.481 569.109 458.07 575.322 458.07 575.322L475.772 581.536C475.772 581.536 482.294 582.101 486.484 578.147C490.675 574.193 488.816 565.148 488.816 565.148C488.816 565.148 486.405 534.948 483.844 532.971C481.282 530.994 467.463 531.9 467.463 531.9Z" fill="#856792"/>
<path d="M423.975 534.074C423.975 534.074 413.683 530.685 413.197 533.509C412.711 536.334 411.239 551.027 412.218 554.981C413.197 558.935 414.175 561.194 414.175 561.194L412.218 565.713C412.218 565.713 412.277 583.053 415.43 583.703C418.589 584.36 425.939 577.01 425.939 577.01L428.881 567.408C428.881 567.408 429.86 539.158 428.389 537.463C426.917 535.769 423.975 534.074 423.975 534.074Z" fill="#856792"/>
<path d="M493.611 488.537C493.611 488.537 496.435 493.746 497 499.986C497.565 506.225 495.818 512.445 491.916 517.273C484.639 526.278 483.863 525.647 483.863 525.647C483.863 525.647 468.888 528.373 464.369 526.482L483.016 521.089C483.016 521.089 493.998 511.349 493.998 509.654C493.998 507.959 492.96 493.719 492.96 493.719L493.611 488.537Z" fill="#665070"/>
<path d="M402.641 409.844C402.641 409.844 403.672 413.621 402.812 415.861C401.952 418.094 398.943 417.667 396.539 417.667C394.136 417.667 391.988 417.411 390.786 416.379C389.584 415.348 387.843 409.64 388.723 408.307C389.604 406.974 392.5 407.447 396.113 407.965C399.725 408.484 402.641 409.844 402.641 409.844Z" fill="#856792"/>
<path d="M443.995 424.34C443.995 424.34 444.5 408.347 442.727 403.782C440.947 399.21 440.947 399.723 436.126 396.419C431.305 393.122 430.543 393.627 430.287 391.598C430.031 389.568 428.507 388.55 418.359 388.55C408.205 388.55 398.05 389.568 395.771 391.598C393.492 393.627 390.845 401.857 390.845 401.857C390.845 401.857 388.809 410.56 390.687 423.072C390.713 426.507 391.226 431.053 391.226 431.053L389.794 431.769C389.794 431.769 390.536 445.667 391.298 448.202C392.06 450.737 391.554 453.535 406.53 452.517C421.505 451.499 432.421 450.737 434.957 445.916C437.492 441.095 439.909 437.759 439.909 437.759C439.909 437.759 444.553 431.138 443.995 424.34Z" fill="#856792"/>
<path d="M412.014 412.675C412.014 412.675 414.044 417.076 415.397 418.429C416.75 419.782 426.904 420.123 426.904 420.123C426.904 420.123 421.492 420.8 418.103 420.8C414.72 420.8 413.367 419.447 413.367 419.447L412.014 412.675Z" fill="#665070"/>
<path d="M401.42 412.793C399.272 410.376 390.011 409.614 389.873 411.296C389.741 412.97 391.154 417.496 392.736 417.896C394.149 418.251 400.769 418.862 401.236 417.542C401.617 416.465 403.568 415.21 401.42 412.793Z" fill="#665070"/>
<path d="M431.469 406.107L443.233 406.146L443.167 408.005L435.364 409.87C435.364 409.87 433.499 414.54 432.829 415.709C430.149 420.353 413.775 416.997 413.775 416.997L412.435 413.778L431.469 406.107Z" fill="#665070"/>
<path d="M389.696 431.407C389.696 431.407 390.53 437.03 392.054 442.107C393.578 447.184 394.077 449.641 397.637 449.897C401.19 450.153 415.837 450.048 425.229 449.036C434.622 448.018 436.487 443.631 438.011 440.334C439.535 437.036 440.297 432.721 440.297 432.721C440.297 432.721 441.564 435.007 440.803 437.542C440.041 440.077 440.691 448.531 434.09 449.798C429.735 450.632 406.333 452.78 397.131 452.439C390.28 452.182 390.536 448.964 390.031 441.857C389.512 434.744 389.696 431.407 389.696 431.407Z" fill="#665070"/>
<path d="M411.252 410.041C411.252 410.041 412.099 414.948 414.47 416.13C416.841 417.312 424.283 417.148 427.837 416.977C431.39 416.806 430.884 417.148 431.219 414.271C431.561 411.394 432.237 404.964 430.543 404.117C428.848 403.269 415.14 407.335 411.252 410.041Z" fill="#34283A"/>
<path d="M401.393 411.572C401.393 411.572 402.155 414.363 401.518 416.012C400.881 417.66 398.668 417.345 396.888 417.345C395.114 417.345 393.525 417.154 392.638 416.393C391.751 415.631 390.464 411.421 391.114 410.435C391.765 409.45 393.906 409.798 396.566 410.179C399.239 410.554 401.393 411.572 401.393 411.572Z" fill="#34283A"/>
<path d="M444.415 404.117C444.415 404.117 444.192 407.165 441.617 407.165C439.042 407.165 432.198 405.05 427.305 406.573C422.412 408.097 414.622 412.603 411.791 412.603C408.96 412.603 403.613 412.669 401.807 412.669C400.001 412.669 398.976 410.639 394.595 410.383C390.214 410.127 388.001 410.744 387.594 410.16C386.819 407.112 387.127 401.503 389.446 399.473C391.765 397.444 386.372 388.478 402.838 386.527C432.822 382.974 432.297 388.307 433.84 389.825C435.384 391.348 438.504 391.243 440.356 392.281C444.586 394.639 444.415 400.058 444.415 404.117Z" fill="#856792"/>
<path d="M391.751 407.873C385.308 407.335 387.127 401.496 389.446 399.466C391.764 397.437 386.372 388.471 402.838 386.52C432.822 382.967 432.296 388.3 433.84 389.818C434.851 390.816 424.874 394.98 419.331 398.619C413.787 402.258 412.283 399.624 410.667 400.694C409.058 401.765 400.671 399.138 401.413 399.276C401.419 399.282 394.543 408.103 391.751 407.873Z" fill="#665070"/>
<path d="M391.725 421.141L392.231 430.704L389.748 431.42L389.84 433.043C389.84 433.043 416.907 431.296 427.568 433.831L425.538 431.296C425.538 431.296 409.236 429.01 394.681 430.199L393.242 427.913L391.725 421.141Z" fill="#665070"/>
<path d="M401.472 412.662C401.472 412.662 404.48 413.253 404.907 413.253C405.328 413.253 407.193 412.997 407.193 412.997L412.356 412.577L411.85 413.339L407.278 414.777L404.06 414.862L401.768 414.468L401.472 412.662Z" fill="#665070"/>
<path d="M444.132 418.56C444.132 418.56 444.198 428.577 443.206 430.862C441.512 435.02 440.073 436.682 440.073 436.682L440.415 433.358C440.415 433.358 442.694 430.862 443.035 429.621C443.37 428.373 444.132 418.56 444.132 418.56Z" fill="#665070"/>
<path d="M392.973 392.609C392.973 392.609 396.021 398.192 398.306 399.21C400.592 400.228 406.431 398.705 406.431 398.705C406.431 398.705 398.563 402.764 397.039 401.752C395.515 400.734 392.973 392.609 392.973 392.609Z" fill="#856792"/>
<path d="M351.961 478.632C351.961 478.632 356.835 476.38 362.865 474.324C368.894 472.268 371.528 471.9 371.528 471.9C371.528 471.9 367.948 469.109 361.479 472.071C357.314 473.976 354.825 474.435 351.961 478.632Z" fill="#856792"/>
<path d="M354.812 496.787L355.377 512.327L361.308 525.037C361.308 525.037 351.988 515.716 351.988 513.174C351.988 510.632 354.812 496.787 354.812 496.787Z" fill="#665070"/>
<path d="M424.363 491.815L430.392 488.38L442.451 489.851L447.246 492.879L448.645 492.945L439.325 487.053L427.266 485.582L421.236 489.017L421.578 494.186L424.875 493.72L424.363 491.815Z" fill="#665070"/>
<path d="M420.547 493.345L414.832 492.754C414.491 492.721 414.175 492.925 414.064 493.247L411.68 500.307C411.568 500.642 411.706 501.004 412.014 501.181L414.307 502.475C414.806 502.757 414.806 503.473 414.307 503.749L413.151 504.393C412.908 504.531 412.763 504.794 412.776 505.076L413.814 522.876C413.821 523.007 413.86 523.132 413.932 523.237L419.404 531.486C419.522 531.664 419.706 531.782 419.916 531.808L431.476 533.352C431.601 533.371 431.732 533.352 431.85 533.306L438.885 530.416C439.62 530.114 439.417 529.03 438.622 529.01L421.762 528.61C421.466 528.603 421.203 528.419 421.098 528.143L418.714 522.068C418.642 521.877 418.491 521.726 418.3 521.654L415.358 520.504C415.069 520.393 414.878 520.104 414.891 519.795L415.029 516.551C415.042 516.321 415.161 516.104 415.351 515.979L415.785 515.033C416.198 514.751 416.212 514.153 415.817 513.851L414.964 512.445C414.793 512.314 414.688 512.11 414.681 511.894L414.53 507.953C414.524 507.769 414.589 507.585 414.707 507.447L417.019 504.767C417.269 504.478 417.256 504.051 416.987 503.782L414.103 500.82C413.88 500.59 413.834 500.235 413.985 499.953L416.093 496.143C416.192 495.966 416.363 495.835 416.56 495.789L420.645 494.79C421.446 494.587 421.361 493.431 420.547 493.345Z" fill="#665070"/>
<path d="M337.341 534.738C340.835 532.734 353.216 532.754 356.191 534.738C359.167 536.721 354.168 552.57 354.168 552.57C354.168 552.57 365.919 572.4 362.943 575.375C359.968 578.35 342.109 571.408 338.635 567.933C335.16 564.459 332.112 546.928 333.374 542.672C334.549 538.705 333.846 536.741 337.341 534.738Z" fill="#856792"/>
<path d="M360.461 530.12L368.934 536.341L386.826 536.15L368.934 532.38L360.461 530.12Z" fill="#856792"/>
<path d="M481.597 484.833L456.231 489.562L448.605 494.068L455.693 486.875L472.33 482.094L481.597 484.833Z" fill="#665070"/>
<path d="M465.099 453.01L458.254 462.902C458.254 462.902 457.493 483.44 462.819 485.726C462.819 485.726 466.622 476.596 467.384 472.031C468.146 467.466 468.146 466.455 469.414 464.169C470.681 461.89 472.711 455.296 472.711 455.296L465.099 453.01Z" fill="#665070"/>
<path d="M408.073 469.47C408.073 469.47 406.339 480.905 406.687 485.752C407.035 490.6 413.965 496.491 413.965 496.491C413.965 496.491 410.155 490.948 410.155 484.715C410.155 478.481 408.073 469.47 408.073 469.47Z" fill="#665070"/>
<path d="M406.517 452.518C406.517 452.518 414.477 461.332 420.717 461.332C426.957 461.332 436.31 449.378 436.31 449.378L406.517 452.518Z" fill="#665070"/>
<path d="M436.31 530.705C436.31 530.705 449.821 525.51 450.859 524.472C451.896 523.434 450.859 513.037 450.859 513.037C450.859 513.037 456.836 522.909 453.46 526.547C450.084 530.186 436.31 530.705 436.31 530.705Z" fill="#665070"/>
<path d="M494.34 458.383C494.34 458.383 496.415 464.274 497.46 473.627C498.497 482.981 492.264 494.416 492.264 494.416C492.264 494.416 501.269 489.91 500.58 476.747C499.883 463.578 494.34 458.383 494.34 458.383Z" fill="#665070"/>
<path d="M377.065 516.157C376.802 518.495 382.438 523.52 382.438 523.52L380.704 516.807L381.354 510.574C381.354 510.567 377.328 513.812 377.065 516.157Z" fill="#665070"/>
<path d="M358.878 522.521C358.878 522.521 362.339 525.943 365.459 527.329C368.579 528.715 382.09 529.753 382.09 529.753C383.41 530.101 372.323 530.692 364.77 528.715C363.384 528.354 362.339 527.368 358.878 522.521Z" fill="#665070"/>
<path d="M364.073 446.777C364.073 446.777 369.21 443.802 372.211 443.69C375.206 443.578 375.64 445.864 375.64 445.864C375.64 445.864 372.783 444.826 370.576 445.082C367.029 445.503 364.073 446.777 364.073 446.777Z" fill="#856792"/>
<path d="M385.899 486.376C385.899 486.376 379.935 483.624 376.27 483.624C372.605 483.624 366.412 489.128 366.412 489.128C366.412 489.128 376.27 486.606 378.333 486.836C380.395 487.066 385.899 486.376 385.899 486.376Z" fill="#665070"/>
<path d="M405.906 494.067C405.906 493.03 402.011 489.562 398.891 489.562C395.771 489.562 395.213 489.778 392.829 490.599C390.32 491.466 388.671 492.675 387.981 493.719C387.981 493.719 387.981 488.872 393.525 488.176C399.068 487.486 398.602 486.895 400.625 487.486C402.701 488.09 405.906 494.067 405.906 494.067Z" fill="#665070"/>
<path d="M375.765 487.053C375.765 487.053 385.899 487.315 389.538 490.692C389.538 490.692 393.216 488.235 389.538 487.053C382.261 484.714 375.765 487.053 375.765 487.053Z" fill="#665070"/>
<path d="M60.5847 566.462L61.5437 556.846L28.8474 533.766L9.61579 542.416L0 556.846L17.3071 570.304L60.5847 566.462Z" fill="#665070"/>
<path d="M17.3071 570.304L33.6553 568.386L19.8753 557.483L28.8474 533.766L9.61579 542.416L10.5747 551.073L0 556.846L17.3071 570.304Z" fill="#4B3355"/>
<path d="M472.783 588.235L462.898 572.209L451.679 576.478L446.74 588.892L453.026 590.002L462.189 592.334L472.783 588.235Z" fill="#4B3355"/>
<path d="M462.635 572.34L463.706 579.953L459.43 584.229L459.029 589.037L462.103 591.973C468.783 591.441 472.79 588.229 472.79 588.229L473.322 580.478L462.635 572.34Z" fill="#665070"/>
<path d="M449.203 592.57L451.351 583.979L440.974 580.4L434.169 587.204L439.18 591.854L449.203 592.57Z" fill="#4B3355"/>
<path d="M449.203 592.57L443.476 584.695L438.11 587.204L439.18 591.854L449.203 592.57Z" fill="#665070"/>
<path d="M374.57 469.082C374.57 469.082 374.57 461.029 378.865 463.177C383.161 465.325 381.013 471.23 381.013 471.23C381.013 471.23 385.847 468.012 386.918 472.301C387.988 476.596 383.699 474.987 383.699 474.987L374.57 469.082Z" fill="#33A86D"/>
<path d="M364.369 472.839C364.369 472.839 361.683 468.005 365.978 468.544C370.274 469.082 367.055 473.378 364.369 472.839Z" fill="#33A86D"/>
<path d="M375.647 476.058C375.647 476.058 369.203 468.005 368.133 473.91C367.056 479.821 372.96 481.43 375.647 476.058Z" fill="#288453"/>
<path d="M375.108 482.501C375.108 482.501 374.038 469.614 378.865 472.3C383.699 474.987 380.481 484.117 375.108 482.501Z" fill="#288453"/>
<path d="M372.422 488.412C372.422 488.412 360.612 492.708 369.203 493.779C377.795 494.856 372.422 488.412 372.422 488.412Z" fill="#288453"/>
<path d="M333.873 574.383C333.873 574.383 331.633 566.482 334.589 566.784C337.545 567.086 336.139 573.148 336.139 573.148C336.139 573.148 341.538 563.881 342.688 570.318C343.837 576.754 342.188 579.125 342.188 579.125C342.188 579.125 345.821 573.91 347.535 576.511C349.243 579.112 346.95 580.932 346.95 580.932C346.95 580.932 343.2 584.761 340.356 582.777C337.512 580.794 337.512 580.794 337.512 580.794C337.512 580.794 335.055 583.309 330.024 578.396C325 573.477 325.715 565.878 333.873 574.383Z" fill="#33A86D"/>
<path d="M129.196 572.708C129.196 572.708 127.587 561.969 132.953 563.578C138.319 565.188 135.639 569.483 135.639 569.483C135.639 569.483 142.083 567.874 139.396 573.779C136.71 579.684 134.03 579.684 134.03 579.684C134.03 579.684 126.516 583.979 123.83 574.318C121.143 564.656 129.196 572.708 129.196 572.708Z" fill="#33A86D"/>
<path d="M105.577 572.708C105.577 572.708 102.359 565.726 105.577 564.656C108.795 563.585 108.795 568.951 108.795 568.951C108.795 568.951 112.552 561.969 113.63 567.342C114.7 572.708 112.552 579.684 105.577 572.708Z" fill="#33A86D"/>
<path d="M107.186 553.917C107.186 553.917 107.186 560.36 110.404 558.212C113.629 556.065 115.239 547.474 107.186 553.917Z" fill="#33A86D"/>
<path d="M91.0742 554.987C91.0742 554.987 89.465 561.969 92.6833 561.431C95.9017 560.892 96.9789 560.36 95.9017 557.135C94.8377 553.917 91.0742 554.987 91.0742 554.987Z" fill="#33A86D"/>
<path d="M87.856 546.935C87.856 546.935 89.4652 553.378 92.6901 549.621C95.9085 545.858 91.6129 542.639 87.856 546.935Z" fill="#33A86D"/>
<path d="M96.4475 550.153C96.4475 550.153 98.5951 554.987 100.743 554.449C102.89 553.91 103.429 544.248 96.4475 550.153Z" fill="#33A86D"/>
<path d="M92.1516 543.178C92.1516 543.178 92.6902 551.769 97.5178 546.396C102.345 541.023 96.9858 539.414 92.1516 543.178Z" fill="#33A86D"/>
<path d="M91.6134 536.196C91.6134 536.196 91.0749 542.639 94.8315 538.882C98.5948 535.119 95.9086 529.753 91.6134 536.196Z" fill="#33A86D"/>
<path d="M478.195 495.388C478.195 495.388 479.003 484.918 485.447 488.944C491.89 492.971 481.42 498.613 478.195 495.388Z" fill="#33A86D"/>
<path d="M480.612 499.414C480.612 499.414 469.157 506.751 482.044 502.816C494.931 498.882 493.145 497.45 480.612 499.414Z" fill="#33A86D"/>
<path d="M483.122 506.041C483.122 506.041 484.553 517.851 487.417 511.053C490.281 504.248 489.204 504.964 483.122 506.041Z" fill="#33A86D"/>
<path d="M480.974 506.396C480.974 506.396 470.596 508.544 479.187 509.614C487.772 510.691 480.974 506.396 480.974 506.396Z" fill="#33A86D"/>
<path d="M482.045 523.217C482.045 523.217 490.636 518.206 483.477 518.206C476.317 518.206 473.454 523.217 482.045 523.217Z" fill="#33A86D"/>
<path d="M490.366 476.242C490.366 476.242 488.934 484.833 495.378 480.176C501.821 475.526 497.887 473.733 490.366 476.242Z" fill="#33A86D"/>
<path d="M502.182 464.787C502.182 464.787 492.521 468.366 498.964 469.082C505.401 469.798 504.33 465.141 502.182 464.787Z" fill="#33A86D"/>
<path d="M496.094 456.196C496.094 456.196 495.023 464.787 500.028 460.491C505.046 456.196 502.537 456.196 496.094 456.196Z" fill="#33A86D"/>
<path d="M493.591 460.491C493.591 460.491 487.509 459.775 492.521 461.923C497.526 464.071 493.591 460.491 493.591 460.491Z" fill="#33A86D"/>
<path d="M493.23 451.539C493.23 451.539 503.253 456.55 499.312 451.539C495.378 446.527 487.503 446.172 493.23 451.539Z" fill="#33A86D"/>
<path d="M498.242 571.092C498.242 571.092 496.81 577.891 501.46 576.104C506.11 574.317 504.678 570.738 502.892 570.377C501.105 570.015 498.242 571.092 498.242 571.092Z" fill="#33A86D"/>
<path d="M498.242 566.442C498.242 566.442 502.892 555.349 501.821 562.863C500.751 570.377 498.242 566.442 498.242 566.442Z" fill="#33A86D"/>
<path d="M496.094 568.951C496.094 568.951 484.639 554.994 490.012 556.426C495.378 557.858 495.023 562.153 495.023 562.153C495.023 562.153 496.094 547.119 498.242 552.846C500.389 558.574 496.094 568.951 496.094 568.951Z" fill="#33A86D"/>
<path d="M505.407 560.616C505.407 560.616 513.21 555.014 512.094 559.756C510.977 564.498 504.291 562.344 505.407 560.616Z" fill="#33A86D"/>
<path d="M511.128 573.24C511.128 573.24 510.774 563.933 507.91 563.933C505.046 563.933 507.91 574.672 511.128 573.24Z" fill="#33A86D"/>
<path d="M514.353 572.17C514.353 572.17 509.703 553.917 515.424 557.135C521.151 560.36 518.649 575.388 514.353 572.17Z" fill="#33A86D"/>
<path d="M501.821 554.987C501.821 554.987 502.537 545.68 504.324 551.769C506.117 557.851 503.253 558.567 501.821 554.987Z" fill="#33A86D"/>
<path d="M517.933 570.377C517.933 570.377 519.364 559.283 522.228 559.999C525.092 560.715 523.299 565.01 523.299 565.01C523.299 565.01 526.517 554.633 529.381 557.496C532.245 560.36 527.233 564.656 527.233 564.656C527.233 564.656 535.463 560.36 532.961 564.301C530.458 568.236 524.731 566.804 524.731 566.804C524.731 566.804 526.878 573.602 517.933 570.377Z" fill="#33A86D"/>
<path d="M487.864 583.263C487.864 583.263 477.486 575.033 482.136 573.956C486.787 572.886 485.716 576.459 485.716 576.459C485.716 576.459 491.082 573.24 490.727 575.388C490.373 577.536 491.798 577.891 491.798 577.891C491.798 577.891 500.035 585.056 487.864 583.263Z" fill="#33A86D"/>
<path d="M366.517 568.951C366.517 568.951 366.517 561.792 368.304 563.224C370.09 564.656 369.735 568.235 369.735 568.235C369.735 568.235 376.533 563.94 375.818 567.519C375.102 571.099 371.522 571.454 371.522 571.454C371.522 571.454 371.522 577.536 369.374 575.749C367.226 573.963 366.517 568.951 366.517 568.951Z" fill="#33A86D"/>
<path d="M368.665 553.555C368.665 553.555 375.108 555.703 372.245 557.851C369.381 559.999 368.665 553.555 368.665 553.555Z" fill="#33A86D"/>
<path d="M373.676 561.076C373.676 561.076 375.463 568.952 379.042 563.224C382.629 557.496 382.267 559.283 373.676 561.076Z" fill="#33A86D"/>
<path d="M345.039 524.202C345.039 524.202 340.389 516.327 345.755 518.12C351.121 519.913 347.187 522.77 347.187 522.77C347.187 522.77 355.062 521.7 352.915 525.273C350.767 528.852 346.116 526.705 346.116 526.705L345.039 524.202Z" fill="#33A86D"/>
<path d="M342.891 525.28C342.891 525.28 343.607 519.913 340.743 518.836C337.88 517.759 335.732 527.066 342.891 525.28Z" fill="#33A86D"/>
<path d="M345.039 513.825C345.039 513.825 339.673 506.665 343.253 507.381C346.832 508.097 347.548 509.884 347.548 509.884C347.548 509.884 352.56 509.529 350.412 514.534C348.264 519.539 345.039 513.825 345.039 513.825Z" fill="#33A86D"/>
<path d="M342.537 500.577C342.537 500.577 347.187 505.943 349.335 502.008C351.482 498.074 342.537 500.577 342.537 500.577Z" fill="#33A86D"/>
<path d="M357.571 502.724C357.571 502.724 362.221 498.429 360.073 498.429C357.926 498.429 357.926 498.429 356.855 498.429C355.778 498.429 355.062 502.37 357.571 502.724Z" fill="#33A86D"/>
<path d="M351.128 495.21C351.128 495.21 347.91 500.938 352.915 498.074C357.919 495.21 358.642 493.779 351.128 495.21Z" fill="#33A86D"/>
<path d="M351.929 475.526C351.929 475.526 350.859 469.443 354.432 471.591C358.011 473.739 355.148 476.241 355.148 476.241C355.148 476.241 362.307 474.81 359.443 479.105C356.579 483.401 354.077 480.892 354.077 480.892L351.929 475.526Z" fill="#33A86D"/>
<path d="M348.711 468.721C348.711 468.721 337.617 467.651 341.551 471.224C345.492 474.81 352.29 470.153 348.711 468.721Z" fill="#33A86D"/>
<path d="M347.64 474.449C347.64 474.449 341.912 479.099 346.924 477.667C351.929 476.242 349.426 474.094 347.64 474.449Z" fill="#33A86D"/>
<path d="M344.415 482.685C344.415 482.685 353.722 481.253 348.35 480.183C342.977 479.112 341.551 481.608 344.415 482.685Z" fill="#33A86D"/>
<path d="M350.497 490.199C350.497 490.199 353.716 485.903 349.781 485.903C345.847 485.903 345.847 489.483 350.497 490.199Z" fill="#33A86D"/>
<path d="M441.69 544.964C441.69 544.964 434.531 549.976 439.903 548.544C445.269 547.112 441.69 544.964 441.69 544.964Z" fill="#33A86D"/>
<path d="M443.121 550.337C442.123 551.158 446.701 556.781 447.772 551.408C448.849 546.042 449.204 545.326 443.121 550.337Z" fill="#33A86D"/>
<path d="M438.465 554.987C438.465 554.987 448.488 561.785 444.547 557.135C440.613 552.485 436.678 553.917 438.465 554.987Z" fill="#33A86D"/>
<path d="M439.896 560.715C439.896 560.715 444.547 568.229 444.908 564.295C445.269 560.36 445.985 560.36 439.896 560.715Z" fill="#33A86D"/>
<path d="M438.11 566.442C438.11 566.442 450.997 569.661 442.76 570.022C434.524 570.383 431.667 566.803 438.11 566.442Z" fill="#33A86D"/>
<path d="M453.145 533.155C453.145 533.155 449.565 538.166 454.577 536.018C459.588 533.871 464.239 530.646 453.145 533.155Z" fill="#33A86D"/>
<path d="M451.713 540.314C451.713 540.314 457.795 540.668 454.931 539.243C452.068 537.805 448.488 537.45 451.713 540.314Z" fill="#33A86D"/>
<path d="M451.712 544.248C451.712 544.248 455.647 548.544 457.795 543.894C459.942 539.237 448.849 542.462 451.712 544.248Z" fill="#33A86D"/>
<path d="M403.003 326.606C403.003 326.606 397.748 315.512 403.003 316.681C408.258 317.85 404.757 321.936 404.757 321.936C404.757 321.936 412.934 317.85 411.765 323.69C410.596 329.529 408.264 331.282 408.264 331.282C408.264 331.282 415.272 325.443 414.688 333.036C414.103 340.629 408.264 335.374 408.264 335.374C408.264 335.374 404.763 341.213 400.671 335.959C396.579 330.704 400.671 332.458 400.671 332.458C400.671 332.458 388.402 323.105 403.003 326.606Z" fill="#33A86D"/>
<path d="M391.22 388.898C388.356 389.969 384.776 400.708 395.246 394.264C405.716 387.828 394.083 387.828 391.22 388.898Z" fill="#33A86D"/>
<path d="M395.85 381.607C398.504 381.607 407.069 381.437 398.806 386.087C390.543 390.737 393.197 381.607 395.85 381.607Z" fill="#33A86D"/>
<path d="M398.32 400.852C398.32 400.852 402.74 395.69 396.106 398.034C389.479 400.386 391.134 404.143 398.32 400.852Z" fill="#33A86D"/>
<path d="M400.481 405.187C396.343 406.678 396.645 411.223 402.675 407.874C408.698 404.517 404.619 403.696 400.481 405.187Z" fill="#33A86D"/>
<path d="M403.89 393.824C401.269 394.271 403.141 400.603 409.611 397.135C412.947 395.342 406.511 393.371 403.89 393.824Z" fill="#33A86D"/>
<path d="M387.64 426.126C387.64 426.126 389.788 422.192 385.854 422.908C381.919 423.624 384.067 425.772 384.067 425.772C384.067 425.772 377.985 418.258 375.476 421.476C372.973 424.695 379.771 427.204 379.771 427.204C379.771 427.204 369.748 425.056 367.601 428.636C365.453 432.215 372.612 429.351 372.612 429.351C372.612 429.351 364.021 434.718 366.53 436.15C369.032 437.581 372.973 434.718 372.973 434.718C372.973 434.718 375.121 439.729 376.553 435.072C377.985 430.422 377.985 430.422 377.985 430.422C377.985 430.422 384.067 434.356 383.712 430.422C383.358 426.488 383.712 427.558 383.712 427.558C383.712 427.558 388.711 431.138 387.64 426.126Z" fill="#33A86D"/>
<path d="M440.612 328.944C440.612 328.944 432.56 324.648 435.778 332.701C438.996 340.754 443.298 332.162 440.612 328.944Z" fill="#288453"/>
<path d="M440.074 323.571C440.074 323.571 450.274 315.519 445.978 321.962C441.683 328.405 440.074 323.571 440.074 323.571Z" fill="#288453"/>
<path d="M432.56 315.519C432.56 315.519 428.803 321.423 435.246 320.353C441.69 319.282 432.56 315.519 432.56 315.519Z" fill="#288453"/>
<path d="M434.708 308.543C434.708 308.543 445.985 316.596 438.465 314.987C430.951 313.371 434.708 308.543 434.708 308.543Z" fill="#288453"/>
<path d="M444.908 331.092C444.908 331.092 436.317 338.074 442.761 337.535C449.204 336.997 444.908 331.092 444.908 331.092Z" fill="#288453"/>
<path d="M448.665 339.144C448.665 339.144 458.865 340.753 451.883 342.901C444.902 345.049 448.133 338.074 448.665 339.144Z" fill="#288453"/>
<path d="M88.749 448.084C88.749 448.084 102.174 439.493 98.4108 446.475C94.6538 453.457 88.749 448.084 88.749 448.084Z" fill="#33A86D"/>
<path d="M90.3583 454.527C90.3583 454.527 87.6719 463.657 93.5767 459.361C99.4881 455.066 90.3583 454.527 90.3583 454.527Z" fill="#33A86D"/>
<path d="M85.5242 452.38C85.5242 452.38 78.5422 437.884 74.2466 445.398C69.951 452.912 78.5422 448.084 78.5422 448.084C78.5422 448.084 71.0282 455.598 76.3944 454.527C81.7672 453.457 85.5242 452.38 85.5242 452.38Z" fill="#33A86D"/>
<path d="M83.377 440.031C83.377 440.031 79.62 449.693 87.6726 442.718C95.7252 435.743 85.5248 440.57 85.5248 440.57L83.377 440.031Z" fill="#33A86D"/>
<path d="M196.848 287.065C196.848 287.065 204.362 280.622 203.83 286.527C203.291 292.431 196.848 287.065 196.848 287.065Z" fill="#33A86D"/>
<path d="M198.464 292.432C198.464 292.432 203.83 299.945 206.516 294.579C209.203 289.213 198.464 292.432 198.464 292.432Z" fill="#33A86D"/>
<path d="M211.351 297.804C211.351 297.804 201.689 309.614 211.351 304.248C221.012 298.881 221.012 296.188 211.351 297.804Z" fill="#33A86D"/>
<path d="M200.073 299.952C200.073 299.952 185.577 302.1 194.707 304.248C203.837 306.395 207.587 306.396 200.073 299.952Z" fill="#33A86D"/>
<path d="M210.274 313.909C210.274 313.909 222.622 310.153 217.788 309.075C212.96 308.005 206.517 313.909 210.274 313.909Z" fill="#33A86D"/>
<path d="M210.812 317.134C204.907 315.525 196.316 320.353 211.883 321.969C227.456 323.571 216.717 318.744 210.812 317.134Z" fill="#33A86D"/>
<path d="M492.401 243.66C489.183 235.43 488.467 225.046 494.903 212.875C494.903 212.875 497.774 218.891 501.301 218.556C504.834 218.221 507.738 213.591 507.915 206.629C508.092 199.542 506.411 196.461 506.411 196.461L512.454 204.264C512.454 204.264 513.294 197.827 512.828 192.691C512.309 186.996 509.222 181.532 509.222 181.532C509.222 181.532 525.255 186.34 528.933 199.213C531.738 209.019 530.936 215.259 530.936 215.259L536.073 209.657C536.073 209.657 542.516 231.85 537.117 243.594C532.644 253.315 524.191 258.8 515.672 259.41C505.872 260.107 495.626 251.89 492.401 243.66Z" fill="#FFACFF"/>
<path d="M516.927 249.026C516.927 249.026 509.064 247.883 505.058 240.041C500.94 231.988 506.733 229.742 506.733 229.742L510.483 236.139L517.465 217.348C517.465 217.348 521.761 222.537 522.654 224.862C523.547 227.187 530.234 244.599 516.927 249.026Z" fill="#9E54C7"/>
<path d="M522.293 178.688C522.293 178.688 521.754 174.931 523.363 174.931C524.979 174.931 526.588 178.156 522.293 178.688Z" fill="#9E54C7"/>
<path d="M499.206 190.504C499.206 190.504 496.519 182.99 500.815 179.226C500.815 179.226 491.153 185.67 499.206 190.504Z" fill="#FFACFF"/>
<path d="M516.434 162.405C516.565 163.541 515.061 164.06 514.483 163.075C513.196 160.868 511.803 157.972 514.234 159.364C515.757 160.231 516.316 161.361 516.434 162.405Z" fill="#FFACFF"/>
<path d="M149.478 264.372C149.478 264.372 133.997 268.504 124.014 250.52C117.465 239.906 121.78 221.482 121.78 221.482C121.78 221.482 128.48 221.035 132.953 225.948C130.273 211.203 137.866 204.057 137.866 204.057L141.885 205.843C141.885 205.843 144.493 202.822 150.181 193.16C150.181 193.16 169.912 205.384 167.068 220.681C164.224 235.978 165.124 230.855 165.124 230.855L176.296 224.602C176.283 224.609 185.498 262.763 149.478 264.372Z" fill="#FFACFF"/>
<path d="M156.848 254.323C156.848 254.323 149.479 260.353 143.442 254.993C137.413 249.633 138.753 241.587 138.753 241.587L141.433 244.267C141.433 244.267 140.763 238.908 145.452 231.532C150.142 224.162 150.142 224.162 150.142 224.162L152.822 234.211L156.841 230.862C156.848 230.862 167.574 248.957 156.848 254.323Z" fill="#9E54C7"/>
<path d="M121.682 200.622C121.682 200.622 121.327 207.065 123.83 209.213C126.332 211.361 122.398 202.77 125.616 197.758L121.682 200.622Z" fill="#9E54C7"/>
<path d="M141.367 184.51C141.367 184.51 137.432 189.521 139.935 190.953C142.437 192.385 141.367 184.51 141.367 184.51Z" fill="#FFACFF"/>
<path d="M161.413 186.303C161.413 186.303 161.058 191.669 163.199 190.237C165.354 188.806 163.922 182.362 161.413 186.303Z" fill="#9E54C7"/>
<path d="M149.603 167.689C149.603 167.689 152.822 168.405 152.467 171.623C152.112 174.842 149.603 167.689 149.603 167.689Z" fill="#FFACFF"/>
<path d="M168.795 548.189C168.618 549.444 181.997 556.065 190.588 555.703C199.18 555.342 215.061 555.9 216.618 554.16C218.116 552.485 212.96 551.138 212.96 551.138C212.96 551.138 200.808 546.981 189.872 544.918C175.639 542.239 168.973 546.935 168.795 548.189Z" fill="#C94039"/>
<path d="M208.395 575.704C208.395 578.613 207.987 606.18 207.409 611.296C207.022 614.712 202.707 616.879 202.293 612.236C201.695 605.582 199.685 595.52 199.39 592.787C198.516 584.597 200.651 576.669 200.651 576.669C200.651 576.669 208.395 574.357 208.395 575.704Z" fill="#F5894E"/>
<path d="M205.36 585.28C204.487 586.304 207.134 605.917 206.556 611.04C206.168 614.455 202.707 616.879 202.293 612.235C201.695 605.582 199.685 595.519 199.39 592.787C198.516 584.597 200.099 576.695 200.099 576.695C200.099 576.695 206.234 584.255 205.36 585.28Z" fill="#CC6D3D"/>
<path d="M210.096 559.822C209.965 562.685 210.208 568.038 209.728 571.953C209.649 572.616 209.794 572.019 208.822 581.634L199.075 581.7L198.641 570.981C198.076 569.188 196.559 558.607 196.533 558.751C197.071 556.065 210.273 555.861 210.096 559.822Z" fill="#273252"/>
<path d="M204.992 611.723C208.21 613.51 208.716 613.805 211.416 615.283C214.312 616.866 203.619 617.234 202.844 615.152C202.063 613.076 202.233 610.186 204.992 611.723Z" fill="#CC6D3D"/>
<path d="M201.892 612.768C202.234 612.012 204.053 612.38 204.408 612.525C204.762 612.669 208.519 614.114 208.519 614.114C208.519 614.114 212.257 615.697 213.281 615.848C216.191 616.275 218.378 618.337 211.317 619.053C208.513 619.336 205.642 618.147 205.642 618.147L205.399 619.021L204.729 619.152C204.729 619.152 202.142 619.323 202.004 619.021C201.82 618.6 201.55 613.523 201.892 612.768Z" fill="#992C29"/>
<path d="M212.788 618.882C212.788 618.882 208.69 619.637 205.636 618.009C205.636 618.009 205.196 617.102 206.608 617.359C210.897 618.14 211.416 618.744 212.788 618.882Z" fill="#C94039"/>
<path d="M208.506 559.822C208.342 563.04 207.554 566.804 207.232 569.845C207.16 570.508 207.068 579.329 206.175 580.761C205.281 582.193 199.403 581.116 199.403 581.116L197.951 569.943C197.432 568.19 196.322 558.567 196.29 558.751C196.769 556.065 208.703 555.861 208.506 559.822Z" fill="#1D2538"/>
<path d="M194.076 544.518C194.076 544.518 195.909 557.017 196.822 560.235C197.735 563.454 209.465 567.513 209.912 562.955C210.359 558.396 211.482 545.056 209.045 540.761C206.608 536.465 194.076 537.536 194.076 544.518Z" fill="#273252"/>
<path d="M194.076 544.518C194.076 544.518 195.725 557.017 196.552 560.235C197.38 563.454 207.942 567.513 208.349 562.955C208.749 558.39 209.768 545.056 207.567 540.761C205.36 536.465 194.076 537.536 194.076 544.518Z" fill="#1D2538"/>
<path d="M180.809 565.779C180.809 565.779 179.778 572.439 177.63 579.29C176.152 584.005 175.778 585.726 175.784 595.677C175.784 597.956 175.088 605.996 175.141 607.572C175.232 610.311 175.186 612.249 176.592 611.986C178.799 611.565 179.476 610.666 181.991 599.73C185.354 585.116 188.947 565.904 188.947 565.904L180.809 565.779Z" fill="#F5894E"/>
<path d="M180.809 565.779C180.809 565.779 179.778 572.439 177.63 579.29C176.152 584.005 175.778 585.726 175.784 595.677C175.784 597.956 174.47 608.117 174.523 609.694C174.615 612.432 175.186 612.249 176.585 611.986C178.792 611.565 177.866 607.986 180.382 597.05C183.745 582.436 182.707 581.661 182.707 581.661L180.809 565.779Z" fill="#CC6D3D"/>
<path d="M195.226 542.875C195.226 542.875 192.106 561.161 189.82 565.352C186.779 570.928 180.809 569.903 180.283 566.343C179.456 560.682 178.851 550.429 179.357 544.885C179.902 538.928 188.618 534.022 195.226 542.875Z" fill="#273252"/>
<path d="M180.369 565.004C178.576 565.923 177.223 579.244 177.223 579.244L185.952 580.984C185.952 580.984 188.27 575.053 189.61 566.797C190.845 559.197 181.866 562.192 180.369 565.004Z" fill="#273252"/>
<path d="M192.382 542.284C192.382 542.284 192.021 551.322 190.247 557.444C189.755 559.151 188.356 565.404 187.856 566.317C184.815 571.894 180.802 569.897 180.277 566.33C179.449 560.669 178.845 550.416 179.351 544.872C179.902 538.928 185.774 533.431 192.382 542.284Z" fill="#1D2538"/>
<path d="M176.027 607.815C176.73 607.625 177.486 607.822 178.083 608.249C180.428 609.93 180.284 610.298 183.357 612.413C185.577 613.943 175.009 615.263 174.431 613.575C173.926 612.124 173.702 608.446 176.027 607.815Z" fill="#CC6D3D"/>
<path d="M173.774 610.508C174.26 609.411 173.833 606.895 176.986 608.656C181.407 611.125 183.108 611.625 184.362 612.117C185.617 612.61 186.293 612.918 187.246 613.076C190.07 613.529 189.361 613.943 186.142 615.375C183.666 616.478 178.608 615.073 178.608 615.073L178.418 615.618C178.287 615.999 177.932 616.249 177.531 616.249L174.779 616.065C174.779 616.065 174.168 615.848 174.017 615.467C173.807 614.935 173.288 611.605 173.774 610.508Z" fill="#992C29"/>
<path d="M180.369 565.004C178.576 565.923 177.223 579.243 177.223 579.243L184.914 580.721C184.914 580.721 186.648 574.698 187.988 566.449C189.223 558.849 181.866 562.192 180.369 565.004Z" fill="#1D2538"/>
<path d="M204.907 510.245L203.836 516.688C203.836 516.688 209.203 527.782 212.25 535.302C215.291 542.816 217.084 546.935 216.9 553.555C216.9 553.555 209.741 551.053 203.12 550.869C196.5 550.692 176.454 541.023 168.756 548.183C168.756 548.183 178.602 529.214 182.536 520.084C182.536 520.084 177.347 499.322 183.968 495.743C190.588 492.163 199.002 493.595 200.789 494.488C202.575 495.388 208.303 500.222 204.907 510.245Z" fill="#F7BC4B"/>
<path d="M200.342 510.245L199.271 516.689L204.638 535.658L194.168 540.223L205.176 540.761C205.176 540.761 198.385 543.369 189.603 544.518C181.899 545.53 172.349 544.84 168.756 548.19C168.756 548.19 178.602 529.221 182.536 520.091C182.536 520.091 177.347 499.329 183.968 495.749C190.588 492.17 199.002 493.602 200.789 494.495C202.575 495.388 203.744 500.222 200.342 510.245Z" fill="#CE9436"/>
<path d="M183.725 464.754C183.725 464.754 185.984 467.282 188.244 468.307C189.952 469.089 191.292 469.187 191.292 469.187L190.93 468.53L191.738 467.854C191.738 467.854 188.605 467.657 184.362 464.327L183.725 464.754Z" fill="#EE5D4F"/>
<path d="M183.495 464.452C183.495 464.452 184.756 467.598 186.523 469.338C187.856 470.652 189.085 471.21 189.085 471.21L188.966 470.468L189.952 470.107C189.952 470.107 187.075 468.846 184.231 464.268L183.495 464.452Z" fill="#EE5D4F"/>
<path d="M184.934 466.087C185.722 465.916 186.306 461.634 184.408 461.621C182.621 461.608 180.605 461.923 180.999 463.256C181.387 464.583 184.145 466.258 184.934 466.087Z" fill="#992C29"/>
<path d="M185.518 463.644C185.518 463.644 185.15 461.831 184.585 461.897C184.02 461.963 184.559 462.718 184.756 463.913C184.953 465.102 185.656 464.406 185.518 463.644Z" fill="#F7BC4B"/>
<path d="M184.237 465.233C184.237 465.233 184.08 464.399 185.268 463.539C186.457 462.678 187.37 462.199 188.165 462.646C188.96 463.092 189.321 465.207 188.92 466.291C188.52 467.375 185.768 466.678 185.065 466.304C184.369 465.93 184.237 465.233 184.237 465.233Z" fill="#992C29"/>
<path d="M188.658 464.34C188.658 464.34 188.986 466.028 188.237 466.337C187.127 466.797 187.705 463.545 187.745 463.033C187.791 462.527 188.809 463.112 188.658 464.34Z" fill="#F7BC4B"/>
<path d="M198.168 467.65C198.168 467.65 202.069 468.885 203.711 474.422C205.353 479.966 205.202 487.512 197.813 487.512C186.22 487.512 186.339 478.179 186.674 476.064C188.112 467.033 198.168 467.65 198.168 467.65Z" fill="#CC6D3D"/>
<path d="M197.544 467.473C197.544 467.473 201.446 468.708 203.088 474.245C204.73 479.788 204.579 487.335 197.19 487.335C185.597 487.335 185.715 478.002 186.05 475.887C187.488 466.855 197.544 467.473 197.544 467.473Z" fill="#F5894E"/>
<path d="M200.539 477.673C200.539 477.673 201.813 470.021 197.919 467.204C194.707 464.879 191.79 464.675 187.692 465.279C187.692 465.279 193.439 464.806 197.873 470.31C199.436 472.248 200.539 477.673 200.539 477.673Z" fill="#F7BC4B"/>
<path d="M194.437 466.396C194.437 466.396 188.263 463.177 182.627 467.736C176.992 472.301 176.631 474.803 177.708 477.489C178.778 480.176 178.778 480.176 178.778 480.176C178.778 480.176 174.483 480.984 174.483 483.394C174.483 485.805 174.457 491.532 182.535 491.985C188.132 492.301 188.933 490.284 188.933 490.284C188.933 490.284 199.803 493.772 203.475 489.122C206.214 485.654 206.582 480.084 200.946 478.475C200.946 478.475 200.072 467.204 194.437 466.396Z" fill="#273252"/>
<path d="M192.29 466.396C192.29 466.396 185.491 462.501 180.48 467.736C176.454 471.939 175.199 475.164 175.56 477.489C176 480.347 176.631 480.176 176.631 480.176C176.631 480.176 172.335 480.984 172.335 483.394C172.335 485.805 172.335 491.177 180.388 491.985C188.441 492.793 189.248 490.915 189.248 490.915C189.248 490.915 201.301 493.778 203.298 487.539C204.73 483.066 204.795 480.826 199.16 479.217C199.153 479.217 197.925 467.204 192.29 466.396Z" fill="#1D2538"/>
<path d="M190.542 466.107C190.542 466.107 192.513 459.841 195.015 460.918C197.518 461.988 193.229 467.184 193.229 467.184C193.229 467.184 196.986 463.066 199.134 464.681C201.281 466.291 199.134 470.232 195.015 470.409C190.897 470.58 190.542 466.107 190.542 466.107Z" fill="#273252"/>
<path d="M189.873 466.035C189.873 466.035 191.843 459.769 194.346 460.846C196.848 461.916 192.559 467.112 192.559 467.112C192.559 467.112 196.316 462.993 198.464 464.609C200.612 466.218 198.464 470.159 194.346 470.337C190.227 470.514 189.873 466.035 189.873 466.035Z" fill="#1D2538"/>
<path d="M202.102 476.084C202.102 476.084 200.756 472.275 199.331 472.971C197.905 473.667 198.056 477.582 201.203 479.138C204.342 480.701 202.102 476.084 202.102 476.084Z" fill="#CC6D3D"/>
<path d="M202.674 476.373C202.674 476.373 201.603 473.352 200.474 473.903C199.344 474.462 199.462 477.562 201.958 478.797C204.46 480.038 202.674 476.373 202.674 476.373Z" fill="#F5894E"/>
<path d="M224.684 538.698C225.019 539.04 225.846 540.262 226.247 541.024C226.372 541.254 226.759 541.713 226.72 542.199C226.621 543.441 226.378 544.203 225.413 544.111C225.176 543.572 224.855 541.832 224.191 541.562C223.495 541.28 222.93 536.925 224.684 538.698Z" fill="#CC6D3D"/>
<path d="M214.668 535.421C214.622 535.336 214.851 534.633 215.909 533.963C217.15 533.181 217.774 533.937 217.774 533.937L231.265 549.838L226.72 553.418L214.668 535.421Z" fill="#1D2538"/>
<path d="M212.132 528.971C210.444 530.048 210.247 532.34 211.64 534.002C212.96 535.579 215.219 535.966 216.723 534.955C218.214 533.95 218.516 531.881 217.367 530.245C216.152 528.524 213.794 527.907 212.132 528.971ZM215.397 533.444C214.773 533.766 213.774 533.496 213.15 532.826C212.513 532.137 212.513 531.303 213.17 530.974C213.82 530.646 214.845 530.955 215.449 531.651C216.047 532.321 216.014 533.122 215.397 533.444Z" fill="#1D2538"/>
<path d="M213.229 529.746C212.257 530.344 212.152 531.657 212.973 532.649C213.137 532.846 213.321 533.01 213.518 533.148C213.387 533.056 213.262 532.945 213.15 532.826C212.513 532.137 212.513 531.303 213.17 530.974C213.82 530.646 214.845 530.954 215.449 531.651C216.04 532.327 216.014 533.122 215.397 533.45C215.009 533.654 214.484 533.621 213.985 533.418C214.674 533.72 215.456 533.707 216.04 533.339C216.94 532.767 217.085 531.532 216.349 530.554C215.594 529.529 214.195 529.155 213.229 529.746Z" fill="#F7BC4B"/>
<path d="M213.617 533.214C213.637 533.227 213.65 533.24 213.67 533.247C213.65 533.234 213.637 533.227 213.617 533.214Z" fill="#F6BE4A"/>
<path d="M213.84 533.339C213.873 533.352 213.899 533.365 213.932 533.385C213.899 533.372 213.866 533.352 213.84 533.339Z" fill="#F6BE4A"/>
<path d="M215.298 534.665C215.272 534.692 215.239 534.711 215.199 534.718C214.904 534.764 214.621 534.764 214.365 534.718C214.273 534.698 214.214 534.6 214.241 534.501C214.267 534.396 214.359 534.33 214.457 534.35C214.674 534.39 214.917 534.396 215.173 534.35C215.272 534.337 215.357 534.403 215.364 534.508C215.364 534.567 215.337 534.626 215.298 534.665Z" fill="#3E4C6F"/>
<path d="M221.084 540.912C221.919 540.025 222.221 539.138 222.221 539.138L228.795 546.928C229.538 547.736 231.672 550.101 231.672 550.101C231.672 550.101 227.488 553.516 226.779 553.93C226.779 553.93 224.841 550.955 224.329 550.081L219.199 542.35C219.199 542.337 220.25 541.805 221.084 540.912Z" fill="#C94039"/>
<path d="M220.854 544.721L220.217 543.618C220.217 543.618 221.327 542.948 223.061 541.096C223.061 541.096 223.528 541.404 220.854 544.721Z" fill="#1D2538"/>
<path d="M222.168 539.079C222.168 539.079 220.007 541.339 218.799 541.766L218.043 540.452C218.043 540.452 220.993 538.836 221.498 538.291L222.168 539.079Z" fill="#C73F37"/>
<path d="M224.526 541.871L224.782 542.18C224.782 542.18 223.075 544.222 221.459 545.135L224.526 541.871Z" fill="#1D2538"/>
<path d="M222.017 546.6L222.661 547.559C222.661 547.559 225.038 545.884 225.965 543.559C225.965 543.559 223.639 546.377 222.017 546.6Z" fill="#1D2538"/>
<path d="M224.329 550.068L223.37 548.603C223.37 548.603 226.063 547.434 227.436 545.273L229.498 547.703C229.498 547.71 227.672 548.373 224.329 550.068Z" fill="#1D2538"/>
<path d="M225.498 551.907L225.991 552.721C225.991 552.721 228.657 551.913 230.076 549.385C230.076 549.391 226.299 552.189 225.498 551.907Z" fill="#1D2538"/>
<path d="M239.396 549.529C239.186 549.601 239.055 549.779 238.877 549.91L223.521 561.989C223.311 562.134 222.844 562.029 221.616 561.825C220.789 561.687 219.987 561.234 220.25 560.406C220.598 559.323 220.782 557.923 221.163 557.7L236.224 546.422C236.46 546.252 237.59 546.094 238.056 546.028C238.582 545.956 238.897 545.66 239.534 545.779C240.007 545.864 240.289 546.35 240.257 546.935L239.396 549.529Z" fill="#C94039"/>
<path d="M238.943 548.794C238.865 549.004 238.727 549.194 238.543 549.332L222.608 561.273C222.562 561.306 220.552 561.28 220.263 560.774C219.974 560.268 220.868 557.877 220.868 557.877C220.868 557.877 236.874 545.49 237.177 545.523C237.728 545.588 238.431 545.503 239.101 545.621C239.6 545.713 239.889 546.219 239.719 546.692L238.943 548.794Z" fill="#F5894E"/>
<path d="M238.943 548.794C238.864 549.004 238.727 549.194 238.543 549.332L234.838 549.227L220.868 557.871C220.868 557.871 236.874 545.483 237.176 545.516C237.86 545.49 238.431 545.496 239.101 545.615C239.6 545.707 239.889 546.212 239.718 546.685L238.943 548.794Z" fill="#FEED7F"/>
<path opacity="0.5" d="M254.641 579.592L251.508 575.487L240.67 573.812L243.659 577.891L254.641 579.592Z" fill="#FEED7F"/>
<path opacity="0.5" d="M250.536 574.331L249.269 572.807L238.431 571.132L239.554 572.63L250.536 574.331Z" fill="#FEED7F"/>
<path d="M236.631 551.027L235.652 550.889C235.317 550.836 235.252 550.856 235.193 551.198L234.969 552.268L236.631 551.027Z" fill="#C94039"/>
<path d="M272.585 601.47C272.585 601.47 236.243 555.446 235.744 554.731C235.245 554.015 234.72 553.338 234.72 553.338C234.378 553.062 234.03 553.226 232.782 554.264L227.639 558.29L264.106 608.084C264.283 608.333 271.639 610.284 271.639 610.284C271.817 610.212 272.152 610.35 272.322 609.634L272.966 602.461C272.946 601.949 272.736 601.667 272.585 601.47Z" fill="#F7BC4B"/>
<path d="M272.585 601.47C272.585 601.47 236.256 555.388 235.757 554.672C235.252 553.956 234.483 553.004 234.483 553.004C234.483 553.004 234.437 552.971 233.78 553.496L271.817 602.554C271.817 602.554 272.152 610.351 272.322 609.635L272.966 602.462C272.946 601.95 272.736 601.667 272.585 601.47Z" fill="#F5894E"/>
<path d="M255.002 579.474L256.519 581.24C256.657 581.352 256.427 581.575 256.106 581.641L253.918 582.088C253.721 582.127 253.59 582.061 253.623 581.943L254.523 579.526C254.575 579.336 254.858 579.362 255.002 579.474Z" fill="#F5894E"/>
<path d="M255.758 596.643L257.597 596.886L257.15 598.528L255.758 596.643Z" fill="#F5894E"/>
<path d="M258.982 599.066L261.485 598.935L260.046 600.682L258.982 599.066Z" fill="#F5894E"/>
<path d="M272.001 610.088L230.877 555.795" stroke="#F3E7D9" stroke-miterlimit="10"/>
<path d="M249.472 587.946L250.608 587.092L252.473 588.084L252.487 590.016L256.401 591.106L257.905 591.546" stroke="#F3E7D9" stroke-miterlimit="10"/>
<path d="M210.273 505.772C210.273 505.772 214.569 516.15 215.462 519.552C215.843 520.991 216.441 523.743 215.442 524.721C214.083 526.055 210.799 525.148 209.557 522.777C207.409 518.659 202.306 509.175 203.022 506.672C203.744 504.157 208.395 501.477 210.273 505.772Z" fill="#F5894E"/>
<path d="M207.318 508.005C207.318 508.005 211.075 516.058 212.552 519.683C213.341 521.614 211.705 526.889 209.557 522.77C207.41 518.652 202.306 509.168 203.022 506.665C203.744 504.156 205.439 503.71 207.318 508.005Z" fill="#CC6D3D"/>
<path d="M220.743 539.953C220.743 539.953 224.165 540.492 221.19 534.403C218.897 529.713 217.722 525.457 216.244 521.562C214.845 517.877 209.892 520.491 210.07 523.171C210.247 525.858 212.362 528.59 214.569 532.61C217.61 538.166 218.595 540.13 220.743 539.953Z" fill="#F5894E"/>
<path d="M220.743 539.953C220.743 539.953 223.653 541.004 220.677 534.922C218.385 530.232 215.153 523.808 212.96 520.222C210.411 516.058 208.664 518.475 208.841 521.161C209.019 523.848 212.362 528.596 214.569 532.616C217.61 538.166 218.595 540.13 220.743 539.953Z" fill="#CC6D3D"/>
<path d="M218.149 537.628C218.149 537.628 218.805 535.723 221.282 536.399C223.042 536.879 222.93 536.925 224.684 538.705C225.019 539.046 225.801 540.36 226.208 541.122C226.615 541.884 222.904 542.291 222.72 542.462C222.365 542.797 222.7 545.457 222.7 545.457L223.239 547.27C223.239 547.27 223.686 548.609 223.863 549.148C224.04 549.687 223.213 549.687 222.865 549.43C222.517 549.174 221.558 547.874 221.558 547.874C220.986 548.123 220.822 548.347 219.475 545.962C219.068 545.247 218.405 543.946 218.405 543.946C218.405 543.946 217.61 539.775 218.149 537.628Z" fill="#CC6D3D"/>
<path d="M202.491 493.425C202.491 493.425 204.908 493.07 207.055 497.359C209.203 501.655 210.727 506.489 210.727 506.489L203.476 509.707C203.476 509.707 201.775 508.899 199.896 500.577C198.241 493.247 202.491 493.425 202.491 493.425Z" fill="#C94039"/>
<path d="M203.83 493.687C203.83 493.687 203.495 499.953 203.895 500.892C204.296 501.831 207.455 507.874 207.455 507.874L203.475 509.707C203.475 509.707 201.774 508.899 199.895 500.577C199.068 496.912 199.541 494.311 201.058 493.595C202.358 492.991 203.83 493.687 203.83 493.687Z" fill="#992C29"/>
<path d="M204.684 499.217C204.684 499.217 204.086 502.935 205.36 504.892L206.378 505.91C206.378 505.904 204.539 499.94 204.684 499.217Z" fill="#992C29"/>
<path d="M197.564 491.808C194.759 491.808 179.58 492.971 176.894 497.266C172.5 504.294 169.288 512.301 165.531 515.257C161.774 518.212 144.322 524.918 137.61 524.117C130.897 523.316 127.14 521.969 122.575 527.874C118.01 533.779 108.348 545.056 106.47 545.858C106.47 545.858 118.733 548.183 122.22 546.574C125.708 544.964 131.35 545.319 139.941 548.544C148.532 551.762 151.488 549.352 151.488 549.352C151.488 549.352 159.002 544.518 164.644 538.344C170.28 532.17 181.826 531.992 187.015 528.143C192.204 524.294 195.035 522.298 197.846 514.633C199.521 510.055 202.759 501.989 203.127 499.506C203.646 496.018 203.409 493.26 202.772 492.885C201.459 492.124 199.711 491.808 197.564 491.808Z" fill="#1689CB"/>
<path d="M197.636 495.644C197.636 495.644 190.28 502.015 182.418 504.288C179.344 505.181 176.316 505.089 173.636 501.523C170.963 497.956 172.46 494.245 174.516 490.619C176.572 486.994 181.294 487.808 188.145 487.401C194.996 486.994 201.065 488.793 197.636 495.644Z" fill="#29ABE2"/>
<path d="M195.777 488.229C197.525 489.568 178.661 497.647 177.117 496.242C175.58 494.836 175.902 491.276 177.8 488.905C179.166 487.197 181.137 487.598 186.858 487.394C191.994 487.217 194.03 486.889 195.777 488.229Z" fill="#992C29"/>
</svg>
