<svg width="119" height="119" viewBox="0 0 119 119" fill="none" xmlns="http://www.w3.org/2000/svg">
<path d="M71.5445 115.515C72.9591 115.515 74.0454 114.262 73.8455 112.862L62.9512 36.6025C62.7058 34.8849 61.235 33.6091 59.5 33.6091C57.7649 33.6091 56.2942 34.8849 56.0487 36.6025L45.1544 112.862C44.9543 114.262 46.0409 115.515 47.4552 115.515H71.5445Z" fill="#F5894E"/>
<path d="M73.8453 112.862L62.951 36.6025C62.7056 34.8851 61.235 33.6094 59.5002 33.6091V115.515H71.5443C72.9588 115.515 74.0452 114.262 73.8453 112.862Z" fill="#CC6D3D"/>
<path d="M96.0191 1.56629C95.3656 0.566412 94.219 0 93.0246 0H76.304C69.0722 0 62.9999 3.77569 59.5003 8.91919C55.9777 3.74153 49.875 0 42.6958 0H25.9751C24.7807 0 23.6339 0.566412 22.9803 1.56629C22.0555 2.98058 22.2754 4.80067 23.4264 5.95163L57.0346 39.5598C58.3961 40.9214 60.6034 40.9214 61.9649 39.5598L95.5731 5.95163C96.7241 4.80067 96.944 2.98058 96.0191 1.56629Z" fill="#C8FF50"/>
<path d="M95.5733 5.95139C96.7242 4.80044 96.9439 2.98035 96.0193 1.56606C95.3655 0.566412 94.219 0 93.0245 0H76.3039C69.0721 0 62.9998 3.77569 59.5002 8.91919V40.5809C60.3923 40.5809 61.2843 40.2404 61.9651 39.5598L95.5733 5.95139Z" fill="#87E752"/>
<path d="M85.6397 119H33.3601C31.4347 119 29.8738 117.439 29.8738 115.514C29.8738 113.588 31.4347 112.027 33.3601 112.027H85.6397C87.565 112.027 89.126 113.588 89.126 115.514C89.126 117.439 87.565 119 85.6397 119Z" fill="#C8FF50"/>
<path d="M117.981 34.6317C117.981 34.6317 114.395 31.0383 109.779 26.4219C97.4444 14.1177 77.567 14.1196 65.2315 26.4249C62.9749 28.6815 60.9653 30.6926 59.4999 32.1599C58.034 30.6922 56.0238 28.6801 53.7654 26.4219C41.431 14.1177 21.5533 14.1196 9.21777 26.4251C4.60443 31.0383 1.01839 34.632 1.01839 34.632C0.022694 35.6295 -0.274109 37.1286 0.26604 38.4304C0.806188 39.7322 2.07684 40.5808 3.48625 40.5808H115.514C116.923 40.5808 118.194 39.7322 118.734 38.4304C119.274 37.1284 118.977 35.6295 117.981 34.6317Z" fill="#87E752"/>
<path d="M118.734 38.4297C119.274 37.1277 118.977 35.6288 117.982 34.6312C117.982 34.6312 114.396 31.0378 109.779 26.4214C97.4448 14.1172 77.5674 14.1191 65.2318 26.4244C62.9754 28.6808 60.9662 30.6917 59.5007 32.159V40.5801H115.514C116.923 40.5801 118.194 39.7315 118.734 38.4297Z" fill="#4EC95F"/>
<path d="M89.1259 115.514C89.1259 113.588 87.5649 112.027 85.6396 112.027H59.5002V119H85.6396C87.5649 119 89.1259 117.439 89.1259 115.514Z" fill="#87E752"/>
<path d="M76.3039 33.6091H42.6957C31.6436 33.6091 22.4053 42.5569 22.4053 53.8996V70.7037C22.4053 72.1138 23.2548 73.3851 24.5575 73.9246C24.9889 74.1033 25.4419 74.19 25.8909 74.19C26.7983 74.19 27.6901 73.8358 28.3569 73.1687L59.4998 42.0258L90.6429 73.1689C91.31 73.836 92.2016 74.1902 93.1089 74.1902C93.558 74.1902 94.011 74.1033 94.4423 73.9248C95.7451 73.3851 96.5946 72.1138 96.5946 70.7039V53.8998C96.5943 42.566 87.3653 33.6091 76.3039 33.6091Z" fill="#4EC95F"/>
<path d="M93.1092 74.1893C93.5582 74.1893 94.0112 74.1023 94.4426 73.9238C95.7453 73.3841 96.5948 72.1128 96.5948 70.7029V53.8988C96.5948 42.5652 87.3658 33.6084 76.3044 33.6084H59.5007V42.0256L90.6434 73.1682C91.31 73.8351 92.2016 74.1893 93.1092 74.1893Z" fill="#14AA6B"/>
</svg>
