<svg width="111" height="119" viewBox="0 0 111 119" fill="none" xmlns="http://www.w3.org/2000/svg">
<path d="M102.449 41.3246L92.9661 27.1004C92.1294 25.8453 90.5259 25.2175 89.0614 25.7059C87.597 26.1242 86.5513 27.5187 86.5513 29.053C86.5513 35.8859 85.5052 42.7191 83.5531 49.3432C81.8796 44.532 78.6722 40.2787 74.2792 37.4197C66.5395 32.2599 64.448 22.1728 69.6077 14.4334L75.674 5.36895C76.371 4.32281 76.4409 2.92828 75.8132 1.81289C75.2556 0.697033 74.07 0 72.7452 0C66.61 0 60.8224 1.18512 55.4535 3.34664C39.068 9.90094 27.2142 25.0783 26.0988 43.5556C24.983 40.5574 24.3557 37.35 24.3557 34.0728V20.4066C24.3557 18.8729 23.3095 17.4784 21.8453 17.06C20.3813 16.5719 18.7773 17.1997 17.9406 18.4545L13.2691 25.4969C4.62305 38.4661 0.0908203 53.5268 0.0908203 69.076C0.0903555 96.6175 22.4728 119 50.0148 119H60.8922C88.4337 119 110.909 96.6175 110.909 69.076C110.909 59.1744 107.958 49.5521 102.449 41.3246Z" fill="#FE9923"/>
<path d="M58.4516 61.8943C57.8243 60.7092 56.6387 60.1511 55.4533 60.1511C54.2682 60.1511 53.1521 60.7092 52.4551 61.8943C38.0217 86.9264 34.6748 90.1335 34.6748 98.2221C34.6748 109.657 44.0179 119 55.4531 119C66.8882 119 76.2314 109.657 76.2314 98.2221C76.2316 89.3666 70.3051 82.4636 58.4516 61.8943Z" fill="#FEDB41"/>
<path d="M110.909 69.076C110.909 96.6175 88.4336 119 60.892 119H55.4531V3.34664C60.8223 1.18512 66.6096 0 72.7451 0C74.0699 0 75.2555 0.697033 75.8131 1.81289C76.4408 2.92828 76.3711 4.32305 75.6738 5.36895L69.6076 14.4334C64.4479 22.173 66.5397 32.2602 74.2791 37.4197C78.6718 40.2787 81.8795 44.532 83.5529 49.3432C85.505 42.7191 86.5512 35.8859 86.5512 29.053C86.5512 27.5187 87.5968 26.1242 89.0613 25.7059C90.5258 25.2178 92.1293 25.8455 92.966 27.1004L102.449 41.3246C107.957 49.5521 110.909 59.1744 110.909 69.076Z" fill="#FE8821"/>
<path d="M76.2314 98.2221C76.2314 109.657 66.8883 119 55.4531 119V60.1511C56.6382 60.1511 57.8241 60.7092 58.4514 61.8943C70.3049 82.4636 76.2314 89.3666 76.2314 98.2221Z" fill="#FCBF29"/>
</svg>
