<svg width="120" height="119" viewBox="0 0 120 119" fill="none" xmlns="http://www.w3.org/2000/svg">
<path d="M86.9867 64.126C85.6479 63.526 84.091 63.7591 82.9903 64.7408L62.3685 83.1015C61.4364 83.9296 60.9802 85.1691 61.1587 86.4087L64.4808 109.599C64.6791 110.992 65.7353 112.068 67.0691 112.514L68.1698 112.688C69.1962 112.688 70.2325 112.261 70.9613 111.528C82.7076 99.7764 89.1783 84.1527 89.1783 67.5224C89.1832 66.0548 88.3254 64.7259 86.9867 64.126Z" fill="#992C29"/>
<path d="M51.4846 29.8198C34.8544 29.8198 19.2257 36.2904 7.47939 48.0367L7.30585 48.2053C6.30922 49.2019 5.96214 50.6746 6.40839 52.0084C6.85464 53.3471 8.01489 54.314 9.40818 54.5123L32.5983 57.8344L33.1239 57.8741C34.1751 57.8741 35.1915 57.4278 35.9006 56.6295L54.2613 36.0078C55.2381 34.912 55.4761 33.3502 54.8761 32.0114C54.2762 30.6776 52.9473 29.8198 51.4846 29.8198Z" fill="#2196F3"/>
<path d="M58.8978 94.9575C57.9458 94.9575 56.9938 94.5906 56.2699 93.8666L25.1365 62.7333C23.7432 61.34 23.6787 59.0988 24.9927 57.6262L48.3266 31.4908C64.8527 12.1483 91.6823 -0.485489 115.358 0.0202614C117.342 0.0648864 118.943 1.66643 118.988 3.64976C119.533 27.1919 106.865 54.1504 87.4578 70.731L61.3819 94.0104C60.6679 94.6451 59.7853 94.9575 58.8978 94.9575Z" fill="#F6BE4A"/>
<path d="M84.9533 46.4397C81.775 46.4397 78.6017 45.2299 76.187 42.8152C71.3576 37.9808 71.3576 30.1169 76.187 25.2825C81.0214 20.4481 88.8853 20.4481 93.7197 25.2825C98.5491 30.1169 98.5491 37.9808 93.7197 42.8152C91.3 45.2349 88.1267 46.4397 84.9533 46.4397Z" fill="#D09435"/>
<path d="M3.72125 119C2.74941 119 1.79741 118.619 1.09333 117.91C0.126455 116.943 -0.230545 115.525 0.161163 114.211C1.40571 110.041 7.89617 88.9776 12.9636 83.9152C18.8789 78.0048 29.1823 78.0048 35.0877 83.9152C38.0428 86.8753 39.6692 90.7973 39.6692 94.9822C39.6692 99.162 38.0428 103.089 35.0877 106.044C30.0252 111.107 8.95725 117.597 4.79225 118.847L3.72125 119Z" fill="#FE8821"/>
<path d="M49.769 29.8396C33.7834 30.271 18.8241 36.692 7.47443 48.0367L7.30585 48.2053C6.30922 49.2019 5.96214 50.6745 6.40839 52.0083C6.85464 53.3471 8.01489 54.3139 9.40818 54.5123L25.6864 56.8477L48.3262 31.4858C48.7972 30.9354 49.2782 30.385 49.769 29.8396Z" fill="#C94039"/>
<path d="M113.975 0C91.3253 0 66.0576 11.7959 49.7695 29.8393C49.2786 30.3847 48.7977 30.9301 48.3216 31.4854L25.6868 56.8473L24.9927 57.6258C23.6787 59.0984 23.7432 61.3395 25.1365 62.7328L40.7056 78.302L76.1875 42.8202C71.3581 37.9858 71.3581 30.1219 76.1875 25.2875C78.6022 22.8728 81.7805 21.663 84.9538 21.663C88.1272 21.663 91.3055 22.8728 93.7202 25.2875L117.902 1.10571C117.247 0.451208 116.35 0.0396667 115.358 0.014875C114.897 0.00495833 114.436 0 113.975 0V0Z" fill="#FEED7F"/>
<path d="M84.9533 21.6626C81.78 21.6626 78.6017 22.8724 76.187 25.2871C71.3576 30.1215 71.3576 37.9854 76.187 42.8198L93.7147 25.2871C91.3 22.8675 88.1267 21.6626 84.9533 21.6626Z" fill="#F6BE4A"/>
<path d="M24.0257 79.4824C19.9698 79.4824 15.9188 80.96 12.9587 83.9152C7.89624 88.9776 1.40578 110.046 0.15628 114.211C-0.235428 115.52 0.121572 116.943 1.08845 117.91L35.0828 83.9152C32.1326 80.96 28.0816 79.4824 24.0257 79.4824Z" fill="#FE9923"/>
</svg>
